<svg width="211" height="157" viewBox="0 0 211 157" fill="none" xmlns="http://www.w3.org/2000/svg">
<path d="M210.622 137.915H0V138.02H210.622V137.915Z" fill="#EBEBEB"/>
<path d="M33.0507 141.925H22.0984V142.03H33.0507V141.925Z" fill="#EBEBEB"/>
<path d="M84.4297 140.783H61.6405V140.889H84.4297V140.783Z" fill="#EBEBEB"/>
<path d="M44.5591 145.839H33.472V145.944H44.5591V145.839Z" fill="#EBEBEB"/>
<path d="M189.517 145.131H181.417V145.236H189.517V145.131Z" fill="#EBEBEB"/>
<path d="M177.663 145.131H164.904V145.236H177.663V145.131Z" fill="#EBEBEB"/>
<path d="M131.761 143.354H108.778V143.459H131.761V143.354Z" fill="#EBEBEB"/>
<path d="M99.8346 119.128H18.4968C17.8596 119.126 17.2489 118.873 16.7987 118.422C16.3485 117.971 16.0957 117.359 16.0957 116.722V2.38424C16.1013 1.7507 16.3565 1.14493 16.8061 0.698513C17.2557 0.252096 17.8632 0.00108529 18.4968 0H99.8346C100.473 0 101.084 0.253415 101.535 0.704495C101.987 1.15558 102.24 1.76737 102.24 2.4053V116.722C102.24 117.36 101.987 117.972 101.535 118.423C101.084 118.874 100.473 119.128 99.8346 119.128ZM18.4968 0.0842489C17.8875 0.0853648 17.3036 0.328176 16.8732 0.759386C16.4428 1.1906 16.201 1.77497 16.201 2.38424V116.722C16.201 117.331 16.4428 117.916 16.8732 118.347C17.3036 118.778 17.8875 119.021 18.4968 119.022H99.8346C100.444 119.021 101.029 118.778 101.46 118.347C101.891 117.916 102.133 117.332 102.135 116.722V2.38424C102.133 1.77458 101.891 1.19022 101.46 0.759129C101.029 0.328039 100.444 0.0853624 99.8346 0.0842489H18.4968Z" fill="#EBEBEB"/>
<path d="M190.954 119.128H109.612C108.974 119.126 108.363 118.873 107.912 118.422C107.461 117.971 107.208 117.36 107.206 116.722V2.38424C107.213 1.75031 107.469 1.14455 107.92 0.698249C108.37 0.251949 108.978 0.00107345 109.612 0H190.954C191.587 0.00219236 192.193 0.253693 192.642 0.699991C193.09 1.14629 193.345 1.75142 193.351 2.38424V116.722C193.351 117.359 193.098 117.969 192.649 118.42C192.2 118.871 191.59 119.125 190.954 119.128ZM109.612 0.0842489C109.002 0.0853624 108.418 0.328039 107.987 0.759129C107.555 1.19022 107.313 1.77458 107.312 2.38424V116.722C107.313 117.332 107.555 117.916 107.987 118.347C108.418 118.778 109.002 119.021 109.612 119.022H190.954C191.563 119.021 192.148 118.778 192.579 118.347C193.01 117.916 193.253 117.332 193.254 116.722V2.38424C193.253 1.77458 193.01 1.19022 192.579 0.759129C192.148 0.328039 191.563 0.0853624 190.954 0.0842489H109.612Z" fill="#EBEBEB"/>
<path d="M79.5475 95.1719C79.3411 95.1719 79.1263 95.1719 78.9283 95.1971C74.5558 95.5468 71.0173 99.7129 70.7393 104.839C70.6772 105.971 70.7736 107.105 71.0258 108.209C71.9912 112.636 72.4547 117.158 72.4074 121.689V134.92C72.4074 135.881 73.073 136.66 73.8902 136.66H131.23V95.1719H79.5475Z" fill="#F0F0F0"/>
<path d="M140.055 105.517C140.055 99.5608 135.762 94.7839 130.611 95.1968C126.238 95.5464 122.7 99.7125 122.422 104.839C122.358 105.97 122.453 107.104 122.704 108.209C123.671 112.636 124.136 117.158 124.09 121.689V134.92C124.09 135.88 124.751 136.66 125.573 136.66H136.904C137.721 136.66 138.387 135.88 138.387 134.92V120.897C138.352 116.646 138.81 112.405 139.752 108.26C139.959 107.36 140.061 106.44 140.055 105.517Z" fill="#FAFAFA"/>
<path d="M119.069 113.196H60.1114V136.655H119.069V113.196Z" fill="#F5F5F5"/>
<path d="M40.7595 85.0908H102.783C103.733 85.0908 104.674 85.2779 105.551 85.6414C106.429 86.0049 107.226 86.5376 107.898 87.2092C108.569 87.8809 109.102 88.6782 109.465 89.5557C109.829 90.4332 110.016 91.3738 110.016 92.3236V117.177H33.5267V92.3236C33.5267 91.3738 33.7138 90.4332 34.0773 89.5557C34.4408 88.6782 34.9735 87.8809 35.6452 87.2092C36.3168 86.5376 37.1141 86.0049 37.9916 85.6414C38.8691 85.2779 39.8097 85.0908 40.7595 85.0908Z" fill="#E6E6E6"/>
<path d="M46.0208 85.0908H104.649C106.541 85.0908 108.355 85.8422 109.692 87.1796C111.03 88.5171 111.781 90.331 111.781 92.2225V117.168H38.906V92.2183C38.9071 90.3305 39.6567 88.5201 40.9903 87.1841C42.324 85.848 44.133 85.0953 46.0208 85.0908Z" fill="#F5F5F5"/>
<path d="M62.0997 112.354H119.043C119.454 112.354 119.849 112.517 120.139 112.808C120.43 113.098 120.593 113.493 120.593 113.904V116.402C120.592 116.812 120.429 117.205 120.138 117.495C119.847 117.785 119.454 117.948 119.043 117.948H62.0997C61.9768 117.948 61.8589 117.899 61.772 117.812C61.6851 117.725 61.6363 117.607 61.6363 117.484V112.817C61.6363 112.694 61.6851 112.576 61.772 112.489C61.8589 112.402 61.9768 112.354 62.0997 112.354Z" fill="#EBEBEB"/>
<path d="M29.9083 136.655H131.672V136.752C131.672 137.061 131.55 137.356 131.332 137.574C131.114 137.792 130.818 137.915 130.51 137.915H31.0751C30.9221 137.915 30.7704 137.886 30.6289 137.827C30.4874 137.769 30.3587 137.684 30.2503 137.576C30.1419 137.468 30.0559 137.339 29.9972 137.198C29.9385 137.057 29.9083 136.905 29.9083 136.752V136.655Z" fill="#E6E6E6"/>
<path d="M30.3548 95.1719C30.147 95.1719 29.9406 95.1803 29.7356 95.1971C25.3631 95.5468 21.8246 99.7129 21.5466 104.839C21.4845 105.971 21.5809 107.105 21.833 108.209C22.7985 112.636 23.262 117.158 23.2147 121.689V134.92C23.2147 135.881 23.8803 136.66 24.6975 136.66H60.5326V95.1719H30.3548Z" fill="#F0F0F0"/>
<path d="M69.3577 105.517C69.3577 99.5608 65.0694 94.7839 59.9134 95.1968C55.5409 95.5464 52.0025 99.7125 51.7245 104.839C51.661 105.97 51.756 107.104 52.0067 108.209C52.9756 112.636 53.4406 117.158 53.3926 121.689V134.92C53.3926 135.88 54.0539 136.66 54.8754 136.66H66.1899C67.0072 136.66 67.6727 135.88 67.6727 134.92V120.897C67.6383 116.646 68.0963 112.405 69.0375 108.26C69.2505 107.361 69.358 106.441 69.3577 105.517Z" fill="#FAFAFA"/>
<path d="M26.0665 57.8115L185.469 57.8115V9.62553L26.0665 9.62553V57.8115Z" fill="#EBEBEB"/>
<path d="M30.279 54.1133L181.252 54.1133V13.3285L30.279 13.3285V54.1133Z" fill="#FAFAFA"/>
<path d="M116.701 54.1129H128.74L117.4 13.3281H105.361L116.701 54.1129Z" fill="white"/>
<path d="M131.095 54.1129H143.138L131.799 13.3281H119.755L131.095 54.1129Z" fill="white"/>
<path d="M92.0711 54.1129H98.0949L86.755 13.3281H80.7354L92.0711 54.1129Z" fill="white"/>
<path d="M102.931 54.1133H108.605V13.3285H102.931V54.1133Z" fill="#EBEBEB"/>
<path d="M102.927 13.3281H101.663V54.1129H102.927V13.3281Z" fill="#E0E0E0"/>
<path d="M26.0665 9.62988H25.1566V57.8159H26.0665V9.62988Z" fill="#E0E0E0"/>
<path d="M183.864 135.568C184.89 135.565 185.873 135.156 186.598 134.431C187.323 133.705 187.732 132.723 187.735 131.697V93.8146C187.732 92.7889 187.323 91.8062 186.598 91.0809C185.873 90.3556 184.89 89.9467 183.864 89.9434C182.839 89.9467 181.857 90.3558 181.132 91.0812C180.407 91.8066 179.999 92.7893 179.997 93.8146V131.697C179.999 132.722 180.407 133.705 181.132 134.43C181.857 135.156 182.839 135.565 183.864 135.568Z" fill="#F5F5F5"/>
<path d="M181.648 134.044C182.342 134.043 183.007 133.767 183.497 133.276C183.987 132.786 184.263 132.121 184.264 131.428V94.0847C184.263 93.3912 183.987 92.7265 183.497 92.2362C183.007 91.7458 182.342 91.4699 181.648 91.4688C180.956 91.471 180.292 91.7474 179.803 92.2376C179.313 92.7279 179.038 93.392 179.037 94.0847V131.428C179.038 132.121 179.313 132.785 179.803 133.275C180.292 133.765 180.956 134.042 181.648 134.044Z" fill="#EBEBEB"/>
<path d="M178.245 135.568C179.27 135.565 180.252 135.156 180.977 134.43C181.702 133.705 182.11 132.722 182.112 131.697V93.8146C182.11 92.7893 181.702 91.8066 180.977 91.0812C180.252 90.3558 179.27 89.9467 178.245 89.9434C177.219 89.9467 176.236 90.3556 175.511 91.0809C174.786 91.8062 174.377 92.7889 174.374 93.8146V131.697C174.377 132.723 174.786 133.705 175.511 134.431C176.236 135.156 177.219 135.565 178.245 135.568Z" fill="#F5F5F5"/>
<path d="M176.029 134.044C176.722 134.042 177.386 133.765 177.876 133.275C178.366 132.785 178.643 132.121 178.645 131.428V94.0847C178.643 93.3916 178.366 92.7275 177.876 92.2374C177.386 91.7473 176.722 91.471 176.029 91.4688C175.336 91.471 174.672 91.7473 174.182 92.2374C173.692 92.7275 173.415 93.3916 173.413 94.0847V131.428C173.415 132.121 173.692 132.785 174.182 133.275C174.672 133.765 175.336 134.042 176.029 134.044Z" fill="#EBEBEB"/>
<path d="M172.625 135.568C173.651 135.565 174.633 135.156 175.358 134.43C176.082 133.705 176.49 132.722 176.492 131.697V93.8146C176.49 92.7893 176.082 91.8066 175.358 91.0812C174.633 90.3558 173.651 89.9467 172.625 89.9434C171.6 89.9467 170.617 90.3556 169.892 91.0809C169.166 91.8062 168.758 92.7889 168.754 93.8146V131.697C168.758 132.723 169.166 133.705 169.892 134.431C170.617 135.156 171.6 135.565 172.625 135.568Z" fill="#F5F5F5"/>
<path d="M170.41 134.044C171.102 134.042 171.766 133.765 172.255 133.275C172.745 132.785 173.02 132.121 173.021 131.428V94.0847C173.02 93.392 172.745 92.7279 172.255 92.2376C171.766 91.7474 171.102 91.471 170.41 91.4688C169.716 91.4699 169.051 91.7458 168.561 92.2362C168.071 92.7265 167.795 93.3912 167.794 94.0847V131.428C167.795 132.121 168.071 132.786 168.561 133.276C169.051 133.767 169.716 134.043 170.41 134.044Z" fill="#EBEBEB"/>
<path d="M163.135 131.697C163.135 133.835 164.867 135.568 167.004 135.568C169.141 135.568 170.873 133.835 170.873 131.697V93.819C170.873 91.6809 169.141 89.9477 167.004 89.9477C164.867 89.9477 163.135 91.6809 163.135 93.819V131.697Z" fill="#F5F5F5"/>
<path d="M164.786 134.044C165.48 134.043 166.144 133.767 166.635 133.276C167.125 132.786 167.401 132.121 167.402 131.428V94.0847C167.401 93.3912 167.125 92.7265 166.635 92.2362C166.144 91.7458 165.48 91.4699 164.786 91.4688C164.093 91.471 163.43 91.7474 162.94 92.2376C162.451 92.7279 162.175 93.392 162.174 94.0847V131.428C162.175 132.121 162.451 132.785 162.94 133.275C163.43 133.765 164.093 134.042 164.786 134.044Z" fill="#EBEBEB"/>
<path d="M161.382 135.568C162.408 135.565 163.391 135.156 164.116 134.431C164.841 133.705 165.25 132.723 165.254 131.697V93.8146C165.25 92.7889 164.841 91.8062 164.116 91.0809C163.391 90.3556 162.408 89.9467 161.382 89.9434C160.357 89.9467 159.374 90.3556 158.649 91.0809C157.923 91.8062 157.515 92.7889 157.511 93.8146V131.697C157.515 132.723 157.923 133.705 158.649 134.431C159.374 135.156 160.357 135.565 161.382 135.568Z" fill="#F5F5F5"/>
<path d="M159.167 134.044C159.86 134.043 160.525 133.767 161.015 133.276C161.506 132.786 161.781 132.121 161.783 131.428V94.0847C161.781 93.3912 161.506 92.7265 161.015 92.2362C160.525 91.7458 159.86 91.4699 159.167 91.4688C158.474 91.471 157.809 91.7473 157.319 92.2374C156.829 92.7275 156.553 93.3916 156.551 94.0847V131.428C156.553 132.121 156.829 132.785 157.319 133.275C157.809 133.765 158.474 134.042 159.167 134.044Z" fill="#EBEBEB"/>
<path d="M155.763 135.568C156.788 135.565 157.771 135.156 158.495 134.43C159.22 133.705 159.628 132.722 159.63 131.697V93.8146C159.628 92.7893 159.22 91.8066 158.495 91.0812C157.771 90.3558 156.788 89.9467 155.763 89.9434C154.737 89.9467 153.755 90.3556 153.029 91.0809C152.304 91.8062 151.895 92.7889 151.892 93.8146V131.697C151.895 132.723 152.304 133.705 153.029 134.431C153.755 135.156 154.737 135.565 155.763 135.568Z" fill="#F5F5F5"/>
<path d="M153.547 134.044C154.24 134.042 154.904 133.765 155.395 133.275C155.885 132.785 156.161 132.121 156.163 131.428V94.0847C156.161 93.3916 155.885 92.7275 155.395 92.2374C154.904 91.7473 154.24 91.471 153.547 91.4688C152.854 91.4699 152.189 91.7458 151.699 92.2362C151.208 92.7265 150.932 93.3912 150.931 94.0847V131.428C150.932 132.121 151.208 132.786 151.699 133.276C152.189 133.767 152.854 134.043 153.547 134.044Z" fill="#EBEBEB"/>
<path d="M150.139 135.568C151.165 135.565 152.148 135.156 152.873 134.431C153.598 133.705 154.007 132.723 154.011 131.697V93.8146C154.007 92.7889 153.598 91.8062 152.873 91.0809C152.148 90.3556 151.165 89.9467 150.139 89.9434C149.114 89.9467 148.132 90.3558 147.407 91.0812C146.683 91.8066 146.275 92.7893 146.272 93.8146V131.697C146.275 132.722 146.683 133.705 147.407 134.43C148.132 135.156 149.114 135.565 150.139 135.568Z" fill="#F5F5F5"/>
<path d="M145.396 130.496H156.745C156.968 130.496 157.182 130.408 157.34 130.25C157.498 130.092 157.587 129.877 157.587 129.654C157.587 129.431 157.498 129.216 157.34 129.058C157.182 128.9 156.968 128.812 156.745 128.812H145.396C145.173 128.812 144.959 128.9 144.801 129.058C144.643 129.216 144.554 129.431 144.554 129.654C144.554 129.877 144.643 130.092 144.801 130.25C144.959 130.408 145.173 130.496 145.396 130.496Z" fill="#F5F5F5"/>
<path d="M145.396 97.851H156.745C156.968 97.851 157.182 97.7622 157.34 97.6042C157.498 97.4462 157.587 97.2319 157.587 97.0085C157.587 96.7851 157.498 96.5708 157.34 96.4128C157.182 96.2548 156.968 96.166 156.745 96.166H145.396C145.173 96.166 144.959 96.2548 144.801 96.4128C144.643 96.5708 144.554 96.7851 144.554 97.0085C144.554 97.2319 144.643 97.4462 144.801 97.6042C144.959 97.7622 145.173 97.851 145.396 97.851Z" fill="#F5F5F5"/>
<path d="M105.311 156.938C150.419 156.938 186.986 154.803 186.986 152.17C186.986 149.536 150.419 147.401 105.311 147.401C60.203 147.401 23.636 149.536 23.636 152.17C23.636 154.803 60.203 156.938 105.311 156.938Z" fill="#F5F5F5"/>
<path d="M170.031 128.336H121.79C121.184 128.338 120.584 128.218 120.026 127.982C119.468 127.746 118.963 127.399 118.543 126.962C118.123 126.525 117.797 126.008 117.583 125.441C117.369 124.874 117.273 124.269 117.299 123.664L120.842 32.0857C120.902 30.8356 121.438 29.6557 122.339 28.7873C123.24 27.9189 124.439 27.4277 125.691 27.4141H173.931C174.537 27.4112 175.137 27.5315 175.695 27.7676C176.254 28.0037 176.758 28.3506 177.178 28.7875C177.598 29.2243 177.924 29.742 178.138 30.3089C178.352 30.8759 178.449 31.4803 178.422 32.0857L174.879 123.664C174.819 124.914 174.284 126.094 173.382 126.962C172.481 127.831 171.282 128.322 170.031 128.336Z" fill="#15B79E"/>
<path d="M178.39 62.9816L178.095 70.5498L178.558 70.5678L178.853 62.9996L178.39 62.9816Z" fill="#15B79E"/>
<path d="M178.631 57.0893L178.508 60.2168L178.971 60.2349L179.094 57.1075L178.631 57.0893Z" fill="#15B79E"/>
<path opacity="0.8" d="M170.031 128.336H121.79C121.184 128.338 120.584 128.218 120.026 127.982C119.468 127.746 118.963 127.399 118.543 126.962C118.123 126.525 117.797 126.008 117.583 125.441C117.369 124.874 117.273 124.269 117.299 123.664L120.842 32.0857C120.902 30.8356 121.438 29.6557 122.339 28.7873C123.24 27.9189 124.439 27.4277 125.691 27.4141H173.931C174.537 27.4112 175.137 27.5315 175.695 27.7676C176.254 28.0037 176.758 28.3506 177.178 28.7875C177.598 29.2243 177.924 29.742 178.138 30.3089C178.352 30.8759 178.449 31.4803 178.422 32.0857L174.879 123.664C174.819 124.914 174.284 126.094 173.382 126.962C172.481 127.831 171.282 128.322 170.031 128.336Z" fill="white"/>
<path d="M165.414 126.478H122.868C122.337 126.48 121.811 126.374 121.322 126.167C120.833 125.96 120.391 125.656 120.022 125.273C119.654 124.891 119.368 124.437 119.18 123.94C118.992 123.443 118.907 122.914 118.93 122.383L122.245 36.618C122.298 35.5218 122.769 34.4874 123.559 33.7264C124.35 32.9653 125.402 32.5351 126.499 32.5235H169.045C169.576 32.5207 170.102 32.6259 170.592 32.8327C171.081 33.0394 171.524 33.3435 171.892 33.7264C172.26 34.1093 172.547 34.5631 172.735 35.0601C172.922 35.5572 173.007 36.0872 172.983 36.618L169.668 122.383C169.614 123.479 169.143 124.513 168.352 125.274C167.562 126.034 166.511 126.465 165.414 126.478Z" fill="#15B79E"/>
<path opacity="0.8" d="M146.323 121.621C147.449 120.517 147.501 118.744 146.438 117.661C145.376 116.578 143.602 116.596 142.476 117.7C141.35 118.805 141.299 120.578 142.361 121.661C143.423 122.744 145.197 122.726 146.323 121.621Z" fill="white"/>
<path d="M145.156 100.15C142.909 100.165 140.683 99.7223 138.613 98.8489C136.543 97.9754 134.673 96.6895 133.116 95.0696C131.559 93.4496 130.348 91.5296 129.558 89.4265C128.767 87.3234 128.413 85.0813 128.517 82.837L129.086 68.0724H129.056C128.89 68.0716 128.723 68.0576 128.559 68.0303L127.986 82.837C127.88 85.1497 128.245 87.4599 129.061 89.6267C129.876 91.7936 131.124 93.7718 132.728 95.4409C134.333 97.11 136.26 98.4349 138.393 99.3351C140.526 100.235 142.82 100.692 145.135 100.677C150.042 100.655 154.739 98.6849 158.194 95.2005C158.068 95.0733 157.958 94.9319 157.865 94.7792C156.206 96.4683 154.228 97.8124 152.047 98.7342C149.866 99.656 147.524 100.137 145.156 100.15Z" fill="white"/>
<path d="M147.195 47.3646C138.168 47.3646 130.429 54.1045 128.921 62.8201C129.034 62.8135 129.146 62.8135 129.258 62.8201C129.326 62.8201 129.389 62.8201 129.456 62.8201C130.948 54.3952 138.442 47.8996 147.174 47.8996C149.421 47.8841 151.648 48.3264 153.718 49.1996C155.789 50.0728 157.66 51.3586 159.217 52.9786C160.774 54.5986 161.985 56.5188 162.776 58.6222C163.567 60.7256 163.921 62.968 163.817 65.2127L163.135 82.846C163.024 85.5997 162.273 88.2897 160.94 90.7021C161.107 90.7507 161.268 90.8216 161.416 90.9128C162.781 88.4347 163.55 85.6728 163.661 82.846L164.344 65.2127C164.452 62.8992 164.088 60.5878 163.273 58.4197C162.459 56.2515 161.211 54.272 159.606 52.6019C158.002 50.9318 156.074 49.6061 153.94 48.7057C151.806 47.8052 149.511 47.349 147.195 47.3646Z" fill="white"/>
<path d="M147.056 50.97C149.894 50.9631 152.674 51.778 155.06 53.3164C155.135 53.1531 155.227 52.9979 155.333 52.853C152.866 51.2689 149.993 50.4322 147.06 50.4435C143.742 50.4541 140.507 51.4834 137.793 53.3922C137.886 53.5411 137.964 53.6992 138.025 53.864C140.664 51.9891 143.819 50.9781 147.056 50.97Z" fill="white"/>
<path d="M130.754 84.5308C130.623 83.6286 130.575 82.7163 130.611 81.8054L131.213 66.2194C131.344 63.0065 132.459 59.9113 134.406 57.3522C134.255 57.2762 134.114 57.1829 133.985 57.0742C131.98 59.7147 130.833 62.9067 130.699 66.2194L130.097 81.8054C130.06 82.7586 130.111 83.7133 130.248 84.6572C130.412 84.5986 130.582 84.5563 130.754 84.5308Z" fill="white"/>
<path d="M159.133 56.3496C159.005 56.4796 158.864 56.5954 158.712 56.695C160.8 59.4251 161.861 62.8024 161.711 66.2362L161.109 81.8222C160.916 85.9073 159.167 89.7638 156.221 92.6002C153.275 95.4367 149.355 97.038 145.266 97.0754C142.019 97.0902 138.859 96.028 136.281 94.0551C136.13 94.1722 135.966 94.2712 135.792 94.3499C138.485 96.4712 141.817 97.6175 145.245 97.6019C149.475 97.5636 153.531 95.9072 156.579 92.9727C159.627 90.0383 161.436 86.0485 161.635 81.8222L162.238 66.2362C162.396 62.6784 161.297 59.1784 159.133 56.3496Z" fill="white"/>
<path d="M133.033 72.4157L133.231 67.2681C133.397 63.7348 134.91 60.3992 137.458 57.9459C140.006 55.4925 143.397 54.1074 146.934 54.0747C149.911 54.0528 152.8 55.0868 155.088 56.9933C157.375 58.8997 158.913 61.5551 159.428 64.4879C159.6 64.4573 159.775 64.4418 159.95 64.4415C159.427 61.3779 157.831 58.6001 155.448 56.6046C153.065 54.6091 150.05 53.5258 146.942 53.5482C143.263 53.5808 139.737 55.0207 137.087 57.5722C134.436 60.1238 132.864 63.5932 132.692 67.2681L132.502 72.4536C132.624 72.4386 132.746 72.4301 132.868 72.4283L133.033 72.4157Z" fill="white"/>
<path d="M150.885 92.7827C149.164 93.5589 147.297 93.9623 145.409 93.9664C143.694 93.9826 141.993 93.6487 140.412 92.9852C138.83 92.3217 137.4 91.3426 136.21 90.1077C135.019 88.8728 134.093 87.408 133.489 85.803C132.884 84.198 132.612 82.4865 132.692 80.7731L132.814 77.6727H132.649C132.528 77.6732 132.407 77.6647 132.287 77.6475L132.165 80.7647C132.083 82.5435 132.363 84.3204 132.99 85.9872C133.617 87.654 134.577 89.1756 135.811 90.4594C137.045 91.7431 138.527 92.7621 140.168 93.4541C141.809 94.1461 143.573 94.4967 145.354 94.4845C147.353 94.4823 149.328 94.0514 151.146 93.2208C151.043 93.0854 150.955 92.9384 150.885 92.7827Z" fill="white"/>
<path d="M159.748 69.7154C159.672 69.7154 159.596 69.7154 159.525 69.7154L159.103 80.7856C158.959 84.1501 157.58 87.3433 155.228 89.7539C155.333 89.898 155.422 90.0534 155.493 90.2173C158.003 87.7009 159.478 84.336 159.63 80.7856L160.051 69.7111C159.954 69.7069 159.853 69.7154 159.748 69.7154Z" fill="white"/>
<path d="M151.538 57.6464C150.061 56.9797 148.458 56.6364 146.837 56.6397C143.71 56.6674 140.713 57.8911 138.46 60.0594C136.207 62.2277 134.869 65.1763 134.722 68.2997L134.28 79.7364C134.256 80.4107 134.29 81.0857 134.381 81.7542C134.534 81.6144 134.702 81.4915 134.882 81.3877C134.814 80.8401 134.789 80.288 134.806 79.7364L135.248 68.2997C135.389 65.3175 136.666 62.5023 138.817 60.4319C140.968 58.3615 143.83 57.193 146.816 57.1662C148.349 57.1683 149.864 57.4972 151.26 58.1309C151.337 57.9609 151.43 57.7986 151.538 57.6464Z" fill="white"/>
<path d="M155.59 60.793C155.488 60.9446 155.371 61.0857 155.241 61.2142C156.825 63.2266 157.633 65.741 157.52 68.2995L157.077 79.7363C156.939 82.6324 155.729 85.3736 153.682 87.4273C151.636 89.481 148.898 90.7004 146.003 90.8487C145.948 91.0372 145.873 91.2193 145.78 91.3921C148.856 91.2965 151.784 90.0428 153.976 87.8817C156.169 85.7206 157.464 82.8115 157.604 79.7363L158.046 68.2995C158.167 65.582 157.294 62.9136 155.59 60.793Z" fill="white"/>
<path d="M144.609 60.5027C144.617 60.3182 144.642 60.1349 144.684 59.9551C143.339 60.2469 142.068 60.8134 140.952 61.619C141.115 61.7017 141.265 61.8066 141.399 61.9307C142.369 61.2569 143.458 60.7724 144.609 60.5027Z" fill="white"/>
<path d="M154.647 81.0593C154.054 82.9941 152.861 84.6901 151.24 85.9017C149.62 87.1134 147.656 87.778 145.632 87.7992C144.452 87.8075 143.283 87.575 142.196 87.1162C141.11 86.6573 140.128 85.9816 139.311 85.1304C138.494 84.2792 137.859 83.2703 137.445 82.1655C137.031 81.0606 136.847 79.883 136.904 78.7046L137.266 69.3319C137.311 68.2242 137.557 67.1338 137.991 66.1136C137.84 65.9918 137.707 65.8501 137.595 65.6924C137.085 66.8365 136.799 68.0676 136.752 69.3193L136.39 78.6919C136.333 79.9371 136.53 81.1809 136.969 82.3476C137.408 83.5142 138.08 84.5792 138.944 85.4778C139.807 86.3764 140.845 87.0897 141.994 87.5742C143.142 88.0588 144.377 88.3045 145.624 88.2963C147.767 88.272 149.847 87.5673 151.563 86.284C153.28 85.0006 154.544 83.2049 155.173 81.1562C154.995 81.14 154.819 81.1075 154.647 81.0593Z" fill="white"/>
<path d="M155.439 69.3319L155.363 71.2781C155.502 71.2532 155.643 71.2391 155.784 71.236H155.898L155.969 69.3193C156.052 67.3296 155.485 65.367 154.353 63.7284C153.222 62.0898 151.587 60.8643 149.697 60.2373C149.714 60.4251 149.714 60.614 149.697 60.8018C151.44 61.4232 152.938 62.5868 153.972 64.122C155.005 65.6572 155.519 67.4831 155.439 69.3319Z" fill="white"/>
<path d="M146.593 62.8196C144.569 62.8389 142.631 63.6318 141.174 65.0355C139.717 66.4392 138.852 68.3473 138.757 70.3683L138.677 72.4492C138.853 72.4608 139.028 72.4876 139.2 72.5293L139.284 70.3683C139.372 68.4853 140.18 66.708 141.539 65.4023C142.899 64.0967 144.708 63.3623 146.593 63.3504C147.503 63.3454 148.404 63.5257 149.243 63.8802C150.081 64.2347 150.838 64.7561 151.469 65.4125C152.099 66.069 152.59 66.8469 152.91 67.6989C153.23 68.5508 153.374 69.459 153.332 70.3683L153.05 77.6726C152.971 79.3171 152.344 80.8879 151.269 82.1351C150.195 83.3823 148.734 84.2344 147.119 84.5557C147.138 84.7322 147.138 84.9101 147.119 85.0865C148.873 84.7578 150.465 83.8472 151.638 82.5019C152.81 81.1566 153.495 79.4552 153.581 77.6726L153.863 70.3683C153.908 69.3884 153.754 68.4096 153.408 67.4917C153.062 66.5737 152.533 65.7359 151.852 65.0294C151.172 64.3229 150.354 63.7626 149.45 63.3826C148.546 63.0027 147.573 62.8111 146.593 62.8196Z" fill="white"/>
<path d="M141.672 69.0117C141.782 69.0052 141.892 69.0052 142.001 69.0117C142.455 68.2302 143.104 67.5805 143.886 67.1269C144.668 66.6733 145.554 66.4314 146.458 66.4253C147.009 66.4254 147.556 66.5194 148.075 66.7033C148.134 66.5351 148.209 66.3729 148.299 66.2189C147.716 66.0053 147.1 65.8956 146.479 65.8945C145.433 65.9054 144.41 66.201 143.519 66.7494C142.629 67.2979 141.904 68.0785 141.424 69.0075C141.507 69.0048 141.59 69.0062 141.672 69.0117Z" fill="white"/>
<path d="M151.024 76.6408C150.997 77.2437 150.862 77.837 150.628 78.3932C150.792 78.4539 150.947 78.5376 151.087 78.6417C151.363 78.0088 151.52 77.3306 151.551 76.6408L151.753 71.4006C151.769 70.9117 151.719 70.4229 151.605 69.9473C151.446 70.0313 151.278 70.0963 151.104 70.141C151.201 70.555 151.242 70.98 151.226 71.4048L151.024 76.6408Z" fill="white"/>
<path d="M147.014 81.4594C146.636 81.5507 146.248 81.5973 145.86 81.5984C145.218 81.5996 144.583 81.4706 143.993 81.2191C143.403 80.9677 142.87 80.599 142.426 80.1354C141.983 79.6718 141.638 79.123 141.413 78.5222C141.188 77.9214 141.087 77.2812 141.116 76.6404L141.209 74.2688C141.032 74.2534 140.857 74.221 140.687 74.1719L140.59 76.6404C140.558 77.3508 140.672 78.0602 140.923 78.7255C141.174 79.3907 141.558 79.9979 142.052 80.5102C142.545 81.0224 143.137 81.4289 143.793 81.7051C144.448 81.9812 145.153 82.1212 145.864 82.1165C146.305 82.1149 146.745 82.0612 147.174 81.9564C147.106 81.7958 147.053 81.6294 147.014 81.4594Z" fill="white"/>
<path d="M146.357 69.003C145.435 69.014 144.553 69.3779 143.892 70.0196C143.23 70.6614 142.84 71.5323 142.801 72.453L142.679 75.6292C142.668 75.9253 142.698 76.2216 142.768 76.5096C142.902 76.3481 143.058 76.2063 143.231 76.0883C143.21 75.9376 143.202 75.7855 143.206 75.6334L143.328 72.4572C143.366 71.6803 143.699 70.9473 144.26 70.4085C144.821 69.8696 145.566 69.5657 146.344 69.559C146.719 69.5581 147.09 69.6332 147.435 69.7798C147.78 69.9265 148.092 70.1415 148.351 70.4121C148.611 70.6826 148.813 71.0029 148.945 71.3537C149.077 71.7045 149.137 72.0785 149.12 72.453L148.998 75.6292C148.971 76.1924 148.788 76.7371 148.469 77.2026C148.151 77.6681 147.71 78.0362 147.195 78.2661C147.186 78.465 147.158 78.6624 147.111 78.8559C147.789 78.6209 148.382 78.1879 148.812 77.6127C149.243 77.0376 149.491 76.3466 149.524 75.6292L149.651 72.453C149.674 72.0069 149.606 71.5607 149.451 71.1418C149.296 70.7228 149.057 70.3401 148.748 70.017C148.44 69.6939 148.069 69.4373 147.657 69.2629C147.246 69.0885 146.803 69.0001 146.357 69.003Z" fill="white"/>
<path d="M155.215 31.1293H140.43C140.32 31.1294 140.212 31.1074 140.111 31.0648C140.01 31.0221 139.919 30.9597 139.843 30.8811C139.767 30.8025 139.707 30.7094 139.667 30.6073C139.628 30.5052 139.609 30.3963 139.613 30.2868C139.625 30.0603 139.724 29.8472 139.888 29.6907C140.053 29.5342 140.27 29.4461 140.497 29.4443H155.279C155.388 29.4437 155.497 29.4653 155.599 29.5076C155.7 29.55 155.792 29.6124 155.868 29.6911C155.945 29.7697 156.005 29.863 156.045 29.9653C156.085 30.0677 156.103 30.1771 156.1 30.2868C156.086 30.513 155.987 30.7256 155.823 30.8819C155.659 31.0381 155.442 31.1265 155.215 31.1293Z" fill="#15B79E"/>
<path opacity="0.2" d="M132.089 45.9154C131.215 45.9839 130.337 46.0036 129.461 45.9743C129.151 45.908 128.833 45.8881 128.517 45.9154H128.42C125.947 45.7342 123.5 45.2922 121.12 44.5969C120.876 44.5252 120.623 44.441 120.366 44.3525L118.319 97.3744L132.001 88.2461C132.619 87.8399 133.132 87.293 133.499 86.6501C133.865 86.0072 134.073 85.2866 134.107 84.5476L135.48 49.0999C135.5 48.6586 135.424 48.2183 135.257 47.8091C135.091 47.3999 134.838 47.0315 134.516 46.7291C134.194 46.4266 133.81 46.1974 133.391 46.0569C132.973 45.9165 132.528 45.8682 132.089 45.9154Z" fill="black"/>
<path d="M128.791 41.9597C127.918 42.0297 127.042 42.0508 126.166 42.0229C125.857 41.9572 125.539 41.9359 125.223 41.9597H125.122C122.65 41.7802 120.204 41.3383 117.826 40.6412C114.844 39.7141 112.095 38.1568 109.767 36.075C109.202 35.5304 108.446 35.2281 107.661 35.2325H104.089C103.289 35.2383 102.518 35.5381 101.924 36.075C99.453 38.1506 96.587 39.7039 93.4991 40.6412C91.0856 41.3352 88.6067 41.777 86.1021 41.9597H86.001C85.6836 41.9359 85.3645 41.9572 85.0532 42.0229C84.1793 42.0508 83.3045 42.0298 82.433 41.9597C81.9842 41.9254 81.5331 41.9814 81.1063 42.1243C80.6794 42.2672 80.2856 42.4941 79.9479 42.7917C79.6102 43.0894 79.3356 43.4516 79.1402 43.8571C78.9448 44.2626 78.8327 44.7032 78.8103 45.1527L77.4371 80.6046C77.4058 81.3223 77.5548 82.0364 77.8705 82.6817C78.1861 83.327 78.6584 83.883 79.2442 84.2989L99.1058 98.2673C99.8375 98.7804 100.71 99.0542 101.604 99.0508H105.172C106.084 99.0474 106.975 98.7749 107.733 98.2673L128.673 84.2989C129.29 83.8919 129.802 83.3453 130.168 82.7035C130.534 82.0616 130.743 81.3425 130.779 80.6046L132.148 45.1527C132.166 44.7144 132.09 44.2773 131.926 43.8706C131.761 43.464 131.511 43.0972 131.194 42.7949C130.876 42.4926 130.497 42.2616 130.082 42.1176C129.668 41.9736 129.228 41.9197 128.791 41.9597Z" fill="#15B79E"/>
<path opacity="0.8" d="M128.791 41.9597C127.918 42.0297 127.042 42.0508 126.166 42.0229C125.857 41.9572 125.539 41.9359 125.223 41.9597H125.122C122.65 41.7802 120.204 41.3383 117.826 40.6412C114.844 39.7141 112.095 38.1568 109.767 36.075C109.202 35.5304 108.446 35.2281 107.661 35.2325H104.089C103.289 35.2383 102.518 35.5381 101.924 36.075C99.453 38.1506 96.587 39.7039 93.4991 40.6412C91.0856 41.3352 88.6067 41.777 86.1021 41.9597H86.001C85.6836 41.9359 85.3645 41.9572 85.0532 42.0229C84.1793 42.0508 83.3045 42.0298 82.433 41.9597C81.9842 41.9254 81.5331 41.9814 81.1063 42.1243C80.6794 42.2672 80.2856 42.4941 79.9479 42.7917C79.6102 43.0894 79.3356 43.4516 79.1402 43.8571C78.9448 44.2626 78.8327 44.7032 78.8103 45.1527L77.4371 80.6046C77.4058 81.3223 77.5548 82.0364 77.8705 82.6817C78.1861 83.327 78.6584 83.883 79.2442 84.2989L99.1058 98.2673C99.8375 98.7804 100.71 99.0542 101.604 99.0508H105.172C106.084 99.0474 106.975 98.7749 107.733 98.2673L128.673 84.2989C129.29 83.8919 129.802 83.3453 130.168 82.7035C130.534 82.0616 130.743 81.3425 130.779 80.6046L132.148 45.1527C132.166 44.7144 132.09 44.2773 131.926 43.8706C131.761 43.464 131.511 43.0972 131.194 42.7949C130.876 42.4926 130.497 42.2616 130.082 42.1176C129.668 41.9736 129.228 41.9197 128.791 41.9597Z" fill="white"/>
<path d="M79.7581 80.5376L81.0682 46.6402C81.0972 46.0187 81.3631 45.4319 81.8112 45.0003C82.2593 44.5686 82.8556 44.3249 83.4777 44.3191H84.2486C87.5819 44.2777 90.8939 43.7817 94.093 42.8448C97.136 41.9225 99.9892 40.4631 102.518 38.5355C102.934 38.1961 103.455 38.0107 103.992 38.0107C104.529 38.0107 105.05 38.1961 105.467 38.5355C107.866 40.4753 110.614 41.9393 113.563 42.849C116.724 43.7906 120 44.2869 123.298 44.3233H124.01C124.317 44.3207 124.621 44.3807 124.903 44.4997C125.186 44.6187 125.442 44.7943 125.654 45.0155C125.867 45.2368 126.032 45.4991 126.14 45.7864C126.247 46.0738 126.295 46.38 126.28 46.6865L124.97 80.5418C124.953 80.9232 124.845 81.2951 124.657 81.6274C124.469 81.9596 124.206 82.2429 123.888 82.4543L103.078 96.3553C102.692 96.6186 102.235 96.7595 101.768 96.7595C101.301 96.7595 100.844 96.6186 100.458 96.3553L80.7186 82.4543C80.41 82.2416 80.1601 81.9544 79.9922 81.6193C79.8243 81.2842 79.7438 80.9121 79.7581 80.5376Z" fill="#15B79E"/>
<path opacity="0.2" d="M85.5418 78.7468L86.6539 49.9296C89.6319 49.694 92.5786 49.1591 95.4495 48.3331C98.3781 47.4523 101.17 46.1678 103.744 44.5166C106.209 46.1755 108.906 47.4615 111.747 48.3331C114.576 49.1627 117.482 49.6977 120.421 49.9296L119.304 78.7468L101.975 90.3057L85.5418 78.7468Z" fill="white"/>
<path opacity="0.2" d="M91.3676 75.7354L92.1722 54.9217C93.7139 54.6311 95.2683 54.2646 96.8058 53.8223C99.11 53.1435 101.343 52.2435 103.474 51.1348C105.534 52.2472 107.702 53.1477 109.944 53.8223C111.466 54.2632 112.987 54.6297 114.506 54.9217L113.702 75.7354L102.244 83.4062L91.3676 75.7354Z" fill="white"/>
<path d="M53.1356 43.2372C52.3479 44.8717 51.5517 46.5482 50.7851 48.1995C50.4031 49.042 50.0353 49.8676 49.6814 50.6764C49.3511 51.4499 49.0614 52.2401 48.8136 53.0438C48.6401 53.812 48.5609 54.5985 48.5778 55.3859C48.5778 56.2705 48.5778 57.1888 48.5778 58.1029L48.7168 63.6549L46.7706 63.9413C46.2834 62.1074 45.8883 60.2502 45.5869 58.3767C45.4437 57.4331 45.3005 56.4853 45.2247 55.5038C45.1825 55.0152 45.1488 54.5181 45.1404 53.9958C45.1404 53.7304 45.1404 53.465 45.1404 53.1533C45.1404 53.0101 45.1615 52.8584 45.1867 52.6899C45.212 52.5214 45.2373 52.4035 45.2626 52.2687C45.4714 51.2666 45.7529 50.2811 46.1051 49.32C46.4294 48.4017 46.7833 47.5044 47.1497 46.624C47.8869 44.859 48.6789 43.1572 49.5635 41.4512L53.1356 43.2372Z" fill="#FF8B7B"/>
<path d="M50.1279 64.4215L48.5104 62.5596L46.6822 62.6522C45.8397 64.6531 47.6721 65.9295 47.6721 65.9295L47.9964 67.0247C48.0299 67.1339 48.087 67.2344 48.1636 67.3191C48.2402 67.4038 48.3345 67.4706 48.4398 67.5148C48.5451 67.559 48.6588 67.5795 48.7729 67.5749C48.887 67.5703 48.9987 67.5407 49.1001 67.4881L50.1279 66.9784C50.271 66.9083 50.3913 66.7991 50.4748 66.6634C50.5583 66.5277 50.6016 66.3711 50.5997 66.2117V65.5841C50.5824 65.1535 50.4156 64.7424 50.1279 64.4215Z" fill="#FF8B7B"/>
<path d="M44.9803 147.634C44.6699 147.495 44.3772 147.32 44.1084 147.111C44.0942 147.101 44.0834 147.087 44.0774 147.07C44.0714 147.054 44.0705 147.036 44.0747 147.019C44.0792 147.001 44.0887 146.985 44.1021 146.972C44.1156 146.959 44.1323 146.951 44.1505 146.947C44.3064 146.918 45.6838 146.665 46.0124 147.027C46.0485 147.069 46.0729 147.119 46.0833 147.173C46.0936 147.227 46.0895 147.283 46.0714 147.335C46.0535 147.424 46.0132 147.507 45.9542 147.576C45.8952 147.646 45.8196 147.699 45.7344 147.731C45.4796 147.791 45.2115 147.757 44.9803 147.634ZM44.399 147.09C44.9551 147.474 45.4269 147.651 45.6628 147.558C45.7186 147.535 45.7676 147.498 45.8052 147.451C45.8428 147.404 45.8677 147.348 45.8776 147.288C45.8914 147.269 45.8987 147.245 45.8987 147.221C45.8987 147.197 45.8914 147.173 45.8776 147.154C45.7007 146.96 44.9509 147.015 44.399 147.09Z" fill="#15B79E"/>
<path d="M44.1252 147.124L44.0873 147.094C44.0799 147.08 44.076 147.064 44.076 147.048C44.076 147.032 44.0799 147.016 44.0873 147.002C44.0873 146.96 44.5675 145.923 45.1025 145.738C45.1705 145.71 45.2444 145.698 45.3178 145.705C45.3912 145.712 45.4618 145.736 45.5237 145.776C45.5896 145.805 45.6433 145.857 45.6755 145.921C45.7078 145.986 45.7167 146.059 45.7007 146.13C45.5996 146.572 44.6181 147.077 44.1968 147.128C44.1852 147.132 44.1729 147.134 44.1606 147.134C44.1482 147.133 44.1362 147.129 44.1252 147.124ZM45.3889 145.915C45.3185 145.888 45.2404 145.888 45.1699 145.915C44.8497 146.024 44.517 146.572 44.3274 146.909C44.7823 146.778 45.4395 146.361 45.4985 146.096C45.4985 146.05 45.4985 145.995 45.4058 145.936L45.3889 145.915Z" fill="#15B79E"/>
<path d="M59.5216 28.0635C59.8713 30.3719 60.659 35.4057 58.9782 36.9096C58.9782 36.9096 59.5006 39.2559 63.7762 39.3402C68.4815 39.4328 66.131 37.0486 66.131 37.0486C63.6035 36.3872 63.7425 34.4874 64.2733 32.7098L59.5216 28.0635Z" fill="#FF8B7B"/>
<path d="M69.1512 24.2385L69.0754 24.2006C69.0422 24.166 69.0237 24.12 69.0237 24.0721C69.0237 24.0242 69.0422 23.9781 69.0754 23.9436C69.2576 23.7123 69.4918 23.5273 69.7589 23.4036C70.0261 23.2799 70.3187 23.221 70.6129 23.2317C70.6368 23.2343 70.6599 23.2416 70.6809 23.2533C70.7019 23.2649 70.7204 23.2805 70.7353 23.2993C70.7502 23.3182 70.7612 23.3397 70.7676 23.3628C70.7741 23.3859 70.7759 23.4101 70.773 23.4339C70.7667 23.4827 70.7416 23.5272 70.7031 23.5578C70.6646 23.5885 70.6156 23.603 70.5666 23.5982C70.3342 23.5941 70.1039 23.6441 69.8941 23.7442C69.6843 23.8444 69.5006 23.992 69.3576 24.1753C69.333 24.2047 69.3004 24.2263 69.2638 24.2375C69.2272 24.2487 69.1881 24.2491 69.1512 24.2385Z" fill="#263238"/>
<path d="M70.0274 26.5088C70.2085 27.2468 70.4921 27.9558 70.8699 28.615C70.7007 28.7136 70.5118 28.7738 70.3167 28.7913C70.1216 28.8087 69.9251 28.7831 69.741 28.7161L70.0274 26.5088Z" fill="#FF5652"/>
<path d="M69.8126 25.9451C69.7747 26.2569 69.9095 26.5265 70.1117 26.5475C70.3139 26.5686 70.5077 26.3285 70.533 26.0168C70.5582 25.705 70.4361 25.4354 70.2339 25.4144C70.0317 25.3933 69.8505 25.6334 69.8126 25.9451Z" fill="#263238"/>
<path d="M70.1581 25.4225L70.9289 25.2793C70.9289 25.2793 70.474 25.8269 70.1581 25.4225Z" fill="#263238"/>
<path d="M73.5659 149.175L77.6688 147.878L77.2686 139.521L73.1615 140.814L73.5659 149.175Z" fill="#FF8B7B"/>
<path d="M39.8875 146.188L43.5818 147.233L46.6779 138.677L42.9794 137.633L39.8875 146.188Z" fill="#FF8B7B"/>
<path d="M44.0536 146.496L40.0939 144.811C40.0249 144.782 39.9478 144.779 39.8766 144.802C39.8055 144.826 39.745 144.874 39.7064 144.938L37.8487 147.95C37.8037 148.025 37.7752 148.109 37.7651 148.195C37.7551 148.282 37.7637 148.37 37.7904 148.454C37.8172 148.537 37.8613 148.614 37.9201 148.679C37.9788 148.744 38.0507 148.795 38.1309 148.83C39.5252 149.386 40.2371 149.584 41.9642 150.321C43.0342 150.772 43.8725 152.145 46.2272 152.145C47.8195 152.145 48.1228 150.705 47.4909 150.494C44.5422 149.55 45.1446 148.148 44.5422 146.956C44.4392 146.749 44.2659 146.586 44.0536 146.496Z" fill="#263238"/>
<path d="M79.1347 148.455C78.7867 148.445 78.4408 148.398 78.1027 148.316C78.085 148.311 78.0689 148.301 78.0563 148.288C78.0437 148.274 78.035 148.258 78.031 148.24C78.0278 148.222 78.0297 148.204 78.0364 148.188C78.0431 148.171 78.0544 148.157 78.069 148.147C78.1995 148.063 79.3327 147.305 79.8087 147.507C79.8603 147.529 79.9053 147.565 79.9392 147.61C79.9731 147.655 79.9949 147.708 80.0025 147.764C80.0236 147.85 80.0219 147.941 79.9976 148.026C79.9732 148.112 79.927 148.19 79.8635 148.252C79.6531 148.406 79.3941 148.478 79.1347 148.455ZM78.3596 148.185C79.0378 148.32 79.5475 148.295 79.7371 148.118C79.7786 148.075 79.8081 148.022 79.8229 147.965C79.8377 147.907 79.8372 147.846 79.8213 147.789C79.819 147.764 79.8105 147.74 79.7965 147.72C79.7825 147.699 79.7635 147.682 79.7413 147.671C79.497 147.562 78.8314 147.894 78.3512 148.185H78.3596Z" fill="#15B79E"/>
<path d="M78.1237 148.316H78.0774C78.0634 148.309 78.0516 148.298 78.0434 148.285C78.0352 148.272 78.0309 148.256 78.031 148.241C78.031 148.19 77.9973 147.074 78.4059 146.703C78.4567 146.654 78.5181 146.617 78.5853 146.596C78.6526 146.575 78.7238 146.57 78.7935 146.581C78.8664 146.583 78.9366 146.609 78.9936 146.655C79.0506 146.7 79.0912 146.763 79.1094 146.834C79.2105 147.255 78.5323 148.097 78.1701 148.321C78.1545 148.324 78.1385 148.322 78.1237 148.316ZM78.7345 146.745C78.6596 146.746 78.5877 146.775 78.5323 146.825C78.288 147.048 78.2248 147.668 78.2122 148.047C78.5744 147.752 78.9915 147.124 78.9283 146.859C78.9283 146.817 78.8946 146.762 78.7766 146.749L78.7345 146.745Z" fill="#15B79E"/>
<path d="M77.7825 147.777H73.4269C73.3521 147.774 73.2791 147.8 73.2228 147.849C73.1665 147.899 73.131 147.967 73.1236 148.042L72.7402 151.488C72.7345 151.576 72.7469 151.665 72.7766 151.748C72.8064 151.831 72.8529 151.908 72.9132 151.972C72.9736 152.037 73.0466 152.089 73.1277 152.124C73.2087 152.16 73.2962 152.178 73.3847 152.179C74.9054 152.153 75.6342 152.065 77.5508 152.065C78.7303 152.065 80.4532 152.187 82.0834 152.187C83.7136 152.187 83.7431 150.578 83.0607 150.43C80.0025 149.777 79.4928 148.876 78.427 148.017C78.2454 147.866 78.0183 147.782 77.7825 147.777Z" fill="#263238"/>
<path opacity="0.2" d="M77.2644 139.521L77.4834 143.998L73.3679 145.127L73.1615 140.818L77.2644 139.521Z" fill="black"/>
<path opacity="0.2" d="M42.9794 137.638L46.6737 138.682L45.0814 143.089L41.3829 142.044L42.9794 137.638Z" fill="black"/>
<path d="M51.3916 37.398C49.7741 37.7771 47.9964 43.6029 47.9964 43.6029L52.5079 48.3756C52.5079 48.3756 56.3413 42.8699 55.5872 40.8817C54.7911 38.8092 53.283 36.9515 51.3916 37.398Z" fill="#15B79E"/>
<path opacity="0.2" d="M51.3916 37.398C49.7741 37.7771 47.9964 43.6029 47.9964 43.6029L52.5079 48.3756C52.5079 48.3756 56.3413 42.8699 55.5872 40.8817C54.7911 38.8092 53.283 36.9515 51.3916 37.398Z" fill="black"/>
<path opacity="0.4" d="M53.8896 41.0503C54.7321 40.2921 55.2629 40.5027 55.6336 41.0925C55.9874 42.8069 53.5905 46.6908 52.6849 48.0725C52.3015 46.4507 52.0319 42.7732 53.8896 41.0503Z" fill="black"/>
<path d="M72.0325 38.7543C72.2558 40.4393 72.1168 45.6164 68.848 61.2782L53.0977 60.9707C53.6495 54.572 53.8348 50.6208 51.3664 37.4148C53.5923 37.0054 55.8447 36.7562 58.1063 36.6692C60.4936 36.5453 62.8867 36.5917 65.2674 36.8082C67.5463 37.0609 70.0443 37.558 71.1648 37.7981C71.3907 37.8479 71.5955 37.9667 71.751 38.138C71.9064 38.3093 72.0048 38.5247 72.0325 38.7543Z" fill="#15B79E"/>
<path opacity="0.2" d="M72.0325 38.7543C72.2558 40.4393 72.1168 45.6164 68.848 61.2782L53.0977 60.9707C53.6495 54.572 53.8348 50.6208 51.3664 37.4148C53.5923 37.0054 55.8447 36.7562 58.1063 36.6692C60.4936 36.5453 62.8867 36.5917 65.2674 36.8082C67.5463 37.0609 70.0443 37.558 71.1648 37.7981C71.3907 37.8479 71.5955 37.9667 71.751 38.138C71.9064 38.3093 72.0048 38.5247 72.0325 38.7543Z" fill="black"/>
<path d="M59.5174 23.885C59.29 27.7394 59.0962 29.3612 60.8022 31.518C63.3297 34.7531 68.0982 34.0454 69.4672 30.3258C70.6972 26.9559 70.8615 21.2186 67.3146 19.3398C63.7678 17.4611 59.7407 20.0306 59.5174 23.885Z" fill="#FF8B7B"/>
<path d="M64.6987 61.1813C64.6987 61.1813 62.4114 89.3035 59.3953 104.228C56.9605 116.297 45.9155 142.376 45.9155 142.376L41.1091 140.346C41.1091 140.346 46.6737 110.808 50.4354 103.626C54.6479 78.8525 47.8279 70.4065 53.1061 60.9707L64.6987 61.1813Z" fill="#263238"/>
<path opacity="0.4" d="M60.4147 76.5615C58.6918 83.8869 59.8081 90.5384 60.9749 94.9277C61.6658 90.2224 62.2892 85.1549 62.82 80.4075C62.0912 79.0426 61.1771 77.7536 60.4147 76.5615Z" fill="black"/>
<path d="M68.8564 61.2621C68.8564 61.2621 74.838 88.7229 75.5963 100.463C76.3966 112.679 78.0016 141.618 78.0016 141.618L72.7276 143.034C72.7276 143.034 66.7965 113.206 67.2514 104.229C64.3027 91.4905 54.0202 60.9883 54.0202 60.9883L68.8564 61.2621Z" fill="#263238"/>
<path d="M78.7977 142.958L71.9483 144.112L71.2912 141.669L78.625 140.422L78.7977 142.958Z" fill="#15B79E"/>
<path d="M46.779 142.616L40.3635 140.801L40.7216 138.421L47.5794 140.11L46.779 142.616Z" fill="#15B79E"/>
<path d="M52.9123 60.0278L52.1372 61.4221C52.0783 61.5274 52.2046 61.6412 52.3858 61.6454L68.9027 61.9697C69.0459 61.9697 69.1681 61.9066 69.1807 61.8181L69.3871 60.4112C69.3871 60.3143 69.2818 60.23 69.126 60.2258L53.1735 59.9141C53.1238 59.9082 53.0734 59.9156 53.0275 59.9356C52.9816 59.9556 52.9419 59.9874 52.9123 60.0278Z" fill="white"/>
<path d="M54.9722 61.8511H54.551C54.4667 61.8511 54.4036 61.8005 54.412 61.75L54.6942 59.9218C54.6942 59.8712 54.7785 59.8291 54.8627 59.8291H55.284C55.3682 59.8291 55.4314 59.8754 55.423 59.9302L55.1407 61.7542C55.1365 61.8089 55.0607 61.8511 54.9722 61.8511Z" fill="#263238"/>
<path d="M65.3306 62.0542H64.9093C64.8251 62.0542 64.7619 62.0079 64.7703 61.9531L65.0525 60.1291C65.0525 60.0744 65.1368 60.0322 65.2253 60.0322H65.6465C65.7308 60.0322 65.7939 60.0786 65.7855 60.1333L65.5033 61.9573C65.4906 62.0121 65.4148 62.0542 65.3306 62.0542Z" fill="#263238"/>
<path d="M72.9045 40.7393C73.6754 42.3779 74.5347 44.0797 75.432 45.6931C76.2837 47.2924 77.2538 48.8258 78.3343 50.2804C78.4691 50.4531 78.6039 50.63 78.7135 50.7564C78.823 50.8828 78.962 51.0344 79.1052 51.1777C79.3999 51.465 79.7122 51.7337 80.0404 51.9822C80.747 52.5158 81.4887 53.0013 82.2603 53.4355C83.8756 54.3469 85.5423 55.1641 87.2521 55.8829L86.7381 57.7785C84.7546 57.4445 82.8127 56.898 80.9461 56.1483C79.9747 55.7635 79.0364 55.3 78.1406 54.7624C77.6694 54.4767 77.2177 54.16 76.7884 53.8146C76.5651 53.6377 76.3671 53.4397 76.1355 53.2333C75.9038 53.0269 75.7142 52.8121 75.5626 52.6267C75.2003 52.235 74.8802 51.8348 74.5516 51.4346C74.223 51.0344 73.9281 50.6174 73.6417 50.2004C73.052 49.3579 72.5212 48.5154 72.0073 47.6729C70.9829 45.9614 70.0697 44.1857 69.2734 42.3568L72.9045 40.7393Z" fill="#FF8B7B"/>
<path d="M70.9289 37.7228C74.619 38.5273 75.512 44.3279 75.512 44.3279L71.8767 48.5656C71.8767 48.5656 66.1015 43.0894 66.4005 40.1112C66.5985 37.9123 68.9154 37.2847 70.9289 37.7228Z" fill="#15B79E"/>
<path opacity="0.2" d="M70.9289 37.7228C74.619 38.5273 75.512 44.3279 75.512 44.3279L71.8767 48.5656C71.8767 48.5656 66.1015 43.0894 66.4005 40.1112C66.5985 37.9123 68.9154 37.2847 70.9289 37.7228Z" fill="black"/>
<path d="M91.5193 57.3741L90.4957 56.1651C90.4957 56.1651 87.1931 55.3942 85.7314 56.1103L85.2807 57.4709L88.9708 59.3834L89.7416 59.7457C89.925 59.8317 90.1332 59.8489 90.3281 59.794C90.5231 59.739 90.6917 59.6157 90.8032 59.4466L91.5446 58.4019C91.6544 58.2518 91.7115 58.0696 91.7069 57.8837C91.7023 57.6978 91.6363 57.5186 91.5193 57.3741Z" fill="#FF8B7B"/>
<path d="M70.2886 45.1786C70.9331 43.4599 71.2912 41.3874 71.1311 40.3974C70.9121 42.1582 69.5725 44.5678 68.2287 46.358C65.8144 47.3228 63.2129 47.7285 60.6194 47.5446C58.0259 47.3608 55.5077 46.5922 53.2536 45.2965C52.1457 43.0555 51.2274 39.555 51.8087 37.4656C51.0968 38.5271 50.5702 41.4295 50.9072 43.4767C49.7741 42.3183 49.1127 41.0167 49.1085 39.7361C49.1085 33.5817 56.5266 33.9566 56.6277 29.4662C56.7288 24.9757 54.9006 15.7969 64.0584 17.7556C70.0569 17.4734 68.8016 22.7642 67.8243 25.9825C66.9355 28.9523 76.0091 40.3511 70.2886 45.1786Z" fill="#263238"/>
<path d="M64.0753 17.7558C67.8244 15.7549 71.6577 18.9058 69.6947 22.2042C67.9634 22.1283 66.5606 23.2278 67.917 25.4267C63.8942 22.8908 61.4299 17.9791 64.0753 17.7558Z" fill="#263238"/>
<path d="M68.0181 24.8537C68.426 25.5564 68.5973 26.3715 68.5068 27.1789C68.3888 28.2152 67.58 28.2152 67.0114 27.6002C66.4427 26.9852 65.9709 25.7088 66.2995 24.9169C66.3652 24.7459 66.4797 24.598 66.6288 24.4915C66.7778 24.3851 66.9549 24.3247 67.1379 24.318C67.321 24.3113 67.502 24.3585 67.6585 24.4537C67.8149 24.5489 67.94 24.688 68.0181 24.8537Z" fill="#FF8B7B"/>
</svg>
