<svg width="375" height="484" viewBox="0 0 375 484" fill="none" xmlns="http://www.w3.org/2000/svg">
<rect width="375" height="484" fill="#E8F8F5"/>
<path d="M335.513 167.225C337.457 166.367 339.106 164.957 340.256 163.172C341.407 161.386 342.009 159.302 341.988 157.178C341.988 151.177 337.467 146.297 331.843 146.273C326.218 146.248 321.641 151.088 321.616 157.088C321.576 159.23 322.171 161.335 323.327 163.139C324.482 164.943 326.145 166.365 328.107 167.225C312.436 169.587 313.147 186.624 313.147 186.624L350.204 186.796C350.204 186.796 351.054 169.571 335.513 167.225Z" fill="#F5F5F5"/>
<path d="M116.549 103.567L92.3265 95L68.3414 103.453C65.284 104.875 62.619 105.725 62.619 108.538V122.525C62.5889 132.349 65.3287 141.982 70.5241 150.32C75.7532 158.818 83.4545 165.515 92.5963 169.514C102.406 166.375 109.715 158.02 114.194 150.867C119.384 142.527 122.12 132.895 122.091 123.073V110.491C122.059 106.486 119.9 104.532 116.549 103.567Z" fill="#9FE1D7"/>
<path d="M100.346 126.147C100.352 124.898 100.009 123.673 99.3562 122.609C98.7033 121.546 97.7664 120.685 96.6509 120.125C95.5354 119.565 94.2856 119.327 93.0424 119.439C91.7991 119.551 90.6118 120.008 89.6141 120.758C88.6165 121.508 87.848 122.522 87.3955 123.685C86.9429 124.848 86.8241 126.115 87.0525 127.342C87.2809 128.569 87.8474 129.708 88.6882 130.631C89.529 131.553 90.6107 132.223 91.8115 132.564V142.595H95.4738V132.564C96.8739 132.171 98.1073 131.331 98.9866 130.173C99.866 129.015 100.343 127.601 100.346 126.147Z" fill="#EBEBEB"/>
<path d="M322.491 233.197L326.619 235.437L324.763 238.543L320.594 236.091L320.676 240.677H317.112V236.05L312.983 238.519L311.16 235.412L315.289 233.172L311.16 230.9L312.983 227.793L317.144 230.344V225.717H320.709L320.627 230.344L324.796 227.842L326.652 230.949L322.491 233.197Z" fill="#E0E0E0"/>
<path d="M339.691 233.197L343.819 235.436L341.963 238.543L337.794 236.09L337.876 240.677H334.312L334.353 236.05L330.183 238.551L328.36 235.445L332.489 233.205L328.36 230.932L330.183 227.826L334.353 230.327L334.312 225.7H337.876L337.794 230.327L341.963 227.826L343.819 230.932L339.691 233.197Z" fill="#E0E0E0"/>
<path d="M356.891 233.197L361.027 235.437L359.171 238.543L355.002 236.091L355.076 240.677H351.512L351.553 236.05L347.383 238.551L345.56 235.445L349.697 233.205L345.593 230.924L347.416 227.818L351.585 230.319L351.544 225.692H355.109L355.035 230.319L359.204 227.818L361.06 230.924L356.891 233.197Z" fill="#E0E0E0"/>
<path d="M181.883 428.879V454.27H219.013H259.969V428.879H181.883Z" fill="#F5F5F5"/>
<path d="M178.604 421.775V428.879H262.7V421.775H219.013H178.604Z" fill="#EBEBEB"/>
<path d="M220.648 454.271H259.969V428.879H262.7V421.775H219.013V428.217L220.648 454.271Z" fill="#EBEBEB"/>
<path d="M208.639 432.967H192.804V436.793H208.639V432.967Z" fill="#E0E0E0"/>
<path d="M211.1 441.575H190.76V449.644H211.1V441.575Z" fill="white"/>
<path d="M193.891 396.417V421.808H231.03H271.986V396.417H193.891Z" fill="#F5F5F5"/>
<path d="M190.613 389.312V396.416H274.717V389.312H231.03H190.613Z" fill="#EBEBEB"/>
<path d="M232.665 421.808H271.986V396.416H274.717V389.312H231.03V395.763L232.665 421.808Z" fill="#EBEBEB"/>
<path d="M220.648 400.512H204.813V404.338H220.648V400.512Z" fill="#E0E0E0"/>
<path d="M223.117 409.112H202.778V417.181H223.117V409.112Z" fill="white"/>
<path d="M362 454.466C362 454.581 283.644 454.679 187.008 454.679C90.3727 454.679 12 454.581 12 454.466C12 454.352 90.34 454.254 187.008 454.254C283.676 454.254 362 454.336 362 454.466Z" fill="#06184D"/>
<path d="M308.634 271.807H186.812C183.932 271.807 181.596 274.142 181.596 277.022V340.083C181.596 342.964 183.932 345.299 186.812 345.299H308.634C311.515 345.299 313.85 342.964 313.85 340.083V277.022C313.85 274.142 311.515 271.807 308.634 271.807Z" fill="white"/>
<path d="M308.642 345.299C308.642 345.299 308.994 345.299 309.664 345.176C310.658 344.961 311.569 344.464 312.288 343.745C312.813 343.216 313.217 342.581 313.474 341.882C313.621 341.478 313.719 341.058 313.768 340.631C313.768 340.189 313.768 339.715 313.768 339.225C313.768 337.263 313.768 334.998 313.768 332.456C313.768 322.262 313.727 307.531 313.703 289.325C313.703 287.044 313.703 284.714 313.703 282.336V278.722C313.703 277.504 313.825 276.27 313.327 275.142C312.983 274.287 312.412 273.543 311.675 272.99C310.939 272.437 310.066 272.095 309.149 272.002C308.544 271.962 307.874 272.002 307.236 272.002H299.348H265.16H186.828C185.994 272.001 185.173 272.208 184.439 272.605C183.705 273.002 183.082 273.576 182.626 274.275C182.163 274.968 181.881 275.766 181.809 276.597C181.768 277.414 181.809 278.314 181.809 279.164V309.394C181.809 315.934 181.809 322.365 181.809 328.687V338.039C181.809 338.808 181.809 339.584 181.809 340.336C181.846 341.072 182.042 341.792 182.381 342.446C182.73 343.088 183.212 343.647 183.796 344.086C184.38 344.524 185.052 344.832 185.766 344.988C186.492 345.105 187.23 345.143 187.965 345.102H219.904H249.693L292.824 345.168L304.547 345.209L292.824 345.25L249.693 345.315H219.904H187.965C187.202 345.355 186.438 345.314 185.684 345.192C184.913 345.026 184.188 344.694 183.559 344.22C182.929 343.746 182.41 343.14 182.038 342.446C181.662 341.744 181.447 340.968 181.408 340.173C181.408 339.355 181.408 338.636 181.408 337.859C181.408 334.778 181.408 331.655 181.408 328.507V309.394C181.408 302.855 181.408 296.192 181.408 289.407V279.188C181.408 278.322 181.408 277.488 181.408 276.589C181.469 275.695 181.75 274.83 182.226 274.071C182.723 273.315 183.396 272.693 184.188 272.256C184.989 271.83 185.88 271.603 186.787 271.594H265.119H299.307H307.196C307.85 271.594 308.471 271.594 309.141 271.594C309.797 271.662 310.434 271.851 311.021 272.15C312.188 272.741 313.102 273.734 313.596 274.945C313.835 275.538 313.963 276.17 313.973 276.809C313.973 277.422 313.973 278.036 313.973 278.649V282.262C313.973 284.638 313.973 286.968 313.973 289.252C313.973 307.457 313.915 322.188 313.899 332.382C313.899 334.925 313.899 337.189 313.899 339.151C313.899 339.642 313.899 340.108 313.899 340.565C313.847 341.001 313.742 341.429 313.588 341.841C313.325 342.551 312.909 343.196 312.37 343.729C311.634 344.453 310.702 344.944 309.689 345.143C309.435 345.191 309.178 345.218 308.92 345.225L308.642 345.299Z" fill="#06184D"/>
<path d="M227.678 297.778V298.694H223.852V293.789H227.58V294.705H224.989V295.743H227.278V296.634H224.989V297.778H227.678Z" fill="#06184D"/>
<path d="M233.123 293.756V298.661H232.183L229.73 295.661V298.661H228.602V293.756H229.51L231.962 296.756V293.756H233.123Z" fill="#06184D"/>
<path d="M235.322 294.688H233.736V293.756H238.044V294.688H236.458V298.693H235.322V294.688Z" fill="#06184D"/>
<path d="M242.483 297.778V298.694H238.657V293.789H242.393V294.705H239.794V295.743H242.091V296.634H239.794V297.778H242.483Z" fill="#06184D"/>
<path d="M246.546 298.694L245.59 297.321H244.543V298.694H243.407V293.789H245.549C246.865 293.789 247.69 294.468 247.69 295.579C247.7 295.912 247.609 296.239 247.428 296.518C247.246 296.797 246.984 297.015 246.677 297.141L247.78 298.727L246.546 298.694ZM245.475 294.688H244.543V296.405H245.475C246.17 296.405 246.521 296.086 246.521 295.547C246.521 295.007 246.17 294.688 245.475 294.688Z" fill="#06184D"/>
<path d="M250.274 296.225C250.306 295.692 250.494 295.181 250.814 294.754C251.134 294.327 251.573 294.004 252.076 293.825C252.578 293.645 253.123 293.617 253.641 293.745C254.159 293.872 254.628 294.149 254.991 294.541L254.255 295.22C254.102 295.039 253.912 294.893 253.697 294.793C253.483 294.693 253.249 294.64 253.012 294.639C252.612 294.668 252.238 294.847 251.965 295.141C251.692 295.434 251.54 295.82 251.54 296.221C251.54 296.622 251.692 297.008 251.965 297.301C252.238 297.595 252.612 297.774 253.012 297.803C253.25 297.806 253.485 297.756 253.7 297.655C253.916 297.555 254.105 297.407 254.255 297.222L254.991 297.901C254.631 298.296 254.162 298.577 253.643 298.707C253.124 298.837 252.579 298.81 252.075 298.631C251.571 298.452 251.131 298.128 250.811 297.7C250.49 297.272 250.303 296.759 250.274 296.225Z" fill="#06184D"/>
<path d="M255.35 296.225C255.321 295.684 255.454 295.147 255.734 294.683C256.013 294.219 256.425 293.849 256.917 293.622C257.408 293.395 257.957 293.32 258.491 293.408C259.026 293.496 259.521 293.742 259.914 294.115C260.307 294.487 260.579 294.97 260.695 295.499C260.811 296.028 260.766 296.579 260.565 297.082C260.364 297.585 260.016 298.016 259.568 298.32C259.119 298.623 258.59 298.785 258.048 298.784C257.7 298.804 257.352 298.753 257.025 298.633C256.698 298.513 256.398 298.328 256.146 298.088C255.893 297.848 255.692 297.559 255.555 297.239C255.418 296.919 255.349 296.573 255.35 296.225ZM259.593 296.225C259.587 295.921 259.491 295.626 259.317 295.376C259.143 295.126 258.9 294.933 258.617 294.821C258.334 294.709 258.025 294.683 257.727 294.747C257.43 294.81 257.157 294.959 256.944 295.177C256.732 295.394 256.588 295.669 256.531 295.968C256.474 296.267 256.506 296.576 256.624 296.856C256.742 297.137 256.94 297.376 257.193 297.545C257.446 297.713 257.744 297.803 258.048 297.803C258.255 297.808 258.461 297.77 258.652 297.692C258.844 297.614 259.018 297.497 259.163 297.349C259.308 297.201 259.42 297.025 259.495 296.832C259.569 296.638 259.602 296.432 259.593 296.225Z" fill="#06184D"/>
<path d="M261.62 293.756H263.844C264.494 293.756 265.118 294.014 265.578 294.474C266.038 294.934 266.297 295.558 266.297 296.208C266.297 296.859 266.038 297.483 265.578 297.942C265.118 298.402 264.494 298.661 263.844 298.661H261.604L261.62 293.756ZM263.803 297.753C264.209 297.753 264.597 297.592 264.884 297.306C265.171 297.019 265.332 296.63 265.332 296.225C265.332 295.819 265.171 295.43 264.884 295.144C264.597 294.857 264.209 294.696 263.803 294.696H262.765V297.753H263.803Z" fill="#06184D"/>
<path d="M271.275 297.778V298.694H267.449V293.789H271.201V294.705H268.585V295.743H270.883V296.634H268.585V297.778H271.275Z" fill="#06184D"/>
<path d="M208.925 306.583H196.916C195.133 306.583 193.687 308.029 193.687 309.812V328.508C193.687 330.291 195.133 331.737 196.916 331.737H208.925C210.708 331.737 212.154 330.291 212.154 328.508V309.812C212.154 308.029 210.708 306.583 208.925 306.583Z" fill="#EBEBEB"/>
<path d="M231.986 306.583H219.978C218.194 306.583 216.748 308.029 216.748 309.812V328.508C216.748 330.291 218.194 331.737 219.978 331.737H231.986C233.77 331.737 235.216 330.291 235.216 328.508V309.812C235.216 308.029 233.77 306.583 231.986 306.583Z" fill="#EBEBEB"/>
<path d="M255.048 306.583H243.039C241.256 306.583 239.81 308.029 239.81 309.812V328.508C239.81 330.291 241.256 331.737 243.039 331.737H255.048C256.831 331.737 258.277 330.291 258.277 328.508V309.812C258.277 308.029 256.831 306.583 255.048 306.583Z" fill="#EBEBEB"/>
<path d="M278.101 306.583H266.092C264.309 306.583 262.863 308.029 262.863 309.812V328.508C262.863 330.291 264.309 331.737 266.092 331.737H278.101C279.884 331.737 281.33 330.291 281.33 328.508V309.812C281.33 308.029 279.884 306.583 278.101 306.583Z" fill="#EBEBEB"/>
<path d="M301.162 306.583H289.154C287.37 306.583 285.924 308.029 285.924 309.812V328.508C285.924 330.291 287.37 331.737 289.154 331.737H301.162C302.946 331.737 304.392 330.291 304.392 328.508V309.812C304.392 308.029 302.946 306.583 301.162 306.583Z" fill="#EBEBEB"/>
<path d="M206.947 321.084C206.947 322.875 205.557 324.044 203.677 324.044C201.094 324.044 199.728 322.188 199.728 319.139C199.728 315.82 201.502 314.103 204.094 314.103C204.87 314.068 205.641 314.243 206.325 314.61L206.031 315.182C205.439 314.857 204.769 314.702 204.094 314.732C201.895 314.732 200.448 316.179 200.448 319.032C200.447 319.426 200.475 319.82 200.529 320.21C200.759 319.578 201.19 319.038 201.755 318.673C202.321 318.309 202.99 318.139 203.66 318.19C205.622 318.19 206.947 319.335 206.947 321.084ZM206.227 321.084C206.227 319.686 205.222 318.771 203.562 318.771C203.227 318.734 202.888 318.766 202.566 318.865C202.243 318.965 201.945 319.13 201.69 319.351C201.434 319.571 201.227 319.841 201.081 320.145C200.935 320.449 200.853 320.78 200.84 321.117C200.84 322.27 201.805 323.414 203.644 323.414C203.971 323.45 204.301 323.416 204.614 323.315C204.926 323.214 205.214 323.048 205.458 322.828C205.702 322.608 205.897 322.339 206.029 322.039C206.162 321.738 206.229 321.413 206.227 321.084Z" fill="#15B79E"/>
<path d="M229.755 321.274H227.695V323.996H226.992V321.274H221.392V320.759L226.722 314.178H227.539L222.307 320.644H227.024V318.249H227.711V320.644H229.771L229.755 321.274Z" fill="#15B79E"/>
<path d="M253.535 325.393C250.689 325.677 247.822 325.677 244.976 325.393C247.822 325.11 250.689 325.11 253.535 325.393Z" fill="#15B79E"/>
<path d="M189.992 281.15C191.098 281.15 191.995 280.254 191.995 279.147C191.995 278.041 191.098 277.145 189.992 277.145C188.886 277.145 187.989 278.041 187.989 279.147C187.989 280.254 188.886 281.15 189.992 281.15Z" fill="#06184D"/>
<path d="M197.766 279.147C197.766 279.544 197.649 279.931 197.429 280.26C197.209 280.589 196.896 280.846 196.53 280.998C196.164 281.149 195.761 281.189 195.373 281.112C194.984 281.034 194.627 280.844 194.347 280.564C194.067 280.283 193.876 279.927 193.799 279.538C193.722 279.15 193.762 278.747 193.913 278.381C194.065 278.015 194.321 277.702 194.651 277.482C194.98 277.262 195.367 277.145 195.764 277.145C196.295 277.145 196.804 277.356 197.18 277.731C197.555 278.107 197.766 278.616 197.766 279.147Z" fill="#06184D"/>
<path d="M201.429 281.15C202.535 281.15 203.432 280.254 203.432 279.147C203.432 278.041 202.535 277.145 201.429 277.145C200.323 277.145 199.426 278.041 199.426 279.147C199.426 280.254 200.323 281.15 201.429 281.15Z" fill="#06184D"/>
<path d="M314.054 284.789C314.054 284.903 284.437 285.001 247.919 285.001C211.402 285.001 181.784 284.903 181.784 284.789C181.784 284.674 211.386 284.576 247.919 284.576C284.453 284.576 314.054 284.666 314.054 284.789Z" fill="#06184D"/>
<path d="M289.767 110.41H143.73C140.768 110.41 138.367 112.811 138.367 115.773V250.127C138.367 253.089 140.768 255.49 143.73 255.49H289.767C292.728 255.49 295.129 253.089 295.129 250.127V115.773C295.129 112.811 292.728 110.41 289.767 110.41Z" fill="white"/>
<path d="M289.767 255.49H290.151C290.531 255.459 290.906 255.387 291.271 255.277C291.984 255.059 292.643 254.694 293.206 254.205C293.769 253.717 294.224 253.116 294.541 252.441C294.981 251.428 295.155 250.319 295.048 249.22C295.048 248.002 295.048 246.661 295.048 245.214C295.048 242.32 295.048 238.977 295.048 235.216C295.048 220.174 295.007 198.429 294.974 171.517C294.974 158.07 294.974 143.347 294.974 127.528C294.974 123.583 294.974 119.569 294.974 115.487C294.913 114.489 294.563 113.53 293.969 112.726C293.374 111.922 292.559 111.308 291.622 110.958C290.648 110.65 289.623 110.539 288.606 110.631H259.43H143.747C142.519 110.638 141.334 111.081 140.403 111.882C139.441 112.694 138.813 113.832 138.637 115.078C138.581 115.703 138.562 116.331 138.58 116.958V167.291C138.58 186.641 138.58 205.304 138.58 223.085C138.58 231.979 138.58 240.642 138.58 249.073C138.58 249.596 138.58 250.135 138.58 250.634C138.627 251.136 138.746 251.629 138.932 252.097C139.31 253.036 139.955 253.843 140.787 254.419C141.611 254.994 142.587 255.313 143.591 255.335H158.723H202.712L266.411 255.408H283.725L266.411 255.449L202.712 255.515H158.723H143.583C142.503 255.487 141.455 255.145 140.567 254.529C139.68 253.913 138.992 253.051 138.588 252.048C138.388 251.546 138.258 251.017 138.204 250.479C138.163 249.923 138.204 249.416 138.204 248.885C138.204 240.454 138.204 231.791 138.204 222.897C138.204 205.116 138.204 186.453 138.204 167.103C138.204 157.424 138.204 147.584 138.204 137.584V116.917C138.182 116.271 138.203 115.623 138.269 114.98C138.449 113.65 139.113 112.434 140.133 111.563C141.135 110.687 142.416 110.194 143.747 110.173H259.43H288.557C289.619 110.081 290.689 110.204 291.704 110.533C292.706 110.908 293.579 111.565 294.216 112.426C294.852 113.286 295.227 114.312 295.293 115.38C295.293 119.468 295.293 123.49 295.293 127.447C295.293 143.265 295.293 157.988 295.293 171.436C295.293 198.331 295.244 220.093 295.227 235.135C295.227 238.895 295.227 242.239 295.227 245.132C295.227 246.579 295.227 247.92 295.227 249.138C295.331 250.256 295.146 251.383 294.688 252.408C294.278 253.268 293.645 254.002 292.856 254.535C292.067 255.068 291.15 255.381 290.2 255.441L289.767 255.49Z" fill="#06184D"/>
<path d="M150.213 120.465C150.213 121.002 150.054 121.527 149.755 121.974C149.456 122.42 149.032 122.768 148.536 122.973C148.039 123.178 147.493 123.232 146.966 123.126C146.44 123.021 145.956 122.762 145.577 122.381C145.198 122.001 144.94 121.517 144.836 120.99C144.732 120.462 144.787 119.917 144.994 119.421C145.2 118.925 145.55 118.502 145.997 118.204C146.444 117.907 146.97 117.749 147.507 117.751C147.863 117.751 148.216 117.821 148.544 117.958C148.873 118.094 149.172 118.294 149.423 118.546C149.675 118.799 149.874 119.098 150.009 119.427C150.145 119.756 150.214 120.109 150.213 120.465Z" fill="#06184D"/>
<path d="M155.404 123.171C156.898 123.171 158.11 121.959 158.11 120.465C158.11 118.97 156.898 117.759 155.404 117.759C153.91 117.759 152.698 118.97 152.698 120.465C152.698 121.959 153.91 123.171 155.404 123.171Z" fill="#06184D"/>
<path d="M163.317 123.171C164.812 123.171 166.023 121.959 166.023 120.465C166.023 118.97 164.812 117.759 163.317 117.759C161.823 117.759 160.611 118.97 160.611 120.465C160.611 121.959 161.823 123.171 163.317 123.171Z" fill="#06184D"/>
<path d="M295.129 128.158C295.129 128.28 260.034 128.37 216.748 128.37C173.462 128.37 138.367 128.28 138.367 128.158C138.367 128.035 173.454 127.945 216.748 127.945C260.043 127.945 295.129 128.035 295.129 128.158Z" fill="#06184D"/>
<path d="M238.894 182.807C238.894 182.807 238.951 182.717 239.082 182.553L239.189 182.414L239.295 182.226C239.385 182.074 239.464 181.916 239.532 181.752C239.532 181.662 239.614 181.564 239.646 181.458L239.744 181.115C239.78 180.988 239.808 180.86 239.826 180.73C239.826 180.591 239.875 180.452 239.883 180.305C239.937 179.625 239.904 178.941 239.785 178.27C239.441 176.431 238.812 174.658 237.921 173.013C236.773 170.818 235.429 168.731 233.908 166.776C232.076 164.398 230.079 162.153 227.932 160.056C225.473 157.643 222.848 155.405 220.076 153.361C218.612 152.282 217.067 151.235 215.44 150.254C213.782 149.241 212.059 148.337 210.282 147.548C208.456 146.715 206.534 146.111 204.56 145.75C203.55 145.57 202.519 145.545 201.502 145.676C200.992 145.749 200.494 145.892 200.023 146.101C199.561 146.328 199.143 146.636 198.788 147.009C198.45 147.4 198.189 147.853 198.02 148.341C197.866 148.834 197.781 149.346 197.766 149.862C197.753 150.888 197.893 151.91 198.183 152.895C198.769 154.821 199.593 156.666 200.636 158.388C201.618 160.064 202.711 161.672 203.906 163.203C205.066 164.707 206.285 166.13 207.519 167.462C209.867 169.985 212.391 172.337 215.073 174.501C217.399 176.398 219.858 178.127 222.43 179.676C224.546 180.962 226.773 182.057 229.084 182.946C230.822 183.639 232.655 184.064 234.521 184.205C235.2 184.238 235.88 184.191 236.548 184.066C236.695 184.066 236.826 183.992 236.957 183.959C237.084 183.926 237.21 183.885 237.333 183.837L237.66 183.698L237.946 183.551C238.102 183.466 238.249 183.367 238.387 183.256L238.559 183.134L238.69 183.011C238.837 182.864 238.919 182.799 238.919 182.799L238.698 183.019L238.567 183.142L238.404 183.273C238.264 183.386 238.113 183.484 237.954 183.567L237.684 183.747L237.349 183.886C237.23 183.936 237.107 183.977 236.981 184.008C236.845 184.055 236.706 184.093 236.564 184.123C235.892 184.26 235.205 184.31 234.521 184.27C232.65 184.143 230.811 183.726 229.068 183.036C226.748 182.148 224.513 181.053 222.389 179.766C219.817 178.217 217.359 176.488 215.032 174.591C212.343 172.429 209.813 170.077 207.462 167.552C206.227 166.22 205.009 164.797 203.84 163.293C202.648 161.754 201.556 160.141 200.57 158.462C199.527 156.732 198.703 154.878 198.118 152.944C197.82 151.947 197.677 150.91 197.693 149.87C197.71 149.346 197.798 148.826 197.954 148.325C198.14 147.818 198.417 147.35 198.772 146.943C199.134 146.555 199.567 146.239 200.047 146.012C200.529 145.797 201.038 145.648 201.559 145.57C202.59 145.439 203.635 145.464 204.658 145.644C206.647 146.008 208.583 146.617 210.421 147.458C212.201 148.248 213.927 149.155 215.588 150.173C217.223 151.154 218.768 152.2 220.231 153.287C223.008 155.335 225.633 157.581 228.087 160.007C230.239 162.107 232.239 164.358 234.071 166.743C235.588 168.703 236.926 170.797 238.069 172.997C238.957 174.65 239.583 176.432 239.924 178.278C240.038 178.956 240.066 179.645 240.006 180.33C239.993 180.47 239.972 180.609 239.941 180.747C239.928 180.877 239.9 181.006 239.859 181.131L239.761 181.482C239.726 181.583 239.685 181.681 239.638 181.777C239.577 181.944 239.494 182.104 239.393 182.251C239.364 182.317 239.329 182.38 239.287 182.439L239.18 182.578L238.894 182.807Z" fill="#15B79E"/>
<path d="M246.309 164.888V164.577V164.406C246.309 164.34 246.309 164.275 246.268 164.193C246.24 164.017 246.193 163.844 246.129 163.678C246.129 163.588 246.064 163.482 246.023 163.384L245.859 163.057C245.806 162.938 245.74 162.826 245.663 162.722C245.593 162.599 245.513 162.481 245.426 162.37C245.019 161.824 244.541 161.334 244.004 160.915C242.517 159.773 240.862 158.869 239.099 158.234C236.782 157.358 234.39 156.693 231.954 156.247C228.987 155.69 225.985 155.346 222.97 155.217C219.527 155.049 216.077 155.123 212.645 155.438C210.838 155.609 208.99 155.863 207.118 156.214C205.206 156.559 203.319 157.032 201.47 157.629C199.547 158.211 197.707 159.035 195.992 160.081C195.119 160.617 194.333 161.284 193.663 162.059C193.331 162.452 193.056 162.89 192.845 163.359C192.643 163.836 192.532 164.346 192.518 164.863C192.534 165.38 192.642 165.889 192.837 166.368C193.051 166.835 193.325 167.272 193.654 167.667C194.33 168.443 195.118 169.113 195.992 169.654C197.709 170.695 199.549 171.519 201.47 172.106C203.321 172.696 205.208 173.168 207.118 173.521C208.99 173.872 210.838 174.117 212.645 174.289C216.076 174.61 219.527 174.687 222.97 174.518C225.986 174.397 228.99 174.07 231.962 173.537C234.398 173.091 236.79 172.426 239.107 171.55C240.867 170.909 242.521 170.005 244.012 168.869C244.547 168.448 245.025 167.959 245.434 167.414C245.522 167.3 245.601 167.18 245.671 167.054C245.749 166.95 245.814 166.838 245.867 166.719L246.031 166.4C246.072 166.294 246.104 166.196 246.137 166.098C246.202 165.932 246.249 165.759 246.276 165.583C246.276 165.509 246.276 165.444 246.317 165.378V165.207V164.888C246.317 164.888 246.317 164.994 246.317 165.207V165.378C246.317 165.444 246.317 165.509 246.317 165.591C246.292 165.767 246.248 165.939 246.186 166.106C246.186 166.204 246.121 166.302 246.08 166.408L245.925 166.735C245.867 166.854 245.801 166.969 245.728 167.079C245.656 167.2 245.577 167.318 245.491 167.43C245.085 167.982 244.607 168.477 244.069 168.902C242.584 170.053 240.93 170.966 239.164 171.608C236.846 172.493 234.451 173.167 232.011 173.619C229.042 174.177 226.037 174.527 223.019 174.665C219.574 174.84 216.12 174.769 212.686 174.453C210.871 174.281 209.015 174.036 207.143 173.684C205.227 173.33 203.335 172.858 201.478 172.27C199.548 171.686 197.7 170.862 195.976 169.817C195.091 169.274 194.295 168.598 193.613 167.815C193.282 167.409 193.007 166.961 192.796 166.482C192.575 165.994 192.461 165.464 192.461 164.929C192.461 164.393 192.575 163.864 192.796 163.376C193.01 162.898 193.285 162.45 193.613 162.043C194.302 161.26 195.104 160.585 195.992 160.04C197.72 158.997 199.571 158.173 201.502 157.588C203.355 156.992 205.244 156.519 207.159 156.173C209.039 155.822 210.887 155.577 212.702 155.405C216.114 155.073 219.545 154.983 222.97 155.135C225.988 155.272 228.993 155.624 231.962 156.19C234.402 156.638 236.797 157.308 239.115 158.193C240.88 158.834 242.535 159.747 244.02 160.899C244.556 161.325 245.034 161.82 245.442 162.37C245.53 162.484 245.609 162.604 245.679 162.73C245.754 162.839 245.82 162.954 245.876 163.073L246.031 163.392C246.072 163.498 246.104 163.604 246.137 163.694C246.199 163.864 246.243 164.039 246.268 164.218C246.268 164.291 246.268 164.365 246.268 164.422V164.602C246.309 164.782 246.309 164.888 246.309 164.888Z" fill="#15B79E"/>
<path d="M236.483 142.594L236.213 142.423L236.066 142.325C236.005 142.29 235.943 142.26 235.878 142.235C235.722 142.15 235.557 142.081 235.387 142.03C235.289 142.03 235.191 141.957 235.085 141.932L234.733 141.859C234.607 141.831 234.478 141.812 234.349 141.801C234.207 141.793 234.065 141.793 233.924 141.801C233.241 141.793 232.56 141.87 231.896 142.03C230.087 142.511 228.362 143.263 226.779 144.262C224.667 145.554 222.677 147.038 220.836 148.693C218.589 150.684 216.486 152.831 214.541 155.118C212.3 157.735 210.249 160.508 208.402 163.416C207.437 164.945 206.489 166.58 205.622 168.215C204.724 169.938 203.94 171.718 203.276 173.545C202.573 175.428 202.104 177.391 201.878 179.39C201.769 180.41 201.816 181.441 202.017 182.447C202.129 182.951 202.308 183.437 202.549 183.894C202.802 184.345 203.137 184.744 203.538 185.071C203.954 185.374 204.422 185.598 204.919 185.733C205.419 185.855 205.934 185.907 206.448 185.889C207.474 185.832 208.486 185.619 209.448 185.259C211.329 184.546 213.114 183.601 214.762 182.447C216.365 181.349 217.894 180.147 219.34 178.85C220.762 177.583 222.095 176.275 223.337 174.951C225.689 172.433 227.861 169.753 229.836 166.931C231.569 164.48 233.126 161.909 234.496 159.239C235.639 157.042 236.58 154.746 237.308 152.38C237.88 150.596 238.175 148.735 238.183 146.862C238.181 146.182 238.087 145.506 237.905 144.851C237.905 144.704 237.815 144.573 237.774 144.442C237.733 144.311 237.684 144.197 237.627 144.082L237.472 143.763C237.415 143.665 237.349 143.575 237.3 143.494C237.207 143.34 237.098 143.198 236.973 143.069L236.842 142.905L236.711 142.791L236.483 142.578L236.72 142.782L236.85 142.897C236.901 142.945 236.947 142.997 236.989 143.052C237.113 143.182 237.222 143.325 237.316 143.477C237.374 143.567 237.439 143.649 237.496 143.747L237.652 144.074C237.715 144.189 237.767 144.309 237.807 144.434C237.848 144.565 237.905 144.695 237.938 144.843C238.126 145.499 238.225 146.178 238.232 146.862C238.235 148.74 237.945 150.607 237.374 152.396C236.648 154.769 235.713 157.073 234.578 159.279C233.208 161.955 231.651 164.532 229.918 166.988C227.947 169.82 225.776 172.505 223.419 175.024C222.176 176.357 220.844 177.673 219.413 178.94C217.964 180.24 216.432 181.444 214.827 182.545C213.173 183.708 211.38 184.658 209.489 185.374C208.516 185.737 207.493 185.952 206.456 186.011C205.928 186.029 205.401 185.977 204.887 185.856C204.375 185.712 203.893 185.476 203.464 185.161C203.051 184.825 202.704 184.415 202.442 183.951C202.195 183.484 202.011 182.987 201.895 182.472C201.696 181.454 201.652 180.412 201.764 179.381C201.985 177.371 202.457 175.397 203.17 173.504C203.834 171.675 204.618 169.891 205.516 168.166C206.391 166.465 207.331 164.847 208.304 163.31C210.161 160.403 212.221 157.63 214.468 155.012C216.415 152.725 218.524 150.581 220.779 148.595C222.63 146.941 224.628 145.458 226.746 144.164C228.337 143.169 230.071 142.425 231.888 141.957C232.554 141.792 233.238 141.715 233.924 141.728C234.071 141.728 234.21 141.728 234.349 141.728C234.481 141.738 234.612 141.757 234.741 141.785L235.093 141.859L235.395 141.965C235.566 142.018 235.73 142.089 235.886 142.178C235.951 142.203 236.014 142.233 236.074 142.267L236.221 142.374L236.483 142.594Z" fill="#15B79E"/>
<path d="M192.191 175.997C192.33 176.137 192.424 176.315 192.462 176.508C192.501 176.701 192.48 176.901 192.405 177.083C192.329 177.265 192.201 177.421 192.037 177.53C191.874 177.639 191.681 177.698 191.484 177.698C191.287 177.698 191.094 177.639 190.93 177.53C190.766 177.421 190.639 177.265 190.563 177.083C190.487 176.901 190.467 176.701 190.505 176.508C190.543 176.315 190.638 176.137 190.777 175.997C190.869 175.904 190.98 175.83 191.101 175.78C191.222 175.729 191.352 175.703 191.484 175.703C191.615 175.703 191.745 175.729 191.867 175.78C191.988 175.83 192.098 175.904 192.191 175.997Z" fill="#15B79E"/>
<path d="M248.59 145.023C248.591 145.222 248.534 145.417 248.424 145.584C248.315 145.75 248.158 145.88 247.975 145.958C247.791 146.035 247.589 146.056 247.393 146.018C247.197 145.98 247.017 145.885 246.876 145.745C246.735 145.605 246.638 145.425 246.599 145.23C246.559 145.035 246.579 144.832 246.654 144.648C246.73 144.464 246.859 144.306 247.025 144.195C247.19 144.085 247.385 144.025 247.584 144.025C247.716 144.024 247.846 144.049 247.968 144.099C248.09 144.149 248.201 144.222 248.295 144.315C248.388 144.407 248.462 144.518 248.513 144.639C248.564 144.761 248.59 144.891 248.59 145.023Z" fill="#15B79E"/>
<path d="M198.502 179.284C198.502 179.334 198.487 179.383 198.459 179.424C198.432 179.466 198.392 179.499 198.346 179.518C198.299 179.537 198.248 179.542 198.199 179.532C198.15 179.522 198.105 179.498 198.069 179.463C198.034 179.427 198.01 179.382 198 179.333C197.99 179.284 197.995 179.233 198.015 179.187C198.034 179.14 198.066 179.101 198.108 179.073C198.15 179.045 198.199 179.03 198.249 179.03C198.316 179.03 198.38 179.057 198.428 179.105C198.475 179.152 198.502 179.216 198.502 179.284Z" fill="#15B79E"/>
<path d="M203.922 151.276C203.922 151.326 203.907 151.375 203.879 151.417C203.851 151.458 203.812 151.491 203.766 151.51C203.719 151.529 203.668 151.534 203.619 151.524C203.57 151.515 203.525 151.491 203.489 151.455C203.454 151.42 203.43 151.374 203.42 151.325C203.41 151.276 203.415 151.225 203.434 151.179C203.454 151.133 203.486 151.093 203.528 151.065C203.569 151.037 203.618 151.022 203.669 151.022C203.736 151.022 203.8 151.049 203.848 151.097C203.895 151.144 203.922 151.209 203.922 151.276Z" fill="#15B79E"/>
<path d="M243.562 164.887C243.562 164.954 243.535 165.019 243.488 165.066C243.44 165.114 243.376 165.141 243.309 165.141C243.241 165.141 243.177 165.114 243.129 165.066C243.082 165.019 243.055 164.954 243.055 164.887C243.055 164.82 243.082 164.756 243.129 164.708C243.177 164.66 243.241 164.634 243.309 164.634C243.376 164.634 243.44 164.66 243.488 164.708C243.535 164.756 243.562 164.82 243.562 164.887Z" fill="#15B79E"/>
<path d="M247.094 153.05C247.094 153.118 247.067 153.182 247.019 153.229C246.972 153.277 246.907 153.304 246.84 153.304C246.773 153.304 246.709 153.277 246.661 153.229C246.613 153.182 246.587 153.118 246.587 153.05C246.587 152.983 246.613 152.919 246.661 152.871C246.709 152.824 246.773 152.797 246.84 152.797C246.907 152.797 246.972 152.824 247.019 152.871C247.067 152.919 247.094 152.983 247.094 153.05Z" fill="#15B79E"/>
<path d="M229.975 170.471H226.836V153.377C226.836 151.441 226.067 149.584 224.698 148.215C223.329 146.846 221.472 146.077 219.536 146.077C217.6 146.077 215.743 146.846 214.374 148.215C213.005 149.584 212.236 151.441 212.236 153.377V170.471H209.072V153.377C209.072 150.608 210.172 147.953 212.13 145.995C214.088 144.037 216.743 142.938 219.512 142.938C222.28 142.938 224.936 144.037 226.893 145.995C228.851 147.953 229.951 150.608 229.951 153.377L229.975 170.471Z" fill="#15B79E"/>
<g opacity="0.3">
<path d="M229.975 170.471H226.836V153.377C226.836 151.441 226.067 149.584 224.698 148.215C223.329 146.846 221.472 146.077 219.536 146.077C217.6 146.077 215.743 146.846 214.374 148.215C213.005 149.584 212.236 151.441 212.236 153.377V170.471H209.072V153.377C209.072 150.608 210.172 147.953 212.13 145.995C214.088 144.037 216.743 142.938 219.512 142.938C222.28 142.938 224.936 144.037 226.893 145.995C228.851 147.953 229.951 150.608 229.951 153.377L229.975 170.471Z" fill="black"/>
</g>
<path d="M231.766 162.868H207.306C206.291 162.868 205.467 163.692 205.467 164.708V179.079C205.467 180.095 206.291 180.918 207.306 180.918H231.766C232.782 180.918 233.605 180.095 233.605 179.079V164.708C233.605 163.692 232.782 162.868 231.766 162.868Z" fill="#15B79E"/>
<g opacity="0.3">
<path d="M221.89 169.547C221.894 169.108 221.774 168.677 221.546 168.303C221.317 167.928 220.988 167.625 220.596 167.427C220.204 167.229 219.765 167.145 219.328 167.184C218.89 167.223 218.473 167.383 218.122 167.647C217.771 167.911 217.501 168.267 217.342 168.676C217.183 169.085 217.141 169.531 217.222 169.962C217.303 170.394 217.503 170.794 217.799 171.118C218.095 171.442 218.476 171.677 218.898 171.796V175.311H220.174V171.796C220.666 171.66 221.101 171.367 221.411 170.961C221.721 170.555 221.889 170.058 221.89 169.547Z" fill="black"/>
</g>
<path d="M206.971 179.209C206.906 179.209 206.849 176.201 206.849 172.49C206.849 168.778 206.906 165.762 206.971 165.762C207.037 165.762 207.086 168.77 207.086 172.49C207.086 176.209 207.028 179.209 206.971 179.209Z" fill="#FAFAFA"/>
<path d="M217.697 172.555C217.697 172.555 217.582 172.555 217.419 172.4C217.187 172.227 216.983 172.021 216.814 171.787C216.516 171.401 216.308 170.954 216.205 170.478C216.102 170.002 216.107 169.509 216.219 169.035C216.331 168.561 216.547 168.118 216.853 167.738C217.158 167.359 217.544 167.052 217.983 166.841C218.239 166.704 218.515 166.607 218.8 166.555C218.906 166.535 219.014 166.535 219.119 166.555C218.758 166.677 218.405 166.825 218.065 166.996C217.665 167.216 217.317 167.518 217.041 167.88C216.765 168.243 216.568 168.659 216.463 169.103C216.357 169.546 216.346 170.007 216.429 170.455C216.512 170.903 216.687 171.329 216.945 171.705C217.172 172.008 217.424 172.292 217.697 172.555Z" fill="#FAFAFA"/>
<path d="M261.31 196.394H174.68C170.473 196.394 167.061 199.805 167.061 204.013V204.944C167.061 209.152 170.473 212.563 174.68 212.563H261.31C265.518 212.563 268.929 209.152 268.929 204.944V204.013C268.929 199.805 265.518 196.394 261.31 196.394Z" fill="#F5F5F5"/>
<path d="M262.054 218.563H175.424C171.216 218.563 167.805 221.975 167.805 226.182V227.114C167.805 231.322 171.216 234.733 175.424 234.733H262.054C266.262 234.733 269.673 231.322 269.673 227.114V226.182C269.673 221.975 266.262 218.563 262.054 218.563Z" fill="#F5F5F5"/>
<path d="M183.158 204.348V202.01H184.131V204.315C184.131 205.133 184.474 205.435 185.063 205.435C185.651 205.435 185.994 205.108 185.994 204.315V202.01H186.951V204.348C186.951 204.851 186.751 205.333 186.395 205.689C186.04 206.045 185.557 206.244 185.054 206.244C184.551 206.244 184.069 206.045 183.713 205.689C183.358 205.333 183.158 204.851 183.158 204.348Z" fill="#06184D"/>
<path d="M187.531 205.893L187.834 205.222C188.173 205.424 188.559 205.531 188.954 205.533C189.387 205.533 189.542 205.418 189.542 205.239C189.542 204.715 187.605 205.239 187.605 203.972C187.605 203.358 188.153 202.925 189.093 202.925C189.521 202.918 189.945 203.016 190.327 203.211L190.016 203.873C189.735 203.713 189.416 203.631 189.093 203.636C188.676 203.636 188.496 203.767 188.496 203.931C188.496 204.478 190.433 203.931 190.433 205.214C190.433 205.811 189.886 206.236 188.921 206.236C188.436 206.247 187.956 206.128 187.531 205.893Z" fill="#06184D"/>
<path d="M194.145 204.846H191.692C191.743 205.047 191.864 205.223 192.033 205.342C192.203 205.461 192.41 205.514 192.616 205.492C192.766 205.499 192.916 205.474 193.057 205.421C193.198 205.368 193.326 205.286 193.434 205.181L193.932 205.721C193.762 205.897 193.555 206.034 193.326 206.123C193.098 206.212 192.853 206.251 192.608 206.236C192.377 206.265 192.142 206.244 191.919 206.175C191.697 206.106 191.491 205.991 191.317 205.836C191.143 205.681 191.004 205.491 190.909 205.278C190.815 205.065 190.767 204.834 190.769 204.601C190.768 204.379 190.813 204.16 190.9 203.956C190.988 203.752 191.115 203.568 191.276 203.415C191.437 203.262 191.627 203.143 191.835 203.066C192.042 202.989 192.264 202.955 192.485 202.966C192.703 202.96 192.92 202.999 193.124 203.078C193.327 203.158 193.512 203.278 193.668 203.43C193.824 203.582 193.948 203.765 194.033 203.966C194.118 204.167 194.161 204.383 194.161 204.601C194.161 204.666 194.145 204.764 194.145 204.846ZM191.692 204.298H193.27C193.223 204.125 193.12 203.972 192.978 203.863C192.835 203.754 192.661 203.695 192.481 203.695C192.302 203.695 192.127 203.754 191.985 203.863C191.842 203.972 191.739 204.125 191.692 204.298Z" fill="#06184D"/>
<path d="M196.81 202.926V203.792H196.597C196.483 203.792 196.369 203.815 196.264 203.861C196.159 203.907 196.065 203.975 195.988 204.06C195.911 204.145 195.853 204.245 195.817 204.353C195.781 204.462 195.768 204.577 195.78 204.691V206.204H194.848V202.991H195.739V203.367C195.87 203.215 196.036 203.095 196.222 203.019C196.408 202.942 196.609 202.91 196.81 202.926Z" fill="#06184D"/>
<path d="M200.619 204.347V206.187H199.687V204.494C199.687 203.971 199.45 203.734 199.033 203.734C198.617 203.734 198.265 204.012 198.265 204.601V206.187H197.333V202.974H198.224V203.366C198.362 203.226 198.528 203.115 198.711 203.042C198.894 202.969 199.09 202.935 199.287 202.941C199.471 202.929 199.656 202.958 199.829 203.025C200.001 203.093 200.156 203.197 200.283 203.331C200.41 203.466 200.506 203.626 200.565 203.802C200.623 203.977 200.641 204.164 200.619 204.347Z" fill="#06184D"/>
<path d="M204.306 204.356V206.187H203.431V205.819C203.324 205.975 203.176 206.1 203.003 206.179C202.83 206.258 202.639 206.289 202.45 206.269C201.698 206.269 201.249 205.852 201.249 205.296C201.249 204.74 201.649 204.331 202.63 204.331H203.35C203.35 203.939 203.113 203.702 202.606 203.702C202.273 203.7 201.949 203.807 201.682 204.004L201.347 203.35C201.76 203.083 202.244 202.946 202.737 202.958C203.734 202.925 204.306 203.366 204.306 204.356ZM203.374 205.173V204.846H202.737C202.295 204.846 202.164 205.01 202.164 205.222C202.164 205.435 202.361 205.615 202.688 205.615C202.83 205.619 202.97 205.579 203.089 205.5C203.208 205.42 203.299 205.306 203.35 205.173H203.374Z" fill="#06184D"/>
<path d="M210.576 204.348V206.187H209.644V204.495C209.644 203.972 209.416 203.735 209.039 203.735C208.663 203.735 208.328 204.005 208.328 204.552V206.187H207.437V204.495C207.437 203.972 207.216 203.735 206.824 203.735C206.432 203.735 206.121 204.005 206.121 204.552V206.187H205.148V202.975H206.039V203.367C206.166 203.227 206.321 203.116 206.495 203.043C206.669 202.969 206.856 202.935 207.045 202.942C207.253 202.932 207.459 202.976 207.645 203.069C207.831 203.162 207.991 203.301 208.108 203.473C208.246 203.3 208.423 203.162 208.625 203.07C208.827 202.978 209.047 202.934 209.268 202.942C209.452 202.931 209.635 202.96 209.806 203.028C209.976 203.096 210.13 203.201 210.255 203.336C210.38 203.47 210.474 203.631 210.529 203.806C210.585 203.981 210.601 204.166 210.576 204.348Z" fill="#06184D"/>
<path d="M214.582 204.846H212.13C212.171 205.05 212.289 205.231 212.459 205.351C212.63 205.471 212.839 205.521 213.045 205.492C213.195 205.498 213.345 205.474 213.486 205.42C213.626 205.367 213.754 205.286 213.863 205.181L214.353 205.721C214.183 205.898 213.977 206.036 213.748 206.125C213.519 206.214 213.274 206.252 213.029 206.236C212.798 206.264 212.564 206.242 212.343 206.173C212.121 206.103 211.917 205.987 211.744 205.832C211.57 205.678 211.432 205.488 211.338 205.275C211.244 205.063 211.196 204.833 211.198 204.601C211.197 204.379 211.242 204.16 211.329 203.956C211.417 203.752 211.544 203.568 211.705 203.415C211.866 203.262 212.056 203.143 212.264 203.066C212.471 202.989 212.693 202.955 212.914 202.966C213.348 202.966 213.764 203.138 214.071 203.445C214.377 203.751 214.549 204.167 214.549 204.601C214.598 204.666 214.59 204.764 214.582 204.846ZM212.13 204.298H213.716C213.689 204.105 213.59 203.929 213.438 203.806C213.286 203.683 213.093 203.622 212.898 203.636C212.712 203.633 212.531 203.699 212.391 203.821C212.25 203.943 212.16 204.114 212.138 204.298H212.13Z" fill="#06184D"/>
<path d="M220.746 204.553C220.746 205.624 220.255 206.237 219.52 206.237C219.345 206.248 219.172 206.204 219.025 206.109C218.878 206.015 218.765 205.877 218.702 205.713C218.594 205.884 218.442 206.022 218.262 206.114C218.083 206.206 217.882 206.248 217.68 206.237C217.306 206.198 216.96 206.022 216.708 205.742C216.457 205.463 216.317 205.1 216.317 204.724C216.317 204.348 216.457 203.986 216.708 203.706C216.96 203.427 217.306 203.251 217.68 203.212C217.854 203.204 218.026 203.236 218.185 203.305C218.344 203.375 218.484 203.48 218.596 203.612V203.261H219.413V205.19C219.413 205.476 219.536 205.574 219.7 205.574C219.863 205.574 220.141 205.256 220.141 204.569C220.145 204.284 220.088 204.001 219.975 203.739C219.862 203.477 219.696 203.241 219.486 203.048C219.276 202.854 219.028 202.707 218.758 202.616C218.488 202.524 218.202 202.491 217.917 202.517C217.343 202.517 216.792 202.745 216.386 203.152C215.979 203.558 215.751 204.109 215.751 204.683C215.751 205.258 215.979 205.809 216.386 206.215C216.792 206.622 217.343 206.85 217.917 206.85C218.324 206.849 218.726 206.76 219.095 206.588L219.283 207.136C218.855 207.332 218.388 207.429 217.917 207.422C217.546 207.442 217.174 207.387 216.824 207.258C216.475 207.13 216.155 206.932 215.885 206.676C215.615 206.42 215.399 206.112 215.252 205.77C215.105 205.428 215.029 205.06 215.029 204.687C215.029 204.315 215.105 203.947 215.252 203.605C215.399 203.263 215.615 202.955 215.885 202.699C216.155 202.443 216.475 202.245 216.824 202.117C217.174 201.988 217.546 201.933 217.917 201.953C218.277 201.924 218.639 201.969 218.98 202.086C219.321 202.204 219.635 202.39 219.9 202.634C220.166 202.878 220.378 203.175 220.524 203.505C220.669 203.835 220.745 204.192 220.746 204.553ZM218.612 204.724C218.624 204.62 218.613 204.514 218.58 204.414C218.548 204.313 218.494 204.222 218.423 204.144C218.351 204.067 218.264 204.005 218.167 203.964C218.07 203.923 217.965 203.904 217.86 203.907C217.643 203.907 217.435 203.993 217.282 204.146C217.129 204.3 217.043 204.507 217.043 204.724C217.043 204.941 217.129 205.149 217.282 205.302C217.435 205.456 217.643 205.542 217.86 205.542C217.965 205.545 218.07 205.525 218.167 205.484C218.264 205.443 218.351 205.382 218.423 205.304C218.494 205.227 218.548 205.135 218.58 205.035C218.613 204.935 218.624 204.829 218.612 204.724Z" fill="#06184D"/>
<path d="M226.836 204.347V206.187H225.904V204.495C225.904 203.971 225.675 203.734 225.299 203.734C224.923 203.734 224.588 204.004 224.588 204.552V206.187H223.656V204.495C223.656 203.971 223.435 203.734 223.043 203.734C222.651 203.734 222.34 204.004 222.34 204.552V206.187H221.408V202.974H222.299V203.366C222.426 203.226 222.581 203.116 222.755 203.042C222.929 202.969 223.116 202.935 223.305 202.941C223.512 202.932 223.719 202.976 223.905 203.069C224.091 203.162 224.25 203.301 224.367 203.473C224.505 203.3 224.681 203.163 224.881 203.07C225.081 202.978 225.3 202.934 225.52 202.941C225.704 202.929 225.888 202.957 226.06 203.025C226.232 203.092 226.386 203.197 226.512 203.332C226.638 203.467 226.732 203.627 226.789 203.803C226.845 203.979 226.861 204.165 226.836 204.347Z" fill="#06184D"/>
<path d="M230.515 204.356V206.187H229.648V205.819C229.541 205.975 229.392 206.1 229.22 206.179C229.047 206.258 228.856 206.289 228.667 206.269C227.915 206.269 227.466 205.852 227.466 205.296C227.466 204.74 227.866 204.331 228.847 204.331H229.583C229.583 203.939 229.346 203.702 228.847 203.702C228.514 203.697 228.189 203.804 227.923 204.004L227.588 203.35C227.999 203.084 228.481 202.948 228.97 202.958C229.951 202.925 230.515 203.366 230.515 204.356ZM229.583 205.173V204.846H228.945C228.512 204.846 228.373 205.01 228.373 205.222C228.373 205.435 228.569 205.615 228.896 205.615C229.043 205.624 229.189 205.586 229.312 205.507C229.436 205.428 229.531 205.311 229.583 205.173Z" fill="#06184D"/>
<path d="M231.251 202.01C231.251 201.936 231.268 201.864 231.298 201.797C231.328 201.73 231.372 201.67 231.426 201.621C231.481 201.572 231.545 201.535 231.615 201.511C231.684 201.488 231.758 201.48 231.831 201.487C231.931 201.498 232.026 201.537 232.105 201.601C232.183 201.665 232.241 201.75 232.272 201.846C232.303 201.942 232.305 202.045 232.279 202.143C232.253 202.24 232.199 202.328 232.124 202.395C232.049 202.463 231.956 202.507 231.857 202.523C231.757 202.539 231.655 202.526 231.563 202.485C231.47 202.445 231.392 202.378 231.336 202.294C231.281 202.209 231.251 202.111 231.251 202.01ZM231.365 202.974H232.289V206.187H231.365V202.974Z" fill="#06184D"/>
<path d="M233.164 201.731H234.095V206.162H233.164V201.731Z" fill="#06184D"/>
<path d="M234.733 205.656C234.733 205.502 234.794 205.354 234.903 205.245C235.012 205.136 235.16 205.075 235.314 205.075C235.468 205.075 235.615 205.136 235.724 205.245C235.833 205.354 235.894 205.502 235.894 205.656C235.894 205.81 235.833 205.957 235.724 206.066C235.615 206.175 235.468 206.236 235.314 206.236C235.16 206.236 235.012 206.175 234.903 206.066C234.794 205.957 234.733 205.81 234.733 205.656Z" fill="#06184D"/>
<path d="M236.246 204.585C236.244 204.356 236.291 204.13 236.383 203.921C236.475 203.712 236.609 203.524 236.778 203.37C236.947 203.216 237.146 203.099 237.362 203.027C237.579 202.954 237.808 202.928 238.036 202.95C238.33 202.925 238.625 202.99 238.882 203.136C239.139 203.282 239.345 203.502 239.475 203.767L238.755 204.151C238.672 204.03 238.56 203.931 238.428 203.866C238.296 203.8 238.15 203.769 238.003 203.777C237.855 203.784 237.713 203.829 237.588 203.908C237.463 203.986 237.361 204.095 237.291 204.225C237.221 204.354 237.185 204.499 237.187 204.647C237.189 204.794 237.229 204.938 237.303 205.065C237.377 205.193 237.483 205.299 237.61 205.374C237.736 205.448 237.88 205.489 238.028 205.492C238.178 205.492 238.325 205.451 238.453 205.374C238.582 205.296 238.686 205.184 238.755 205.051L239.475 205.443C239.344 205.707 239.137 205.926 238.88 206.072C238.624 206.217 238.33 206.283 238.036 206.261C237.805 206.283 237.572 206.256 237.352 206.181C237.133 206.106 236.932 205.985 236.762 205.827C236.593 205.668 236.459 205.475 236.37 205.261C236.281 205.047 236.239 204.817 236.246 204.585Z" fill="#06184D"/>
<path d="M239.736 204.585C239.71 204.231 239.791 203.878 239.968 203.571C240.146 203.264 240.411 203.017 240.731 202.863C241.05 202.71 241.409 202.655 241.759 202.708C242.11 202.761 242.437 202.918 242.697 203.159C242.957 203.4 243.139 203.713 243.218 204.059C243.297 204.404 243.271 204.766 243.142 205.096C243.013 205.427 242.788 205.71 242.495 205.911C242.203 206.111 241.857 206.219 241.502 206.22C241.277 206.238 241.05 206.209 240.836 206.135C240.622 206.061 240.426 205.944 240.26 205.79C240.094 205.636 239.962 205.45 239.872 205.242C239.782 205.035 239.736 204.811 239.736 204.585ZM242.32 204.585C242.305 204.427 242.245 204.277 242.147 204.153C242.049 204.028 241.917 203.935 241.767 203.884C241.617 203.833 241.456 203.827 241.302 203.867C241.149 203.906 241.01 203.989 240.903 204.106C240.796 204.223 240.725 204.368 240.699 204.524C240.673 204.681 240.693 204.841 240.756 204.986C240.82 205.131 240.924 205.255 241.056 205.342C241.189 205.429 241.344 205.475 241.502 205.476C241.616 205.477 241.729 205.453 241.833 205.408C241.937 205.362 242.031 205.295 242.108 205.211C242.185 205.127 242.243 205.028 242.28 204.921C242.316 204.813 242.33 204.698 242.32 204.585Z" fill="#06184D"/>
<path d="M249.317 204.347V206.187H248.385V204.495C248.385 203.971 248.148 203.734 247.772 203.734C247.396 203.734 247.061 204.004 247.061 204.552V206.187H246.129V204.495C246.129 203.971 245.908 203.734 245.524 203.734C245.14 203.734 244.821 204.004 244.821 204.552V206.187H243.889V202.974H244.772V203.366C244.9 203.226 245.057 203.116 245.232 203.042C245.407 202.969 245.596 202.934 245.786 202.941C245.992 202.931 246.198 202.974 246.383 203.068C246.568 203.161 246.726 203.3 246.84 203.473C246.98 203.301 247.157 203.163 247.358 203.071C247.56 202.979 247.78 202.935 248.001 202.941C248.185 202.929 248.369 202.957 248.541 203.025C248.713 203.092 248.867 203.197 248.993 203.332C249.119 203.467 249.213 203.627 249.27 203.803C249.326 203.979 249.342 204.165 249.317 204.347Z" fill="#06184D"/>
<path d="M195.641 226.738L197.153 227.556L196.475 228.692L194.946 227.793V229.477H193.638V227.777L192.158 228.709L191.488 227.572L193.009 226.755L191.488 225.937L192.158 224.801L193.687 225.717V224.024H194.995V225.717L196.524 224.801L197.202 225.937L195.641 226.738Z" fill="#06184D"/>
<path d="M201.944 226.738L203.456 227.556L202.778 228.709L201.249 227.809V229.493H199.949V227.793L198.445 228.709L197.774 227.572L199.287 226.755L197.774 225.937L198.445 224.801L199.974 225.717V224.024H201.273V225.717L202.802 224.801L203.481 225.937L201.944 226.738Z" fill="#06184D"/>
<path d="M208.255 226.738L209.767 227.556L209.072 228.709L207.552 227.809V229.493H206.244V227.793L204.756 228.709L204.094 227.572L205.606 226.755L204.094 225.937L204.756 224.801L206.285 225.717V224.024H207.593V225.717L209.113 224.801L209.8 225.937L208.255 226.738Z" fill="#06184D"/>
<path d="M214.541 226.738L216.054 227.556L215.375 228.692L213.846 227.793V229.477H212.538V227.777L211.059 228.709L210.388 227.572L211.909 226.755L210.388 225.937L211.059 224.801L212.587 225.717V224.024H213.895V225.717L215.424 224.801L216.103 225.937L214.541 226.738Z" fill="#06184D"/>
<path d="M220.844 226.739L222.356 227.556L221.678 228.693L220.149 227.794V229.478H218.882V227.777L217.362 228.709L216.691 227.573L218.204 226.755L216.691 225.938L217.362 224.802L218.882 225.684V223.992H220.182V225.684L221.711 224.769L222.389 225.905L220.844 226.739Z" fill="#06184D"/>
<path d="M227.147 226.738L228.659 227.556L227.981 228.692L226.452 227.793V229.477H225.144V227.777L223.656 228.709L222.994 227.572L224.506 226.755L222.994 225.937L223.656 224.801L225.185 225.717V224.024H226.493V225.717L228.022 224.801L228.7 225.937L227.147 226.738Z" fill="#06184D"/>
<path d="M233.442 226.738L234.954 227.556L234.275 228.692L232.747 227.793V229.477H231.439V227.777L229.959 228.709L229.289 227.572L230.809 226.755L229.289 225.937L229.959 224.801L231.488 225.717V224.024H232.779V225.717L234.308 224.801L234.987 225.937L233.442 226.738Z" fill="#06184D"/>
<path d="M239.744 226.738L241.257 227.556L240.578 228.692L239.05 227.793V229.477H237.75V227.777L236.262 228.709L235.592 227.572L237.104 226.755L235.592 225.937L236.262 224.801L237.791 225.717V224.024H239.09V225.717L240.619 224.801L241.298 225.937L239.744 226.738Z" fill="#06184D"/>
<path d="M165.5 181.581H101.818C101.382 181.581 100.951 181.667 100.549 181.834C100.147 182.001 99.7812 182.245 99.4736 182.554C99.1661 182.862 98.9224 183.228 98.7565 183.631C98.5906 184.033 98.5057 184.465 98.5068 184.9V213.905C98.5013 214.341 98.5832 214.774 98.7476 215.178C98.9121 215.582 99.1557 215.949 99.4643 216.258C99.7728 216.566 100.14 216.81 100.544 216.975C100.948 217.139 101.381 217.221 101.818 217.215H128.533L134.207 224.499L138.94 217.215H165.5C165.935 217.215 166.365 217.13 166.767 216.963C167.169 216.797 167.534 216.553 167.841 216.246C168.149 215.938 168.392 215.573 168.559 215.172C168.725 214.77 168.811 214.339 168.811 213.905V184.9C168.811 184.021 168.462 183.178 167.842 182.556C167.221 181.934 166.379 181.583 165.5 181.581Z" fill="white"/>
<path d="M165.5 181.58H165.811C166.121 181.607 166.426 181.676 166.718 181.784C167.195 181.956 167.626 182.235 167.977 182.602C168.478 183.141 168.786 183.831 168.852 184.564C168.917 187.719 168.901 192.314 168.925 198.134C168.925 201.044 168.925 204.257 168.925 207.74C168.925 209.489 168.925 211.296 168.925 213.176C168.948 213.657 168.926 214.138 168.86 214.615C168.759 215.111 168.553 215.579 168.255 215.988C167.949 216.407 167.553 216.753 167.096 216.999C166.639 217.245 166.133 217.386 165.614 217.411H138.899L139.062 217.329C137.575 219.61 135.972 222.087 134.337 224.604L134.182 224.842L134.002 224.621L128.329 217.345L128.492 217.427H102.799C102.333 217.427 101.899 217.427 101.401 217.427C100.675 217.34 99.9942 217.032 99.4512 216.543C98.9082 216.054 98.5297 215.409 98.3678 214.697C98.2863 214.238 98.2562 213.772 98.2779 213.307V201.331C98.2779 197.848 98.2779 194.434 98.2779 191.087V184.899C98.2782 184.468 98.3586 184.041 98.5149 183.64C98.8181 182.842 99.3985 182.181 100.15 181.776C100.525 181.584 100.933 181.462 101.352 181.417C101.755 181.396 102.158 181.396 102.562 181.417H109.518H118.331H134.141L157.031 181.482L163.252 181.523L157.031 181.564L134.141 181.629H118.331H102.627C102.235 181.629 101.809 181.629 101.458 181.629C101.087 181.672 100.726 181.782 100.395 181.956C99.7191 182.302 99.1929 182.884 98.9155 183.591C98.7753 183.948 98.7032 184.328 98.703 184.711V185.937C98.703 187.572 98.703 189.207 98.703 190.899V201.143C98.703 204.62 98.703 208.162 98.703 211.77V213.127C98.6771 213.562 98.7018 213.998 98.7766 214.427C98.9206 215.053 99.2548 215.619 99.7334 216.048C100.212 216.477 100.812 216.747 101.45 216.822C101.867 216.863 102.349 216.822 102.799 216.822H128.631L128.697 216.904L134.37 224.179H134.035L138.768 216.904L138.825 216.814H138.94H165.639C166.109 216.798 166.569 216.675 166.985 216.454C167.4 216.233 167.759 215.92 168.034 215.539C168.311 215.172 168.501 214.747 168.59 214.296C168.653 213.838 168.675 213.376 168.656 212.914C168.656 211.034 168.656 209.227 168.656 207.478C168.656 203.996 168.656 200.783 168.656 197.873C168.656 192.068 168.656 187.474 168.696 184.31C168.624 183.627 168.338 182.983 167.879 182.471C167.543 182.096 167.127 181.803 166.661 181.613C166.277 181.547 165.887 181.536 165.5 181.58Z" fill="#06184D"/>
<path d="M121.732 189.771V190.842H121.037V189.763L119.86 187.834H120.604L121.421 189.175L122.239 187.834H122.925L121.732 189.771Z" fill="#06184D"/>
<path d="M122.892 189.331C122.878 189.005 122.961 188.681 123.132 188.403C123.302 188.125 123.552 187.904 123.849 187.769C124.146 187.634 124.477 187.591 124.799 187.645C125.121 187.7 125.419 187.849 125.655 188.075C125.891 188.3 126.054 188.591 126.124 188.91C126.193 189.229 126.165 189.561 126.044 189.865C125.922 190.168 125.713 190.427 125.443 190.611C125.173 190.794 124.854 190.892 124.527 190.892C124.316 190.902 124.105 190.869 123.907 190.795C123.709 190.721 123.528 190.608 123.375 190.462C123.223 190.316 123.101 190.14 123.018 189.946C122.935 189.751 122.892 189.542 122.892 189.331ZM125.492 189.331C125.49 189.143 125.433 188.961 125.328 188.806C125.223 188.651 125.074 188.531 124.901 188.46C124.728 188.39 124.537 188.372 124.354 188.41C124.17 188.447 124.002 188.538 123.87 188.671C123.739 188.804 123.649 188.973 123.613 189.157C123.577 189.341 123.596 189.531 123.669 189.704C123.741 189.876 123.862 190.024 124.018 190.128C124.174 190.232 124.357 190.287 124.544 190.287C124.67 190.291 124.795 190.268 124.913 190.221C125.03 190.174 125.136 190.104 125.225 190.014C125.314 189.924 125.383 189.818 125.429 189.7C125.475 189.582 125.497 189.457 125.492 189.331Z" fill="#06184D"/>
<path d="M126.71 189.51V187.834H127.413V189.469C127.413 190.041 127.667 190.286 128.084 190.286C128.5 190.286 128.762 190.049 128.762 189.469V187.834H129.457V189.526C129.457 189.89 129.312 190.24 129.055 190.497C128.797 190.755 128.448 190.9 128.084 190.9C127.719 190.9 127.37 190.755 127.112 190.497C126.855 190.24 126.71 189.89 126.71 189.526V189.51Z" fill="#06184D"/>
<path d="M132.081 190.842L131.501 190.025H130.855V190.842H130.152V187.834H131.46C132.277 187.834 132.776 188.251 132.776 188.929C132.785 189.134 132.73 189.336 132.619 189.507C132.507 189.679 132.345 189.811 132.155 189.886L132.833 190.859L132.081 190.842ZM131.427 188.39H130.855V189.469H131.427C131.852 189.469 132.065 189.265 132.065 188.938C132.065 188.611 131.852 188.382 131.411 188.382L131.427 188.39Z" fill="#06184D"/>
<path d="M134.37 189.33C134.373 188.995 134.478 188.668 134.673 188.395C134.867 188.122 135.141 187.915 135.457 187.803C135.773 187.69 136.115 187.678 136.439 187.767C136.762 187.856 137.05 188.042 137.264 188.3L136.814 188.717C136.722 188.603 136.605 188.511 136.471 188.449C136.338 188.386 136.193 188.355 136.046 188.357C135.804 188.379 135.58 188.491 135.416 188.67C135.253 188.849 135.162 189.083 135.162 189.326C135.162 189.568 135.253 189.802 135.416 189.981C135.58 190.161 135.804 190.272 136.046 190.295C136.192 190.298 136.338 190.268 136.471 190.207C136.604 190.147 136.721 190.056 136.814 189.943L137.264 190.352C137.051 190.609 136.763 190.795 136.441 190.885C136.118 190.974 135.776 190.962 135.461 190.85C135.145 190.739 134.871 190.533 134.676 190.262C134.481 189.99 134.374 189.664 134.37 189.33Z" fill="#06184D"/>
<path d="M137.485 189.331C137.47 189.005 137.553 188.681 137.724 188.403C137.894 188.125 138.144 187.904 138.441 187.769C138.738 187.634 139.069 187.591 139.391 187.645C139.713 187.7 140.011 187.849 140.247 188.075C140.483 188.3 140.646 188.591 140.716 188.91C140.785 189.229 140.757 189.561 140.636 189.865C140.515 190.168 140.305 190.427 140.035 190.611C139.765 190.794 139.446 190.892 139.12 190.892C138.909 190.902 138.698 190.869 138.5 190.795C138.302 190.721 138.121 190.608 137.968 190.462C137.815 190.316 137.693 190.14 137.61 189.946C137.527 189.751 137.484 189.542 137.485 189.331ZM140.084 189.331C140.081 189.144 140.023 188.962 139.917 188.808C139.81 188.655 139.661 188.536 139.488 188.466C139.314 188.397 139.124 188.381 138.941 188.419C138.758 188.457 138.591 188.549 138.46 188.682C138.329 188.815 138.24 188.984 138.205 189.168C138.17 189.351 138.189 189.541 138.262 189.714C138.334 189.886 138.455 190.033 138.611 190.137C138.766 190.24 138.949 190.295 139.136 190.295C139.263 190.299 139.389 190.276 139.507 190.229C139.625 190.181 139.731 190.11 139.82 190.019C139.909 189.929 139.979 189.821 140.024 189.703C140.069 189.584 140.09 189.457 140.084 189.331Z" fill="#06184D"/>
<path d="M141.327 187.834H142.708C142.92 187.812 143.134 187.835 143.337 187.901C143.539 187.967 143.726 188.075 143.884 188.217C144.042 188.36 144.169 188.534 144.255 188.729C144.342 188.923 144.386 189.134 144.386 189.347C144.386 189.56 144.342 189.77 144.255 189.965C144.169 190.159 144.042 190.334 143.884 190.476C143.726 190.619 143.539 190.727 143.337 190.792C143.134 190.858 142.92 190.881 142.708 190.859H141.327V187.834ZM142.668 190.287C142.917 190.287 143.156 190.188 143.332 190.011C143.509 189.835 143.608 189.596 143.608 189.347C143.608 189.097 143.509 188.858 143.332 188.682C143.156 188.506 142.917 188.407 142.668 188.407H142.038V190.287H142.668Z" fill="#06184D"/>
<path d="M147.254 190.286V190.851H144.907V187.834H147.196V188.39H145.602V189.052H147.008V189.6H145.602V190.286H147.254Z" fill="#06184D"/>
<path d="M159.287 194.022H108.039C106.436 194.022 105.137 195.322 105.137 196.925V207.748C105.137 209.351 106.436 210.65 108.039 210.65H159.287C160.89 210.65 162.189 209.351 162.189 207.748V196.925C162.189 195.322 160.89 194.022 159.287 194.022Z" fill="#F5F5F5"/>
<path d="M116.696 203.366C116.697 203.708 116.627 204.047 116.49 204.361C116.353 204.674 116.151 204.955 115.899 205.186C115.646 205.417 115.348 205.593 115.023 205.702C114.699 205.811 114.355 205.85 114.015 205.819C111.905 205.819 110.785 204.298 110.785 201.78C110.785 199.05 112.232 197.652 114.366 197.652C114.999 197.624 115.628 197.765 116.189 198.061L115.952 198.535C115.467 198.269 114.918 198.142 114.366 198.167C112.559 198.167 111.374 199.352 111.374 201.69C111.372 202.013 111.393 202.335 111.439 202.655C111.631 202.14 111.986 201.702 112.449 201.407C112.912 201.112 113.459 200.976 114.006 201.02C115.65 200.963 116.696 201.903 116.696 203.366ZM116.107 203.366C116.107 202.213 115.29 201.469 113.925 201.469C113.65 201.441 113.373 201.47 113.11 201.552C112.848 201.635 112.604 201.77 112.395 201.95C112.186 202.13 112.016 202.35 111.896 202.598C111.775 202.846 111.706 203.115 111.693 203.391C111.693 204.331 112.51 205.279 113.998 205.279C114.268 205.313 114.542 205.289 114.802 205.208C115.062 205.127 115.301 204.991 115.504 204.81C115.707 204.628 115.869 204.406 115.979 204.157C116.088 203.908 116.143 203.638 116.14 203.366H116.107Z" fill="#15B79E"/>
<path d="M127.413 203.497H125.729V205.729H125.149V203.497H120.563V203.072L124.936 197.677H125.59L121.298 202.974H125.165V201.012H125.729V202.974H127.413V203.497Z" fill="#15B79E"/>
<path d="M136.357 203.457C136.357 204.798 135.392 205.787 133.536 205.787C133.014 205.807 132.494 205.721 132.006 205.534C131.519 205.347 131.074 205.063 130.7 204.699L130.994 204.25C131.328 204.579 131.726 204.837 132.163 205.007C132.6 205.177 133.067 205.256 133.536 205.239C134.983 205.239 135.76 204.552 135.76 203.457C135.76 202.361 135.024 201.675 133.414 201.675H132.907V201.25L135.286 198.2H130.994V197.645H136.046V198.053L133.593 201.152C135.498 201.225 136.357 202.149 136.357 203.457Z" fill="#15B79E"/>
<path d="M146.126 197.645V198.053L142.668 205.697H142.022L145.447 198.168H140.926V199.713H140.354V197.645H146.126Z" fill="#15B79E"/>
<path d="M150.213 201.732C150.213 199.214 151.513 197.645 153.36 197.645C155.208 197.645 156.516 199.206 156.516 201.732C156.516 204.258 155.216 205.819 153.36 205.819C151.505 205.819 150.213 204.184 150.213 201.732ZM155.935 201.732C155.935 199.492 154.889 198.192 153.369 198.192C151.848 198.192 150.802 199.492 150.802 201.732C150.802 203.972 151.848 205.272 153.369 205.272C154.889 205.272 155.935 203.939 155.935 201.732Z" fill="#15B79E"/>
<path d="M325.483 412.252C336.184 407.706 348.577 398.771 354.095 387.809C342.22 392.737 332.206 401.292 325.483 412.252Z" fill="#06184D"/>
<path d="M327.763 395.239C338.464 390.702 350.858 381.767 356.376 370.805C344.499 375.726 334.483 384.279 327.763 395.239Z" fill="#06184D"/>
<path d="M330.878 378.701C341.587 374.156 353.972 365.221 359.49 354.267C347.614 359.189 337.599 367.742 330.878 378.701Z" fill="#06184D"/>
<path d="M334.737 361.387C344.833 355.42 356.09 344.792 360.308 333.2C349.089 339.736 340.166 349.582 334.761 361.387" fill="#06184D"/>
<path d="M338.89 348.136C346.247 338.514 353.106 324.192 353.016 311.782C344.838 322.249 339.925 334.893 338.89 348.136Z" fill="#06184D"/>
<path d="M336.829 354.438C335.342 341.423 330.29 325.066 321.69 315.305C323.141 329.469 328.37 342.984 336.829 354.438Z" fill="#06184D"/>
<path d="M333.371 368.671C330.756 355.256 324.134 338.661 314.373 329.252C317.045 343.861 323.609 357.479 333.371 368.671Z" fill="#06184D"/>
<path d="M329.399 386.026C326.791 372.586 320.153 356.016 310.441 346.606C313.113 361.216 319.677 374.834 329.439 386.026" fill="#06184D"/>
<path d="M326.21 407.338C323.586 393.923 316.964 377.328 307.212 367.919C309.884 382.528 316.447 396.146 326.21 407.338Z" fill="#06184D"/>
<path d="M339.388 345.609C339.348 345.672 339.321 345.741 339.306 345.814C339.249 345.969 339.184 346.165 339.102 346.411C338.922 346.975 338.669 347.751 338.358 348.732C337.712 350.751 336.846 353.686 335.824 357.332C334.802 360.978 333.674 365.335 332.513 370.199C331.352 375.064 330.208 380.451 329.129 386.124C328.05 391.798 327.208 397.242 326.496 402.196C325.785 407.15 325.278 411.63 324.911 415.39C324.543 419.151 324.281 422.208 324.15 424.325C324.085 425.355 324.036 426.165 323.995 426.778C323.995 427.04 323.995 427.244 323.995 427.416C323.984 427.486 323.984 427.558 323.995 427.628C324.02 427.56 324.034 427.488 324.036 427.416C324.036 427.252 324.036 427.039 324.101 426.786C324.158 426.197 324.24 425.388 324.338 424.334C324.518 422.233 324.821 419.183 325.229 415.423C325.638 411.663 326.202 407.199 326.905 402.253C327.608 397.307 328.54 391.879 329.57 386.206C330.6 380.533 331.794 375.162 332.914 370.289C334.034 365.417 335.145 361.06 336.135 357.406C337.124 353.752 337.941 350.809 338.538 348.781L339.208 346.435C339.274 346.19 339.323 345.985 339.372 345.822C339.387 345.752 339.392 345.681 339.388 345.609Z" fill="#06184D"/>
<path d="M320.251 419.331C324.788 409.831 328.091 396.441 325.867 386.034C320.794 396.35 318.842 407.922 320.251 419.331Z" fill="#455A64"/>
<path d="M312.722 407.028C317.259 397.52 320.561 384.138 318.33 373.731C313.255 384.046 311.305 395.62 312.722 407.028Z" fill="#455A64"/>
<path d="M305.953 394.512C310.49 385.005 313.793 371.622 311.561 361.216C306.486 371.531 304.537 383.104 305.953 394.512Z" fill="#455A64"/>
<path d="M299.282 381.015C302.658 370.96 304.351 357.243 300.917 347.212C297.108 358.083 296.54 369.827 299.282 381.015Z" fill="#455A64"/>
<path d="M294.909 369.962C294.573 359.261 291.426 345.854 284.78 337.949C284.928 349.385 288.452 360.522 294.909 369.962Z" fill="#455A64"/>
<path d="M296.944 375.268C289.072 367.846 277.104 360.464 266.346 359.499C274.76 367.667 285.409 373.155 296.944 375.268Z" fill="#455A64"/>
<path d="M302.266 386.534C293.445 379.536 280.333 372.98 269.002 372.955C278.5 380.676 290.078 385.402 302.266 386.534Z" fill="#455A64"/>
<path d="M308.888 400.112C300.067 393.122 286.963 386.558 275.632 386.533C285.128 394.253 296.702 398.979 308.888 400.112Z" fill="#455A64"/>
<path d="M318.133 415.742C309.313 408.744 296.2 402.188 284.87 402.155C294.365 409.882 305.944 414.611 318.133 415.742Z" fill="#455A64"/>
<path d="M293.911 368.025C293.911 368.025 293.911 368.083 293.96 368.197L294.14 368.704L294.876 370.625C295.522 372.26 296.511 374.712 297.762 377.639C300.279 383.517 304.015 391.536 308.651 400.153C310.972 404.445 313.302 408.483 315.477 412.104C317.651 415.726 319.719 418.947 321.493 421.612C323.267 424.277 324.763 426.41 325.777 427.866L326.987 429.501L327.306 429.926C327.379 430.024 327.42 430.073 327.428 430.065C327.402 430.008 327.372 429.954 327.338 429.901L327.052 429.452C326.766 429.035 326.39 428.462 325.908 427.743C324.894 426.263 323.455 424.105 321.73 421.424C320.006 418.742 317.97 415.505 315.795 411.884C313.621 408.262 311.324 404.216 309.002 399.924C304.367 391.389 300.631 383.378 298.023 377.492C296.732 374.565 295.71 372.186 295.023 370.535L294.206 368.639L293.985 368.148C293.964 368.105 293.94 368.064 293.911 368.025Z" fill="#06184D"/>
<path d="M298.653 420.483H343.745V429.173H339.11L335.211 453.96H307.334L303.321 429.173H298.653V420.483Z" fill="#15B79E"/>
<path d="M298.653 428.994C298.653 428.879 308.675 428.781 321.036 428.781C333.396 428.781 343.418 428.879 343.418 428.994C343.418 429.108 333.404 429.198 321.036 429.198C308.667 429.198 298.653 429.108 298.653 428.994Z" fill="#06184D"/>
<path d="M40.3505 453.976H33.034L30.3199 421.023H38.9363L40.3505 453.976Z" fill="#06184D"/>
<path d="M103.788 453.976H111.104L113.818 421.023H105.202L103.788 453.976Z" fill="#06184D"/>
<path d="M118.846 425.201L24.6384 427.408L21.7772 366.562C21.7097 365.15 21.9295 363.74 22.4233 362.416C22.9171 361.092 23.6746 359.881 24.6499 358.859C25.6252 357.836 26.798 357.022 28.0973 356.466C29.3965 355.91 30.7951 355.624 32.2083 355.624H112.478C113.91 355.624 115.328 355.919 116.642 356.49C117.955 357.06 119.138 357.896 120.115 358.943C121.093 359.99 121.845 361.227 122.324 362.577C122.803 363.927 122.999 365.362 122.901 366.791L118.846 425.201Z" fill="#15B79E"/>
<path d="M123.677 366.358H123.416H122.639L119.672 366.407H108.75C99.5286 366.407 86.7922 366.325 72.7313 366.652C58.6623 367.118 45.9095 367.037 36.6964 366.898C32.0858 366.824 28.3498 366.734 25.7747 366.652L22.8073 366.554H22.0388C21.952 366.566 21.8641 366.566 21.7772 366.554H22.0388H22.8073H25.7747L36.6964 366.661C45.9177 366.726 58.6542 366.759 72.7232 366.285C86.7922 365.966 99.5286 366.113 108.75 366.178L119.672 366.268L122.639 366.309H123.416L123.677 366.358Z" fill="#06184D"/>
<path d="M56.1363 356.573C54.0188 356.883 51.9585 357.502 50.0215 358.412C48.1459 359.444 46.4348 360.75 44.9449 362.287C45.2449 361.717 45.6403 361.203 46.1139 360.767C48.2869 358.531 51.138 357.077 54.2234 356.63C54.8527 356.499 55.5003 356.479 56.1363 356.573Z" fill="#06184D"/>
<path d="M94.8853 245.941L106.396 266.975L123.236 257.542L131.411 260.247C131.411 260.247 110.777 282.663 107.417 283.832C104.058 285.001 97.6975 285.189 94.0678 280.636C90.7979 276.491 81.1188 254.746 81.1188 254.746L94.8853 245.941Z" fill="#FFBE9D"/>
<path d="M142.292 232.208C142.144 232.027 141.952 231.886 141.734 231.8C141.517 231.715 141.281 231.686 141.049 231.718L133.046 232.797C132.698 232.849 132.365 232.975 132.07 233.167C131.776 233.358 131.526 233.611 131.337 233.908L114.652 259.537L115.928 260.248L124.805 259.97L142.545 232.527L142.292 232.208Z" fill="#06184D"/>
<path d="M136.61 235.535C136.674 235.636 136.768 235.715 136.88 235.76C136.991 235.805 137.113 235.814 137.23 235.785C137.346 235.757 137.451 235.692 137.529 235.601C137.607 235.51 137.654 235.397 137.664 235.277C137.674 235.157 137.646 235.038 137.585 234.935C137.523 234.832 137.43 234.751 137.32 234.704C137.21 234.656 137.087 234.645 136.97 234.671C136.853 234.697 136.747 234.759 136.667 234.848C136.573 234.934 136.515 235.053 136.504 235.18C136.493 235.308 136.531 235.434 136.61 235.535Z" fill="white"/>
<path d="M142.545 232.526C142.036 232.669 141.517 232.77 140.992 232.829L136.741 233.491L133.806 233.916C133.557 233.938 133.316 234.016 133.101 234.143C132.886 234.271 132.703 234.444 132.563 234.652L131.615 236.123C130.299 238.143 128.868 240.358 127.364 242.663C124.331 247.307 121.568 251.5 119.541 254.525L117.129 258.138C116.849 258.587 116.534 259.013 116.189 259.414C116.419 258.932 116.693 258.472 117.007 258.04L119.296 254.394C121.249 251.32 123.963 247.102 126.996 242.459C128.517 240.145 129.964 237.938 131.28 235.919C131.615 235.42 131.942 234.93 132.253 234.447C132.427 234.197 132.654 233.988 132.919 233.835C133.183 233.683 133.477 233.59 133.781 233.565L136.733 233.189L141.008 232.682C141.515 232.589 142.029 232.537 142.545 232.526Z" fill="#455A64"/>
<path d="M133.642 241.674C133.642 241.674 132.931 241.551 132.539 243.505C132.146 245.459 130.904 251.067 130.904 251.067L127.16 249.08L122.467 249.694C122.467 249.694 121.446 250.634 122.198 251.149C122.95 251.664 125.909 252.187 125.909 252.187L128.092 255.334L121.822 252.31C121.822 252.31 119.729 252.857 120.342 254.133C120.955 255.408 125.181 259.405 125.181 259.405L122.042 259.168L118.331 256.896C118.331 256.896 117.186 256.953 117.612 257.926C118.037 258.899 121.928 262.43 121.928 262.43L126.637 264.719C126.637 264.719 129.212 264.515 129.457 263.754C129.623 263.156 129.728 262.543 129.768 261.923C129.768 261.923 131.133 261.555 131.403 260.893C131.553 260.336 131.583 259.754 131.492 259.185C131.492 259.185 133.634 259.561 133.904 258.367C134.091 256.88 134.031 255.371 133.724 253.904C133.512 252.98 134.64 244.437 134.542 244.184C134.444 243.93 134.991 241.11 133.642 241.674Z" fill="#FFBE9D"/>
<path d="M129.58 263.771C129.207 263.994 128.787 264.123 128.353 264.147C126.264 264.451 124.139 263.945 122.41 262.733C121.764 262.267 121.446 261.916 121.486 261.842C121.527 261.768 123.064 263.011 125.353 263.542C127.642 264.074 129.555 263.624 129.58 263.771Z" fill="#EB996E"/>
<path d="M128.468 262.079C128.394 262.185 127.552 261.752 126.661 261.016C125.77 260.28 125.181 259.553 125.271 259.463C125.361 259.373 126.089 259.929 126.972 260.648C127.855 261.367 128.541 261.964 128.468 262.079Z" fill="#EB996E"/>
<path d="M130.945 258.016C130.871 258.122 130.037 257.697 129.203 256.92C128.37 256.144 127.879 255.359 127.977 255.285C128.075 255.212 128.729 255.833 129.53 256.577C130.332 257.321 131.018 257.901 130.945 258.016Z" fill="#EB996E"/>
<path d="M133.553 254.738C133.422 254.795 132.948 253.92 132.204 252.947C131.46 251.974 130.732 251.312 130.814 251.182C130.896 251.051 131.795 251.623 132.58 252.653C133.118 253.227 133.458 253.957 133.553 254.738Z" fill="#EB996E"/>
<path d="M136.733 406.349C136.795 406.094 136.795 405.828 136.733 405.573C136.6 404.866 136.322 404.195 135.915 403.603C135.782 403.397 135.626 403.208 135.449 403.039C135.333 402.929 135.19 402.853 135.035 402.819C134.879 402.784 134.717 402.792 134.566 402.842C134.477 402.873 134.396 402.924 134.33 402.99C134.263 403.057 134.213 403.138 134.182 403.227C134.125 403.396 134.125 403.58 134.182 403.75C134.294 404.034 134.43 404.307 134.591 404.567C134.893 405.082 135.147 405.589 135.539 406.202C135.653 406.367 135.811 406.497 135.993 406.579C136.176 406.661 136.378 406.692 136.577 406.668C136.943 406.603 137.287 406.452 137.583 406.227C138.124 405.83 138.618 405.372 139.054 404.862C139.264 404.619 139.461 404.365 139.643 404.101C139.842 403.843 139.989 403.549 140.076 403.235C140.125 403.05 140.108 402.854 140.027 402.681C139.946 402.507 139.807 402.368 139.635 402.286C139.473 402.239 139.302 402.233 139.137 402.27C138.972 402.308 138.82 402.386 138.695 402.499C138.321 402.825 137.991 403.199 137.714 403.611C137.302 404.189 136.975 404.822 136.741 405.491C136.633 405.727 136.577 405.984 136.577 406.243C136.965 405.383 137.433 404.562 137.975 403.791C138.252 403.423 138.57 403.088 138.923 402.793C139.111 402.662 139.34 402.573 139.479 402.646C139.56 402.694 139.622 402.768 139.655 402.855C139.687 402.943 139.689 403.04 139.659 403.128C139.574 403.384 139.444 403.622 139.275 403.831C139.103 404.077 138.915 404.314 138.719 404.551C138.296 405.026 137.825 405.456 137.313 405.834C137.074 406.019 136.793 406.142 136.496 406.194C136.374 406.209 136.25 406.189 136.138 406.137C136.027 406.085 135.933 406.003 135.866 405.9C135.547 405.434 135.237 404.853 134.934 404.371C134.795 404.118 134.623 403.872 134.542 403.668C134.46 403.464 134.542 403.3 134.664 403.235C135.016 403.096 135.367 403.496 135.604 403.831C136.136 404.592 136.519 405.446 136.733 406.349Z" fill="#06184D"/>
<path d="M116.647 407.036L106.674 428.658L90.5771 421.219L100.894 394.463L116.647 407.036Z" fill="#FFBE9D"/>
<path d="M108.521 427.212L102.692 438.33C102.692 438.33 117.612 453.756 116.214 457.205L81.1433 440.39L90.7733 418.097L108.521 427.212Z" fill="#455A64"/>
<path d="M92.6126 431.61C92.2272 431.561 91.8371 431.651 91.512 431.864C91.187 432.077 90.9483 432.398 90.8387 432.771C90.7647 433.155 90.8415 433.553 91.0531 433.881C91.2647 434.21 91.5949 434.445 91.975 434.537C92.3844 434.599 92.8022 434.507 93.1479 434.279C93.4936 434.051 93.7426 433.703 93.8471 433.302C93.8818 432.893 93.7563 432.486 93.4971 432.167C93.2379 431.849 92.8651 431.643 92.4573 431.594" fill="#E0E0E0"/>
<g opacity="0.6">
<path d="M81.176 440.39L82.6311 437.594L115.715 454.761C115.715 454.761 116.949 456.183 116.246 457.213L81.176 440.39Z" fill="white"/>
</g>
<path d="M103.379 438.419C103.297 438.591 102.398 438.256 101.294 438.419C100.191 438.583 99.3896 439.073 99.267 438.926C99.1444 438.779 99.872 437.921 101.213 437.765C102.553 437.61 103.493 438.28 103.379 438.419Z" fill="#06184D"/>
<path d="M106.33 441.706C106.33 441.894 105.406 441.828 104.483 442.27C103.559 442.711 103.019 443.406 102.848 443.316C102.676 443.226 103.036 442.204 104.205 441.681C105.374 441.158 106.404 441.542 106.33 441.706Z" fill="#06184D"/>
<path d="M106.306 447.11C106.134 447.11 106.306 446.104 107.197 445.377C108.088 444.649 109.069 444.657 109.069 444.837C109.069 445.017 108.341 445.279 107.614 445.883C106.886 446.488 106.485 447.175 106.306 447.11Z" fill="#06184D"/>
<path d="M105.055 434.144C104.908 434.266 104.237 433.653 103.24 433.253C102.243 432.852 101.335 432.795 101.319 432.607C101.303 432.419 102.316 432.157 103.485 432.607C104.654 433.056 105.202 434.046 105.055 434.144Z" fill="#06184D"/>
<path d="M111.84 424.326L138.139 358.526C138.139 358.526 137.542 347.294 135.474 343.754C133.405 340.215 70.7693 319.524 70.7693 319.524C70.7693 319.524 54.8201 315.682 44.1764 319.524C33.5327 323.366 25.5621 336.691 27.0091 344.049C28.4561 351.406 34.718 356.859 34.718 356.859L80.7836 358.232L105.889 367.388L88.983 415.841L111.84 424.326Z" fill="#06184D"/>
<path d="M135.228 379.364L135.825 403.161L118.094 403.602L115.543 375.039L135.228 379.364Z" fill="#FFBE9D"/>
<path d="M136.88 401.036L136.553 413.584C136.553 413.584 156.745 420.835 156.99 424.555L118.102 424.947L116.9 400.692L136.88 401.036Z" fill="#455A64"/>
<path d="M124.511 412.023C124.138 412.14 123.822 412.392 123.623 412.728C123.423 413.064 123.356 413.463 123.432 413.846C123.536 414.223 123.78 414.546 124.115 414.748C124.449 414.95 124.849 415.016 125.23 414.933C125.625 414.807 125.958 414.539 126.166 414.181C126.375 413.823 126.443 413.401 126.359 412.996C126.212 412.613 125.921 412.302 125.549 412.129C125.176 411.957 124.751 411.936 124.364 412.072" fill="#E0E0E0"/>
<g opacity="0.6">
<path d="M118.127 424.947L118.2 421.792L155.461 422.609C155.461 422.609 157.194 423.345 157.015 424.571L118.127 424.947Z" fill="white"/>
</g>
<path d="M137.182 413.38C137.182 413.568 136.226 413.666 135.302 414.287C134.378 414.908 133.88 415.709 133.708 415.636C133.536 415.562 133.806 414.459 134.942 413.731C136.079 413.004 137.223 413.208 137.182 413.38Z" fill="#06184D"/>
<path d="M141.278 415.023C141.327 415.211 140.501 415.538 139.864 416.347C139.226 417.157 139.046 417.982 138.866 417.982C138.686 417.982 138.539 416.903 139.357 415.906C140.174 414.908 141.27 414.843 141.278 415.023Z" fill="#06184D"/>
<path d="M143.673 419.887C143.501 419.928 143.232 418.98 143.673 417.933C144.115 416.887 145.038 416.47 145.12 416.625C145.202 416.781 144.654 417.345 144.303 418.203C143.951 419.061 143.828 419.862 143.673 419.887Z" fill="#06184D"/>
<path d="M136.79 408.802C136.716 408.974 135.841 408.72 134.771 408.802C133.7 408.884 132.866 409.235 132.76 409.072C132.653 408.908 133.454 408.254 134.722 408.148C135.989 408.042 136.888 408.647 136.79 408.802Z" fill="#06184D"/>
<path d="M124.871 313.278C124.871 313.278 135.498 312.461 136.675 323.955C137.853 335.449 139.013 389.256 139.013 389.256L114.243 391.324L110.401 336.364L70.8102 319.524C70.8102 319.524 117.783 311.807 124.871 313.278Z" fill="#06184D"/>
<path d="M81.1024 297.729C81.1024 297.729 87.5442 315.804 86.318 317.815C85.0918 319.826 68.5213 328.116 68.5213 328.116L27.0418 344.048C27.0418 344.048 22.7827 337.271 22.7827 326.881C22.7827 316.491 37.2114 297.746 37.2114 297.746L81.1024 297.729Z" fill="#06184D"/>
<path d="M68.8074 318.633C68.8689 318.675 68.9347 318.711 69.0036 318.739L69.5922 319.009L71.8893 320.031L80.5138 323.791L110.279 336.601L110.14 336.413C110.516 341.841 110.957 347.703 111.341 353.769C112.355 367.952 113.287 381.024 114.023 391.373V391.561H114.211L132.294 389.975L137.272 389.509L138.572 389.378L139.013 389.313C138.864 389.3 138.713 389.3 138.564 389.313L137.264 389.395L132.277 389.763L114.178 391.185L114.382 391.357C113.671 381.015 112.747 367.936 111.799 353.752C111.374 347.686 110.982 341.825 110.573 336.397V336.266L110.45 336.209L80.6201 323.538L71.9465 319.908L69.6249 318.952L69.0199 318.715C68.9513 318.682 68.8802 318.655 68.8074 318.633Z" fill="#455A64"/>
<path d="M35.8217 320.407C36.2212 320.345 36.6131 320.241 36.9907 320.096L40.1135 319.083C43.5217 317.931 47.0149 317.048 50.561 316.442C54.1087 315.863 57.7304 315.91 61.2619 316.581C63.9596 317.145 65.5129 317.914 65.5456 317.824C65.2104 317.597 64.8478 317.413 64.4665 317.276C63.4535 316.85 62.4061 316.511 61.3355 316.262C57.7668 315.485 54.0831 315.39 50.4792 315.985C46.9046 316.588 43.3936 317.522 39.9909 318.772C38.6829 319.238 37.6365 319.639 36.9089 319.925C36.5338 320.055 36.1702 320.217 35.8217 320.407Z" fill="#455A64"/>
<path d="M41.683 310.883C42.8918 310.809 44.1039 310.809 45.3127 310.883C46.4327 310.957 47.7652 311.128 49.2367 311.3C50.7081 311.472 52.3349 311.676 54.019 311.995C56.9003 312.453 59.6622 313.479 62.1448 315.011C63.1355 315.701 64.0778 316.458 64.9651 317.276C64.8024 316.989 64.5986 316.727 64.3602 316.499C63.7472 315.839 63.0647 315.247 62.3247 314.733C59.8429 313.093 57.0388 312.003 54.1007 311.537C52.4003 311.218 50.7654 311.03 49.2857 310.875C47.806 310.72 46.4654 310.589 45.329 310.556C44.4336 310.517 43.5365 310.555 42.6477 310.671C42.3176 310.695 41.9928 310.766 41.683 310.883Z" fill="#455A64"/>
<path d="M60.003 165.664C55.237 164.846 51.0106 166.685 47.0131 169.375C42.9218 172.251 39.8038 176.305 38.0747 180.998C36.3455 185.69 36.0871 190.798 37.334 195.641C38.0244 198.102 39.206 200.398 40.8077 202.39C42.4094 204.383 44.3979 206.03 46.6534 207.233C52.8581 210.38 60.796 209.285 66.3549 205.083C71.9138 200.881 75.0775 193.941 75.3473 186.984C75.6048 182.159 74.3409 177.375 71.734 173.307C70.4123 171.297 68.6908 169.581 66.6767 168.266C64.6626 166.951 62.3992 166.065 60.0275 165.664" fill="#06184D"/>
<path d="M46.4327 181.891C47.1357 180.059 46.8578 178.024 47.1357 176.086C47.7488 171.827 51.2232 168.41 55.1471 166.751C58.8422 165.206 63.322 165.541 67.8019 166.98C70.8919 167.916 73.6511 169.714 75.756 172.163C77.0956 173.824 78.0173 175.782 78.444 177.873C78.8707 179.964 78.79 182.126 78.2085 184.18L56.4142 181.008C54.3705 182.692 52.2777 184.417 49.8007 185.357C49.0867 185.67 48.304 185.794 47.5281 185.716C47.1416 185.671 46.7766 185.514 46.4765 185.266C46.1764 185.018 45.954 184.689 45.8359 184.319C45.6397 183.493 46.1302 182.684 46.4327 181.891Z" fill="#06184D"/>
<path d="M68.2678 172.997L49.2367 177.035C48.3547 177.094 47.526 177.479 46.9124 178.115C46.2988 178.751 45.9442 179.593 45.9177 180.477L46.1466 221.67C46.1658 224.482 47.1079 227.211 48.8279 229.436L50.6428 231.774C54.7874 237.112 63.1667 236.573 66.3304 230.605C66.5239 230.266 66.6723 229.903 66.7718 229.526C66.829 229.158 66.9271 228.913 66.9435 228.602L67.3114 224.58C67.4912 220.918 67.5239 217.223 67.5239 217.223C67.5239 217.223 75.3146 216.242 77.3338 206.203C78.3229 201.216 78.3884 192.968 78.2249 186.224C78.0532 180.182 74.3336 172.596 68.2678 172.997Z" fill="#FFBE9D"/>
<path d="M75.3064 193.99C75.2958 194.327 75.1539 194.646 74.911 194.88C74.6682 195.113 74.3436 195.243 74.0066 195.241C73.8411 195.248 73.6758 195.223 73.5204 195.165C73.3651 195.108 73.2229 195.019 73.1024 194.906C72.9819 194.792 72.8854 194.655 72.8189 194.504C72.7523 194.352 72.717 194.188 72.715 194.023C72.7276 193.686 72.8699 193.367 73.112 193.132C73.3542 192.898 73.6776 192.766 74.0148 192.764C74.1807 192.757 74.3462 192.784 74.5016 192.842C74.657 192.901 74.7991 192.99 74.9195 193.104C75.0399 193.218 75.1361 193.356 75.2026 193.508C75.2691 193.66 75.3044 193.824 75.3064 193.99Z" fill="#06184D"/>
<path d="M76.2547 190.466C76.083 190.63 75.1347 189.87 73.7368 189.821C72.3389 189.771 71.2844 190.425 71.1536 190.246C71.0228 190.066 71.2517 189.87 71.7095 189.567C72.3293 189.169 73.0582 188.975 73.7941 189.011C74.5168 189.036 75.2129 189.291 75.7806 189.739C76.1975 190.09 76.3364 190.401 76.2547 190.466Z" fill="#06184D"/>
<path d="M62.8152 193.671C62.8066 194.009 62.6657 194.331 62.4226 194.566C62.1795 194.802 61.8538 194.932 61.5154 194.93C61.3506 194.937 61.1861 194.91 61.0317 194.852C60.8773 194.794 60.7361 194.706 60.6165 194.592C60.4969 194.479 60.4012 194.342 60.3351 194.191C60.2691 194.04 60.234 193.877 60.2319 193.712C60.2405 193.375 60.3803 193.055 60.6216 192.82C60.8629 192.585 61.1866 192.453 61.5236 192.453C61.6888 192.447 61.8536 192.473 62.0085 192.531C62.1633 192.589 62.3051 192.677 62.4254 192.791C62.5456 192.904 62.6421 193.04 62.709 193.192C62.776 193.343 62.8121 193.506 62.8152 193.671Z" fill="#06184D"/>
<path d="M63.0195 190.131C62.8479 190.295 61.8996 189.526 60.5017 189.477C59.1038 189.428 58.0492 190.082 57.9184 189.911C57.7876 189.739 58.0165 189.535 58.4825 189.224C59.102 188.832 59.8263 188.638 60.5589 188.668C61.2847 188.697 61.9827 188.955 62.5536 189.404C62.9623 189.747 63.1013 190.058 63.0195 190.131Z" fill="#06184D"/>
<path d="M67.1969 200.726C67.9427 200.534 68.7079 200.427 69.4777 200.407C69.8374 200.407 70.1726 200.326 70.2462 200.089C70.2882 199.723 70.2198 199.353 70.05 199.026C69.7475 198.151 69.4287 197.236 69.1017 196.271C67.7855 192.355 66.8536 189.142 67.0089 189.093C67.1642 189.044 68.3659 192.175 69.6739 196.091C69.9846 197.056 70.287 197.971 70.5732 198.854C70.7832 199.292 70.8295 199.791 70.704 200.26C70.6463 200.383 70.5622 200.491 70.4576 200.578C70.3529 200.664 70.2305 200.726 70.099 200.759C69.9001 200.8 69.6972 200.819 69.4941 200.816C68.7278 200.888 67.9553 200.858 67.1969 200.726Z" fill="#06184D"/>
<path d="M67.5239 217.264C62.7666 217.155 58.1333 215.726 54.1416 213.136C54.1416 213.136 57.2644 220.256 67.4095 219.676L67.5239 217.264Z" fill="#EB996E"/>
<path d="M66.4775 204.062C66.2253 203.718 65.8893 203.444 65.5016 203.267C65.1138 203.089 64.6872 203.014 64.2621 203.048C63.9481 203.065 63.6408 203.146 63.3595 203.286C63.0782 203.427 62.8289 203.624 62.6272 203.865C62.4358 204.088 62.3162 204.363 62.2841 204.655C62.252 204.947 62.3089 205.242 62.4473 205.5C62.6619 205.758 62.9482 205.946 63.2699 206.041C63.5915 206.135 63.9341 206.132 64.254 206.032C64.9228 205.826 65.543 205.487 66.077 205.034C66.2403 204.932 66.3819 204.799 66.4939 204.642C66.5452 204.564 66.5726 204.473 66.5726 204.38C66.5726 204.287 66.5452 204.196 66.4939 204.119" fill="#EB996E"/>
<path d="M63.0604 201.536C63.2893 201.536 63.2321 203.04 64.4828 204.168C65.7336 205.296 67.3522 205.19 67.3604 205.402C67.3604 205.492 66.9844 205.68 66.3059 205.672C65.418 205.649 64.5668 205.313 63.9024 204.724C63.271 204.167 62.8786 203.388 62.807 202.549C62.7416 201.887 62.9541 201.519 63.0604 201.536Z" fill="#06184D"/>
<path d="M62.9378 185.995C62.7907 186.371 61.4009 186.134 59.7578 186.265C58.1146 186.396 56.7821 186.796 56.5777 186.445C56.4878 186.281 56.7249 185.93 57.2726 185.586C57.9987 185.156 58.8173 184.907 59.6597 184.859C60.4962 184.787 61.3375 184.919 62.1121 185.243C62.7416 185.504 63.0032 185.815 62.9378 185.995Z" fill="#06184D"/>
<path d="M76.083 184.36C75.8296 184.671 74.8813 184.303 73.7287 184.238C72.576 184.172 71.5868 184.369 71.3743 184.033C71.2762 183.87 71.4479 183.559 71.8811 183.273C72.4678 182.927 73.1481 182.773 73.8267 182.832C74.5032 182.868 75.1516 183.114 75.6824 183.535C76.0748 183.878 76.1975 184.213 76.083 184.36Z" fill="#06184D"/>
<path d="M42.942 178.949C44.9203 173.153 53.5694 165.256 59.6351 165.803L69.2815 171.845C68.9304 173.504 68.1373 175.037 66.9859 176.281C65.8346 177.526 64.3681 178.437 62.7416 178.916C61.0003 179.406 58.9239 179.513 57.8367 180.976C56.7494 182.439 57.3298 184.687 56.3243 186.224C54.9264 188.366 51.2395 188.186 50.1768 190.508C49.719 191.522 49.9234 192.748 49.441 193.778C48.8034 195.119 45.3536 196.762 43.9393 196.288C42.5251 195.813 42.5741 193.402 42.1409 192.127C41.5832 190.692 41.5427 189.108 42.0264 187.647C42.7294 184.777 42.0019 181.712 42.942 178.949Z" fill="#06184D"/>
<path d="M48.1249 197.538C48.1249 196.786 47.3074 194.979 46.6125 194.832C44.6424 194.448 41.0618 194.472 40.8329 199.508C40.5222 206.391 47.4954 205.279 47.52 205.083C47.5445 204.887 48.0268 200.137 48.1249 197.538Z" fill="#FFBE9D"/>
<path d="M45.5743 202.386C45.5743 202.386 45.4517 202.459 45.2391 202.541C44.9532 202.656 44.634 202.656 44.3481 202.541C43.6287 202.238 43.0728 201.053 43.0891 199.819C43.1025 199.226 43.2448 198.643 43.5061 198.11C43.5816 197.898 43.7074 197.708 43.8726 197.556C44.0377 197.404 44.2373 197.294 44.4543 197.235C44.5929 197.204 44.7382 197.223 44.864 197.289C44.9899 197.354 45.0881 197.463 45.141 197.595C45.2228 197.791 45.141 197.93 45.2146 197.938C45.2882 197.947 45.3618 197.832 45.3209 197.546C45.2952 197.374 45.208 197.217 45.0756 197.105C44.9849 197.027 44.8796 196.968 44.7659 196.932C44.6522 196.895 44.5324 196.882 44.4135 196.892C44.1286 196.937 43.8599 197.054 43.6325 197.231C43.4051 197.408 43.2266 197.64 43.1137 197.906C42.796 198.488 42.6248 199.139 42.615 199.802C42.615 201.192 43.2445 202.525 44.25 202.86C44.4322 202.921 44.6256 202.941 44.8165 202.918C45.0073 202.896 45.1907 202.831 45.3536 202.729C45.5089 202.549 45.5743 202.394 45.5743 202.386Z" fill="#EB996E"/>
<path d="M41.4869 177.207C41.4869 175.048 38.8219 173.642 36.7209 173.119C34.5774 172.751 32.373 173.172 30.5162 174.304C29.4125 174.909 28.3008 175.776 28.0637 177.01C27.8266 178.245 29.0038 179.716 30.181 179.275C29.6057 179.463 29.0793 179.777 28.64 180.193C28.2007 180.609 27.8593 181.118 27.6406 181.683C27.4219 182.247 27.3313 182.853 27.3753 183.457C27.4193 184.061 27.5968 184.647 27.8951 185.174C28.1933 185.7 28.6048 186.154 29.0999 186.503C29.595 186.851 30.1612 187.085 30.7578 187.188C31.3543 187.291 31.9662 187.26 32.5493 187.097C33.1324 186.935 33.6721 186.645 34.1295 186.248C33.5323 188.244 32.2684 189.976 30.5489 191.153C32.3276 191.408 34.1423 191.19 35.81 190.521C37.4778 189.852 38.9397 188.755 40.0487 187.341C41.1577 185.927 41.8745 184.246 42.127 182.467C42.3795 180.688 42.1587 178.873 41.4869 177.207Z" fill="#06184D"/>
<path d="M36.6964 188.112C36.4918 187.443 36.4033 186.744 36.4348 186.044C36.4074 182.643 37.5246 179.332 39.6067 176.643C39.9998 176.065 40.4925 175.561 41.0618 175.155C39.6241 176.991 38.4771 179.037 37.661 181.221C36.3939 184.9 36.8517 188.121 36.6964 188.112Z" fill="#15B79E"/>
<path d="M67.2705 169.767C67.9 172.571 72.1754 176.16 74.0311 178.343C77.5954 182.504 78.2984 183.886 78.2657 193.197C79.9498 189.984 81.2414 186.828 81.1106 183.207C81.0312 179.539 79.6122 176.026 77.1213 173.332C75.8748 172.017 74.3395 171.011 72.6368 170.392C70.9342 169.774 69.111 169.56 67.3114 169.767" fill="#06184D"/>
<path d="M96.463 246.35C96.463 246.35 89.0402 233.982 86.9801 231.48C85.326 229.547 83.2472 228.022 80.9062 227.025C79.9816 226.626 79.0129 226.338 78.0205 226.167L67.3441 223.804C67.3441 223.804 67.3441 231.088 59.7005 231.537C52.057 231.987 45.6479 221.352 45.6479 221.352C45.6479 221.352 33.312 223.264 30.369 224.785C27.426 226.306 22.7827 228.227 20.2321 240.971L18.4418 253.463L39.6966 255.425L41.7321 287.012L52.2696 294.37C52.2696 294.37 81.4948 301.964 83.3342 302.463C85.1735 302.962 85.7866 255.441 85.7866 255.441C85.7866 255.441 93.3566 250.61 96.463 246.35Z" fill="#06184D"/>
<path d="M82.4676 241.036C82.6398 241.325 82.7797 241.632 82.8845 241.952C83.1216 242.548 83.4322 243.423 83.7756 244.519C85.5626 250.258 86.2993 256.273 85.9501 262.275C85.8847 263.419 85.7948 264.343 85.6967 264.98C85.675 265.313 85.6175 265.642 85.525 265.961C85.4859 265.63 85.4859 265.295 85.525 264.964C85.5659 264.326 85.6149 263.403 85.6395 262.258C85.7191 259.282 85.5825 256.304 85.2307 253.348C84.8621 250.396 84.2774 247.475 83.4813 244.609C83.1788 243.505 82.909 242.614 82.7128 242.009C82.5971 241.694 82.5149 241.368 82.4676 241.036Z" fill="#455A64"/>
<path d="M81.5439 292.776L41.4869 284.062L39.6393 255.449L21.8426 253.814C21.8426 253.814 22.5048 273.369 23.1833 279.157C24.1724 287.52 29.1101 298.932 32.004 301.229C34.8979 303.526 83.3015 302.48 83.3015 302.48L81.5439 292.776Z" fill="#FFBE9D"/>
<path d="M104.278 297.958C104.145 298.235 103.932 298.465 103.667 298.619C103.402 298.774 103.097 298.845 102.79 298.825C102.66 298.816 102.531 298.791 102.406 298.751C101.515 298.465 101.589 296.658 101.589 296.658L97.3541 295.972C97.3541 295.972 91.836 299.528 89.8741 301.882C87.9121 304.236 82.909 302.332 82.909 302.332L81.176 293.29L88.983 286.235C88.983 286.235 88.5088 286.652 89.0484 285.336C89.5879 284.02 92.0322 284.519 92.0322 284.519C92.4164 283.865 94.0187 283.636 94.0187 283.636L100.869 284.453C101.565 284.534 102.234 284.77 102.827 285.143C103.42 285.517 103.921 286.018 104.295 286.611L107.197 291.198C107.197 291.198 108.725 294.467 108.48 295.285C108.371 295.613 108.142 295.888 107.839 296.055C107.536 296.222 107.181 296.268 106.845 296.184C106.845 296.184 106.51 298.359 105.938 298.432C105.353 298.402 104.779 298.263 104.246 298.024L104.278 297.958Z" fill="#FFBE9D"/>
<path d="M89.7188 291.467C89.7188 291.541 90.6343 291.467 92.0976 291.516C93.9979 291.608 95.8765 291.96 97.6811 292.563C98.6744 292.897 99.6394 293.309 100.567 293.797C101.384 294.263 102.251 294.615 102.521 295.244C102.582 295.375 102.607 295.519 102.594 295.663C102.581 295.806 102.53 295.944 102.447 296.062C102.323 296.255 102.144 296.406 101.932 296.495C101.738 296.563 101.533 296.593 101.327 296.585C101.327 296.585 101.54 296.773 101.981 296.658C102.248 296.586 102.481 296.424 102.643 296.201C102.761 296.052 102.838 295.875 102.867 295.687C102.895 295.499 102.875 295.307 102.807 295.13C102.633 294.736 102.349 294.401 101.989 294.165C101.613 293.928 101.221 293.675 100.788 293.438C99.8487 292.922 98.8667 292.49 97.8528 292.146C96.0093 291.523 94.0763 291.205 92.1303 291.206C91.3177 291.165 90.5038 291.254 89.7188 291.467Z" fill="#EB996E"/>
<path d="M89.2283 295.833C89.2283 295.964 92.0241 295.833 95.4494 296.046C98.8747 296.258 101.621 296.667 101.646 296.536C101.074 296.311 100.475 296.166 99.8638 296.103C98.411 295.856 96.9453 295.693 95.4739 295.612C94.0008 295.53 92.5243 295.53 91.0513 295.612C90.4364 295.602 89.8229 295.676 89.2283 295.833Z" fill="#EB996E"/>
<path d="M104.237 297.787C104.298 297.549 104.328 297.305 104.327 297.059C104.369 296.39 104.369 295.718 104.327 295.048C104.304 294.581 104.241 294.116 104.139 293.659C104.016 293.123 103.788 292.618 103.469 292.171C102.794 291.136 101.922 290.244 100.902 289.547C99.8952 288.849 98.7941 288.299 97.632 287.912C96.6681 287.639 95.674 287.488 94.6727 287.462C93.8552 287.462 93.1522 287.462 92.6781 287.462C92.4304 287.446 92.1818 287.47 91.9423 287.536C92.8418 287.664 93.748 287.741 94.6564 287.764C95.6269 287.829 96.5869 288.005 97.5176 288.288C98.6328 288.695 99.6907 289.244 100.665 289.923C101.629 290.599 102.461 291.447 103.117 292.424C103.655 293.219 103.963 294.147 104.008 295.105C104.188 296.732 104.147 297.787 104.237 297.787Z" fill="#EB996E"/>
<path d="M94.3539 285.361C94.3539 285.426 95.3758 285.459 97.0108 285.647C98.6458 285.835 101.098 285.999 102.545 288.173C103.937 289.796 105.098 291.603 105.995 293.544C106.292 294.378 106.511 295.237 106.649 296.111C106.697 295.871 106.697 295.624 106.649 295.383C106.607 294.719 106.472 294.064 106.248 293.438C105.42 291.42 104.268 289.551 102.839 287.903C102.458 287.399 102.013 286.945 101.515 286.555C101.024 286.2 100.469 285.944 99.8802 285.803C98.9314 285.548 97.9589 285.392 96.9781 285.337C96.1055 285.241 95.2246 285.249 94.3539 285.361Z" fill="#EB996E"/>
<path d="M91.3537 300.428C91.4986 300.336 91.6354 300.232 91.7625 300.117L92.907 299.193C94.3471 298.074 95.8511 297.039 97.4113 296.095H97.3132L101.548 296.814L101.401 296.634C101.387 296.982 101.415 297.331 101.482 297.673C101.538 298.054 101.706 298.409 101.965 298.694C102.12 298.835 102.314 298.926 102.521 298.956C102.718 298.993 102.92 298.993 103.117 298.956C103.529 298.895 103.904 298.686 104.172 298.367C104.244 298.293 104.307 298.211 104.36 298.122L104.401 298.049L104.156 298.139L104.286 298.188C104.466 298.261 104.646 298.327 104.834 298.384C105.022 298.441 105.21 298.49 105.415 298.531C105.521 298.54 105.627 298.54 105.733 298.531C105.868 298.539 106.003 298.514 106.126 298.457C106.312 298.311 106.453 298.116 106.535 297.893C106.621 297.706 106.692 297.512 106.747 297.313C106.862 296.918 106.952 296.517 107.017 296.111L106.772 296.283C107.059 296.343 107.357 296.324 107.634 296.229C107.912 296.134 108.159 295.967 108.349 295.743C108.538 295.513 108.642 295.224 108.644 294.926C108.621 294.649 108.572 294.375 108.497 294.108C108.176 293.067 107.785 292.048 107.327 291.059L105.782 288.607L104.801 287.062C104.503 286.521 104.144 286.016 103.731 285.557C103.292 285.116 102.77 284.769 102.194 284.536C101.632 284.327 101.042 284.206 100.444 284.176L93.9942 283.448H93.9452C93.5572 283.51 93.1764 283.612 92.8089 283.751C92.4166 283.868 92.0726 284.109 91.8279 284.437L92.065 284.364C91.7164 284.203 91.3336 284.13 90.9502 284.151C90.5667 284.172 90.1944 284.288 89.8659 284.486C89.2938 284.903 88.9044 285.523 88.7787 286.22L88.8277 286.13L83.4486 290.969L82.0017 292.302C81.8233 292.447 81.6616 292.611 81.5193 292.792C81.7112 292.666 81.8917 292.524 82.0589 292.367L83.5712 291.1L89.0402 286.375H89.0811V286.318C89.1981 285.711 89.5397 285.171 90.0376 284.805C90.3187 284.646 90.6337 284.556 90.9565 284.544C91.2793 284.531 91.6005 284.595 91.8933 284.732L92.0404 284.789L92.1304 284.658C92.3436 284.405 92.6287 284.223 92.9478 284.135C93.2897 284.011 93.6429 283.92 94.0024 283.865H93.9452L100.395 284.625C100.954 284.658 101.505 284.774 102.03 284.969C102.552 285.178 103.025 285.492 103.42 285.893C103.81 286.33 104.15 286.81 104.434 287.323L105.415 288.876C105.946 289.694 106.469 290.511 106.96 291.329C107.414 292.292 107.8 293.286 108.112 294.305C108.185 294.541 108.231 294.785 108.251 295.032C108.256 295.244 108.183 295.45 108.047 295.612C107.908 295.775 107.727 295.897 107.524 295.965C107.321 296.033 107.103 296.044 106.894 295.997H106.674V296.201C106.611 296.59 106.527 296.975 106.42 297.354C106.351 297.691 106.199 298.005 105.979 298.269C105.922 298.278 105.864 298.278 105.807 298.269H105.545C105.374 298.269 105.194 298.188 105.014 298.139L104.491 297.959L104.368 297.91L104.115 298V298.049C104.075 298.119 104.029 298.184 103.976 298.245C103.768 298.493 103.478 298.659 103.158 298.711C103.005 298.743 102.846 298.743 102.692 298.711C102.548 298.697 102.411 298.64 102.3 298.547C101.941 298.029 101.779 297.4 101.842 296.773V296.618H101.695L97.444 295.956H97.395H97.3541C95.7989 296.929 94.3105 298.005 92.8988 299.177C92.4083 299.594 92.0404 299.929 91.7952 300.158C91.6388 300.232 91.4908 300.322 91.3537 300.428Z" fill="#EB996E"/>
<path d="M156.197 271.659L103.493 272.092C101.777 272.092 100.15 272.91 99.8884 274.602L94.1659 313.024H66.9762C66.5763 313.053 66.2022 313.232 65.9291 313.526C65.6559 313.819 65.5041 314.205 65.5041 314.606C65.5041 315.007 65.6559 315.393 65.9291 315.686C66.2022 315.98 66.5763 316.159 66.9762 316.188H153.696L159.622 275.64C159.696 275.147 159.663 274.644 159.525 274.165C159.387 273.686 159.147 273.243 158.822 272.865C158.497 272.487 158.094 272.184 157.641 271.975C157.188 271.767 156.696 271.66 156.197 271.659Z" fill="#E0E0E0"/>
<path d="M156.197 271.659C156.472 271.648 156.747 271.676 157.015 271.741C157.716 271.907 158.348 272.287 158.826 272.827C159.303 273.367 159.601 274.041 159.68 274.758C159.7 275.485 159.634 276.212 159.483 276.924L158.723 282.279C157.562 290.331 155.895 301.939 153.818 316.213V316.352H153.679L69.5513 316.401H67.2869C66.8753 316.44 66.4612 316.36 66.0933 316.172C65.812 316.017 65.5773 315.79 65.4139 315.514C65.2504 315.238 65.1642 314.923 65.1642 314.602C65.1642 314.281 65.2504 313.966 65.4139 313.69C65.5773 313.414 65.812 313.187 66.0933 313.033C66.4624 312.848 66.8762 312.772 67.2869 312.812H94.1332L93.9288 312.992C95.9971 299.233 97.9345 286.399 99.6513 274.88C99.7079 274.111 100.059 273.394 100.632 272.878C101.204 272.395 101.902 272.086 102.643 271.986C103.35 271.918 104.059 271.893 104.769 271.913H106.837L114.775 271.864L128.877 271.774L148.954 271.668H156.181C156.181 271.668 156.025 271.668 155.715 271.668H154.325L148.954 271.741L128.877 271.962L114.775 272.109L106.837 272.183H104.769C104.079 272.17 103.388 272.194 102.701 272.256C102.021 272.346 101.383 272.63 100.861 273.074C100.607 273.302 100.4 273.579 100.253 273.887C100.105 274.196 100.021 274.531 100.003 274.872C98.2861 286.391 96.3731 299.225 94.2804 312.984V313.163H67.3032C66.9673 313.121 66.6262 313.178 66.3222 313.327C66.0456 313.486 65.832 313.735 65.7174 314.033C65.6028 314.33 65.5941 314.659 65.6928 314.962C65.8096 315.269 66.0292 315.526 66.314 315.689C66.6212 315.838 66.9639 315.898 67.3032 315.861H69.5677L153.696 315.91L153.532 316.049C155.649 301.784 157.366 290.184 158.56 282.132C158.862 280.129 159.132 278.338 159.377 276.793C159.529 276.092 159.603 275.377 159.598 274.66C159.529 273.96 159.247 273.298 158.789 272.764C158.331 272.23 157.72 271.85 157.039 271.676C156.759 271.656 156.478 271.65 156.197 271.659Z" fill="#06184D"/>
<path d="M127.609 296.74C129.433 296.74 130.912 295.261 130.912 293.437C130.912 291.613 129.433 290.135 127.609 290.135C125.785 290.135 124.307 291.613 124.307 293.437C124.307 295.261 125.785 296.74 127.609 296.74Z" fill="white"/>
<path d="M96.2587 315.828C96.3323 315.828 98.0081 306.059 100.003 293.985C101.997 281.911 103.559 272.101 103.485 272.093C103.412 272.085 101.728 281.862 99.733 293.936C97.7384 306.01 96.1933 315.82 96.2587 315.828Z" fill="#06184D"/>
</svg>
