<svg width="375" height="484" viewBox="0 0 375 484" fill="none" xmlns="http://www.w3.org/2000/svg">
<rect width="375" height="484" fill="#E8F8F5"/>
<g opacity="0.5" filter="url(#filter0_f_12847_76581)">
<path d="M128 430C174.944 430 213 427.538 213 424.5C213 421.462 174.944 419 128 419C81.0558 419 43 421.462 43 424.5C43 427.538 81.0558 430 128 430Z" fill="#77D5C7"/>
</g>
<path d="M40.2774 458.18C40.2774 458.18 26.2787 385.799 26.2787 370.894C26.2787 350.308 42.0066 342.074 42.0066 342.074L35.8801 324.592H69.5923L64.3057 341.975C64.3057 341.975 82.0511 351.387 79.5807 372.755C74.9447 412.718 67.5748 458.172 67.5748 458.172L40.2774 458.18Z" fill="#F5F5F5"/>
<path d="M72.4332 350.309C72.3072 350.32 72.1804 350.32 72.0544 350.309C71.6907 350.269 71.3249 350.253 70.9592 350.259C69.5406 350.28 68.1406 350.586 66.8419 351.157C64.8042 352.069 63.0058 353.442 61.5883 355.167C60.6919 356.232 59.8849 357.37 59.1756 358.568C58.3608 359.898 57.6531 361.292 57.0593 362.734C56.4013 364.298 56.0679 365.979 56.0794 367.675C56.1317 369.507 56.8387 371.26 58.0722 372.616C58.7197 373.32 59.5444 373.838 60.4602 374.115C61.4024 374.39 62.4073 374.365 63.334 374.04C64.2956 373.67 65.1594 373.084 65.8589 372.327C66.5584 371.571 67.075 370.664 67.3689 369.676C67.6571 368.631 67.6792 367.531 67.4332 366.475C67.1873 365.419 66.6811 364.442 65.9608 363.632C64.4858 361.881 62.4483 360.696 60.1967 360.281C57.8428 359.92 55.4353 360.205 53.2303 361.104C50.9418 362.008 48.8251 363.298 46.972 364.917C43.2192 368.069 40.6256 372.384 39.6021 377.178C39.13 379.431 39.175 381.762 39.7339 383.996C40.1999 386.143 41.3569 388.078 43.0277 389.505C43.8235 390.18 44.7889 390.624 45.8192 390.789C46.8141 390.942 47.8312 390.741 48.6931 390.221C49.4942 389.672 50.1477 388.934 50.5958 388.072C51.0439 387.211 51.2728 386.252 51.2622 385.281C51.292 384.356 51.1089 383.438 50.727 382.596C50.3239 381.788 49.764 381.069 49.0801 380.48C47.7821 379.375 46.2081 378.643 44.5264 378.364C41.6334 377.902 38.6694 378.427 36.1107 379.854C34.1476 380.914 32.4391 382.389 31.1041 384.177C30.246 385.297 29.563 386.541 29.0784 387.866C28.7408 388.772 28.6255 389.274 28.6008 389.266C28.6904 388.779 28.8199 388.299 28.9879 387.833C29.4391 386.481 30.1005 385.208 30.9477 384.062C32.2775 382.227 33.9989 380.711 35.9872 379.623C38.6187 378.123 41.6842 377.568 44.6746 378.051C46.4215 378.33 48.0587 379.082 49.4095 380.225C50.1219 380.841 50.7066 381.59 51.1305 382.431C51.5405 383.327 51.7405 384.304 51.7151 385.289C51.7228 386.326 51.4752 387.349 50.9941 388.268C50.5131 389.187 49.8133 389.974 48.9566 390.559C48.0103 391.136 46.8903 391.361 45.7945 391.193C44.6869 391.025 43.647 390.554 42.7889 389.834C41.0233 388.349 39.7963 386.323 39.2975 384.07C38.7135 381.771 38.66 379.369 39.141 377.046C40.1897 372.162 42.8349 367.767 46.6591 364.554C48.5573 362.899 50.7238 361.579 53.0656 360.651C55.3548 359.731 57.8498 359.447 60.2873 359.828C62.6569 360.259 64.801 361.506 66.3479 363.352C67.0851 364.257 67.6187 365.31 67.9124 366.44C68.1959 367.555 68.1645 368.726 67.8218 369.824C67.5041 370.876 66.9491 371.841 66.1996 372.645C65.4501 373.449 64.526 374.07 63.4987 374.46C62.4878 374.807 61.3942 374.83 60.3696 374.526C59.3826 374.219 58.4974 373.65 57.8087 372.879C56.5136 371.437 55.775 369.58 55.7253 367.642C55.7181 365.887 56.0713 364.15 56.7629 362.537C57.3789 361.086 58.1057 359.685 58.9368 358.345C59.6606 357.137 60.4871 355.994 61.4072 354.928C62.8583 353.186 64.7008 351.812 66.7843 350.918C68.1015 350.359 69.5201 350.078 70.951 350.094C71.4514 350.111 71.9484 350.183 72.4332 350.309Z" fill="#E0E0E0"/>
<path d="M73.306 404.986C73.3937 406.219 73.2909 407.457 73.0013 408.659C72.6994 410.093 72.2006 411.478 71.5191 412.776C70.6343 414.495 69.4362 416.034 67.9865 417.313C66.225 418.866 64.1149 419.97 61.8353 420.533C59.211 421.214 56.4514 421.174 53.8479 420.418C50.9687 419.543 48.4479 417.765 46.6591 415.345C44.6662 412.763 43.6825 409.542 43.8923 406.287C43.9749 404.61 44.6864 403.025 45.8851 401.849C46.5127 401.32 47.2644 400.96 48.0696 400.801C48.8748 400.643 49.707 400.691 50.4882 400.943C51.2436 401.151 51.9487 401.511 52.5604 402.001C53.172 402.491 53.6773 403.1 54.0455 403.792C54.6996 405.146 54.8654 406.685 54.5149 408.148C54.2081 409.53 53.5404 410.806 52.5797 411.845C51.674 412.809 50.5737 413.57 49.3518 414.077C47.1643 414.965 44.7827 415.266 42.443 414.95C40.5241 414.712 38.6621 414.137 36.9424 413.253C35.6443 412.596 34.4419 411.765 33.3686 410.783C32.4316 409.971 31.626 409.018 30.9806 407.959C31.0428 408.012 31.0982 408.073 31.1453 408.14L31.5899 408.7C32.1762 409.393 32.8119 410.042 33.4921 410.643C34.5724 411.585 35.771 412.383 37.0577 413.015C38.7558 413.86 40.5902 414.398 42.476 414.604C44.753 414.895 47.0665 414.585 49.1871 413.706C50.3557 413.219 51.406 412.486 52.2668 411.557C53.1666 410.569 53.7913 409.363 54.0784 408.058C54.3975 406.693 54.2406 405.261 53.6338 403.998C53.2892 403.364 52.8196 402.807 52.2535 402.359C51.6873 401.912 51.0364 401.584 50.3399 401.396C49.6399 401.175 48.8954 401.135 48.1756 401.279C47.4557 401.423 46.784 401.746 46.2227 402.219C45.1153 403.312 44.4622 404.782 44.3946 406.337C44.1849 409.464 45.1152 412.562 47.0132 415.057C48.7329 417.41 51.1682 419.143 53.9549 419.998C56.4829 420.744 59.1654 420.795 61.7201 420.146C63.9519 419.61 66.022 418.545 67.756 417.041C69.1897 415.799 70.3818 414.303 71.2721 412.628C71.9615 411.368 72.4793 410.022 72.812 408.626C73.0216 407.743 73.162 406.846 73.2319 405.941C73.2319 405.653 73.2319 405.422 73.2731 405.233C73.2727 405.15 73.2838 405.066 73.306 404.986Z" fill="#E0E0E0"/>
<path d="M67.0314 439.093C66.982 439.183 65.5162 438.393 62.9635 437.652C62.2707 437.445 61.567 437.278 60.8555 437.149C60.0979 436.977 59.2662 436.894 58.3851 436.779C56.4928 436.598 54.5875 436.598 52.6951 436.779C50.81 437.009 48.9515 437.42 47.145 438.006C46.3216 438.311 45.4981 438.574 44.8311 438.912C44.1693 439.204 43.5234 439.531 42.896 439.892C40.5739 441.176 39.314 442.271 39.2563 442.189C39.4992 441.897 39.7756 441.634 40.0798 441.407C40.4264 441.108 40.7922 440.833 41.175 440.583C41.6619 440.225 42.1706 439.898 42.6984 439.603C43.3244 439.223 43.9734 438.882 44.6417 438.582C45.4151 438.218 46.2067 437.894 47.0133 437.611C48.8465 436.988 50.7397 436.557 52.6621 436.326C54.5785 436.13 56.5099 436.13 58.4263 436.326C59.2564 436.428 60.0809 436.57 60.8967 436.754C61.6163 436.898 62.3259 437.088 63.0212 437.322C63.6006 437.496 64.1698 437.702 64.7257 437.94C65.1551 438.101 65.5732 438.291 65.9774 438.508C66.3499 438.662 66.7035 438.858 67.0314 439.093Z" fill="#E0E0E0"/>
<path d="M64.6762 343.013C64.3318 343.309 63.9595 343.571 63.5646 343.795C62.8317 344.281 61.7365 344.923 60.3531 345.656C53.0854 349.47 45.061 351.622 36.86 351.955C35.2954 352.013 34.0273 352.005 33.1545 351.955C32.6989 351.96 32.244 351.921 31.7958 351.84C32.2454 351.774 32.7003 351.749 33.1545 351.766C34.0273 351.766 35.2872 351.717 36.8435 351.618C44.9645 351.102 52.901 348.972 60.1884 345.351C61.58 344.66 62.6588 344.067 63.4822 343.639C63.8624 343.398 64.2618 343.188 64.6762 343.013Z" fill="#E0E0E0"/>
<path d="M68.9253 325.456C68.9253 325.505 68.1018 325.382 66.6031 325.374C64.4956 325.38 62.4026 325.722 60.4025 326.386C59.0269 326.845 57.7046 327.449 56.4582 328.19C55.7677 328.605 55.1048 329.064 54.4737 329.565C53.7925 330.07 53.1807 330.663 52.6539 331.327C52.0988 331.998 51.7196 332.796 51.5504 333.649C51.4722 334.082 51.5019 334.526 51.637 334.945C51.772 335.363 52.0081 335.741 52.3245 336.046C53.0314 336.663 53.8801 337.096 54.7948 337.305C55.7097 337.632 56.6871 337.744 57.6522 337.635C58.0909 337.501 58.4756 337.23 58.7509 336.863C59.0262 336.496 59.1777 336.051 59.1838 335.593C59.2535 334.651 59.0566 333.71 58.6156 332.875C57.7963 331.249 56.4814 329.926 54.8607 329.096C53.4055 328.317 51.7918 327.88 50.1423 327.819C48.6984 327.791 47.2598 328.003 45.8851 328.445C43.8876 329.115 42.0108 330.102 40.3268 331.368C39.7339 331.821 39.281 332.192 38.9763 332.431C38.8285 332.572 38.6656 332.696 38.4905 332.801C38.6136 332.638 38.7545 332.489 38.9104 332.356C39.1986 332.085 39.6351 331.698 40.2197 331.22C41.8807 329.876 43.761 328.829 45.778 328.124C47.1841 327.639 48.6632 327.399 50.1506 327.416C51.8732 327.467 53.5621 327.906 55.0913 328.7C56.8046 329.565 58.1956 330.956 59.0603 332.669C59.5397 333.583 59.7537 334.613 59.6779 335.642C59.6365 336.184 59.4549 336.706 59.1509 337.157C58.8263 337.628 58.3396 337.962 57.784 338.096C56.7377 338.236 55.673 338.124 54.6795 337.767C53.6807 337.537 52.7552 337.061 51.9869 336.383C51.6197 336.025 51.3453 335.583 51.1874 335.095C51.0296 334.608 50.9931 334.089 51.0811 333.583C51.2715 332.65 51.6903 331.779 52.2998 331.047C52.8542 330.363 53.4934 329.751 54.2019 329.227C54.8526 328.723 55.5347 328.261 56.2441 327.844C57.5213 327.102 58.8775 326.506 60.2873 326.065C62.3242 325.415 64.4579 325.12 66.5949 325.192C67.1739 325.205 67.7514 325.255 68.3241 325.341C68.5281 325.357 68.7297 325.396 68.9253 325.456Z" fill="#E0E0E0"/>
<path d="M125.727 97.1299H21.0991V285.083H125.727V97.1299Z" fill="#EBEBEB"/>
<path d="M120.465 102.581H25.2823V279.483H120.465V102.581Z" fill="#FAFAFA"/>
<path d="M130.149 286.77L125.727 285.082V93.9424H130.149V286.77Z" fill="#E0E0E0"/>
<path d="M48.6602 216.851C56.8947 209.166 65.1292 201.505 73.3637 193.869C76.4928 190.962 80.5854 187.825 84.6121 189.258C86.5554 189.949 88.0129 191.604 89.9069 192.395C93.703 193.976 98.0426 191.695 100.958 188.796C103.873 185.898 106.178 182.275 109.719 180.175C113.26 178.075 118.777 178.347 120.49 182.069V207.069L84.5627 222.451L48.6602 216.851Z" fill="#F5F5F5"/>
<path d="M25.2823 202.475C34.3897 198.769 43.4806 201.915 49.9859 209.285C51.3528 210.833 52.6045 212.578 54.4902 213.476C57.0429 214.637 59.9909 213.772 62.7824 213.476C66.6125 213.091 70.4744 213.773 73.9407 215.448C77.407 217.122 80.3423 219.723 82.4217 222.962L51.9951 237.916L25.2823 237.727V202.475Z" fill="#E0E0E0"/>
<path d="M120.465 202.598C114.47 199.7 109.184 203.207 103.65 206.913C98.1166 210.619 92.9453 215.378 86.4812 216.877C82.1417 217.873 77.4892 217.321 73.306 218.812C64.7586 221.859 59.8179 232.704 50.7681 233.222C45.8274 233.502 41.4384 230.521 37.0494 228.282C32.6604 226.042 29.2019 223.917 25.2905 226.915V279.476H120.465V202.598Z" fill="#EBEBEB"/>
<path d="M122.532 153.471H25.2823V155.356H122.532V153.471Z" fill="#E0E0E0"/>
<path d="M122.532 195.598H25.2823V197.483H122.532V195.598Z" fill="#E0E0E0"/>
<path d="M122.532 237.727H25.2823V239.612H122.532V237.727Z" fill="#E0E0E0"/>
<path d="M70.4734 154.401L70.4734 284.49H75.2824L75.2824 154.401H70.4734Z" fill="#E0E0E0"/>
<path d="M45.7944 102.581H43.6123V154.409H45.7944V102.581Z" fill="#E0E0E0"/>
<path d="M64.5857 102.581H62.4036V154.409H64.5857V102.581Z" fill="#E0E0E0"/>
<path d="M83.3685 102.581H81.1864V154.409H83.3685V102.581Z" fill="#E0E0E0"/>
<path d="M102.16 102.581H99.9777V154.409H102.16V102.581Z" fill="#E0E0E0"/>
<path d="M21.0992 93.9424H16.6772V286.243H21.0992V93.9424Z" fill="#E0E0E0"/>
<path d="M130.149 92H16.6772V97.1301H130.149V92Z" fill="#E0E0E0"/>
<path d="M133.138 287.405H13.5316V292.181H133.138V287.405Z" fill="#E0E0E0"/>
<path d="M125.727 285.083L133.146 287.405H13.5316L21.0991 285.083H125.727Z" fill="#EBEBEB"/>
<path d="M324.311 455.463V208.666H321.256V455.52L296 457.414H321.256H324.311H349.566L324.311 455.463Z" fill="#EBEBEB"/>
<path d="M305.338 187.166L293.999 237.866H351.575L338.622 187.322L305.338 187.166Z" fill="#E0E0E0"/>
<path d="M315.895 258.412C315.763 258.412 315.673 252.186 315.689 244.512C315.706 236.837 315.821 230.612 315.953 230.62C316.084 230.628 316.183 236.837 316.159 244.512C316.134 252.186 316.027 258.412 315.895 258.412Z" fill="#E0E0E0"/>
<path d="M315.87 258.313C315.87 258.255 316.282 258.313 316.463 258.832C316.514 258.986 316.526 259.15 316.501 259.311C316.475 259.471 316.411 259.623 316.315 259.754C316.181 259.917 315.998 260.032 315.793 260.082C315.588 260.133 315.373 260.116 315.179 260.034C314.999 259.98 314.84 259.875 314.72 259.732C314.6 259.588 314.524 259.412 314.503 259.226C314.482 259.04 314.516 258.852 314.601 258.686C314.686 258.519 314.818 258.381 314.981 258.288C315.467 258 315.804 258.239 315.804 258.288C315.804 258.338 315.5 258.288 315.211 258.568C315.136 258.636 315.076 258.719 315.033 258.811C314.991 258.903 314.967 259.002 314.964 259.103C314.977 259.217 315.023 259.324 315.096 259.412C315.169 259.5 315.267 259.564 315.376 259.598C315.481 259.645 315.598 259.659 315.711 259.638C315.824 259.618 315.929 259.563 316.01 259.482C316.075 259.404 316.123 259.313 316.15 259.215C316.177 259.117 316.182 259.014 316.167 258.914C316.093 258.527 315.837 258.379 315.87 258.313Z" fill="#E0E0E0"/>
<path d="M352.72 102.91H294.708V163.384H352.72V102.91Z" fill="#E0E0E0"/>
<path d="M348.792 102.91H290.78V163.384H348.792V102.91Z" fill="#EBEBEB"/>
<path d="M340.994 111.038H298.578V155.257H340.994V111.038Z" fill="#FAFAFA"/>
<path d="M298.578 155.545C298.269 155.981 297.916 156.384 297.524 156.747C296.84 157.464 295.877 158.394 294.815 159.481C293.752 160.568 292.773 161.466 292.048 162.141C291.683 162.527 291.277 162.872 290.837 163.17C291.151 162.74 291.504 162.341 291.891 161.976C292.575 161.26 293.538 160.329 294.601 159.242C295.663 158.155 296.651 157.249 297.376 156.582C297.74 156.197 298.143 155.849 298.578 155.545Z" fill="#E0E0E0"/>
<path d="M340.986 155.438C341.422 155.75 341.825 156.106 342.188 156.501C342.904 157.184 343.835 158.148 344.922 159.202C346.009 160.256 346.906 161.252 347.581 161.968C347.967 162.334 348.312 162.739 348.611 163.179C348.178 162.869 347.778 162.516 347.417 162.125C346.709 161.441 345.77 160.478 344.683 159.416C343.596 158.353 342.69 157.365 342.023 156.649C341.636 156.283 341.288 155.877 340.986 155.438Z" fill="#E0E0E0"/>
<path d="M340.879 111.153C341.195 110.72 341.55 110.318 341.941 109.951C342.624 109.243 343.588 108.304 344.642 107.225C345.696 106.146 346.692 105.232 347.409 104.565C347.778 104.184 348.183 103.84 348.619 103.536C348.312 103.968 347.961 104.369 347.573 104.73C346.89 105.438 345.926 106.377 344.864 107.464C343.802 108.551 342.814 109.457 342.097 110.124C341.73 110.51 341.321 110.855 340.879 111.153Z" fill="#E0E0E0"/>
<path d="M298.463 111.269C298.03 110.953 297.627 110.597 297.26 110.207C296.552 109.523 295.613 108.56 294.535 107.506C293.456 106.452 292.542 105.455 291.875 104.739C291.496 104.365 291.149 103.96 290.837 103.528C291.274 103.837 291.677 104.19 292.04 104.582C292.748 105.258 293.687 106.229 294.774 107.291C295.86 108.354 296.766 109.342 297.433 110.058C297.819 110.423 298.164 110.829 298.463 111.269Z" fill="#E0E0E0"/>
<path d="M340.878 155.257C340.878 155.257 340.878 155.183 340.878 155.043C340.878 154.903 340.878 154.689 340.878 154.426C340.878 153.874 340.878 153.075 340.878 152.038C340.878 149.954 340.878 146.908 340.878 143.029C340.878 135.289 340.837 124.254 340.804 111.038L340.944 111.178H298.652L298.817 111.022C298.817 127.252 298.817 142.436 298.817 155.241L298.677 155.101L329.317 155.175H337.914H340.187H337.972H329.4L298.677 155.241H298.545V155.109C298.545 142.305 298.545 127.112 298.545 110.89V110.733H298.71H341.002H340.986V110.873C340.986 124.123 340.936 135.19 340.92 142.988C340.92 146.85 340.92 149.88 340.92 151.964C340.92 152.993 340.92 153.783 340.92 154.327V155.052C340.91 155.121 340.896 155.19 340.878 155.257Z" fill="#E0E0E0"/>
<path d="M309.777 129.524C309.777 129.524 308.863 140.476 320.72 140.476C320.72 134.613 315.903 130.002 309.777 129.524Z" fill="#EBEBEB"/>
<path d="M331.467 129.525C331.467 129.525 320.523 128.619 320.523 140.477C326.361 140.468 330.972 135.643 331.467 129.525Z" fill="#EBEBEB"/>
<path d="M320.193 123.529C320.193 123.529 311.251 131.558 320.687 140.459C325.076 135.807 324.698 128.519 320.193 123.529Z" fill="#E0E0E0"/>
<path d="M253.642 109.621H164.923C153.385 109.621 144.032 118.974 144.032 130.512V359.506C144.032 371.044 153.385 380.397 164.923 380.397H253.642C265.18 380.397 274.533 371.044 274.533 359.506V130.512C274.533 118.974 265.18 109.621 253.642 109.621Z" fill="#FAFAFA"/>
<path d="M253.642 380.397L255.618 380.274C256.269 380.192 257.076 380.068 258.023 379.895L259.538 379.5C260.081 379.36 260.633 379.113 261.234 378.907C264.17 377.754 266.801 375.943 268.925 373.612C270.3 372.148 271.441 370.482 272.31 368.672C273.329 366.628 273.989 364.425 274.261 362.158C274.453 359.61 274.513 357.054 274.442 354.5C274.442 351.804 274.442 348.983 274.442 346.035C274.442 340.131 274.442 333.683 274.442 326.832C274.442 313.056 274.442 297.361 274.442 280.019C274.442 245.335 274.442 204.039 274.393 158.148V140.781C274.393 137.85 274.393 134.894 274.393 131.929C274.393 131.188 274.393 130.439 274.352 129.706C274.344 128.969 274.277 128.234 274.154 127.507L273.981 126.404C273.907 126.05 273.8 125.687 273.718 125.333C273.635 124.979 273.537 124.609 273.43 124.255L273.043 123.209C271.991 120.414 270.338 117.884 268.201 115.798C266.036 113.682 263.437 112.063 260.584 111.055C259.15 110.545 257.664 110.197 256.154 110.017C255.404 109.91 254.638 109.918 253.873 109.869C253.107 109.819 252.333 109.869 251.559 109.869H164.94C161.659 109.884 158.428 110.665 155.503 112.15C152.601 113.629 150.093 115.78 148.191 118.424C146.275 121.034 145.018 124.068 144.526 127.268L144.345 128.454L144.288 129.656C144.23 130.48 144.288 131.303 144.288 132.077V136.919C144.288 149.809 144.288 162.498 144.288 174.987C144.288 199.946 144.288 224.016 144.288 246.949C144.288 269.882 144.288 291.671 144.288 312.067C144.288 322.262 144.288 332.099 144.288 341.58C144.288 346.307 144.288 350.951 144.288 355.488C144.223 357.724 144.284 359.962 144.469 362.191C144.733 364.356 145.353 366.462 146.305 368.424C147.198 370.359 148.403 372.134 149.871 373.678C152.678 376.699 156.326 378.81 160.345 379.739C160.826 379.866 161.316 379.957 161.811 380.01C162.294 380.106 162.784 380.169 163.276 380.2C164.256 380.258 165.236 380.307 166.216 380.29H188.285H223.619L245.959 380.332L223.619 380.373H188.285H166.216C165.236 380.373 164.248 380.373 163.252 380.29C162.758 380.29 162.264 380.159 161.769 380.101C161.27 380.04 160.775 379.947 160.287 379.821C158.286 379.363 156.364 378.614 154.581 377.598C152.741 376.558 151.074 375.239 149.64 373.686C148.149 372.124 146.924 370.327 146.017 368.367C145.049 366.376 144.417 364.239 144.148 362.043C143.958 359.8 143.892 357.549 143.95 355.299V341.547C143.95 332.077 143.95 322.24 143.95 312.035C143.95 291.638 143.95 269.849 143.95 246.916C143.95 223.983 143.95 199.913 143.95 174.954V132.044C143.95 131.221 143.95 130.397 143.991 129.574L144.057 128.347L144.238 127.137C144.735 123.86 146.018 120.752 147.977 118.079C149.924 115.382 152.484 113.186 155.445 111.672C158.431 110.161 161.726 109.364 165.071 109.342H251.493C252.267 109.342 253.041 109.342 253.815 109.342C254.589 109.342 255.371 109.391 256.137 109.498C260.771 110.052 265.092 112.125 268.423 115.394C270.607 117.535 272.293 120.13 273.364 122.995L273.751 124.057C273.866 124.419 273.948 124.79 274.047 125.152C274.146 125.514 274.237 125.885 274.319 126.255L274.492 127.367C274.613 128.111 274.682 128.862 274.698 129.615C274.747 130.373 274.698 131.114 274.739 131.855C274.739 134.819 274.739 137.776 274.739 140.707V158.115C274.739 203.973 274.739 245.269 274.689 279.986C274.689 297.328 274.689 313.023 274.689 326.799C274.689 333.683 274.689 340.098 274.689 346.002C274.689 348.95 274.689 351.772 274.689 354.467C274.755 357.027 274.689 359.588 274.492 362.142C274.221 364.437 273.549 366.666 272.507 368.729C271.62 370.537 270.468 372.202 269.09 373.67C266.945 376.003 264.29 377.809 261.333 378.948C260.724 379.154 260.172 379.401 259.628 379.533L258.105 379.92C257.15 380.093 256.335 380.208 255.692 380.282L253.642 380.397Z" fill="#06184D"/>
<path d="M261.992 125.655C258.825 125.94 255.639 125.94 252.473 125.655C255.639 125.369 258.825 125.369 261.992 125.655Z" fill="#06184D"/>
<path d="M261.992 128.759C258.825 129.044 255.639 129.044 252.473 128.759C255.639 128.474 258.825 128.474 261.992 128.759Z" fill="#06184D"/>
<path d="M261.992 131.863C258.825 132.148 255.639 132.148 252.473 131.863C255.639 131.577 258.825 131.577 261.992 131.863Z" fill="#06184D"/>
<path d="M196.272 131.863V128.57L194.625 131.295H194.329L192.682 128.594V131.839H192.064V127.384H192.591L194.46 130.529L196.305 127.384H196.881V131.863H196.272Z" fill="#06184D"/>
<path d="M201.147 128.471L199.5 132.209C199.204 132.925 198.808 133.148 198.289 133.148C197.97 133.157 197.658 133.045 197.417 132.835L197.68 132.374C197.844 132.532 198.062 132.62 198.289 132.621C198.586 132.621 198.767 132.489 198.94 132.094L199.047 131.863L197.548 128.471H198.191L199.352 131.171L200.521 128.454L201.147 128.471Z" fill="#06184D"/>
<path d="M207.158 128.94C207.158 129.92 206.45 130.505 205.281 130.505H204.177V131.863H203.535V127.384H205.281C206.45 127.384 207.158 127.968 207.158 128.94ZM206.516 128.94C206.516 128.306 206.088 127.936 205.264 127.936H204.177V129.953H205.264C206.088 129.953 206.516 129.582 206.516 128.94Z" fill="#06184D"/>
<path d="M209.777 128.438V129.031H209.628C209.479 129.021 209.329 129.044 209.19 129.099C209.051 129.154 208.926 129.24 208.824 129.35C208.723 129.459 208.646 129.591 208.602 129.733C208.557 129.876 208.545 130.027 208.566 130.175V131.822H207.949V128.471H208.533V129.039C208.664 128.833 208.85 128.667 209.069 128.561C209.289 128.455 209.534 128.412 209.777 128.438Z" fill="#06184D"/>
<path d="M210.18 130.167C210.174 129.815 210.272 129.47 210.462 129.174C210.653 128.879 210.927 128.647 211.25 128.508C211.573 128.369 211.93 128.329 212.275 128.393C212.621 128.458 212.939 128.624 213.19 128.87C213.441 129.116 213.613 129.432 213.684 129.776C213.755 130.12 213.722 130.478 213.589 130.803C213.456 131.129 213.229 131.407 212.937 131.603C212.646 131.799 212.302 131.904 211.951 131.904C211.718 131.916 211.485 131.879 211.267 131.796C211.05 131.713 210.851 131.586 210.685 131.423C210.519 131.26 210.388 131.064 210.301 130.848C210.214 130.631 210.173 130.4 210.18 130.167ZM213.095 130.167C213.084 129.943 213.007 129.728 212.875 129.547C212.742 129.367 212.56 129.229 212.35 129.151C212.14 129.073 211.912 129.059 211.694 129.109C211.476 129.16 211.277 129.273 211.123 129.435C210.969 129.597 210.865 129.801 210.826 130.021C210.786 130.242 210.812 130.469 210.9 130.675C210.988 130.88 211.134 131.056 211.321 131.179C211.508 131.303 211.727 131.369 211.951 131.369C212.107 131.373 212.262 131.344 212.407 131.284C212.551 131.224 212.682 131.135 212.789 131.022C212.897 130.908 212.98 130.774 213.033 130.626C213.085 130.479 213.107 130.323 213.095 130.167Z" fill="#06184D"/>
<path d="M215.771 127.054C216.017 127.045 216.259 127.114 216.463 127.251L216.282 127.721C216.143 127.62 215.976 127.565 215.804 127.564C215.442 127.564 215.253 127.77 215.253 128.157V128.454H216.241V128.956H215.269V131.846H214.651V128.972H214.075V128.47H214.651V128.165C214.637 128.015 214.657 127.864 214.708 127.722C214.759 127.58 214.842 127.451 214.949 127.345C215.056 127.239 215.185 127.157 215.327 127.107C215.47 127.057 215.621 127.039 215.771 127.054ZM217.229 127.4C217.23 127.346 217.242 127.292 217.263 127.243C217.285 127.193 217.316 127.148 217.355 127.111C217.394 127.073 217.44 127.044 217.491 127.024C217.541 127.005 217.595 126.995 217.649 126.996C217.758 126.996 217.863 127.04 217.94 127.117C218.017 127.194 218.061 127.299 218.061 127.408C218.061 127.517 218.017 127.622 217.94 127.699C217.863 127.776 217.758 127.82 217.649 127.82C217.595 127.821 217.541 127.811 217.491 127.791C217.44 127.772 217.394 127.742 217.355 127.705C217.316 127.667 217.285 127.623 217.263 127.573C217.242 127.524 217.23 127.47 217.229 127.416V127.4ZM217.336 128.454H217.954V131.846H217.336V128.454Z" fill="#06184D"/>
<path d="M219.115 127.112H219.732V131.864H219.115V127.112Z" fill="#06184D"/>
<path d="M223.965 130.348H221.214C221.246 130.638 221.387 130.906 221.609 131.096C221.831 131.286 222.117 131.383 222.408 131.369C222.592 131.375 222.774 131.341 222.943 131.27C223.112 131.199 223.264 131.092 223.388 130.957L223.726 131.353C223.56 131.54 223.354 131.687 223.123 131.782C222.891 131.878 222.642 131.92 222.392 131.904C222.155 131.922 221.917 131.889 221.694 131.809C221.47 131.729 221.266 131.603 221.094 131.44C220.922 131.276 220.786 131.079 220.694 130.859C220.603 130.64 220.559 130.404 220.564 130.167C220.552 129.939 220.588 129.711 220.67 129.497C220.751 129.284 220.875 129.09 221.036 128.927C221.196 128.765 221.388 128.637 221.601 128.553C221.813 128.469 222.04 128.429 222.268 128.438C222.493 128.437 222.716 128.483 222.922 128.572C223.129 128.661 223.315 128.791 223.469 128.954C223.624 129.118 223.743 129.311 223.819 129.523C223.896 129.734 223.929 129.959 223.915 130.183C223.935 130.237 223.951 130.292 223.965 130.348ZM221.214 129.903H223.388C223.365 129.633 223.24 129.382 223.038 129.202C222.836 129.021 222.572 128.924 222.301 128.932C222.025 128.921 221.756 129.019 221.552 129.206C221.349 129.392 221.227 129.652 221.214 129.928V129.903Z" fill="#06184D"/>
<path d="M231.162 219.898H187.823V222.468H231.162V219.898Z" fill="#15B79E"/>
<path d="M248.537 226.626C248.537 226.75 231.656 226.849 210.831 226.849C190.006 226.849 173.117 226.75 173.117 226.626C173.117 226.503 189.997 226.412 210.831 226.412C231.664 226.412 248.537 226.511 248.537 226.626Z" fill="#06184D"/>
<path d="M171.643 266.276C178.737 266.276 184.488 260.524 184.488 253.43C184.488 246.335 178.737 240.584 171.643 240.584C164.548 240.584 158.797 246.335 158.797 253.43C158.797 260.524 164.548 266.276 171.643 266.276Z" fill="#15B79E"/>
<path d="M209.217 266.276C216.311 266.276 222.063 260.524 222.063 253.43C222.063 246.335 216.311 240.584 209.217 240.584C202.122 240.584 196.371 246.335 196.371 253.43C196.371 260.524 202.122 266.276 209.217 266.276Z" fill="#15B79E"/>
<path d="M246.791 266.276C253.885 266.276 259.637 260.524 259.637 253.43C259.637 246.335 253.885 240.584 246.791 240.584C239.696 240.584 233.945 246.335 233.945 253.43C233.945 260.524 239.696 266.276 246.791 266.276Z" fill="#15B79E"/>
<path d="M187.708 271.982C187.708 272.097 180.511 272.196 171.643 272.196C162.774 272.196 155.585 272.097 155.585 271.982C155.585 271.866 162.774 271.768 171.643 271.768C180.511 271.768 187.708 271.833 187.708 271.982Z" fill="#06184D"/>
<path d="M223.182 271.982C223.182 272.097 216.932 272.196 209.184 272.196C201.435 272.196 195.185 272.097 195.185 271.982C195.185 271.866 201.435 271.768 209.184 271.768C216.932 271.768 223.182 271.833 223.182 271.982Z" fill="#06184D"/>
<path d="M259.645 271.982C259.645 272.097 253.395 272.196 245.646 272.196C237.898 272.196 231.689 272.097 231.689 271.982C231.689 271.866 237.939 271.768 245.646 271.768C253.354 271.768 259.645 271.833 259.645 271.982Z" fill="#06184D"/>
<path d="M261.382 316.135C261.382 316.135 261.382 315.945 261.382 315.591C261.382 315.237 261.382 314.71 261.382 314.027C261.382 312.643 261.382 310.609 261.382 307.974C261.382 302.688 261.341 295.005 261.308 285.305L261.44 285.436L157.117 285.519L157.331 285.305V316.135L157.117 315.929L231.664 316.019L253.518 316.077H259.398H260.921H261.448H260.946H259.381H253.551L231.738 316.143L157.051 316.233H156.845V316.028C156.845 306.212 156.845 295.845 156.845 285.197V284.983H157.068L261.391 285.058H261.531V285.197C261.531 294.931 261.473 302.646 261.457 307.941C261.457 310.568 261.457 312.594 261.457 313.969C261.457 314.644 261.457 315.155 261.457 315.517C261.457 315.879 261.382 316.135 261.382 316.135Z" fill="#06184D"/>
<path d="M254.161 295.12C254.161 295.236 234.11 295.334 209.365 295.334C184.62 295.334 164.569 295.236 164.569 295.12C164.569 295.005 184.62 294.906 209.365 294.906C234.11 294.906 254.161 295.038 254.161 295.12Z" fill="#06184D"/>
<path d="M254.161 301.222C254.161 301.345 234.11 301.436 209.365 301.436C184.62 301.436 164.569 301.345 164.569 301.222C164.569 301.098 184.62 301.008 209.365 301.008C234.11 301.008 254.161 301.107 254.161 301.222Z" fill="#06184D"/>
<path d="M254.161 307.332C254.161 307.448 234.11 307.546 209.365 307.546C184.62 307.546 164.569 307.448 164.569 307.332C164.569 307.217 184.62 307.118 209.365 307.118C234.11 307.118 254.161 307.217 254.161 307.332Z" fill="#06184D"/>
<path d="M261.382 354.821C261.382 354.821 261.382 354.64 261.382 354.286C261.382 353.932 261.382 353.397 261.382 352.713C261.382 351.33 261.382 349.296 261.382 346.661C261.382 341.382 261.341 333.691 261.308 323.991L261.44 324.131L157.117 324.205L157.331 323.991V354.821L157.117 354.615L231.664 354.714L253.518 354.772H259.398H260.921H261.448C261.448 354.772 261.284 354.772 260.946 354.772H259.447H253.617L231.804 354.829L157.117 354.928H156.911V354.714C156.911 344.899 156.911 334.539 156.911 323.884V323.67H157.133L261.456 323.752H261.596V323.884C261.596 333.617 261.539 341.341 261.522 346.636C261.522 349.263 261.522 351.28 261.522 352.664C261.522 353.331 261.522 353.849 261.522 354.204C261.522 354.558 261.382 354.821 261.382 354.821Z" fill="#06184D"/>
<path d="M254.161 333.807C254.161 333.93 234.11 334.021 209.365 334.021C184.62 334.021 164.569 333.93 164.569 333.807C164.569 333.683 184.62 333.593 209.365 333.593C234.11 333.593 254.161 333.692 254.161 333.807Z" fill="#06184D"/>
<path d="M254.161 339.916C254.161 340.032 234.11 340.13 209.365 340.13C184.62 340.13 164.569 340.032 164.569 339.916C164.569 339.801 184.62 339.702 209.365 339.702C234.11 339.702 254.161 339.793 254.161 339.916Z" fill="#06184D"/>
<path d="M254.161 346.019C254.161 346.142 234.11 346.233 209.365 346.233C184.62 346.233 164.569 346.142 164.569 346.019C164.569 345.895 184.62 345.805 209.365 345.805C234.11 345.805 254.161 345.904 254.161 346.019Z" fill="#06184D"/>
<path d="M158.459 131.871H158.616H159.052H160.65L160.6 131.921C160.6 131.567 160.6 131.18 160.6 130.76C160.6 130.546 160.6 130.34 160.6 130.093C160.624 129.964 160.689 129.846 160.786 129.757C160.882 129.668 161.005 129.612 161.135 129.599C161.399 129.599 161.621 129.599 161.901 129.599C162.048 129.622 162.182 129.697 162.278 129.811C162.375 129.924 162.428 130.068 162.428 130.216C162.428 130.752 162.428 131.32 162.428 131.863L162.354 131.789H164.372L164.289 131.863C164.289 131.04 164.289 130.216 164.289 129.352C164.289 129.138 164.289 128.924 164.289 128.709C164.281 128.615 164.251 128.524 164.202 128.443C164.154 128.362 164.088 128.292 164.009 128.24L163.12 127.326L162.297 126.503L161.885 126.099C161.745 125.959 161.638 125.819 161.473 125.786C161.394 125.765 161.312 125.762 161.232 125.778C161.152 125.794 161.077 125.828 161.012 125.877C160.888 125.976 160.757 126.124 160.633 126.247C160.51 126.371 160.147 126.741 159.909 126.972C159.456 127.45 158.978 127.878 158.64 128.289C158.539 128.525 158.502 128.784 158.533 129.039V129.747C158.533 130.183 158.533 130.57 158.533 130.892C158.533 131.213 158.533 131.427 158.533 131.624C158.541 131.712 158.541 131.8 158.533 131.888C158.533 131.888 158.533 131.806 158.533 131.641C158.533 131.476 158.533 131.213 158.533 130.925C158.533 130.636 158.533 130.208 158.533 129.772C158.533 129.541 158.533 129.302 158.533 129.047V128.652C158.533 128.504 158.573 128.359 158.649 128.232C159.019 127.771 159.472 127.408 159.925 126.881L160.641 126.149C160.773 126.017 160.88 125.893 161.028 125.761C161.112 125.701 161.207 125.659 161.308 125.639C161.409 125.619 161.513 125.622 161.613 125.646C161.803 125.715 161.971 125.835 162.099 125.992L162.511 126.396L163.334 127.219L164.215 128.042C164.299 128.115 164.374 128.198 164.437 128.289C164.506 128.389 164.543 128.506 164.545 128.627C164.545 128.841 164.545 129.055 164.545 129.269C164.545 130.093 164.545 130.966 164.545 131.781V131.855H164.47H162.453H162.297V131.781C162.297 131.196 162.297 130.628 162.297 130.134C162.298 130.017 162.259 129.904 162.185 129.813C162.111 129.723 162.008 129.661 161.893 129.64H161.16C161.055 129.65 160.955 129.694 160.877 129.765C160.798 129.837 160.744 129.931 160.724 130.035C160.724 130.233 160.724 130.472 160.724 130.677V131.88H158.492L158.459 131.871Z" fill="#06184D"/>
<path d="M239.348 186.191C243.412 168.669 232.504 151.171 214.982 147.106C197.461 143.042 179.962 153.951 175.898 171.472C171.833 188.993 182.742 206.492 200.264 210.557C217.785 214.621 235.284 203.712 239.348 186.191Z" fill="#E0E0E0"/>
<path d="M233.698 182.3C234.45 181.423 234.942 180.354 235.119 179.213C235.296 178.071 235.151 176.903 234.7 175.84C234.249 174.777 233.51 173.861 232.566 173.195C231.622 172.529 230.511 172.14 229.358 172.072C229.738 170.997 229.833 169.842 229.632 168.719C229.432 167.596 228.943 166.545 228.215 165.667C227.486 164.79 226.542 164.117 225.475 163.714C224.408 163.311 223.255 163.192 222.128 163.368C222.053 162.235 221.708 161.137 221.121 160.164C220.535 159.192 219.724 158.374 218.756 157.779C217.789 157.184 216.693 156.829 215.561 156.745C214.428 156.66 213.292 156.847 212.247 157.291C211.575 156.474 210.724 155.824 209.759 155.391C208.794 154.958 207.742 154.754 206.685 154.795C205.628 154.837 204.596 155.122 203.668 155.63C202.74 156.137 201.942 156.852 201.336 157.719L199.623 157.81C198.138 157.867 196.682 158.239 195.352 158.902C194.021 159.565 192.847 160.504 191.908 161.656C191.811 161.787 191.7 161.909 191.578 162.018C189.931 163.558 188.202 165.205 187.618 167.387C186.967 169.808 187.832 172.591 186.605 174.798C186.127 175.663 185.345 176.362 185.024 177.268C184.406 179.039 185.6 180.949 185.46 182.818C185.32 184.688 183.673 186.524 183.871 188.5C184.012 189.206 184.296 189.875 184.707 190.466C185.118 191.057 185.646 191.556 186.259 191.934C187.487 192.685 188.632 193.562 189.676 194.552C190.434 195.376 190.928 196.488 191.669 197.369C192.775 198.571 194.296 199.309 195.925 199.435C197.554 199.56 199.17 199.063 200.447 198.044C201.32 198.708 202.339 199.153 203.419 199.342C204.499 199.531 205.609 199.459 206.656 199.131C208.742 198.463 210.706 197.459 212.469 196.158C212.862 196.696 213.383 197.126 213.985 197.409C214.587 197.692 215.25 197.82 215.915 197.78C216.579 197.739 217.222 197.533 217.786 197.179C218.349 196.825 218.815 196.335 219.139 195.755C219.6 197.196 221.313 197.929 222.82 197.78C224.306 197.509 225.712 196.91 226.937 196.026C229.358 194.536 232.059 192.568 232.125 189.727C232.166 187.99 231.162 186.194 231.82 184.589C232.322 183.731 232.955 182.959 233.698 182.3Z" fill="#06184D"/>
<path d="M217.385 171.52C216.842 170.038 217.081 168.391 216.875 166.827C216.43 163.368 213.737 160.453 210.493 159.185C207.174 158.022 203.555 158.042 200.249 159.243C197.749 159.993 195.504 161.417 193.761 163.36C192.659 164.69 191.891 166.265 191.523 167.953C191.155 169.64 191.196 171.392 191.644 173.06L209.316 170.697C210.876 172.174 212.667 173.387 214.619 174.287C215.193 174.549 215.826 174.657 216.455 174.6C216.768 174.566 217.064 174.443 217.309 174.246C217.554 174.049 217.738 173.786 217.838 173.488C217.886 172.802 217.729 172.117 217.385 171.52Z" fill="#06184D"/>
<path d="M215.17 167.559L199.813 164.109C194.913 163.714 191.817 169.816 191.636 174.732C191.43 180.191 191.406 186.861 192.155 190.904C193.662 199.048 199.961 199.921 199.961 199.921C199.961 199.921 199.961 205.488 200.101 208.452C205.659 211.095 211.374 210.716 217.204 208.114L217.814 170.417C217.814 169.695 217.542 169 217.052 168.47C216.562 167.941 215.89 167.615 215.17 167.559Z" fill="#B78876"/>
<path d="M194.823 179.797C194.829 180.069 194.941 180.328 195.134 180.52C195.328 180.712 195.588 180.822 195.86 180.826C195.994 180.833 196.128 180.813 196.254 180.767C196.38 180.722 196.495 180.652 196.594 180.562C196.693 180.471 196.773 180.362 196.829 180.241C196.886 180.119 196.917 179.988 196.923 179.854C196.916 179.582 196.805 179.322 196.611 179.131C196.418 178.939 196.157 178.829 195.885 178.825C195.751 178.817 195.617 178.836 195.49 178.881C195.364 178.926 195.248 178.996 195.149 179.087C195.05 179.177 194.97 179.287 194.914 179.409C194.858 179.531 194.827 179.662 194.823 179.797Z" fill="#06184D"/>
<path d="M193.168 178.149C193.308 178.28 194.082 177.679 195.21 177.646C196.338 177.613 197.178 178.165 197.301 178.025C197.425 177.885 197.219 177.72 196.857 177.465C196.363 177.143 195.783 176.98 195.194 176.997C194.605 177.015 194.036 177.213 193.563 177.564C193.217 177.844 193.102 178.107 193.168 178.149Z" fill="#06184D"/>
<path d="M205.519 179.797C205.524 180.07 205.635 180.33 205.829 180.523C206.022 180.715 206.284 180.824 206.557 180.826C206.691 180.834 206.824 180.814 206.95 180.769C207.076 180.724 207.192 180.654 207.29 180.564C207.389 180.473 207.468 180.364 207.523 180.242C207.578 180.12 207.608 179.988 207.611 179.854C207.607 179.581 207.496 179.321 207.302 179.128C207.108 178.936 206.847 178.827 206.573 178.825C206.44 178.817 206.306 178.836 206.18 178.881C206.054 178.926 205.939 178.996 205.84 179.087C205.742 179.178 205.663 179.287 205.608 179.409C205.553 179.531 205.523 179.663 205.519 179.797Z" fill="#06184D"/>
<path d="M204.292 178.108C204.424 178.24 205.207 177.631 206.335 177.606C207.463 177.581 208.303 178.125 208.418 177.976C208.533 177.828 208.344 177.672 207.973 177.425C207.486 177.102 206.911 176.938 206.326 176.955C205.73 176.959 205.151 177.158 204.68 177.524C204.292 177.762 204.202 178.018 204.292 178.108Z" fill="#06184D"/>
<path d="M200.389 186.548C199.79 186.372 199.17 186.275 198.545 186.26C198.257 186.26 197.985 186.194 197.935 185.996C197.907 185.711 197.964 185.424 198.1 185.173C198.355 184.464 198.619 183.723 198.924 182.958C199.663 181.086 200.252 179.158 200.686 177.193C199.793 179.007 199.05 180.891 198.462 182.826L197.705 185.049C197.529 185.401 197.486 185.804 197.581 186.185C197.626 186.286 197.693 186.376 197.777 186.447C197.861 186.518 197.96 186.57 198.067 186.597C198.226 186.636 198.39 186.653 198.553 186.647C199.167 186.691 199.784 186.658 200.389 186.548Z" fill="#06184D"/>
<path d="M199.961 199.913C203.811 199.873 207.574 198.764 210.831 196.71C210.831 196.71 208.22 202.474 200.019 201.889L199.961 199.913Z" fill="#AA6550"/>
<path d="M200.941 189.25C201.145 188.971 201.417 188.749 201.731 188.604C202.046 188.46 202.391 188.399 202.736 188.426C202.986 188.442 203.229 188.507 203.453 188.619C203.676 188.731 203.875 188.887 204.037 189.077C204.195 189.26 204.292 189.488 204.314 189.728C204.336 189.969 204.282 190.21 204.161 190.419C203.986 190.627 203.753 190.778 203.492 190.852C203.231 190.927 202.953 190.922 202.695 190.839C202.158 190.662 201.66 190.382 201.229 190.016C201.102 189.925 200.99 189.814 200.9 189.686C200.857 189.624 200.835 189.551 200.835 189.476C200.835 189.401 200.857 189.328 200.9 189.266" fill="#AA6550"/>
<path d="M203.733 187.24C203.543 187.24 203.576 188.459 202.547 189.357C201.517 190.254 200.216 190.18 200.216 190.32C200.216 190.46 200.513 190.551 201.04 190.551C201.756 190.543 202.447 190.283 202.991 189.818C203.513 189.369 203.838 188.733 203.897 188.047C203.955 187.529 203.815 187.232 203.733 187.24Z" fill="#06184D"/>
<path d="M203.988 174.666C204.111 174.97 205.231 174.797 206.557 174.921C207.883 175.044 208.961 175.382 209.134 175.102C209.209 174.97 209.019 174.682 208.574 174.394C207.991 174.043 207.334 173.832 206.656 173.776C205.975 173.713 205.29 173.812 204.655 174.064C204.177 174.278 203.938 174.526 203.988 174.666Z" fill="#06184D"/>
<path d="M193.373 173.209C193.579 173.464 194.345 173.209 195.284 173.134C196.223 173.06 197.013 173.266 197.186 172.994C197.26 172.863 197.128 172.607 196.774 172.377C196.309 172.087 195.765 171.951 195.218 171.99C194.668 172.017 194.139 172.212 193.703 172.55C193.382 172.822 193.283 173.085 193.373 173.209Z" fill="#06184D"/>
<path d="M220.243 169.174C218.703 164.463 211.811 157.983 206.87 158.362L199.014 163.154C199.286 164.494 199.913 165.737 200.83 166.751C201.747 167.765 202.92 168.514 204.227 168.918C205.626 169.338 207.306 169.437 208.138 170.631C208.97 171.825 208.517 173.645 209.316 174.897C210.419 176.642 213.433 176.543 214.256 178.429C214.619 179.253 214.437 180.241 214.816 181.064C215.327 182.151 218.11 183.535 219.246 183.147C220.383 182.76 220.375 180.825 220.745 179.804C221.206 178.645 221.255 177.364 220.885 176.173C220.35 173.892 220.976 171.422 220.243 169.174Z" fill="#06184D"/>
<path d="M219.222 181.172C219.181 181.172 219.345 180.752 219.469 179.986C219.624 178.902 219.537 177.796 219.213 176.75C218.749 175.198 217.755 173.858 216.406 172.962C215.571 172.48 214.708 172.051 213.82 171.677C212.825 171.27 211.925 170.662 211.177 169.89C210.546 169.034 210.031 168.098 209.645 167.107C209.107 165.943 208.256 164.952 207.187 164.244C206.118 163.536 204.874 163.139 203.593 163.097C202.497 163.069 201.41 163.292 200.414 163.747C199.698 164.06 199.352 164.332 199.327 164.299C199.302 164.266 199.401 164.209 199.566 164.085C199.809 163.898 200.068 163.732 200.34 163.591C201.342 163.057 202.458 162.775 203.593 162.768C205.299 162.775 206.945 163.397 208.229 164.522C208.983 165.181 209.594 165.988 210.024 166.893C210.394 167.851 210.893 168.754 211.506 169.578C212.201 170.31 213.043 170.888 213.976 171.274C214.879 171.657 215.754 172.103 216.595 172.608C217.768 173.412 218.679 174.544 219.214 175.861C219.75 177.178 219.887 178.624 219.609 180.019C219.546 180.32 219.455 180.615 219.337 180.9C219.288 181.081 219.238 181.18 219.222 181.172Z" fill="#455A64"/>
<path d="M218.472 172.418C218.431 172.418 218.291 172.13 217.863 171.71C217.226 171.146 216.496 170.697 215.706 170.384C215.142 170.139 214.593 169.864 214.059 169.56C213.459 169.23 212.937 168.775 212.527 168.226C211.646 166.991 211.366 165.344 210.197 164.208C209.101 163.14 207.688 162.458 206.17 162.265C204.919 162.114 203.651 162.215 202.44 162.561C201.316 162.913 200.216 163.337 199.146 163.829C199.392 163.612 199.669 163.434 199.969 163.302C200.728 162.87 201.531 162.522 202.366 162.265C203.612 161.866 204.927 161.734 206.228 161.878C207.843 162.054 209.352 162.771 210.51 163.912C211.778 165.163 212.058 166.876 212.856 168.029C213.666 168.982 214.699 169.72 215.862 170.178C216.67 170.524 217.401 171.028 218.011 171.66C218.173 171.838 218.308 172.038 218.415 172.253C218.456 172.344 218.489 172.41 218.472 172.418Z" fill="#455A64"/>
<path d="M215.821 184.16C215.821 183.551 216.471 182.102 217.072 181.995C218.67 181.698 221.569 181.756 221.7 185.832C221.881 191.399 216.249 190.435 216.241 190.279C216.233 190.122 215.903 186.268 215.821 184.16Z" fill="#B78876"/>
<path d="M217.904 188.105C217.904 188.105 218.003 188.171 218.168 188.245C218.401 188.336 218.659 188.336 218.892 188.245C219.246 188.006 219.529 187.677 219.713 187.292C219.897 186.907 219.975 186.48 219.938 186.054C219.939 185.575 219.829 185.101 219.617 184.671C219.561 184.498 219.463 184.342 219.332 184.216C219.202 184.089 219.042 183.997 218.868 183.946C218.754 183.923 218.636 183.939 218.533 183.991C218.43 184.043 218.347 184.129 218.299 184.235C218.234 184.391 218.299 184.498 218.242 184.515C218.184 184.531 218.118 184.424 218.159 184.193C218.182 184.052 218.255 183.923 218.365 183.831C218.515 183.714 218.703 183.658 218.892 183.675C219.123 183.711 219.34 183.805 219.523 183.95C219.706 184.094 219.849 184.283 219.938 184.498C220.193 184.971 220.326 185.501 220.325 186.038C220.325 187.166 219.79 188.237 218.991 188.508C218.842 188.557 218.685 188.572 218.529 188.552C218.374 188.532 218.225 188.478 218.094 188.393C217.921 188.245 217.888 188.121 217.904 188.105Z" fill="#AA6550"/>
<path d="M220.342 189.48C220.424 189.365 220.613 189.308 220.885 189.423C221.065 189.52 221.222 189.654 221.347 189.816C221.471 189.977 221.561 190.163 221.61 190.362C221.701 190.689 221.708 191.035 221.631 191.366C221.553 191.697 221.393 192.003 221.165 192.255C220.882 192.563 220.526 192.794 220.13 192.926C219.734 193.059 219.311 193.088 218.901 193.013C218.493 192.929 218.114 192.745 217.797 192.475C217.481 192.206 217.237 191.862 217.089 191.473C216.97 191.179 216.915 190.864 216.928 190.547C216.941 190.23 217.021 189.92 217.163 189.637C217.257 189.441 217.395 189.27 217.567 189.138C217.738 189.005 217.938 188.913 218.151 188.871C218.472 188.871 218.629 188.986 218.645 189.126C218.642 189.282 218.62 189.437 218.579 189.587C218.556 189.76 218.556 189.934 218.579 190.106C218.635 190.298 218.727 190.477 218.851 190.633C218.954 190.771 219.103 190.868 219.271 190.905C219.435 190.928 219.603 190.908 219.757 190.847C219.832 190.817 219.899 190.772 219.954 190.714C220.01 190.655 220.052 190.586 220.078 190.51C220.284 190.139 220.185 189.727 220.342 189.48Z" fill="#E0E0E0"/>
<path d="M192.814 207.843L200.052 206.583L217.237 205.966L225.019 206.353C225.019 206.353 210.057 216.728 192.814 207.843Z" fill="#15B79E"/>
<path d="M240.178 178.824C240.178 178.824 240.178 178.643 240.129 178.297C240.08 177.951 240.08 177.416 240.03 176.749C240.03 176.412 240.03 176.033 239.964 175.613C239.899 175.193 239.833 174.74 239.759 174.254C239.684 173.768 239.594 173.233 239.503 172.665C239.396 172.067 239.256 171.476 239.083 170.894C238.323 167.85 237.107 164.938 235.477 162.256C233.348 158.69 230.552 155.567 227.242 153.058L225.842 152.013C225.348 151.692 224.829 151.395 224.319 151.074C223.808 150.753 223.298 150.415 222.738 150.16L221.05 149.336L220.226 148.925L219.32 148.604L217.468 147.961C216.85 147.755 216.2 147.624 215.557 147.451C214.914 147.26 214.26 147.111 213.597 147.006C212.238 146.751 210.862 146.595 209.48 146.537C208.78 146.537 208.08 146.438 207.372 146.454L205.223 146.561C204.869 146.561 204.507 146.561 204.144 146.636L203.066 146.8C202.341 146.916 201.608 147.006 200.883 147.154C197.916 147.827 195.046 148.876 192.344 150.275C191.661 150.646 191.01 151.099 190.335 151.477C190.006 151.692 189.651 151.873 189.33 152.111L188.383 152.828C187.088 153.781 185.861 154.824 184.711 155.949C183.571 157.125 182.512 158.377 181.54 159.695L180.791 160.692L180.141 161.754L179.49 162.825C179.266 163.179 179.065 163.547 178.889 163.928C178.527 164.686 178.156 165.451 177.794 166.217C177.431 166.983 177.209 167.806 176.913 168.613C174.684 175.235 174.684 182.405 176.913 189.027C177.201 189.85 177.497 190.674 177.786 191.423C178.074 192.172 178.518 192.955 178.889 193.712L179.161 194.272L179.49 194.816L180.141 195.886L180.791 196.948L181.532 197.945C182.504 199.268 183.566 200.523 184.711 201.7C185.864 202.818 187.088 203.86 188.375 204.821L189.33 205.537C189.654 205.763 189.989 205.972 190.335 206.163C191.01 206.566 191.661 206.986 192.344 207.373C193.711 208.081 195.122 208.7 196.568 209.226C197.978 209.742 199.419 210.165 200.883 210.494C201.608 210.642 202.341 210.725 203.066 210.848L204.144 211.013C204.507 211.062 204.869 211.013 205.223 211.079L207.372 211.194C208.08 211.194 208.78 211.137 209.48 211.112C210.862 211.05 212.237 210.893 213.597 210.642C214.258 210.529 214.912 210.381 215.557 210.198C216.2 210.025 216.85 209.893 217.468 209.687L219.296 209.02L220.193 208.691L221.017 208.287L222.664 207.464C223.224 207.209 223.718 206.846 224.245 206.55C224.772 206.253 225.274 205.941 225.768 205.619L227.168 204.574C230.479 202.066 233.274 198.943 235.402 195.376C237.03 192.693 238.246 189.781 239.009 186.738C239.182 186.153 239.322 185.559 239.429 184.959C239.52 184.399 239.61 183.872 239.684 183.378C239.759 182.884 239.849 182.431 239.89 182.019C239.931 181.608 239.94 181.196 239.956 180.883C240.006 180.208 240.039 179.697 240.055 179.335C240.071 178.973 240.104 178.808 240.104 178.808C240.104 178.808 240.104 178.989 240.104 179.335C240.104 179.681 240.104 180.216 240.047 180.883C240.047 181.229 240.047 181.608 239.997 182.028C239.948 182.447 239.882 182.9 239.808 183.394C239.734 183.889 239.66 184.424 239.577 184.992C239.476 185.595 239.339 186.192 239.166 186.779C238.438 189.852 237.238 192.794 235.608 195.499C233.487 199.104 230.691 202.266 227.374 204.812L225.957 205.875C225.463 206.204 224.945 206.5 224.426 206.822C223.907 207.143 223.397 207.489 222.828 207.752L221.132 208.576L220.309 208.987L219.395 209.317L217.558 209.992C216.932 210.206 216.282 210.338 215.631 210.519C214.979 210.708 214.316 210.859 213.647 210.972C212.287 211.229 210.912 211.394 209.53 211.466C208.821 211.466 208.105 211.556 207.389 211.548L205.223 211.441C204.861 211.441 204.49 211.441 204.128 211.375L203.033 211.211C202.308 211.087 201.567 211.005 200.834 210.857C197.826 210.195 194.915 209.151 192.171 207.752C191.48 207.373 190.821 206.929 190.129 206.533C189.791 206.319 189.437 206.138 189.116 205.891L188.153 205.175C186.843 204.205 185.599 203.149 184.431 202.013C183.273 200.821 182.197 199.553 181.211 198.217L180.462 197.212L179.795 196.133L179.136 195.046L178.807 194.503L178.527 193.926L177.415 191.621C177.119 190.797 176.822 189.974 176.517 189.192C174.261 182.478 174.261 175.211 176.517 168.498L177.407 166.028L178.518 163.722C178.693 163.333 178.9 162.958 179.136 162.602L179.795 161.515L180.454 160.437L181.211 159.432C183.122 156.747 185.465 154.399 188.145 152.482L189.108 151.757C189.429 151.519 189.791 151.337 190.121 151.123C190.813 150.712 191.471 150.3 192.163 149.905C193.544 149.18 194.975 148.555 196.445 148.035C197.876 147.531 199.34 147.124 200.826 146.817C201.559 146.668 202.3 146.578 203.024 146.463L204.12 146.298C204.482 146.249 204.852 146.249 205.215 146.224L207.38 146.125C208.097 146.125 208.813 146.183 209.513 146.207C210.895 146.279 212.271 146.444 213.63 146.701C214.302 146.806 214.965 146.958 215.615 147.154C216.257 147.327 216.916 147.467 217.542 147.673L219.378 148.348L220.284 148.686L221.149 149.098L222.845 149.921C223.413 150.176 223.915 150.547 224.442 150.843C224.969 151.14 225.48 151.469 225.974 151.799L227.382 152.853C230.718 155.395 233.528 158.561 235.658 162.174C237.284 164.881 238.484 167.822 239.215 170.894C239.39 171.481 239.527 172.078 239.627 172.681C239.709 173.25 239.791 173.777 239.857 174.279C239.923 174.781 240.014 175.226 240.047 175.646C240.08 176.066 240.047 176.469 240.096 176.782C240.096 177.457 240.137 177.968 240.154 178.338C240.17 178.709 240.178 178.824 240.178 178.824Z" fill="#06184D"/>
<path d="M342.443 386.245C340.345 384.223 337.771 382.763 334.959 381.999C332.148 381.234 329.189 381.19 326.356 381.87C323.523 382.55 320.907 383.933 318.749 385.89C316.591 387.848 314.961 390.317 314.009 393.071L316.068 401.034C316.85 398.325 318.538 395.698 321.116 394.586C323.693 393.474 326.929 394.084 329.688 395.088C332.446 396.093 335.155 397.427 338.079 397.608C341.002 397.789 344.32 396.398 345.193 393.598C346.017 390.971 344.427 388.163 342.443 386.245Z" fill="#15B79E"/>
<g opacity="0.3">
<path d="M342.443 386.245C340.345 384.223 337.771 382.763 334.959 381.999C332.148 381.234 329.189 381.19 326.356 381.87C323.523 382.55 320.907 383.933 318.749 385.89C316.591 387.848 314.961 390.317 314.009 393.071L316.068 401.034C316.85 398.325 318.538 395.698 321.116 394.586C323.693 393.474 326.929 394.084 329.688 395.088C332.446 396.093 335.155 397.427 338.079 397.608C341.002 397.789 344.32 396.398 345.193 393.598C346.017 390.971 344.427 388.163 342.443 386.245Z" fill="black"/>
</g>
<path d="M292.863 412.792C288.565 408.675 288.746 401.602 290.92 396.076C293.094 390.551 297.746 386.302 302.967 383.51C308.068 380.831 313.71 379.342 319.468 379.155C325.227 378.968 330.954 380.088 336.218 382.432C333.641 382.543 331.131 383.284 328.907 384.591C326.684 385.897 324.814 387.729 323.463 389.925C321.107 393.837 320.58 398.58 318.637 402.713C316.442 407.368 312.548 411.006 307.755 412.88C302.962 414.755 297.634 414.723 292.863 412.792Z" fill="#15B79E"/>
<path d="M290.796 388.269C286.037 382.653 285.403 373.637 286.102 366.316C286.802 358.996 288.499 351.609 287.346 344.346C286.662 340.04 284.991 335.923 284.431 331.599C283.871 327.276 284.661 322.385 288.013 319.593C291.867 316.39 297.894 317.123 301.929 320.162C305.964 323.2 308.262 327.902 309.958 332.621C313.68 342.98 315.047 354.467 311.992 365.048C308.937 375.629 301.748 385.074 291.208 388.269" fill="#15B79E"/>
<path d="M288.507 434.351C288.494 434.134 288.494 433.917 288.507 433.7C288.507 433.28 288.507 432.655 288.548 431.848C288.606 430.201 288.762 427.903 289.124 425.046C289.545 421.693 290.155 418.366 290.953 415.082C291.935 411.05 293.464 407.171 295.498 403.554C297.525 399.935 300.017 396.596 302.909 393.623C305.263 391.192 307.872 389.022 310.691 387.151C311.876 386.327 313.029 385.701 313.984 385.125C314.94 384.548 315.887 384.153 316.611 383.807L318.324 383.083C318.52 382.99 318.724 382.916 318.933 382.86C318.747 382.97 318.555 383.069 318.357 383.157L316.71 383.939C316.002 384.31 315.129 384.763 314.124 385.314C313.12 385.866 312.016 386.549 310.831 387.381C304.641 391.611 299.505 397.206 295.819 403.735C291.447 411.385 290.253 419.43 289.38 425.071C288.984 427.92 288.787 430.242 288.68 431.848C288.639 432.622 288.597 433.239 288.573 433.692C288.574 433.913 288.552 434.134 288.507 434.351Z" fill="#06184D"/>
<path d="M247.474 366.119C238.672 371.43 238.696 376.264 240.17 380.826C241.644 385.388 247.046 388.558 251.517 386.845C254.054 385.882 255.89 383.683 257.455 381.468C259.019 379.253 260.493 376.89 262.683 375.301C264.874 373.711 268.069 373.11 270.267 374.683" fill="#15B79E"/>
<path d="M273.059 376.173L264.627 373.003L267.987 373.398C268.894 373.492 269.762 373.818 270.506 374.345L273.059 376.173Z" fill="black"/>
<g opacity="0.3">
<path d="M247.474 366.119C238.672 371.43 238.696 376.264 240.17 380.826C241.644 385.388 247.046 388.558 251.517 386.845C254.054 385.882 255.89 383.683 257.455 381.468C259.019 379.253 260.493 376.89 262.683 375.301C264.196 374.183 266.063 373.653 267.937 373.81L247.474 366.119Z" fill="black"/>
</g>
<path d="M240.887 371.941C243.184 368.762 248.874 367.823 252.464 369.429C256.055 371.035 258.682 374.156 261.037 377.301C263.392 380.447 265.681 383.757 268.942 385.948C272.203 388.138 276.756 388.912 280.05 386.722C281.085 385.948 281.952 384.971 282.598 383.851C283.243 382.731 283.654 381.492 283.805 380.208C284.092 377.64 283.919 375.041 283.294 372.534C282.512 368.844 281.244 364.991 278.296 362.652C275.002 360.042 270.432 359.91 266.233 360.05C261.407 360.206 256.516 360.569 251.987 362.24C247.458 363.912 242.847 367.519 240.928 371.949" fill="#15B79E"/>
<path d="M281.195 427.302C281.184 427.236 281.184 427.17 281.195 427.104C281.195 426.956 281.195 426.766 281.195 426.536C281.195 426.009 281.154 425.276 281.121 424.354C281.071 422.427 280.989 419.685 280.89 416.317C280.791 412.949 280.643 408.906 280.404 404.41C280.165 399.914 279.82 395.014 279.136 389.884C278.853 387.378 278.366 384.899 277.679 382.473C276.98 380.246 276.078 378.088 274.986 376.025C274.004 374.152 272.867 372.364 271.585 370.681C270.452 369.215 269.208 367.838 267.863 366.564C265.899 364.753 263.679 363.241 261.275 362.076C260.847 361.878 260.452 361.689 260.131 361.549L259.307 361.22L258.78 361.006C258.718 360.985 258.66 360.955 258.607 360.915C258.672 360.926 258.735 360.942 258.797 360.964L259.332 361.137L260.213 361.442C260.559 361.566 260.938 361.747 261.374 361.936C263.824 363.06 266.087 364.551 268.085 366.358C269.456 367.627 270.723 369.004 271.873 370.475C273.182 372.162 274.342 373.958 275.34 375.844C276.455 377.925 277.373 380.106 278.082 382.358C278.777 384.784 279.272 387.262 279.564 389.769C280.248 394.915 280.569 399.84 280.799 404.327C281.03 408.815 281.129 412.85 281.203 416.243C281.277 419.635 281.302 422.386 281.31 424.288V426.47C281.31 426.701 281.31 426.89 281.31 427.038C281.286 427.132 281.247 427.221 281.195 427.302Z" fill="#06184D"/>
<path d="M284.365 431.279C283.946 430.046 283.624 428.782 283.402 427.499C282.788 423.992 282.653 420.419 282.998 416.876C283.534 411.631 284.658 406.463 286.35 401.47C288.153 395.804 290.607 389.752 292.707 383.238C293.738 380.077 294.579 376.857 295.226 373.596C295.825 370.553 296.257 367.48 296.519 364.39C296.922 359.154 297.016 353.9 296.799 348.653C296.651 344.174 296.412 340.551 296.264 338.039L296.091 335.157C296.091 334.844 296.091 334.597 296.091 334.408C296.08 334.323 296.08 334.237 296.091 334.152C296.112 334.233 296.126 334.316 296.132 334.399C296.132 334.589 296.173 334.836 296.206 335.149C296.264 335.832 296.346 336.796 296.445 338.031C296.643 340.501 296.923 344.157 297.112 348.645C297.368 353.903 297.302 359.172 296.914 364.422C296.675 367.525 296.263 370.613 295.679 373.67C295.035 376.949 294.19 380.186 293.151 383.362C291.051 389.892 288.589 395.936 286.769 401.577C285.045 406.544 283.871 411.686 283.27 416.909C282.908 420.428 283.002 423.979 283.55 427.474C283.764 428.709 283.961 429.665 284.134 430.299C284.209 430.603 284.266 430.85 284.316 431.031L284.365 431.279Z" fill="#06184D"/>
<path d="M306.186 435.256H264.857L263.91 427.302H306.186V435.256Z" fill="#455A64"/>
<path d="M269.287 434.351L274.459 458.214H296.914L301.748 434.351H269.287Z" fill="#455A64"/>
<path d="M306.186 435.256C306.186 435.363 297.128 435.429 285.888 435.396C274.648 435.363 265.599 435.248 265.599 435.141C265.599 435.034 274.656 434.968 285.888 435.001C297.12 435.034 306.186 435.149 306.186 435.256Z" fill="#455A64"/>
<path d="M299.088 447.032C297.965 446.191 296.743 445.492 295.449 444.949C294.038 444.395 292.541 444.094 291.027 444.059C289.167 444.064 287.324 444.402 285.584 445.056C283.698 445.698 281.936 446.439 280.223 446.843C278.702 447.172 277.133 447.22 275.595 446.983C274.56 446.833 273.556 446.516 272.623 446.044C272.373 445.907 272.134 445.753 271.906 445.583C271.75 445.468 271.676 445.402 271.684 445.393C271.692 445.385 272.03 445.599 272.688 445.904C273.626 446.321 274.619 446.598 275.636 446.727C277.142 446.917 278.669 446.842 280.149 446.505C281.796 446.093 283.558 445.344 285.46 444.702C287.241 444.03 289.132 443.695 291.035 443.714C292.591 443.761 294.124 444.099 295.556 444.71C296.52 445.107 297.426 445.634 298.248 446.275C298.474 446.448 298.688 446.635 298.891 446.835C299.031 446.95 299.097 447.024 299.088 447.032Z" fill="#06184D"/>
<path d="M298.775 448.629C297.693 447.812 296.522 447.122 295.284 446.57C293.926 446.015 292.477 445.716 291.01 445.689C289.214 445.694 287.433 446.014 285.748 446.636C283.929 447.245 282.216 447.953 280.585 448.39C279.142 448.806 277.639 448.976 276.139 448.892C275.124 448.831 274.133 448.565 273.224 448.11C272.98 447.979 272.746 447.83 272.524 447.665C272.376 447.558 272.301 447.492 272.31 447.484C272.318 447.476 272.656 447.682 273.29 447.97C274.196 448.361 275.168 448.579 276.155 448.612C277.62 448.658 279.083 448.466 280.487 448.044C282.084 447.591 283.78 446.875 285.625 446.265C287.352 445.631 289.179 445.313 291.019 445.327C293.549 445.402 295.987 446.295 297.968 447.871C298.184 448.041 298.39 448.222 298.586 448.415C298.718 448.546 298.784 448.62 298.775 448.629Z" fill="white"/>
<path d="M299.5 445.45C298.341 444.578 297.087 443.84 295.762 443.251C294.323 442.629 292.788 442.258 291.224 442.156C289.306 442.117 287.398 442.453 285.608 443.144C283.799 443.859 281.948 444.464 280.067 444.956C278.484 445.233 276.865 445.233 275.282 444.956C274.215 444.789 273.18 444.461 272.211 443.984C271.951 443.852 271.703 443.698 271.47 443.523C271.305 443.4 271.223 443.334 271.231 443.326C271.239 443.317 271.601 443.54 272.277 443.844C273.251 444.255 274.275 444.532 275.323 444.668C276.874 444.894 278.452 444.864 279.992 444.577C281.853 444.062 283.687 443.452 285.485 442.749C287.321 442.039 289.281 441.706 291.249 441.769C293.943 441.986 296.517 442.979 298.66 444.627C298.891 444.805 299.111 444.998 299.319 445.203C299.434 445.368 299.508 445.442 299.5 445.45Z" fill="white"/>
<path d="M306.549 435.289C306.549 435.396 297.252 435.487 285.79 435.487C274.327 435.487 265.022 435.396 265.022 435.289C265.022 435.182 274.319 435.092 285.79 435.092C297.26 435.092 306.549 435.182 306.549 435.289Z" fill="#06184D"/>
<path d="M362 458.214C362 458.329 283.64 458.428 187.008 458.428C90.3762 458.428 12 458.329 12 458.214C12 458.099 90.3432 458 187.008 458C283.673 458 362 458.082 362 458.214Z" fill="#06184D"/>
<path d="M101.41 448.101L98.9319 411.605L118.678 413.458L117.031 448.842L107.323 449.385L101.41 448.101Z" fill="#B78876"/>
<path d="M100.842 446.29V447.377C100.842 447.377 82.8581 454.788 82.7263 458.239L118.588 457.695L117.896 445.73C112.601 448.3 107.026 448.662 100.842 446.29Z" fill="#15B79E"/>
<g opacity="0.6">
<path d="M114.322 449.616C114.667 449.716 114.963 449.939 115.154 450.243C115.345 450.546 115.418 450.909 115.36 451.263C115.273 451.616 115.054 451.923 114.747 452.118C114.44 452.312 114.069 452.381 113.713 452.309C113.346 452.201 113.031 451.962 112.829 451.637C112.627 451.312 112.552 450.924 112.618 450.547C112.747 450.191 113.008 449.9 113.347 449.732C113.686 449.565 114.077 449.535 114.437 449.649" fill="white"/>
</g>
<g opacity="0.6">
<path d="M118.563 457.669L118.398 454.804L84.0686 456.368C84.0686 456.368 82.4793 457.093 82.6769 458.213L118.563 457.669Z" fill="white"/>
</g>
<path d="M100.727 447.45C100.727 447.632 101.608 447.698 102.481 448.274C103.354 448.85 103.823 449.55 103.98 449.476C104.136 449.402 103.864 448.397 102.802 447.747C101.74 447.096 100.686 447.294 100.727 447.45Z" fill="#06184D"/>
<path d="M96.9885 449.065C96.9474 449.238 97.7132 449.526 98.3225 450.259C98.9319 450.992 99.1048 451.766 99.286 451.758C99.4671 451.749 99.5577 450.753 98.7836 449.855C98.0096 448.958 96.9885 448.9 96.9885 449.065Z" fill="#06184D"/>
<path d="M94.9216 453.602C95.078 453.602 95.3086 452.778 94.8475 451.807C94.3863 450.835 93.5547 450.481 93.4888 450.629C93.4229 450.777 93.9252 451.28 94.3122 452.07C94.6993 452.861 94.7734 453.585 94.9216 453.602Z" fill="#06184D"/>
<path d="M141.924 423.653L119.757 394.552L137.264 385.223L155.379 415.666L147.573 421.463L141.924 423.653Z" fill="#B78876"/>
<path d="M140.458 422.451L141.051 423.333C141.051 423.333 130.132 439.447 131.886 442.437L161.531 422.237L154.408 412.652C152.92 415.19 150.905 417.378 148.498 419.068C146.092 420.759 143.35 421.913 140.458 422.451Z" fill="#15B79E"/>
<g opacity="0.6">
<path d="M153.543 417.806C153.889 417.702 154.261 417.728 154.589 417.88C154.917 418.031 155.178 418.298 155.322 418.63C155.438 418.974 155.417 419.35 155.264 419.68C155.111 420.009 154.837 420.267 154.498 420.4C154.134 420.515 153.74 420.489 153.393 420.33C153.046 420.17 152.771 419.887 152.621 419.536C152.53 419.168 152.585 418.779 152.776 418.452C152.967 418.124 153.277 417.884 153.642 417.782" fill="white"/>
</g>
<g opacity="0.6">
<path d="M161.514 422.195L159.801 419.89L132.035 440.089C132.035 440.089 131.104 441.563 131.886 442.395L161.514 422.195Z" fill="white"/>
</g>
<path d="M141.002 423.497C141.109 423.637 141.875 423.209 142.904 423.192C143.933 423.176 144.724 423.521 144.823 423.373C144.922 423.225 144.131 422.55 142.879 422.55C141.628 422.55 140.887 423.373 141.002 423.497Z" fill="#06184D"/>
<path d="M138.77 426.889C138.836 427.054 139.594 426.889 140.533 427.153C141.471 427.416 142.031 427.976 142.18 427.877C142.328 427.779 141.858 426.889 140.722 426.568C139.586 426.247 138.68 426.79 138.77 426.889Z" fill="#06184D"/>
<path d="M139.545 431.813C139.693 431.755 139.405 430.899 138.49 430.355C137.576 429.812 136.687 429.96 136.704 430.125C136.72 430.29 137.436 430.43 138.178 430.882C138.919 431.335 139.388 431.895 139.545 431.813Z" fill="#06184D"/>
<path d="M107.669 298.415C107.669 298.415 90.5409 359.482 91.6938 363.871C92.8466 368.26 123.273 413.344 124.138 413.624C125.002 413.904 149.055 399.559 149.055 399.559L124.138 358.486C124.138 358.486 138.013 328.784 142.056 315.666C146.099 302.549 146.882 301.873 144.37 289.925C142.847 282.679 136.053 272.978 136.053 272.978L134.958 269.627H106.886L107.669 298.415Z" fill="#06184D"/>
<path d="M89.1821 269.618L87.1482 277.746C83.6814 280.216 78.4855 291.868 78.1973 296.529C77.909 301.189 76.7891 320.343 76.7562 333.584C76.7068 348.933 93.7687 440.089 93.7687 440.089H124.418L113.639 295.4L110.938 269.618H89.1821Z" fill="#06184D"/>
<path d="M106.689 287.932C106.683 288.048 106.667 288.164 106.639 288.278C106.59 288.525 106.532 288.862 106.45 289.29C106.269 290.196 106.005 291.497 105.676 293.161C104.959 296.52 103.889 301.395 102.481 307.332C101.073 313.269 99.36 320.4 97.6719 328.33C96.8485 332.291 96.025 336.466 95.3333 340.822C94.5804 345.304 94.1429 349.833 94.024 354.376C93.9499 359.028 94.3122 363.632 95.9344 367.732C97.4657 371.685 99.248 375.535 101.27 379.261C105.091 386.4 108.953 392.609 112.338 397.714C115.722 402.82 118.653 406.813 120.753 409.498C121.824 410.84 122.647 411.878 123.224 412.545L123.891 413.327C123.972 413.412 124.044 413.506 124.105 413.607C122.865 412.334 121.691 410.998 120.589 409.605C118.439 406.929 115.467 402.943 112.049 397.846C108.632 392.749 104.745 386.556 100.892 379.409C98.8451 375.689 97.046 371.838 95.5062 367.881C93.8593 363.763 93.4805 359.045 93.5629 354.376C93.682 349.813 94.125 345.264 94.8886 340.764C95.5556 336.4 96.4038 332.225 97.2519 328.256C98.9647 320.326 100.719 313.236 102.151 307.275C103.584 301.313 104.712 296.479 105.445 293.136C105.816 291.489 106.096 290.18 106.269 289.274L106.508 288.278C106.555 288.156 106.616 288.04 106.689 287.932Z" fill="#455A64"/>
<path d="M142.896 291.324C142.563 291.489 142.212 291.613 141.85 291.694C140.88 291.964 139.888 292.152 138.886 292.254C135.555 292.604 132.189 292.09 129.115 290.761C126.04 289.433 123.359 287.335 121.33 284.67C120.707 283.875 120.156 283.026 119.683 282.134C119.492 281.817 119.342 281.477 119.238 281.121C119.312 281.072 119.963 282.521 121.544 284.481C123.595 287.045 126.245 289.067 129.26 290.369C132.275 291.672 135.563 292.214 138.836 291.95C141.373 291.744 142.871 291.233 142.896 291.324Z" fill="#455A64"/>
<path d="M90.8209 278.643C90.8209 278.643 90.8209 278.89 90.6809 279.318C90.5163 279.918 90.3127 280.507 90.0715 281.08C88.478 284.917 85.8495 288.236 82.4793 290.665C81.9731 291.032 81.4451 291.367 80.8983 291.67C80.7079 291.802 80.4962 291.899 80.2725 291.958C80.2725 291.901 81.0959 291.39 82.2982 290.427C85.5086 287.906 88.0765 284.661 89.7916 280.957C90.4503 279.541 90.755 278.618 90.8209 278.643Z" fill="#455A64"/>
<path d="M140.524 162.001C141.174 161.242 141.6 160.317 141.753 159.33C141.906 158.342 141.78 157.332 141.39 156.412C140.999 155.492 140.36 154.699 139.544 154.123C138.728 153.546 137.767 153.209 136.769 153.149C137.078 152.219 137.145 151.226 136.963 150.264C136.781 149.301 136.357 148.401 135.731 147.648C135.105 146.894 134.297 146.313 133.383 145.959C132.47 145.605 131.482 145.489 130.511 145.623C130.447 144.641 130.148 143.688 129.639 142.845C129.131 142.002 128.428 141.293 127.589 140.778C126.751 140.263 125.801 139.956 124.819 139.883C123.837 139.811 122.853 139.975 121.947 140.361C121.365 139.657 120.627 139.097 119.792 138.724C118.958 138.352 118.048 138.177 117.135 138.214C116.222 138.25 115.329 138.497 114.527 138.936C113.725 139.374 113.035 139.991 112.511 140.74C111.489 140.906 110.517 141.294 109.661 141.876C108.719 141.712 107.748 141.856 106.895 142.288C105.844 142.867 104.884 143.597 104.045 144.454C102.621 145.788 101.122 147.212 100.62 149.098C100.052 151.198 100.801 153.602 99.7388 155.504C99.222 156.186 98.7647 156.91 98.3719 157.67C97.8366 159.202 98.8742 160.848 98.7507 162.471C98.6271 164.093 97.2026 165.674 97.3755 167.411C97.497 168.022 97.7433 168.602 98.099 169.113C98.4546 169.625 98.9119 170.057 99.4424 170.384C100.504 171.033 101.495 171.792 102.399 172.649C103.057 173.398 103.477 174.295 104.128 175.078C105.081 176.123 106.397 176.765 107.807 176.876C109.217 176.986 110.616 176.555 111.72 175.671C112.475 176.244 113.357 176.628 114.291 176.791C115.225 176.955 116.184 176.892 117.089 176.609C118.895 176.032 120.594 175.165 122.12 174.04C122.462 174.502 122.913 174.87 123.433 175.113C123.953 175.355 124.526 175.464 125.098 175.429C125.671 175.394 126.226 175.216 126.713 174.911C127.199 174.607 127.602 174.186 127.884 173.686C128.145 174.289 128.598 174.789 129.174 175.106C129.749 175.424 130.414 175.541 131.063 175.44C132.359 175.213 133.586 174.695 134.653 173.925C136.745 172.632 139.092 170.936 139.141 168.474C139.141 166.967 138.318 165.41 138.886 164.019C139.322 163.264 139.875 162.583 140.524 162.001Z" fill="#06184D"/>
<path d="M93.8429 152.186C95.1023 150.429 96.7144 148.954 98.576 147.855C100.438 146.756 102.508 146.057 104.655 145.804C110.625 144.791 117.262 145.804 122.112 149.427C126.559 152.721 129.029 158.23 129.721 163.747C129.96 165.69 129.375 167.559 128.831 169.437C127.991 171.617 126.435 173.446 124.418 174.625C122.68 175.539 121.947 174.954 120.49 173.661C119.654 172.798 119.003 171.772 118.579 170.647C116.471 166.044 114.059 161.482 110.51 157.867C106.96 154.252 102.11 151.667 97.0461 151.823" fill="#15B79E"/>
<path d="M120.177 161.293C119.568 159.646 119.831 157.81 119.609 156.056C119.106 152.21 116.109 148.958 112.486 147.541C108.787 146.249 104.756 146.272 101.073 147.607C98.2883 148.441 95.787 150.025 93.8429 152.186C92.6154 153.669 91.7604 155.424 91.3492 157.305C90.9381 159.186 90.9828 161.138 91.4796 162.998L111.177 160.387C112.916 162.033 114.913 163.382 117.089 164.381C117.728 164.681 118.436 164.803 119.139 164.735C119.489 164.698 119.82 164.562 120.093 164.341C120.366 164.12 120.57 163.825 120.679 163.492C120.733 162.725 120.558 161.96 120.177 161.293Z" fill="#06184D"/>
<path d="M100.587 153.026L117.698 156.888C118.499 156.949 119.247 157.31 119.794 157.897C120.341 158.484 120.649 159.255 120.654 160.058L119.971 197.204C119.936 199.737 119.068 202.188 117.501 204.178L115.854 206.27C114.984 207.377 113.852 208.249 112.56 208.809C111.268 209.368 109.857 209.597 108.454 209.475C107.052 209.352 105.702 208.882 104.527 208.107C103.352 207.332 102.388 206.276 101.723 205.035C101.558 204.725 101.43 204.396 101.344 204.055C101.275 203.784 101.226 203.509 101.196 203.231C100.923 201.37 100.846 199.485 100.966 197.607C100.842 194.313 100.809 192.938 100.809 192.971C100.809 193.004 93.7934 191.991 92.1053 182.917C91.2819 178.404 91.2819 170.969 91.5289 164.883C91.6771 159.391 95.1192 152.581 100.587 153.026Z" fill="#B78876"/>
<path d="M95.0287 170.524C95.0329 170.828 95.1558 171.119 95.3711 171.335C95.5863 171.55 95.8771 171.673 96.1815 171.677C96.3309 171.686 96.4805 171.664 96.6214 171.614C96.7624 171.564 96.8917 171.486 97.0016 171.384C97.1116 171.283 97.1999 171.16 97.2614 171.023C97.3228 170.887 97.356 170.74 97.3591 170.59C97.3548 170.286 97.2317 169.996 97.0162 169.782C96.8007 169.568 96.5099 169.447 96.2062 169.445C96.0575 169.436 95.9086 169.458 95.7682 169.507C95.6278 169.557 95.4988 169.635 95.389 169.735C95.2792 169.836 95.1907 169.958 95.1288 170.093C95.0669 170.229 95.0328 170.375 95.0287 170.524Z" fill="#06184D"/>
<path d="M93.1842 168.696C93.3324 168.844 94.2052 168.161 95.4569 168.136C96.7085 168.111 97.6555 168.712 97.7873 168.548C97.919 168.383 97.6967 168.21 97.2849 167.93C96.7342 167.566 96.0839 167.382 95.4239 167.403C94.7679 167.416 94.1332 167.638 93.6123 168.037C93.2336 168.35 93.1265 168.63 93.1842 168.696Z" fill="#06184D"/>
<path d="M106.944 170.524C106.95 170.829 107.075 171.12 107.292 171.335C107.508 171.55 107.8 171.673 108.105 171.677C108.254 171.685 108.403 171.662 108.544 171.612C108.684 171.561 108.813 171.483 108.923 171.381C109.033 171.28 109.121 171.158 109.183 171.022C109.245 170.886 109.279 170.739 109.283 170.59C109.278 170.285 109.154 169.994 108.937 169.78C108.72 169.565 108.427 169.445 108.122 169.445C107.973 169.436 107.824 169.458 107.684 169.507C107.543 169.557 107.414 169.635 107.304 169.735C107.195 169.836 107.106 169.958 107.044 170.093C106.982 170.229 106.948 170.375 106.944 170.524Z" fill="#06184D"/>
<path d="M105.552 168.605C105.701 168.753 106.565 168.078 107.825 168.045C109.085 168.012 110.024 168.622 110.155 168.465C110.287 168.309 110.065 168.127 109.653 167.839C109.098 167.478 108.446 167.297 107.784 167.32C107.131 167.335 106.499 167.557 105.981 167.955C105.602 168.226 105.478 168.539 105.552 168.605Z" fill="#06184D"/>
<path d="M101.229 178.05C100.562 177.856 99.8731 177.751 99.1789 177.737C98.8577 177.737 98.553 177.655 98.4871 177.432C98.4584 177.102 98.5241 176.771 98.6766 176.477C98.9648 175.654 99.253 174.83 99.5659 174.007C100.793 170.491 101.674 167.609 101.534 167.559C101.394 167.51 100.282 170.318 99.0636 173.834C98.7671 174.699 98.4789 175.53 98.2401 176.304C98.0446 176.694 97.9977 177.142 98.1084 177.564C98.1578 177.676 98.2314 177.775 98.324 177.855C98.4166 177.935 98.5258 177.993 98.6436 178.025C98.8245 178.067 99.0098 178.086 99.1953 178.083C99.872 178.156 100.555 178.145 101.229 178.05Z" fill="#06184D"/>
<path d="M100.752 192.93C105.048 192.892 109.249 191.664 112.889 189.381C112.889 189.381 109.991 195.763 100.842 195.145L100.752 192.93Z" fill="#AA6550"/>
<path d="M101.839 181.064C102.07 180.757 102.376 180.514 102.728 180.358C103.079 180.202 103.465 180.139 103.848 180.175C104.126 180.19 104.398 180.262 104.648 180.386C104.897 180.511 105.118 180.686 105.297 180.899C105.471 181.105 105.577 181.359 105.602 181.627C105.627 181.895 105.57 182.164 105.437 182.398C105.24 182.63 104.977 182.798 104.684 182.88C104.391 182.962 104.079 182.955 103.79 182.859C103.185 182.665 102.625 182.352 102.143 181.937C101.998 181.84 101.873 181.717 101.773 181.574C101.726 181.505 101.701 181.423 101.701 181.34C101.701 181.256 101.726 181.174 101.773 181.105" fill="#AA6550"/>
<path d="M104.951 178.824C104.745 178.824 104.778 180.183 103.642 181.179C102.506 182.176 101.04 182.069 101.032 182.258C101.023 182.448 101.361 182.513 101.979 182.513C102.778 182.508 103.55 182.216 104.153 181.69C104.736 181.192 105.102 180.486 105.174 179.722C105.207 179.146 105.05 178.816 104.951 178.824Z" fill="#06184D"/>
<path d="M105.24 164.809C105.371 165.147 106.623 164.957 108.105 165.089C109.587 165.221 110.79 165.599 110.979 165.295C111.061 165.147 110.847 164.825 110.353 164.471C109.701 164.084 108.969 163.85 108.213 163.788C107.457 163.725 106.696 163.835 105.989 164.109C105.478 164.373 105.182 164.652 105.24 164.809Z" fill="#06184D"/>
<path d="M93.4065 163.187C93.6371 163.467 94.4935 163.187 95.5392 163.105C96.585 163.023 97.4661 163.245 97.6555 162.94C97.7461 162.792 97.5979 162.512 97.2026 162.249C96.6809 161.932 96.0738 161.785 95.4651 161.829C94.8525 161.857 94.2633 162.073 93.7771 162.446C93.4147 162.751 93.3077 163.047 93.4065 163.187Z" fill="#06184D"/>
<path d="M123.355 158.683C121.643 153.437 113.96 146.216 108.459 146.636L99.7141 151.98C100.009 153.472 100.7 154.858 101.714 155.993C102.728 157.127 104.028 157.968 105.478 158.428C107.035 158.897 108.912 159.012 109.843 160.338C110.773 161.664 110.263 163.689 111.152 165.097C112.387 167.041 115.714 166.926 116.644 169.025C117.048 169.948 116.85 171.051 117.27 171.965C117.83 173.176 120.934 174.707 122.211 174.287C123.487 173.867 123.479 171.702 123.858 170.557C124.377 169.268 124.432 167.839 124.014 166.514C123.479 163.945 124.171 161.194 123.355 158.683Z" fill="#06184D"/>
<path d="M126.773 154.763L126.097 157.662C126.127 155.594 125.604 153.556 124.582 151.758C122.384 148.464 117.55 146.199 113.737 145.104C109.925 144.009 105.239 144.676 101.55 146.15C98.2304 147.401 95.3757 149.644 93.3735 152.573C90.5738 156.361 89.9233 162.067 91.6525 163.08C93.0194 159.152 95.1851 154.648 98.6189 152.293C100.32 151.084 102.265 150.262 104.318 149.885C106.371 149.508 108.482 149.585 110.501 150.111C114.948 151.42 118.332 155.183 120.3 159.375C121.26 161.523 122.007 163.759 122.532 166.053C123.172 168.746 123.152 171.554 122.474 174.238L120.251 182.019L120.202 184.547C125.612 182.546 128.955 176.906 129.852 171.208C130.75 165.509 130.108 159.992 126.773 154.763Z" fill="#15B79E"/>
<path d="M122.219 172.063C122.178 172.063 122.367 171.594 122.507 170.738C122.687 169.527 122.591 168.291 122.227 167.123C121.71 165.388 120.599 163.89 119.09 162.89C118.163 162.347 117.2 161.868 116.208 161.457C115.102 161.005 114.104 160.326 113.276 159.464C112.571 158.514 111.998 157.473 111.572 156.368C110.966 155.069 110.012 153.963 108.816 153.174C107.619 152.385 106.227 151.943 104.795 151.897C103.573 151.87 102.36 152.118 101.246 152.622C100.422 152.984 100.068 153.28 100.052 153.247C100.128 153.158 100.217 153.081 100.315 153.017C100.587 152.811 100.876 152.629 101.18 152.473C102.579 151.746 104.165 151.459 105.731 151.65C107.296 151.841 108.767 152.501 109.95 153.544C110.792 154.277 111.474 155.177 111.951 156.187C112.368 157.253 112.922 158.261 113.598 159.185C114.389 159.999 115.339 160.644 116.389 161.078C117.395 161.503 118.369 161.998 119.304 162.561C120.609 163.454 121.624 164.71 122.222 166.173C122.821 167.637 122.977 169.244 122.672 170.795C122.601 171.13 122.502 171.457 122.376 171.775C122.337 171.878 122.284 171.975 122.219 172.063Z" fill="#455A64"/>
<path d="M121.387 162.306C121.387 162.306 121.19 161.977 120.72 161.483C120.006 160.855 119.19 160.354 118.308 160.001C117.764 159.746 117.147 159.474 116.521 159.103C115.827 158.726 115.225 158.201 114.759 157.563C113.779 156.196 113.466 154.352 112.165 153.084C110.938 151.886 109.353 151.122 107.652 150.91C106.271 150.751 104.872 150.866 103.535 151.248C102.292 151.643 101.076 152.119 99.8953 152.672C100.167 152.444 100.466 152.25 100.785 152.096C101.631 151.621 102.525 151.238 103.453 150.951C104.837 150.512 106.298 150.366 107.743 150.523C109.542 150.719 111.222 151.517 112.511 152.787C113.919 154.179 114.223 156.081 115.121 157.333C116.018 158.584 117.427 159.169 118.481 159.729C119.381 160.113 120.196 160.673 120.877 161.376C121.057 161.571 121.21 161.79 121.33 162.026C121.363 162.208 121.404 162.298 121.387 162.306Z" fill="#455A64"/>
<path d="M118.472 175.391C118.472 174.716 119.197 173.093 119.864 172.97C121.643 172.649 124.871 172.706 125.019 177.252C125.225 183.461 118.95 182.382 118.933 182.193C118.917 182.003 118.522 177.738 118.472 175.391Z" fill="#B78876"/>
<path d="M120.753 179.755C120.753 179.755 120.86 179.829 121.05 179.911C121.314 180.019 121.609 180.019 121.873 179.911C122.272 179.643 122.59 179.271 122.795 178.836C122.999 178.401 123.082 177.919 123.034 177.441C123.034 176.907 122.913 176.381 122.68 175.901C122.62 175.707 122.513 175.531 122.37 175.388C122.227 175.244 122.05 175.138 121.857 175.078C121.731 175.048 121.599 175.064 121.485 175.123C121.37 175.182 121.28 175.28 121.231 175.399C121.149 175.572 121.19 175.695 121.157 175.703C121.124 175.712 121.025 175.605 121.066 175.349C121.098 175.196 121.179 175.057 121.297 174.954C121.463 174.819 121.676 174.754 121.89 174.773C122.147 174.815 122.389 174.923 122.592 175.086C122.796 175.249 122.954 175.461 123.051 175.703C123.333 176.23 123.483 176.818 123.487 177.416C123.487 178.676 122.886 179.886 121.997 180.15C121.831 180.205 121.656 180.222 121.483 180.199C121.311 180.176 121.145 180.115 121 180.018C120.77 179.944 120.729 179.804 120.753 179.755Z" fill="#AA6550"/>
<path d="M125.974 180.273C126.047 180.052 126.143 179.839 126.262 179.639C126.46 179.219 126.748 178.61 127.044 177.794C127.875 175.482 128.282 173.038 128.247 170.581C128.213 168.887 128.037 167.198 127.72 165.533C127.4 163.62 126.904 161.739 126.237 159.917C125.489 157.909 124.44 156.027 123.125 154.334C121.702 152.53 119.988 150.977 118.052 149.739C114.282 147.332 109.78 146.337 105.346 146.931C103.426 147.181 101.558 147.737 99.8129 148.578C98.2954 149.318 96.8922 150.272 95.6462 151.411C93.8361 153.07 92.3772 155.074 91.356 157.307C91.0102 158.13 90.7796 158.74 90.6396 159.176C90.577 159.401 90.5 159.621 90.4091 159.835C90.436 159.603 90.4857 159.374 90.5573 159.152C90.7335 158.502 90.9508 157.864 91.2078 157.241C92.8662 153.337 95.8616 150.152 99.6564 148.257C101.431 147.381 103.336 146.8 105.297 146.536C109.825 145.899 114.431 146.904 118.283 149.369C122.128 151.821 125.053 155.479 126.6 159.769C127.27 161.618 127.764 163.526 128.074 165.467C128.377 167.153 128.536 168.861 128.551 170.573C128.566 173.06 128.108 175.528 127.201 177.844C126.959 178.465 126.684 179.072 126.377 179.664C126.259 179.877 126.124 180.081 125.974 180.273Z" fill="#06184D"/>
<path d="M123.339 181.402C123.421 181.287 123.619 181.237 123.899 181.402C124.086 181.507 124.249 181.65 124.378 181.822C124.507 181.993 124.599 182.19 124.648 182.398C124.734 182.704 124.748 183.025 124.689 183.337C124.616 183.727 124.436 184.088 124.171 184.383C123.876 184.707 123.503 184.95 123.088 185.089C122.673 185.227 122.228 185.257 121.798 185.174C121.368 185.091 120.967 184.899 120.632 184.616C120.298 184.334 120.042 183.97 119.889 183.559C119.763 183.249 119.704 182.915 119.715 182.581C119.726 182.246 119.808 181.917 119.955 181.616C120.051 181.409 120.194 181.226 120.373 181.084C120.551 180.941 120.76 180.841 120.984 180.793C121.322 180.743 121.486 180.9 121.503 181.04C121.498 181.2 121.468 181.358 121.412 181.509C121.382 181.7 121.382 181.894 121.412 182.085C121.46 182.311 121.556 182.525 121.692 182.711C121.816 182.881 121.998 183.001 122.203 183.049C122.407 183.084 122.618 183.052 122.804 182.958C122.889 182.916 122.965 182.855 123.026 182.782C123.087 182.708 123.132 182.622 123.158 182.53C123.314 182.077 123.174 181.641 123.339 181.402Z" fill="#455A64"/>
<path d="M74.6071 220.301C74.6071 220.301 75.6364 212.067 79.6301 207.892C83.6239 203.717 100.867 198.406 100.867 198.406C100.867 198.406 100.982 204.483 104.984 205.907C109.217 207.414 113.334 206.616 116.438 203.017C118.291 200.765 119.525 198.069 120.02 195.194C120.02 195.194 140.903 197.129 144.148 202.605C147.392 208.081 151.592 229.211 151.592 229.211L132.965 233.164L135.501 269.618H86.0119L86.9836 235.412L73.5037 237.33L74.6071 220.301Z" fill="#455A64"/>
<path d="M129.268 234.367C129.212 234.096 129.19 233.819 129.202 233.543C129.202 233.008 129.202 232.242 129.202 231.303C129.202 229.409 129.202 226.799 129.292 223.892C129.383 220.985 129.424 218.4 129.507 216.481C129.548 215.534 129.581 214.768 129.622 214.241C129.614 213.964 129.648 213.686 129.721 213.418C129.78 213.688 129.802 213.965 129.786 214.241C129.786 214.768 129.786 215.534 129.786 216.481C129.786 218.367 129.786 220.977 129.696 223.892C129.605 226.807 129.556 229.385 129.474 231.303C129.474 232.25 129.399 233.016 129.367 233.543C129.374 233.821 129.341 234.098 129.268 234.367Z" fill="#06184D"/>
<path d="M82.4217 219.363C82.537 219.363 83.6981 223.028 85.0238 227.598C86.3496 232.168 87.3212 235.948 87.206 235.972C86.2037 233.273 85.338 230.524 84.6121 227.738C83.2452 223.143 82.2817 219.396 82.4217 219.363Z" fill="#06184D"/>
<path d="M142.064 201.279C142.064 201.354 141.175 201.518 139.816 202.037C136.249 203.397 133.281 205.98 131.442 209.325C130.742 210.601 130.454 211.465 130.38 211.441C130.393 211.224 130.441 211.01 130.52 210.807C130.688 210.24 130.906 209.689 131.17 209.16C132.038 207.424 133.24 205.875 134.706 204.604C136.173 203.332 137.876 202.362 139.717 201.749C140.274 201.565 140.844 201.425 141.422 201.329C141.834 201.271 142.056 201.246 142.064 201.279Z" fill="#06184D"/>
<path d="M79.3254 209.563C79.7466 210.37 80.041 211.237 80.1983 212.133C80.4918 212.995 80.6474 213.898 80.6594 214.809C79.9422 213.141 79.492 211.371 79.3254 209.563Z" fill="#06184D"/>
<path d="M148.298 229.92C148.298 229.92 142.715 258.247 142.081 260.668C141.447 263.089 140.434 269.619 133.657 270.969C124.533 272.789 88.7211 271.521 88.7211 271.521L95.4734 262.965L126.814 254.179L131.096 233.593L148.298 229.92Z" fill="#B78876"/>
<path d="M64.8821 224.658C64.8821 224.658 69.9298 241.646 72.0214 248.991C74.253 256.789 79.1113 274.518 89.4868 271.364C97.3755 268.968 95.0534 258.74 95.0534 258.74L86.9835 235.412L80.7006 236.458L74.6071 220.722L64.8821 224.658Z" fill="#B78876"/>
<path d="M92.303 259.473C92.5844 258.21 92.5844 256.899 92.303 255.636C91.9817 254.276 91.4243 252.983 90.6561 251.815C89.6617 250.394 88.5605 249.051 87.3623 247.797C86.16 246.526 85.0587 245.163 84.0685 243.721C83.279 242.527 82.5877 241.271 82.0017 239.966C81.6125 239.086 81.277 238.184 80.997 237.265C80.8731 236.933 80.7902 236.587 80.75 236.235C80.9114 236.547 81.0464 236.872 81.1535 237.207C81.4005 237.841 81.7546 238.747 82.2816 239.834C82.8936 241.107 83.601 242.332 84.3979 243.498C85.3994 244.914 86.5001 246.257 87.6917 247.517C88.9042 248.793 90.0061 250.171 90.9855 251.634C91.7772 252.843 92.3357 254.189 92.6324 255.603C92.8311 256.558 92.8451 257.542 92.6736 258.502C92.6198 258.76 92.5454 259.013 92.4512 259.259C92.3442 259.399 92.303 259.481 92.303 259.473Z" fill="#AA6550"/>
<path d="M56.4664 192.74C56.4664 192.74 57.2898 191.588 59.3237 193.366C61.3577 195.145 69.584 209.119 70.2262 210.403C70.8685 211.688 74.607 220.721 74.607 220.721L66.2737 226.625L64.882 224.657C64.882 224.657 57.8909 218.457 56.4664 216.744C55.2152 215.311 54.073 213.786 53.049 212.182C52.9749 211.828 52.4809 210.025 53.8725 209.498C53.8725 209.498 52.5138 207.34 53.7243 206.27C54.9347 205.199 57.1498 206.196 57.1498 206.196L49.7388 196.644C49.7388 196.644 49.0965 193.794 51.2374 194.865C53.3784 195.935 59.0026 204.129 59.999 204.343C60.9953 204.557 60.9954 203.519 60.9954 203.519C60.9954 203.519 55.19 194.684 56.4664 192.74Z" fill="#B78876"/>
<path d="M64.0916 217.815C64.0916 217.815 64.0093 217.684 63.9187 217.42C63.7797 217.034 63.6858 216.633 63.6387 216.226C63.5226 215.482 63.5613 214.722 63.7526 213.994C63.9439 213.265 64.2836 212.584 64.7504 211.993V212.224C64.001 211.318 63.1858 210.314 62.28 209.251L62.3377 209.301C61.753 208.963 61.1519 208.593 60.5508 208.197L59.6367 207.572C59.3147 207.354 59.0141 207.105 58.7392 206.83C58.4749 206.563 58.3169 206.209 58.2945 205.834C58.2925 205.645 58.3312 205.457 58.4079 205.283C58.4846 205.11 58.5976 204.955 58.7392 204.829L58.8133 204.747H58.9286L64.0587 206.205L68.0936 209.21C68.6204 209.572 69.1161 209.977 69.5758 210.421C69.0191 210.112 68.4828 209.768 67.9701 209.391L63.8528 206.501H63.9104L58.7721 205.101H58.9615C58.8706 205.189 58.7982 205.293 58.7487 205.409C58.6991 205.525 58.6735 205.65 58.6733 205.776C58.6984 206.047 58.8179 206.301 59.0109 206.493C59.2639 206.745 59.5396 206.974 59.8344 207.176L60.7237 207.794C61.3166 208.189 61.9095 208.56 62.4859 208.889C63.3093 209.976 64.1328 210.989 64.8821 211.903L64.9727 212.018L64.8739 212.133C64.3582 212.746 63.9993 213.475 63.8281 214.258C63.6903 214.862 63.6486 215.485 63.7046 216.102C63.9352 217.239 64.141 217.799 64.0916 217.815Z" fill="#AA6550"/>
<path d="M57.2734 206.665C57.5372 206.912 57.772 207.188 57.9733 207.488C58.564 208.291 59.0952 209.136 59.5626 210.016C59.8942 210.628 60.1911 211.257 60.4519 211.902C60.6127 212.29 60.6529 212.718 60.5672 213.129C60.5032 213.36 60.3747 213.568 60.1968 213.728C60.0188 213.889 59.7988 213.995 59.5626 214.035C59.0977 214.124 58.6162 214.045 58.2039 213.813C57.7942 213.6 57.4125 213.337 57.0675 213.03C56.3711 212.398 55.7594 211.679 55.2477 210.889C54.943 210.453 54.6713 210.008 54.4243 209.588L54.7619 209.341C55.8332 210.582 56.746 211.951 57.4793 213.417C57.662 213.768 57.7527 214.159 57.7428 214.554C57.7324 214.751 57.6773 214.943 57.5817 215.115C57.4861 215.288 57.3526 215.437 57.1911 215.55C57.0288 215.637 56.8488 215.686 56.6647 215.694C56.4806 215.701 56.2973 215.666 56.1288 215.591C55.8483 215.466 55.5898 215.296 55.363 215.089C54.7061 214.503 54.1102 213.852 53.5843 213.146C53.3786 212.896 53.2095 212.619 53.082 212.322C53.8499 213.22 54.6751 214.067 55.5524 214.858C55.9476 215.18 56.5488 215.542 57.0181 215.245C57.1305 215.159 57.2221 215.048 57.2862 214.921C57.3503 214.794 57.3853 214.655 57.3887 214.513C57.3868 214.182 57.3049 213.857 57.1499 213.566C56.394 212.149 55.4796 210.823 54.4243 209.613L54.7701 209.366C55.0254 209.778 55.3053 210.189 55.5936 210.651C56.0947 211.416 56.6894 212.116 57.364 212.734C58.0227 213.286 58.7885 213.829 59.505 213.673C59.6721 213.646 59.8286 213.574 59.9567 213.463C60.0848 213.353 60.1793 213.208 60.2296 213.047C60.2977 212.708 60.2662 212.356 60.139 212.034C59.892 211.367 59.5873 210.733 59.3156 210.173C58.8787 209.29 58.3921 208.432 57.858 207.604C57.6325 207.311 57.4366 206.997 57.2734 206.665Z" fill="#AA6550"/>
<path d="M94.864 258.181C94.9916 258.383 95.0835 258.606 95.1357 258.839C95.3211 259.454 95.4425 260.086 95.498 260.725C95.6846 262.863 95.2379 265.008 94.2134 266.893C93.6665 267.931 92.9763 268.888 92.163 269.734C91.4887 270.429 90.6749 270.973 89.775 271.331C89.1707 271.564 88.5352 271.705 87.8893 271.751C87.6556 271.798 87.4148 271.798 87.1812 271.751C88.0232 271.601 88.85 271.375 89.6515 271.076C90.4875 270.693 91.2423 270.154 91.8748 269.487C92.6407 268.647 93.299 267.714 93.8346 266.712C94.814 264.888 95.2807 262.834 95.1851 260.766C95.1192 259.152 94.7734 258.205 94.864 258.181Z" fill="#AA6550"/>
<defs>
<filter id="filter0_f_12847_76581" x="23" y="399" width="210" height="51" filterUnits="userSpaceOnUse" color-interpolation-filters="sRGB">
<feFlood flood-opacity="0" result="BackgroundImageFix"/>
<feBlend mode="normal" in="SourceGraphic" in2="BackgroundImageFix" result="shape"/>
<feGaussianBlur stdDeviation="10" result="effect1_foregroundBlur_12847_76581"/>
</filter>
</defs>
</svg>
