<svg width="375" height="484" viewBox="0 0 375 484" fill="none" xmlns="http://www.w3.org/2000/svg">
<rect width="375" height="484" fill="#E8F8F5"/>
<path d="M112.265 97.6943H17.0593V255.283H112.265V97.6943Z" fill="#E0E0E0"/>
<path d="M109.096 97.6943H13.8894V255.283H109.096V97.6943Z" fill="#EBEBEB"/>
<path d="M105.043 100.888H17.9493V252.082H105.043V100.888Z" fill="#FAFAFA"/>
<path d="M88.0774 120.531H34.5249V232.43H88.0774V120.531Z" fill="#EBEBEB"/>
<path d="M34.5249 192.837C34.4 182.383 43.8004 172.179 54.1533 170.718C59.0877 170.024 64.3032 171 68.9487 169.11C77.1779 165.737 79.8013 154.799 88.0852 151.551L88.46 232.438H34.5249V192.837Z" fill="#E0E0E0"/>
<path d="M321.417 141.544L313.601 141.586L313.812 180.467L321.627 180.425L321.417 141.544Z" fill="#E0E0E0"/>
<path d="M266.148 141.641L245.911 141.75L246.027 163.213L266.264 163.103L266.148 141.641Z" fill="#EBEBEB"/>
<path d="M286.291 141.539L266.054 141.648L266.17 163.111L286.407 163.002L286.291 141.539Z" fill="#F5F5F5"/>
<path d="M245.94 147.701C259.384 147.811 272.868 147.701 286.313 147.514C286.363 147.504 286.408 147.478 286.44 147.438C286.473 147.399 286.49 147.35 286.49 147.299C286.49 147.248 286.473 147.199 286.44 147.16C286.408 147.121 286.363 147.094 286.313 147.084C272.863 147.006 259.405 147.087 245.94 147.326C245.89 147.326 245.842 147.346 245.807 147.381C245.772 147.417 245.752 147.464 245.752 147.514C245.752 147.564 245.772 147.611 245.807 147.646C245.842 147.682 245.89 147.701 245.94 147.701Z" fill="#E0E0E0"/>
<path d="M270.065 162.754L233.299 162.953L233.394 180.442L270.159 180.243L270.065 162.754Z" fill="#EBEBEB"/>
<path d="M306.65 162.556L269.884 162.755L269.979 180.244L306.744 180.045L306.65 162.556Z" fill="#F5F5F5"/>
<path d="M233.315 167.83C257.737 168.111 282.245 167.83 306.667 167.471C306.717 167.461 306.762 167.434 306.795 167.395C306.827 167.356 306.845 167.307 306.845 167.256C306.845 167.205 306.827 167.156 306.795 167.117C306.762 167.077 306.717 167.051 306.667 167.041C282.245 166.909 257.737 166.924 233.315 167.463C233.273 167.472 233.235 167.495 233.207 167.528C233.18 167.561 233.165 167.603 233.165 167.646C233.165 167.689 233.18 167.731 233.207 167.765C233.235 167.798 233.273 167.821 233.315 167.83Z" fill="#E0E0E0"/>
<path d="M362 180.454H219.566V186.724H362V180.454Z" fill="#E0E0E0"/>
<path d="M248.672 183.469H242.887V204.854H248.672V183.469Z" fill="#E0E0E0"/>
<path d="M334.986 183.469H329.2V204.854H334.986V183.469Z" fill="#E0E0E0"/>
<path d="M329.044 127.043L321.229 127.085L321.518 180.559L329.334 180.516L329.044 127.043Z" fill="#EBEBEB"/>
<path d="M341.254 137.002L329.114 137.067L329.348 180.399L341.489 180.333L341.254 137.002Z" fill="#F5F5F5"/>
<path d="M341.161 145.367C337.119 145.648 333.063 145.648 329.021 145.367C333.063 145.086 337.119 145.086 341.161 145.367Z" fill="#E0E0E0"/>
<path d="M341.161 143.548C337.119 143.829 333.063 143.829 329.021 143.548C333.063 143.267 337.119 143.267 341.161 143.548Z" fill="#E0E0E0"/>
<path d="M341.161 173.803C337.119 174.084 333.063 174.084 329.021 173.803C333.063 173.522 337.119 173.522 341.161 173.803Z" fill="#E0E0E0"/>
<path d="M341.161 172.015C337.119 172.285 333.063 172.285 329.021 172.015C333.063 171.733 337.119 171.733 341.161 172.015Z" fill="#E0E0E0"/>
<path d="M335.29 168.041C335.173 168.041 335.079 163.668 335.079 158.273C335.079 152.878 335.173 148.514 335.29 148.514C335.407 148.514 335.501 152.878 335.501 158.273C335.501 163.668 335.392 168.041 335.29 168.041Z" fill="#E0E0E0"/>
<path d="M354.512 147.655H341.294V180.361H354.512V147.655Z" fill="#EBEBEB"/>
<path d="M327.264 136.193C327.272 136.639 327.146 137.078 326.904 137.453C326.662 137.828 326.313 138.122 325.903 138.298C325.493 138.474 325.04 138.524 324.601 138.442C324.162 138.36 323.758 138.149 323.44 137.836C323.121 137.523 322.903 137.122 322.813 136.685C322.723 136.248 322.765 135.794 322.934 135.381C323.103 134.968 323.391 134.614 323.762 134.365C324.133 134.116 324.569 133.983 325.015 133.983C325.605 133.981 326.173 134.212 326.594 134.626C327.015 135.04 327.256 135.603 327.264 136.193Z" fill="#E0E0E0"/>
<path d="M325.71 142.369H324.32V174.177H325.71V142.369Z" fill="#E0E0E0"/>
<path d="M125.983 390.542C125.983 390.542 118.824 396.007 125.679 403.198C125.738 403.259 125.808 403.308 125.886 403.341C125.963 403.375 126.047 403.393 126.132 403.393L188.679 403.026C188.679 403.026 194.019 397.038 189.584 390.136L125.983 390.542Z" fill="#EBEBEB"/>
<path d="M174.851 396.234C174.851 396.305 167.044 396.359 157.464 396.359C147.884 396.359 140.068 396.305 140.068 396.234C140.068 396.164 147.876 396.109 157.464 396.109C167.051 396.109 174.851 396.164 174.851 396.234Z" fill="#E0E0E0"/>
<path d="M165.123 398.498C165.123 398.568 161.469 398.623 156.948 398.623C152.428 398.623 148.774 398.568 148.774 398.498C148.774 398.428 152.436 398.365 156.948 398.365C161.461 398.365 165.123 398.428 165.123 398.498Z" fill="#E0E0E0"/>
<path d="M181.246 402.824C181.246 402.824 181.386 402.106 181.581 400.95C181.832 399.443 181.952 397.918 181.941 396.391C181.925 394.861 181.776 393.335 181.496 391.831C181.277 390.675 181.09 389.973 181.129 389.957C181.205 390.112 181.265 390.274 181.308 390.441C181.454 390.884 181.574 391.335 181.667 391.792C182.002 393.3 182.18 394.838 182.198 396.383C182.207 397.927 182.058 399.468 181.753 400.981C181.636 401.559 181.519 402.028 181.425 402.34C181.332 402.652 181.269 402.832 181.246 402.824Z" fill="#E0E0E0"/>
<path d="M185.915 390.074C186.029 390.211 186.124 390.364 186.196 390.527C186.299 390.71 186.393 390.897 186.477 391.089C186.595 391.344 186.699 391.604 186.789 391.87C187.045 392.542 187.246 393.234 187.39 393.939C187.554 394.807 187.645 395.687 187.664 396.57C187.662 397.455 187.583 398.338 187.429 399.209C187.299 399.918 187.111 400.615 186.867 401.294C186.774 401.59 186.656 401.84 186.563 402.075C186.484 402.268 186.393 402.455 186.289 402.637C186.221 402.801 186.131 402.955 186.024 403.097C185.977 403.097 186.328 402.402 186.703 401.247C187.186 399.733 187.423 398.151 187.406 396.562C187.395 395.693 187.312 394.826 187.156 393.97C187.027 393.272 186.85 392.583 186.625 391.909C186.266 390.746 185.876 390.074 185.915 390.074Z" fill="#E0E0E0"/>
<path d="M135.852 402.909C135.737 402.782 135.637 402.64 135.556 402.488C135.449 402.322 135.352 402.15 135.267 401.973C135.143 401.739 135.031 401.499 134.931 401.254C134.666 400.616 134.462 399.955 134.322 399.279C134.158 398.448 134.077 397.604 134.08 396.757C134.099 395.911 134.203 395.068 134.392 394.243C134.55 393.573 134.772 392.919 135.056 392.291C135.159 392.048 135.276 391.81 135.407 391.581C135.494 391.401 135.596 391.228 135.712 391.065C135.891 390.792 136.001 390.644 136.016 390.659C136.032 390.675 135.657 391.284 135.235 392.361C134.98 392.989 134.779 393.636 134.634 394.298C134.465 395.11 134.368 395.936 134.345 396.765C134.347 397.592 134.42 398.418 134.564 399.232C134.697 399.896 134.879 400.548 135.111 401.184C135.517 402.269 135.891 402.886 135.852 402.909Z" fill="#E0E0E0"/>
<path d="M129.099 404.432C128.969 404.292 128.861 404.135 128.779 403.963C128.666 403.766 128.57 403.559 128.49 403.347C128.348 403.094 128.22 402.833 128.107 402.566C127.806 401.852 127.568 401.112 127.397 400.356C126.96 398.501 126.917 396.576 127.272 394.703C127.409 393.939 127.616 393.189 127.888 392.463C127.99 392.15 128.123 391.885 128.224 391.643C128.314 391.437 128.416 391.236 128.529 391.042C128.611 390.868 128.711 390.704 128.825 390.55C128.872 390.55 128.474 391.292 128.045 392.525C127.803 393.249 127.618 393.99 127.49 394.743C127.344 395.664 127.276 396.597 127.287 397.53C127.328 399.231 127.658 400.913 128.263 402.503C128.708 403.713 129.138 404.408 129.099 404.432Z" fill="#E0E0E0"/>
<path d="M186.383 422.085V434.046H163.226V422.085H186.383Z" fill="#EBEBEB"/>
<path d="M111.586 428.167C111.586 428.277 111.586 428.378 111.586 428.487C111.698 430.234 112.473 431.872 113.754 433.065C115.034 434.258 116.722 434.917 118.472 434.905H187.445V434.039H171.049C169.463 434.039 167.942 433.409 166.82 432.287C165.698 431.165 165.068 429.644 165.068 428.058C165.068 426.472 165.698 424.951 166.82 423.829C167.942 422.707 169.463 422.077 171.049 422.077H187.445V420.805L118.457 421.039C117.533 421.042 116.62 421.23 115.771 421.592C114.921 421.954 114.153 422.484 113.513 423.149C112.872 423.814 112.371 424.6 112.04 425.462C111.709 426.325 111.555 427.244 111.586 428.167Z" fill="#E0E0E0"/>
<path d="M186.383 428.214C186.383 428.284 181.621 428.347 175.749 428.347C169.878 428.347 165.115 428.284 165.115 428.214C165.115 428.144 169.878 428.089 175.749 428.089C181.621 428.089 186.383 428.151 186.383 428.214Z" fill="#E0E0E0"/>
<path d="M186.047 430.916C186.047 430.986 181.542 431.041 175.983 431.041C170.424 431.041 165.919 430.986 165.919 430.916C165.919 430.846 170.424 430.791 175.983 430.791C181.542 430.791 186.047 430.846 186.047 430.916Z" fill="#E0E0E0"/>
<path d="M186.383 433.383C186.383 433.453 182.331 433.508 177.334 433.508C172.337 433.508 168.285 433.453 168.285 433.383C168.285 433.312 172.337 433.258 177.334 433.258C182.331 433.258 186.383 433.312 186.383 433.383Z" fill="#E0E0E0"/>
<path d="M186.383 425.794C186.383 425.864 181.699 425.919 175.968 425.919C170.237 425.919 165.552 425.864 165.552 425.794C165.552 425.724 170.237 425.669 175.968 425.669C181.699 425.669 186.383 425.724 186.383 425.794Z" fill="#E0E0E0"/>
<path d="M186.047 423.373C186.047 423.443 181.894 423.498 176.78 423.498C171.666 423.498 167.504 423.443 167.504 423.373C167.504 423.303 171.658 423.248 176.78 423.248C181.902 423.248 186.047 423.303 186.047 423.373Z" fill="#E0E0E0"/>
<path d="M119.948 421.234C119.412 421.774 118.921 422.356 118.48 422.975C117.433 424.486 116.882 426.286 116.903 428.124C116.924 429.962 117.516 431.748 118.597 433.235C119.057 433.841 119.56 434.413 120.104 434.945C119.927 434.841 119.762 434.718 119.612 434.578C119.185 434.208 118.797 433.795 118.457 433.344C117.308 431.844 116.676 430.013 116.655 428.125C116.634 426.236 117.225 424.391 118.34 422.866C118.668 422.407 119.045 421.986 119.464 421.609C119.608 421.464 119.771 421.338 119.948 421.234Z" fill="#F5F5F5"/>
<path d="M117.614 420.977C117.085 421.525 116.594 422.109 116.146 422.725C115.103 424.237 114.555 426.035 114.577 427.871C114.6 429.707 115.191 431.491 116.271 432.977C116.727 433.586 117.231 434.157 117.778 434.687C117.596 434.587 117.428 434.464 117.278 434.32C116.85 433.95 116.463 433.537 116.122 433.086C114.974 431.59 114.341 429.762 114.319 427.876C114.296 425.99 114.885 424.147 115.998 422.624C116.326 422.163 116.703 421.739 117.122 421.359C117.27 421.213 117.435 421.084 117.614 420.977Z" fill="#F5F5F5"/>
<path d="M164.475 421.234C163.946 421.778 163.458 422.36 163.015 422.975C161.968 424.486 161.417 426.286 161.438 428.124C161.459 429.962 162.051 431.748 163.132 433.235C163.591 433.841 164.095 434.413 164.639 434.945C164.458 434.843 164.29 434.72 164.139 434.578C163.715 434.208 163.33 433.794 162.992 433.344C161.838 431.848 161.201 430.019 161.174 428.13C161.147 426.241 161.733 424.394 162.843 422.866C163.169 422.406 163.546 421.984 163.967 421.609C164.122 421.465 164.292 421.34 164.475 421.234Z" fill="#F5F5F5"/>
<path d="M162.148 420.977C161.614 421.52 161.123 422.105 160.681 422.725C159.633 424.235 159.082 426.033 159.103 427.87C159.124 429.707 159.716 431.492 160.798 432.977C161.257 433.583 161.761 434.155 162.305 434.687C162.127 434.583 161.962 434.46 161.813 434.32C161.383 433.952 160.996 433.539 160.657 433.086C159.509 431.59 158.876 429.762 158.853 427.876C158.831 425.99 159.42 424.147 160.532 422.624C160.86 422.163 161.237 421.739 161.656 421.359C161.803 421.21 161.968 421.082 162.148 420.977Z" fill="#F5F5F5"/>
<path d="M127.795 429.892L127.725 425.02C127.749 424.597 127.694 424.173 127.561 423.771C127.49 423.57 127.366 423.391 127.203 423.254C127.039 423.117 126.842 423.026 126.631 422.99C126.022 422.717 125.07 423.224 124.648 423.927C124.275 424.665 124.11 425.491 124.172 426.316C124.156 427.599 124.219 428.882 124.359 430.158C124.386 430.771 124.54 431.372 124.812 431.922C124.934 432.207 125.142 432.446 125.407 432.605C125.673 432.764 125.982 432.835 126.29 432.809C126.598 432.782 126.89 432.658 127.124 432.456C127.358 432.253 127.521 431.981 127.592 431.68C127.773 431.103 127.842 430.496 127.795 429.892Z" fill="#F5F5F5"/>
<path d="M154.583 428.448C154.583 428.518 149.594 428.581 143.449 428.581C137.304 428.581 132.308 428.518 132.308 428.448C132.308 428.378 137.297 428.323 143.449 428.323C149.601 428.323 154.583 428.378 154.583 428.448Z" fill="#F5F5F5"/>
<path d="M123.173 420.758L123.048 409.413H129.224L129.434 420.758H123.173Z" fill="#F5F5F5"/>
<path d="M128.857 411.428C127.905 411.558 126.943 411.603 125.983 411.561C125.026 411.603 124.067 411.558 123.118 411.428C124.068 411.303 125.026 411.261 125.983 411.303C126.943 411.261 127.904 411.303 128.857 411.428Z" fill="#E0E0E0"/>
<path d="M128.857 413.184C127.904 413.309 126.943 413.351 125.983 413.309C125.026 413.351 124.068 413.309 123.118 413.184C124.068 413.059 125.026 413.017 125.983 413.059C126.943 413.017 127.904 413.059 128.857 413.184Z" fill="#E0E0E0"/>
<path d="M128.857 414.933C127.904 415.058 126.943 415.1 125.983 415.058C125.026 415.1 124.068 415.058 123.118 414.933C124.068 414.808 125.026 414.766 125.983 414.808C126.943 414.766 127.904 414.808 128.857 414.933Z" fill="#E0E0E0"/>
<path d="M128.857 416.683C127.904 416.808 126.943 416.85 125.983 416.808C125.026 416.85 124.068 416.808 123.118 416.683C124.068 416.558 125.026 416.516 125.983 416.558C126.943 416.516 127.904 416.558 128.857 416.683Z" fill="#E0E0E0"/>
<path d="M128.857 418.431C127.905 418.562 126.943 418.606 125.983 418.564C125.026 418.606 124.067 418.562 123.118 418.431C124.068 418.311 125.026 418.269 125.983 418.306C126.943 418.269 127.904 418.311 128.857 418.431Z" fill="#E0E0E0"/>
<path d="M122.72 409.109H191.161C191.947 413.16 191.947 417.324 191.161 421.375H123.024V420.524H127.194C127.452 420.524 127.707 420.473 127.945 420.374C128.184 420.275 128.4 420.13 128.582 419.947C128.764 419.765 128.908 419.548 129.006 419.309C129.104 419.07 129.154 418.815 129.153 418.557V411.772C129.154 411.514 129.104 411.258 129.006 411.019C128.908 410.781 128.764 410.564 128.582 410.381C128.4 410.198 128.184 410.053 127.945 409.954C127.707 409.855 127.452 409.804 127.194 409.804H122.735L122.72 409.109Z" fill="#EBEBEB"/>
<path d="M138.897 415.253H140.037C140.078 415.242 140.121 415.242 140.162 415.253C140.201 415.273 140.233 415.303 140.256 415.34C140.278 415.378 140.289 415.421 140.287 415.464C140.291 415.49 140.291 415.516 140.287 415.542C140.287 415.636 140.24 415.73 140.209 415.831C140.072 416.31 139.826 416.751 139.491 417.119C139.374 417.267 139.227 417.388 139.06 417.475C138.893 417.563 138.71 417.614 138.522 417.627H138.382C138.218 417.597 138.063 417.531 137.928 417.434C137.793 417.336 137.682 417.21 137.601 417.065C137.363 416.647 137.247 416.171 137.265 415.691C137.268 415.358 137.312 415.028 137.398 414.707C137.523 414.222 137.755 413.771 138.077 413.387C138.198 413.226 138.353 413.093 138.531 412.999C138.71 412.904 138.907 412.85 139.108 412.841C139.256 412.84 139.403 412.872 139.537 412.935C139.861 413.115 140.102 413.415 140.209 413.77C140.216 413.809 140.216 413.848 140.209 413.887C140.22 413.925 140.22 413.966 140.209 414.004C140.188 414.042 140.158 414.073 140.12 414.095C140.083 414.117 140.041 414.129 139.998 414.129C139.973 414.137 139.945 414.137 139.92 414.129C139.884 414.119 139.85 414.101 139.823 414.075C139.796 414.049 139.776 414.016 139.764 413.981C139.73 413.884 139.682 413.792 139.623 413.707C139.567 413.612 139.487 413.533 139.391 413.477C139.296 413.421 139.188 413.39 139.077 413.387C138.941 413.388 138.809 413.435 138.702 413.52C138.415 413.756 138.199 414.067 138.077 414.418C137.905 414.826 137.815 415.264 137.812 415.706C137.801 416.055 137.867 416.402 138.007 416.721C138.05 416.847 138.129 416.956 138.235 417.036C138.341 417.115 138.468 417.161 138.601 417.166C138.712 417.153 138.819 417.117 138.914 417.059C139.01 417.001 139.092 416.923 139.155 416.831C139.417 416.521 139.616 416.163 139.74 415.776C139.217 415.776 138.96 415.776 138.921 415.776C138.848 415.776 138.779 415.748 138.727 415.696C138.676 415.645 138.647 415.576 138.647 415.503V415.417C138.669 415.369 138.704 415.327 138.748 415.298C138.792 415.269 138.844 415.253 138.897 415.253Z" fill="#FAFAFA"/>
<path d="M142.785 413.021C142.785 413.021 142.785 413.076 142.785 413.107C142.832 413.268 143.092 414.681 143.566 417.346C143.57 417.367 143.57 417.388 143.566 417.409C143.577 417.45 143.577 417.493 143.566 417.534C143.548 417.572 143.519 417.604 143.483 417.626C143.447 417.648 143.405 417.66 143.363 417.659H143.324C143.28 417.651 143.238 417.631 143.205 417.6C143.172 417.57 143.148 417.53 143.137 417.487L142.863 416.074H141.458L140.779 417.495C140.784 417.51 140.784 417.526 140.779 417.541C140.755 417.576 140.724 417.605 140.687 417.625C140.651 417.646 140.61 417.657 140.568 417.659C140.521 417.658 140.475 417.644 140.435 417.62C140.401 417.596 140.374 417.564 140.355 417.527C140.336 417.491 140.326 417.45 140.326 417.409C140.319 417.386 140.319 417.361 140.326 417.338C140.365 417.237 140.435 417.089 140.537 416.878C141.521 414.723 142.098 413.458 142.301 413.068C142.32 413.02 142.352 412.979 142.394 412.948C142.435 412.918 142.484 412.9 142.536 412.896C142.584 412.893 142.633 412.903 142.677 412.925C142.721 412.947 142.758 412.98 142.785 413.021ZM142.481 413.973L141.7 415.574H142.778L142.481 413.973Z" fill="#FAFAFA"/>
<path d="M146.603 417.658H144.542C144.495 417.657 144.449 417.644 144.409 417.619C144.374 417.586 144.345 417.546 144.325 417.502C144.305 417.458 144.294 417.41 144.292 417.362C144.292 417.284 144.48 415.87 144.862 413.146C144.858 413.114 144.858 413.083 144.862 413.052C144.879 413.006 144.91 412.967 144.951 412.94C144.992 412.913 145.04 412.901 145.089 412.904C145.125 412.895 145.162 412.895 145.198 412.904C145.239 412.923 145.273 412.954 145.297 412.993C145.32 413.032 145.332 413.077 145.331 413.122L145.198 414.278C144.964 416.084 144.839 417.036 144.823 417.135H146.58C146.624 417.127 146.669 417.127 146.713 417.135C146.76 417.153 146.8 417.185 146.828 417.227C146.856 417.269 146.87 417.319 146.869 417.369C146.872 417.395 146.872 417.422 146.869 417.448C146.853 417.507 146.819 417.559 146.771 417.597C146.723 417.636 146.664 417.657 146.603 417.658Z" fill="#FAFAFA"/>
<path d="M149.422 413.02C149.422 413.02 149.422 413.075 149.422 413.106C149.469 413.27 149.742 414.668 150.203 417.346C150.206 417.367 150.206 417.388 150.203 417.408C150.201 417.453 150.187 417.496 150.164 417.533C150.145 417.571 150.117 417.604 150.081 417.626C150.045 417.648 150.003 417.659 149.961 417.658H149.922C149.878 417.649 149.837 417.628 149.804 417.598C149.771 417.568 149.747 417.529 149.734 417.486L149.57 416.073H148.165L147.486 417.494C147.489 417.51 147.489 417.526 147.486 417.541C147.46 417.575 147.427 417.603 147.389 417.624C147.351 417.644 147.31 417.656 147.267 417.658C147.22 417.656 147.175 417.643 147.134 417.619C147.1 417.595 147.073 417.564 147.054 417.527C147.035 417.49 147.025 417.45 147.025 417.408C147.021 417.385 147.021 417.361 147.025 417.338C147.064 417.237 147.134 417.088 147.236 416.877C148.22 414.722 148.797 413.458 149 413.067C149.019 413.02 149.051 412.978 149.093 412.948C149.134 412.917 149.183 412.899 149.235 412.896C149.273 412.902 149.309 412.917 149.341 412.938C149.374 412.96 149.401 412.988 149.422 413.02ZM149.117 413.973L148.337 415.574H149.414L149.117 413.973Z" fill="#FAFAFA"/>
<path d="M152.693 415.456L153.068 416.487C153.279 417.08 153.388 417.385 153.388 417.416C153.4 417.457 153.4 417.5 153.388 417.541C153.366 417.577 153.335 417.606 153.298 417.627C153.261 417.647 153.22 417.658 153.177 417.658C153.084 417.658 153.021 417.604 152.974 417.494C152.928 417.385 152.974 417.416 152.935 417.385C152.826 417.127 152.639 416.604 152.381 415.933L151.218 417.494C151.194 417.532 151.162 417.564 151.124 417.587C151.086 417.61 151.043 417.624 150.999 417.627C150.958 417.635 150.915 417.635 150.874 417.627C150.837 417.606 150.806 417.576 150.785 417.538C150.764 417.501 150.755 417.459 150.757 417.416V417.401C150.784 417.325 150.826 417.256 150.882 417.198C151.272 416.69 151.663 416.089 152.178 415.394C152.131 415.253 152.084 415.129 152.037 415.004C151.6 413.825 151.374 413.216 151.374 413.177C151.367 413.135 151.367 413.093 151.374 413.052C151.393 413.015 151.423 412.983 151.458 412.961C151.494 412.94 151.535 412.928 151.577 412.927C151.624 412.927 151.67 412.941 151.71 412.965C151.75 412.99 151.782 413.025 151.803 413.067L152.498 414.926L153.872 413.052C153.896 413.015 153.928 412.986 153.967 412.965C154.005 412.945 154.048 412.934 154.091 412.935C154.127 412.927 154.164 412.927 154.2 412.935C154.24 412.955 154.274 412.986 154.296 413.025C154.318 413.064 154.328 413.108 154.325 413.153C154.336 413.191 154.336 413.232 154.325 413.27L152.693 415.456Z" fill="#FAFAFA"/>
<path d="M157.815 412.911C157.851 412.903 157.888 412.903 157.924 412.911C157.965 412.929 157.999 412.959 158.022 412.997C158.046 413.034 158.058 413.078 158.057 413.122C157.721 415.792 157.534 417.229 157.503 417.447C157.444 417.852 157.292 418.237 157.058 418.572C156.836 418.884 156.508 419.107 156.136 419.199C155.763 419.29 155.37 419.245 155.028 419.071C154.721 418.945 154.465 418.72 154.302 418.431C154.295 418.392 154.295 418.353 154.302 418.314C154.29 418.273 154.29 418.23 154.302 418.189C154.321 418.15 154.351 418.118 154.389 418.096C154.426 418.073 154.469 418.063 154.513 418.064C154.549 418.067 154.585 418.077 154.617 418.095C154.649 418.112 154.678 418.136 154.7 418.166C154.815 418.343 154.97 418.49 155.154 418.595C155.337 418.699 155.543 418.758 155.754 418.767C155.906 418.759 156.056 418.719 156.191 418.647C156.325 418.576 156.443 418.475 156.535 418.353C156.816 417.978 156.974 417.525 156.988 417.057C156.909 417.184 156.806 417.293 156.683 417.377C156.472 417.536 156.214 417.621 155.949 417.619H155.809C155.645 417.59 155.489 417.524 155.354 417.427C155.219 417.33 155.107 417.203 155.028 417.057C154.784 416.641 154.665 416.164 154.684 415.683C154.684 415.433 154.684 415.175 154.684 414.902C154.721 414.48 154.814 413.887 154.965 413.122C154.959 413.099 154.959 413.075 154.965 413.052C154.978 413.003 155.006 412.959 155.045 412.928C155.085 412.897 155.134 412.88 155.184 412.88C155.226 412.882 155.266 412.896 155.301 412.919C155.339 412.936 155.371 412.963 155.393 412.998C155.415 413.032 155.427 413.073 155.426 413.114C155.404 413.428 155.365 413.741 155.309 414.051C155.228 414.529 155.176 415.011 155.153 415.495C155.138 415.876 155.199 416.255 155.332 416.612C155.473 416.948 155.676 417.112 155.941 417.112H156.027C156.286 417.029 156.506 416.854 156.644 416.62C156.891 416.279 157.063 415.891 157.151 415.48L157.464 413.138C157.459 413.104 157.459 413.07 157.464 413.036C157.473 413.001 157.491 412.968 157.516 412.941C157.541 412.914 157.572 412.894 157.607 412.881C157.641 412.869 157.678 412.865 157.715 412.87C157.751 412.876 157.785 412.89 157.815 412.911Z" fill="#FAFAFA"/>
<path d="M188.608 421.531C188.538 421.531 188.476 418.72 188.476 415.246C188.476 411.772 188.538 408.953 188.608 408.953C188.679 408.953 188.733 411.772 188.733 415.246C188.733 418.72 188.663 421.531 188.608 421.531Z" fill="#F5F5F5"/>
<path d="M132.581 421.531C132.511 421.531 132.456 418.72 132.456 415.246C132.456 411.772 132.511 408.953 132.581 408.953C132.651 408.953 132.706 411.772 132.706 415.246C132.706 418.72 132.651 421.531 132.581 421.531Z" fill="#E0E0E0"/>
<path d="M189.787 421.531C189.725 421.531 189.662 418.72 189.662 415.246C189.662 411.772 189.725 408.953 189.787 408.953C189.85 408.953 189.92 411.772 189.92 415.246C189.92 418.72 189.858 421.531 189.787 421.531Z" fill="#F5F5F5"/>
<path d="M131.464 421.531C131.394 421.531 131.332 418.72 131.332 415.246C131.332 411.772 131.394 408.953 131.464 408.953C131.535 408.953 131.589 411.772 131.589 415.246C131.589 418.72 131.527 421.531 131.464 421.531Z" fill="#E0E0E0"/>
<path d="M171.994 411.021L179.224 416.854L179.286 416.908H179.208L178.248 417.166L172.142 418.767L166.606 416.424L165.045 415.753L164.631 415.573L164.53 415.526L164.639 415.573L165.053 415.737L166.614 416.393L172.158 418.735L178.263 417.127L179.231 416.869V416.94L172.009 411.092" fill="#E0E0E0"/>
<path d="M178.56 415.933L178.958 416.3L179.489 416.19L179.255 416.674L179.528 417.143L178.989 417.08L178.63 417.479L178.529 416.948L178.037 416.729L178.505 416.471L178.56 415.933Z" fill="#E0E0E0"/>
<path d="M171.627 418.229L171.892 418.455L172.236 418.361L172.103 418.689L172.298 418.978L171.947 418.955L171.728 419.228L171.642 418.892L171.314 418.767L171.611 418.58L171.627 418.229Z" fill="#E0E0E0"/>
<path d="M163.96 415.089L164.389 415.112L164.655 414.776L164.764 415.19L165.17 415.338L164.803 415.565L164.787 416.002L164.452 415.729L164.046 415.846L164.202 415.44L163.96 415.089Z" fill="#E0E0E0"/>
<path d="M181.808 411.115L182.237 411.146L182.503 410.803L182.612 411.224L183.01 411.373L182.651 411.599L182.635 412.029L182.3 411.755L181.886 411.872L182.05 411.474L181.808 411.115Z" fill="#E0E0E0"/>
<path d="M171.642 410.834L171.916 410.849L172.087 410.639L172.158 410.904L172.415 410.998L172.181 411.146L172.173 411.419L171.962 411.24L171.697 411.318L171.798 411.06L171.642 410.834Z" fill="#E0E0E0"/>
<path d="M182.409 411.419C182.409 411.419 180.067 411.365 177.186 411.247C174.305 411.13 171.963 410.998 171.963 410.966C171.963 410.935 174.305 411.021 177.186 411.146C180.067 411.271 182.409 411.388 182.409 411.419Z" fill="#E0E0E0"/>
<path d="M185.04 409.007H115.623C114.717 406.946 114.491 404.986 115.623 403.229H185.04C185.471 404.132 185.694 405.119 185.694 406.118C185.694 407.118 185.471 408.105 185.04 409.007Z" fill="#E0E0E0"/>
<path d="M167.606 404.877H129.997V406.977H167.606V404.877Z" fill="#EBEBEB"/>
<path d="M118.285 409.038C118.056 408.845 117.87 408.606 117.739 408.336C117.385 407.705 117.169 407.007 117.106 406.287C117.042 405.567 117.133 404.841 117.372 404.159C117.449 403.869 117.593 403.602 117.793 403.378C117.725 403.663 117.641 403.945 117.543 404.221C117.362 404.889 117.298 405.584 117.356 406.275C117.424 406.963 117.606 407.636 117.895 408.265C118.048 408.511 118.178 408.77 118.285 409.038Z" fill="#E0E0E0"/>
<path d="M119.792 409.038C119.557 408.85 119.37 408.609 119.245 408.336C118.887 407.708 118.669 407.01 118.605 406.29C118.544 405.569 118.634 404.843 118.871 404.159C118.955 403.872 119.099 403.606 119.292 403.378C119.228 403.664 119.145 403.946 119.042 404.221C118.864 404.89 118.803 405.585 118.863 406.275C118.923 406.965 119.106 407.639 119.402 408.265C119.547 408.515 119.677 408.773 119.792 409.038Z" fill="#E0E0E0"/>
<path d="M182.229 408.898C182.507 407.982 182.672 407.035 182.721 406.079C182.681 405.12 182.526 404.168 182.261 403.245C182.771 404.1 183.018 405.085 182.971 406.079C183.011 407.072 182.753 408.053 182.229 408.898Z" fill="#F5F5F5"/>
<path d="M180.941 408.89C180.863 408.89 181.152 407.649 181.144 406.118C181.136 404.588 180.855 403.37 180.933 403.354C181.553 405.148 181.553 407.097 180.933 408.89H180.941Z" fill="#F5F5F5"/>
<path d="M224.719 382.078L127.178 382.016C124.389 382.015 121.628 381.465 119.052 380.396C116.476 379.328 114.135 377.763 112.164 375.79C110.192 373.818 108.629 371.476 107.563 368.899C106.496 366.322 105.948 363.56 105.949 360.771L105.996 116.245C105.997 113.454 106.548 110.69 107.617 108.112C108.686 105.534 110.252 103.192 112.226 101.219C114.2 99.2464 116.544 97.6818 119.123 96.6148C121.701 95.5477 124.465 94.999 127.256 95L224.789 95.0625C230.421 95.0666 235.822 97.3064 239.804 101.29C243.786 105.273 246.024 110.675 246.026 116.307L245.971 360.834C245.971 363.624 245.421 366.388 244.353 368.966C243.285 371.544 241.719 373.886 239.746 375.859C237.772 377.832 235.429 379.396 232.851 380.464C230.273 381.531 227.509 382.079 224.719 382.078Z" fill="#06184D"/>
<path d="M224.469 103.783H205.559C204.942 103.795 204.333 103.929 203.768 104.178C203.202 104.426 202.692 104.783 202.265 105.23C201.838 105.676 201.504 106.202 201.282 106.778C201.059 107.354 200.952 107.968 200.968 108.585V112.012C200.982 112.63 200.875 113.244 200.651 113.819C200.428 114.394 200.093 114.92 199.665 115.365C199.238 115.811 198.727 116.168 198.161 116.415C197.595 116.662 196.986 116.795 196.369 116.806H159.509C158.892 116.794 158.283 116.66 157.718 116.412C157.153 116.164 156.642 115.806 156.216 115.36C155.789 114.914 155.455 114.388 155.232 113.812C155.01 113.236 154.903 112.622 154.919 112.005V108.569C154.938 107.951 154.836 107.336 154.616 106.758C154.397 106.18 154.066 105.651 153.641 105.202C153.216 104.753 152.707 104.392 152.143 104.14C151.578 103.889 150.969 103.751 150.351 103.736H143.699H127.155C125.199 103.732 123.262 104.114 121.454 104.859C119.646 105.604 118.002 106.698 116.617 108.078C115.232 109.459 114.133 111.099 113.382 112.905C112.632 114.711 112.244 116.647 112.242 118.602L112.195 357.281C112.189 359.233 112.568 361.167 113.311 362.972C114.054 364.778 115.145 366.418 116.524 367.801C117.902 369.183 119.539 370.28 121.342 371.029C123.145 371.777 125.078 372.162 127.03 372.162L224.375 372.217C226.329 372.218 228.265 371.834 230.071 371.087C231.876 370.34 233.518 369.245 234.9 367.864C236.283 366.483 237.38 364.843 238.129 363.038C238.877 361.233 239.263 359.298 239.264 357.343L239.358 118.665C239.358 116.71 238.973 114.774 238.224 112.968C237.476 111.162 236.379 109.521 234.997 108.139C233.614 106.757 231.972 105.661 230.166 104.914C228.36 104.166 226.424 103.782 224.469 103.783Z" fill="white"/>
<path d="M240.428 141.705C240.428 141.814 211.688 141.908 176.249 141.908C140.81 141.908 112.094 141.791 112.094 141.705C112.094 141.619 140.826 141.502 176.288 141.502C211.75 141.502 240.428 141.588 240.428 141.705Z" fill="#06184D"/>
<path d="M125.484 132.859C125.389 132.86 125.298 132.827 125.226 132.765L121.517 129.509C121.474 129.474 121.439 129.429 121.416 129.377C121.393 129.325 121.382 129.269 121.385 129.213C121.384 129.156 121.396 129.1 121.421 129.048C121.445 128.997 121.481 128.952 121.525 128.916L125.234 125.793C125.314 125.728 125.416 125.698 125.518 125.708C125.621 125.718 125.715 125.768 125.78 125.848C125.813 125.887 125.838 125.932 125.853 125.981C125.869 126.03 125.874 126.082 125.869 126.133C125.864 126.183 125.848 126.233 125.824 126.278C125.799 126.323 125.766 126.362 125.726 126.394L122.376 129.189L125.734 132.141C125.773 132.174 125.805 132.214 125.828 132.26C125.851 132.305 125.865 132.355 125.868 132.406C125.872 132.457 125.865 132.508 125.849 132.556C125.832 132.604 125.807 132.649 125.773 132.687C125.741 132.736 125.699 132.777 125.648 132.807C125.598 132.837 125.542 132.855 125.484 132.859Z" fill="#06184D"/>
<path d="M206.41 129.003C206.41 129.12 194.331 129.206 179.427 129.206C164.522 129.206 152.443 129.12 152.443 129.003C152.443 128.886 164.522 128.8 179.427 128.8C194.331 128.8 206.41 128.893 206.41 129.003Z" fill="#06184D"/>
<path d="M222.041 128.979C222.041 129.257 221.958 129.528 221.804 129.759C221.649 129.991 221.43 130.171 221.173 130.277C220.916 130.383 220.634 130.411 220.361 130.357C220.088 130.303 219.838 130.169 219.641 129.972C219.445 129.776 219.311 129.525 219.257 129.253C219.203 128.98 219.23 128.698 219.337 128.441C219.443 128.184 219.623 127.965 219.854 127.81C220.086 127.656 220.357 127.573 220.635 127.573C221.008 127.573 221.365 127.721 221.629 127.985C221.893 128.248 222.041 128.606 222.041 128.979Z" fill="#06184D"/>
<path d="M226.085 128.979C226.085 129.257 226.002 129.529 225.847 129.76C225.693 129.992 225.473 130.172 225.216 130.278C224.958 130.384 224.675 130.411 224.402 130.356C224.13 130.302 223.879 130.167 223.683 129.97C223.487 129.772 223.354 129.521 223.3 129.248C223.247 128.975 223.276 128.692 223.383 128.435C223.491 128.179 223.672 127.96 223.904 127.806C224.137 127.653 224.409 127.572 224.687 127.573C224.872 127.573 225.054 127.61 225.224 127.68C225.394 127.751 225.548 127.855 225.678 127.985C225.808 128.116 225.911 128.271 225.981 128.441C226.051 128.612 226.086 128.794 226.085 128.979Z" fill="#06184D"/>
<path d="M230.137 128.979C230.137 129.257 230.055 129.528 229.9 129.759C229.746 129.991 229.526 130.171 229.269 130.277C229.013 130.383 228.73 130.411 228.458 130.357C228.185 130.303 227.934 130.169 227.738 129.972C227.541 129.776 227.408 129.525 227.353 129.253C227.299 128.98 227.327 128.698 227.433 128.441C227.54 128.184 227.72 127.965 227.951 127.81C228.182 127.656 228.454 127.573 228.732 127.573C229.104 127.573 229.462 127.721 229.725 127.985C229.989 128.248 230.137 128.606 230.137 128.979Z" fill="#06184D"/>
<path d="M164.069 194.141C164.069 195.046 163.694 195.593 163.07 195.593C162.922 195.607 162.775 195.569 162.653 195.484C162.532 195.4 162.444 195.275 162.406 195.132C162.302 195.284 162.16 195.406 161.994 195.487C161.829 195.567 161.645 195.604 161.461 195.593C161.126 195.567 160.812 195.416 160.584 195.169C160.355 194.922 160.228 194.598 160.228 194.262C160.228 193.925 160.355 193.601 160.584 193.355C160.812 193.108 161.126 192.956 161.461 192.931C161.626 192.922 161.791 192.951 161.942 193.016C162.094 193.081 162.228 193.18 162.336 193.305V192.962H162.914V194.742C162.914 195.007 163.038 195.101 163.187 195.101C163.468 195.101 163.624 194.765 163.624 194.149C163.628 193.89 163.578 193.634 163.477 193.396C163.376 193.158 163.226 192.945 163.036 192.769C162.847 192.593 162.623 192.458 162.379 192.375C162.134 192.291 161.875 192.26 161.617 192.283C161.346 192.258 161.073 192.291 160.816 192.378C160.558 192.465 160.321 192.605 160.12 192.788C159.919 192.972 159.759 193.195 159.649 193.444C159.54 193.693 159.483 193.962 159.483 194.234C159.483 194.507 159.54 194.776 159.649 195.025C159.759 195.274 159.919 195.497 160.12 195.681C160.321 195.864 160.558 196.004 160.816 196.091C161.073 196.178 161.346 196.211 161.617 196.186C161.969 196.188 162.317 196.108 162.632 195.952L162.773 196.374C162.411 196.54 162.016 196.623 161.617 196.616C161.293 196.634 160.968 196.586 160.662 196.475C160.357 196.364 160.077 196.191 159.841 195.968C159.604 195.744 159.416 195.475 159.287 195.176C159.158 194.878 159.092 194.556 159.092 194.231C159.092 193.905 159.158 193.584 159.287 193.285C159.416 192.986 159.604 192.717 159.841 192.494C160.077 192.27 160.357 192.098 160.662 191.986C160.968 191.875 161.293 191.827 161.617 191.845C161.932 191.822 162.249 191.863 162.546 191.968C162.844 192.073 163.117 192.239 163.348 192.454C163.578 192.67 163.761 192.932 163.885 193.222C164.01 193.512 164.072 193.825 164.069 194.141ZM162.344 194.258C162.334 194.106 162.281 193.96 162.19 193.838C162.099 193.716 161.974 193.623 161.831 193.571C161.687 193.519 161.532 193.51 161.384 193.545C161.236 193.58 161.101 193.658 160.996 193.769C160.892 193.88 160.822 194.019 160.795 194.169C160.769 194.319 160.787 194.473 160.847 194.613C160.907 194.753 161.007 194.873 161.134 194.957C161.261 195.04 161.41 195.085 161.563 195.086C161.669 195.086 161.775 195.064 161.873 195.022C161.971 194.98 162.059 194.918 162.132 194.841C162.205 194.763 162.262 194.671 162.298 194.571C162.334 194.471 162.35 194.364 162.344 194.258Z" fill="#06184D"/>
<path d="M193.574 195.562C193.574 195.672 187.921 195.765 180.957 195.765C173.993 195.765 168.348 195.672 168.348 195.562C168.348 195.453 173.993 195.352 180.957 195.352C187.921 195.352 193.574 195.445 193.574 195.562Z" fill="#06184D"/>
<path d="M143.691 231.243C142.541 231.514 141.344 231.514 140.193 231.243C141.344 230.972 142.541 230.972 143.691 231.243Z" fill="#06184D"/>
<path d="M151.913 239.706C151.913 239.815 147.696 239.909 142.489 239.909C137.281 239.909 133.073 239.815 133.073 239.706C133.073 239.597 137.289 239.503 142.489 239.503C147.689 239.503 151.913 239.597 151.913 239.706Z" fill="#06184D"/>
<path d="M181.582 231.243C179.804 231.448 178.013 231.516 176.226 231.446C174.438 231.516 172.647 231.448 170.87 231.243C172.647 231.042 174.438 230.974 176.226 231.04C178.013 230.974 179.804 231.042 181.582 231.243Z" fill="#06184D"/>
<path d="M184.751 239.254C184.751 239.363 180.434 239.457 175.109 239.457C169.784 239.457 165.459 239.363 165.459 239.254C165.459 239.144 169.776 239.051 175.109 239.051C180.442 239.051 184.751 239.144 184.751 239.254Z" fill="#06184D"/>
<path d="M216.56 231.36C214.158 231.561 211.747 231.629 209.338 231.563C206.928 231.629 204.517 231.561 202.115 231.36C204.517 231.154 206.928 231.086 209.338 231.157C211.747 231.086 214.158 231.154 216.56 231.36Z" fill="#06184D"/>
<path d="M219.261 239.59C219.261 239.707 215.1 239.793 209.962 239.793C204.825 239.793 200.656 239.707 200.656 239.59C200.656 239.473 204.817 239.387 209.962 239.387C215.107 239.387 219.261 239.48 219.261 239.59Z" fill="#06184D"/>
<path d="M192.286 247.6H139.366C138.266 247.6 137.375 248.491 137.375 249.591V261.966C137.375 263.065 138.266 263.957 139.366 263.957H192.286C193.385 263.957 194.277 263.065 194.277 261.966V249.591C194.277 248.491 193.385 247.6 192.286 247.6Z" fill="#15B79E"/>
<path d="M183.518 256.056C183.518 256.165 176.194 256.259 167.161 256.259C158.127 256.259 150.765 256.165 150.765 256.056C150.765 255.946 158.088 255.853 167.161 255.853C176.233 255.853 183.518 255.938 183.518 256.056Z" fill="white"/>
<path d="M213.39 247.295H200.835C199.813 247.295 198.985 248.123 198.985 249.145V262.207C198.985 263.229 199.813 264.058 200.835 264.058H213.39C214.412 264.058 215.24 263.229 215.24 262.207V249.145C215.24 248.123 214.412 247.295 213.39 247.295Z" fill="#EBEBEB"/>
<path d="M205.356 254.822H208.861L207.261 257.282L205.356 254.822Z" fill="#06184D"/>
<path d="M194.277 276.122C194.277 276.239 185.228 276.325 174.071 276.325C162.914 276.325 153.865 276.239 153.865 276.122C153.865 276.005 162.914 275.919 174.071 275.919C185.228 275.919 194.277 276.013 194.277 276.122Z" fill="#E0E0E0"/>
<path d="M206.035 283.733C206.035 283.843 192.762 283.936 176.366 283.936C159.97 283.936 146.697 283.843 146.697 283.733C146.697 283.624 159.97 283.53 176.366 283.53C192.762 283.53 206.035 283.624 206.035 283.733Z" fill="#E0E0E0"/>
<path d="M240.139 296.929C240.139 297.046 211.68 297.139 176.569 297.139C141.458 297.139 112.999 297.046 112.999 296.929C112.999 296.811 141.458 296.726 176.569 296.726C211.68 296.726 240.139 296.819 240.139 296.929Z" fill="#06184D"/>
<path d="M177.834 311.74C177.633 309.346 177.565 306.943 177.631 304.541C177.565 302.143 177.633 299.742 177.834 297.351C178.04 299.742 178.107 302.143 178.037 304.541C178.107 306.943 178.04 309.346 177.834 311.74Z" fill="#06184D"/>
<path d="M169.94 206.22L166.286 214.605H164.725L161.063 206.22H162.75L165.537 212.684L168.355 206.22H169.94Z" fill="#15B79E"/>
<path d="M176.194 211.888H171.174C171.267 212.358 171.53 212.778 171.913 213.066C172.297 213.355 172.773 213.491 173.251 213.449C173.572 213.462 173.893 213.407 174.192 213.287C174.491 213.168 174.761 212.986 174.984 212.754L175.765 213.676C175.439 214.028 175.038 214.304 174.593 214.483C174.147 214.663 173.668 214.742 173.188 214.714C171.049 214.714 169.659 213.34 169.659 211.435C169.643 210.995 169.719 210.557 169.882 210.149C170.045 209.74 170.291 209.37 170.604 209.061C170.918 208.753 171.292 208.513 171.703 208.357C172.115 208.201 172.554 208.133 172.993 208.156C173.428 208.14 173.861 208.215 174.265 208.376C174.669 208.537 175.035 208.781 175.34 209.092C175.644 209.403 175.88 209.774 176.033 210.182C176.185 210.589 176.251 211.024 176.225 211.458C176.218 211.56 176.202 211.739 176.194 211.888ZM171.166 210.888H174.789C174.745 210.447 174.534 210.039 174.198 209.748C173.863 209.457 173.429 209.307 172.985 209.327C172.541 209.31 172.107 209.462 171.77 209.751C171.433 210.041 171.217 210.447 171.166 210.888Z" fill="#15B79E"/>
<path d="M181.355 208.156V209.577C181.242 209.554 181.127 209.541 181.012 209.538C180.752 209.518 180.492 209.556 180.249 209.65C180.006 209.744 179.788 209.891 179.61 210.081C179.432 210.27 179.298 210.497 179.219 210.745C179.14 210.993 179.118 211.256 179.153 211.513V214.636H177.678V208.242H179.107V209.171C179.363 208.823 179.704 208.548 180.098 208.37C180.492 208.192 180.925 208.118 181.355 208.156Z" fill="#15B79E"/>
<path d="M182.425 206.258C182.426 206.135 182.452 206.014 182.501 205.901C182.55 205.788 182.622 205.687 182.712 205.603C182.802 205.519 182.908 205.454 183.024 205.412C183.139 205.37 183.262 205.353 183.385 205.36C183.505 205.351 183.625 205.366 183.739 205.404C183.853 205.443 183.957 205.504 184.046 205.584C184.136 205.665 184.207 205.763 184.258 205.872C184.308 205.981 184.335 206.099 184.338 206.219C184.316 206.458 184.206 206.68 184.029 206.842C183.852 207.003 183.621 207.093 183.381 207.093C183.142 207.093 182.91 207.003 182.733 206.842C182.557 206.68 182.446 206.458 182.425 206.219V206.258ZM182.628 208.21H184.127V214.604H182.628V208.21Z" fill="#15B79E"/>
<path d="M188.608 205.634C189.086 205.612 189.559 205.735 189.967 205.985L189.545 207.109C189.303 206.939 189.014 206.847 188.718 206.844C188.093 206.844 187.773 207.187 187.773 207.874V208.257H189.537V209.451H187.828V214.604H186.266V209.451H185.22V208.257H186.266V207.851C186.241 207.542 186.286 207.232 186.396 206.943C186.507 206.654 186.681 206.394 186.906 206.181C187.131 205.968 187.4 205.809 187.695 205.714C187.99 205.619 188.302 205.592 188.608 205.634ZM191.294 206.258C191.295 206.135 191.321 206.014 191.37 205.901C191.42 205.788 191.491 205.687 191.581 205.603C191.671 205.519 191.777 205.454 191.893 205.412C192.009 205.37 192.132 205.353 192.255 205.36C192.374 205.351 192.495 205.366 192.608 205.404C192.722 205.443 192.827 205.504 192.916 205.584C193.005 205.665 193.077 205.763 193.127 205.872C193.177 205.981 193.204 206.099 193.207 206.219C193.185 206.458 193.075 206.68 192.898 206.842C192.721 207.003 192.49 207.093 192.251 207.093C192.011 207.093 191.78 207.003 191.603 206.842C191.426 206.68 191.316 206.458 191.294 206.219V206.258ZM191.497 208.21H192.996V214.604H191.497V208.21Z" fill="#15B79E"/>
<path d="M200.913 211.888H195.901C195.992 212.358 196.253 212.778 196.635 213.066C197.017 213.354 197.493 213.491 197.97 213.449C198.292 213.46 198.613 213.403 198.913 213.284C199.212 213.164 199.484 212.984 199.711 212.755L200.492 213.676C200.166 214.029 199.766 214.306 199.32 214.485C198.875 214.665 198.395 214.743 197.915 214.714C195.776 214.714 194.386 213.34 194.386 211.435C194.374 211 194.451 210.567 194.614 210.163C194.776 209.759 195.019 209.392 195.329 209.086C195.639 208.78 196.008 208.541 196.414 208.384C196.82 208.226 197.254 208.154 197.689 208.171C198.123 208.155 198.557 208.231 198.961 208.392C199.365 208.553 199.731 208.797 200.035 209.108C200.339 209.419 200.575 209.79 200.728 210.197C200.881 210.605 200.946 211.04 200.921 211.474C200.937 211.56 200.929 211.74 200.913 211.888ZM195.885 210.888H199.539C199.494 210.446 199.281 210.038 198.944 209.748C198.607 209.457 198.172 209.307 197.728 209.327C197.28 209.306 196.841 209.456 196.499 209.745C196.157 210.035 195.938 210.443 195.885 210.888Z" fill="#15B79E"/>
<path d="M208.643 205.72V214.605H207.206V213.777C206.944 214.078 206.618 214.315 206.252 214.472C205.885 214.629 205.488 214.701 205.09 214.683C204.223 214.683 203.391 214.338 202.777 213.725C202.163 213.111 201.819 212.279 201.819 211.411C201.819 210.544 202.163 209.712 202.777 209.098C203.391 208.485 204.223 208.14 205.09 208.14C205.475 208.123 205.858 208.191 206.213 208.339C206.568 208.488 206.886 208.713 207.144 208.999V205.72H208.643ZM207.167 211.404C207.149 211.031 207.022 210.673 206.801 210.372C206.581 210.071 206.278 209.842 205.928 209.712C205.579 209.582 205.199 209.557 204.836 209.641C204.473 209.725 204.142 209.913 203.885 210.183C203.628 210.453 203.456 210.792 203.39 211.159C203.323 211.526 203.366 211.904 203.513 212.246C203.659 212.589 203.903 212.881 204.214 213.087C204.525 213.292 204.889 213.402 205.262 213.402C205.522 213.407 205.779 213.358 206.019 213.258C206.258 213.158 206.475 213.01 206.654 212.822C206.833 212.634 206.971 212.411 207.059 212.167C207.148 211.923 207.184 211.663 207.167 211.404Z" fill="#15B79E"/>
<path d="M149.266 216.706C152.892 216.706 155.832 213.766 155.832 210.139C155.832 206.513 152.892 203.573 149.266 203.573C145.639 203.573 142.7 206.513 142.7 210.139C142.7 213.766 145.639 216.706 149.266 216.706Z" fill="#15B79E"/>
<path d="M146.299 210.264L147.142 209.421L148.774 210.865L151.967 207.789L152.748 208.632L148.649 212.489L146.299 210.264Z" fill="white"/>
<path d="M177.49 372.186H125.96C122.274 372.173 118.744 370.699 116.144 368.086C113.544 365.473 112.087 361.935 112.094 358.249V311.739H177.529L177.49 372.186Z" fill="#EBEBEB"/>
<path d="M225.015 372.311L176.897 372.186V311.739H239.498V357.859C239.418 361.672 237.866 365.306 235.166 368C232.466 370.694 228.829 372.239 225.015 372.311Z" fill="#455A64"/>
<path d="M240.139 311.74C240.139 311.849 211.68 311.943 176.577 311.943C141.474 311.943 113.007 311.849 113.007 311.74C113.007 311.631 141.458 311.537 176.577 311.537C211.696 311.537 240.139 311.631 240.139 311.74Z" fill="#06184D"/>
<path d="M175.624 347.131C175.624 347.131 175.554 347.131 175.445 347.022L174.953 346.663L173.095 345.273L166.302 340.089C164.873 339.003 163.296 337.746 161.617 336.52C161.169 336.26 160.657 336.132 160.139 336.15C159.621 336.168 159.119 336.332 158.69 336.622C158.257 336.981 157.85 337.369 157.472 337.785L156.23 339.042L145.3 350.082L144.628 350.762L144.503 350.886L144.363 350.785L138.054 346.1L135.056 343.86C134.647 343.472 134.131 343.214 133.574 343.121C133.018 343.028 132.446 343.103 131.933 343.337C131.451 343.616 131.014 343.966 130.637 344.375L129.403 345.523L127.061 347.709L122.845 351.613L116.731 357.25L115.053 358.764L114.616 359.155C114.517 359.243 114.462 359.282 114.452 359.272C114.489 359.217 114.534 359.167 114.584 359.124L114.998 358.71L116.622 357.148L122.65 351.417L126.835 347.467L129.177 345.273L130.403 344.117L131.027 343.532C131.261 343.32 131.524 343.144 131.808 343.009C132.378 342.733 133.018 342.64 133.643 342.743C133.959 342.792 134.265 342.892 134.548 343.04C134.826 343.188 135.087 343.363 135.329 343.563L138.335 345.788L144.652 350.473H144.386L145.058 349.786L155.988 338.769L157.237 337.52C157.631 337.088 158.056 336.686 158.51 336.317C158.997 335.995 159.564 335.815 160.148 335.798C160.732 335.782 161.308 335.929 161.813 336.224C163.546 337.512 165.061 338.746 166.497 339.854L173.212 345.14L175.031 346.592L175.492 346.983C175.542 347.026 175.587 347.076 175.624 347.131Z" fill="#06184D"/>
<path d="M150.086 326.831C150.039 326.831 150.086 326.332 149.828 325.465C149.492 324.252 148.761 323.187 147.751 322.436C147.061 321.92 146.258 321.575 145.409 321.428C144.443 321.257 143.45 321.343 142.528 321.678C141.507 322.051 140.621 322.72 139.983 323.599C139.293 324.537 138.921 325.671 138.921 326.835C138.921 327.999 139.293 329.133 139.983 330.071C140.595 330.903 141.428 331.546 142.386 331.93C143.345 332.313 144.392 332.422 145.409 332.242C146.259 332.095 147.063 331.747 147.751 331.227C148.761 330.476 149.492 329.41 149.828 328.198C150.062 327.339 150.039 326.831 150.086 326.831C150.098 326.953 150.098 327.076 150.086 327.198C150.086 327.548 150.047 327.896 149.969 328.237C149.678 329.515 148.952 330.652 147.915 331.453C147.2 332.014 146.363 332.396 145.471 332.57C144.388 332.78 143.268 332.679 142.239 332.278C141.211 331.877 140.318 331.193 139.662 330.306C138.918 329.302 138.516 328.085 138.516 326.835C138.516 325.585 138.918 324.369 139.662 323.365C140.35 322.428 141.301 321.719 142.395 321.327C143.382 320.978 144.443 320.897 145.471 321.093C146.362 321.27 147.199 321.652 147.915 322.209C148.951 323.012 149.676 324.149 149.969 325.426C150.047 325.769 150.087 326.12 150.086 326.472C150.097 326.592 150.097 326.712 150.086 326.831Z" fill="#06184D"/>
<path d="M237.562 345.195C237.562 345.195 237.5 345.195 237.39 345.086L236.922 344.735L235.126 343.337L228.576 338.145C227.202 337.06 225.687 335.803 224.071 334.577C223.638 334.317 223.138 334.193 222.635 334.219C222.131 334.245 221.647 334.422 221.244 334.725C220.833 335.089 220.445 335.478 220.081 335.889L218.894 337.146L208.44 348.147L207.784 348.826L207.659 348.959L207.511 348.849L201.429 344.165L198.54 341.924C198.151 341.534 197.648 341.276 197.104 341.189C196.56 341.102 196.002 341.19 195.51 341.44C195.052 341.733 194.635 342.084 194.269 342.486L193.09 343.634L190.834 345.812L186.781 349.716L180.918 355.338L179.31 356.852L178.88 357.235C178.786 357.321 178.732 357.368 178.724 357.36C178.762 357.305 178.806 357.255 178.857 357.211C178.958 357.094 179.091 356.962 179.247 356.798L180.809 355.236L186.586 349.521L190.599 345.578C191.325 344.875 192.067 344.141 192.84 343.384L194.011 342.236L194.613 341.651C194.826 341.441 195.068 341.263 195.331 341.12C195.881 340.828 196.511 340.722 197.127 340.815C197.437 340.861 197.738 340.958 198.017 341.104C198.293 341.254 198.554 341.429 198.797 341.627L201.686 343.86L207.776 348.545H207.503L208.159 347.858L218.637 336.88L219.831 335.631C220.212 335.205 220.618 334.804 221.049 334.429C221.51 334.088 222.062 333.893 222.635 333.866C223.208 333.84 223.775 333.984 224.266 334.28C225.944 335.569 227.389 336.802 228.779 337.911L235.243 343.204L236.984 344.665L237.429 345.047L237.562 345.195Z" fill="#06184D"/>
<path d="M211.016 325.09C210.977 325.09 211.016 324.591 210.766 323.732C210.434 322.517 209.702 321.45 208.69 320.702C208.106 320.266 207.441 319.95 206.735 319.772C206.028 319.594 205.293 319.558 204.572 319.665C203.852 319.773 203.159 320.022 202.535 320.398C201.911 320.774 201.368 321.271 200.937 321.858C200.247 322.796 199.875 323.93 199.875 325.094C199.875 326.259 200.247 327.392 200.937 328.331C201.574 329.209 202.461 329.875 203.482 330.243C204.345 330.562 205.276 330.658 206.186 330.522C207.096 330.385 207.958 330.021 208.69 329.463C209.701 328.713 210.432 327.647 210.766 326.433C210.873 325.982 210.957 325.526 211.016 325.067C211.036 325.188 211.036 325.312 211.016 325.434C211.017 325.783 210.978 326.132 210.899 326.472C210.631 327.752 209.927 328.9 208.908 329.72C208.191 330.275 207.354 330.655 206.464 330.829C205.437 331.033 204.373 330.952 203.388 330.595C202.295 330.206 201.343 329.499 200.656 328.565C199.911 327.561 199.509 326.344 199.509 325.094C199.509 323.844 199.911 322.628 200.656 321.624C201.311 320.736 202.204 320.052 203.233 319.652C204.261 319.251 205.381 319.15 206.464 319.36C207.354 319.534 208.191 319.914 208.908 320.468C209.946 321.272 210.672 322.412 210.962 323.693C211.04 324.033 211.08 324.382 211.079 324.731C211.079 324.854 211.058 324.975 211.016 325.09Z" fill="#06184D"/>
<path d="M177.857 189.019C187.844 189.019 195.94 180.924 195.94 170.937C195.94 160.95 187.844 152.854 177.857 152.854C167.871 152.854 159.775 160.95 159.775 170.937C159.775 180.924 167.871 189.019 177.857 189.019Z" fill="#F5F5F5"/>
<path d="M189.545 184.655C189.237 181.787 187.861 179.139 185.692 177.237C183.523 175.336 180.718 174.319 177.834 174.388C171.416 174.388 167.02 179.244 166.122 184.694C166.122 184.694 170.089 189.082 177.834 189.02C185.579 188.957 189.545 184.655 189.545 184.655Z" fill="#E0E0E0"/>
<path d="M185.215 169.17C185.841 165.294 183.207 161.644 179.331 161.017C175.454 160.391 171.804 163.025 171.178 166.901C170.551 170.778 173.186 174.428 177.062 175.054C180.938 175.681 184.588 173.046 185.215 169.17Z" fill="#E0E0E0"/>
<path d="M189.459 184.038C189.238 182.881 188.868 181.758 188.358 180.696C187.701 179.509 186.833 178.451 185.798 177.573C184.438 176.425 182.872 175.545 181.183 174.981L180.808 174.864L181.152 174.685C182.344 174.037 183.323 173.058 183.971 171.866C184.534 170.816 184.816 169.637 184.789 168.445C184.761 167.254 184.425 166.089 183.813 165.066C183.201 164.043 182.334 163.196 181.297 162.608C180.26 162.02 179.088 161.711 177.896 161.711C176.704 161.711 175.532 162.02 174.496 162.608C173.459 163.196 172.592 164.043 171.98 165.066C171.368 166.089 171.032 167.254 171.004 168.445C170.976 169.637 171.258 170.816 171.822 171.866C172.15 172.475 172.566 173.033 173.056 173.521C173.53 173.978 174.054 174.381 174.617 174.724L174.929 174.919L174.57 175.02C172.842 175.475 171.254 176.353 169.948 177.573C168.957 178.512 168.138 179.616 167.528 180.837C167.134 181.62 166.815 182.438 166.575 183.281C166.489 183.57 166.435 183.796 166.396 183.944C166.385 184.022 166.364 184.099 166.333 184.171C166.319 184.093 166.319 184.014 166.333 183.937C166.333 183.78 166.396 183.546 166.466 183.257C166.671 182.396 166.966 181.558 167.348 180.759C167.94 179.497 168.755 178.352 169.753 177.378C171.068 176.11 172.678 175.19 174.437 174.7L174.391 174.997C173.801 174.649 173.251 174.238 172.751 173.771C172.231 173.261 171.789 172.677 171.439 172.038C170.667 170.597 170.401 168.939 170.684 167.329C170.968 165.719 171.783 164.251 173.001 163.16C174.335 161.959 176.066 161.294 177.861 161.294C179.656 161.294 181.388 161.959 182.721 163.16C183.592 163.943 184.261 164.925 184.671 166.022C185.08 167.119 185.218 168.298 185.073 169.46C184.928 170.622 184.505 171.732 183.838 172.694C183.172 173.657 182.282 174.444 181.246 174.989V174.685C182.969 175.274 184.56 176.194 185.93 177.394C186.979 178.308 187.845 179.413 188.483 180.65C188.706 181.107 188.892 181.583 189.038 182.071C189.159 182.424 189.251 182.787 189.311 183.156C189.35 183.429 189.381 183.655 189.405 183.843C189.428 184.03 189.475 184.038 189.459 184.038Z" fill="#06184D"/>
<path d="M195.94 170.937C195.915 170.84 195.902 170.74 195.901 170.64C195.901 170.429 195.901 170.148 195.838 169.789L195.799 169.157C195.799 168.923 195.721 168.673 195.674 168.376C195.593 167.745 195.465 167.122 195.292 166.51C194.868 164.825 194.191 163.214 193.285 161.732C191.141 158.153 187.817 155.432 183.884 154.037C179.952 152.642 175.657 152.66 171.736 154.088C170.933 154.378 170.15 154.722 169.394 155.119C168.63 155.537 167.897 156.009 167.2 156.532C166.486 157.062 165.808 157.638 165.17 158.257C164.539 158.91 163.952 159.604 163.413 160.334C162.304 161.829 161.442 163.492 160.86 165.261C159.632 168.927 159.632 172.893 160.86 176.558C161.442 178.329 162.304 179.995 163.413 181.493C163.954 182.222 164.541 182.915 165.17 183.57C165.808 184.189 166.486 184.765 167.2 185.295C167.899 185.815 168.632 186.287 169.394 186.708C172.986 188.602 177.108 189.242 181.105 188.528C183.615 188.066 185.999 187.078 188.1 185.628C190.2 184.179 191.97 182.301 193.293 180.119C194.2 178.634 194.877 177.02 195.3 175.333C195.473 174.724 195.601 174.102 195.682 173.474C195.729 173.201 195.776 172.951 195.807 172.694L195.846 172.061C195.846 171.702 195.893 171.421 195.909 171.202C195.91 171.105 195.923 171.008 195.948 170.914C195.958 171.012 195.958 171.112 195.948 171.21C195.948 171.421 195.948 171.71 195.948 172.069C195.948 172.264 195.948 172.475 195.948 172.701C195.948 172.928 195.877 173.193 195.846 173.482C195.776 174.117 195.659 174.746 195.495 175.364C195.089 177.076 194.426 178.716 193.527 180.228C192.211 182.455 190.438 184.377 188.323 185.867C186.208 187.358 183.801 188.381 181.261 188.871C178.048 189.472 174.732 189.203 171.658 188.09C170.839 187.795 170.041 187.446 169.269 187.044C168.487 186.618 167.736 186.138 167.02 185.607C166.289 185.067 165.595 184.478 164.944 183.843C164.298 183.179 163.698 182.472 163.148 181.727C162.008 180.198 161.122 178.495 160.524 176.683C159.926 174.817 159.607 172.873 159.58 170.914C159.605 168.951 159.926 167.003 160.532 165.136C161.125 163.326 162.009 161.626 163.148 160.1C163.698 159.352 164.298 158.643 164.944 157.976C165.599 157.348 166.292 156.761 167.02 156.22C167.736 155.689 168.487 155.209 169.269 154.783C170.041 154.381 170.839 154.032 171.658 153.737C174.73 152.624 178.043 152.355 181.254 152.956C183.795 153.444 186.204 154.467 188.32 155.957C190.436 157.448 192.211 159.371 193.527 161.599C194.426 163.109 195.089 164.746 195.495 166.455C195.659 167.076 195.776 167.707 195.846 168.345C195.846 168.618 195.924 168.876 195.948 169.126C195.971 169.375 195.948 169.571 195.948 169.766C195.948 170.125 195.948 170.414 195.948 170.625C195.956 170.729 195.954 170.833 195.94 170.937Z" fill="#06184D"/>
<path d="M103.068 253.073C93.5739 257.992 86.2894 266.463 81.0583 275.786C75.8272 285.108 72.4699 295.344 69.1049 305.501L66.177 357.891C77.2248 339.098 86.0942 317.002 88.4912 295.328L81.1364 294.672C86.0708 293.891 90.2089 290.347 92.8478 286.084C95.4868 281.821 96.8375 276.957 98.157 272.155L89.1861 273.482C96.2627 268.715 101.233 261.407 103.068 253.073Z" fill="#455A64"/>
<path d="M103.068 253.073C93.5739 257.992 86.2894 266.463 81.0583 275.786C75.8272 285.108 72.4699 295.344 69.1049 305.501L66.177 357.891C77.2248 339.098 86.0942 317.002 88.4912 295.328L81.1364 294.672C86.0708 293.891 90.2089 290.347 92.8478 286.084C95.4868 281.821 96.8375 276.957 98.157 272.155L89.1861 273.482C96.2627 268.715 101.233 261.407 103.068 253.073Z" fill="#455A64"/>
<path d="M64.5374 370.172C64.5374 370.172 40.5602 341.464 40.8335 314.059H50.5227C50.5227 314.059 39.9981 307.141 40.8335 303.269C41.6689 299.396 41.9422 284.718 41.9422 284.718L50.8038 286.935C50.8038 286.935 44.1595 283.617 43.3241 278.347C42.4887 273.077 45.2604 248.756 45.2604 248.756C45.2604 248.756 56.0583 260.1 59.3844 271.726C62.7104 283.351 71.4237 296.913 68.8628 332.344C66.3019 367.775 64.5374 370.172 64.5374 370.172Z" fill="#455A64"/>
<path d="M76.7018 372.897C76.7018 372.897 102.686 355.588 108.455 333.492L100.648 331.376C100.648 331.376 110.626 328.113 110.798 324.818C110.969 321.523 113.921 309.663 113.921 309.663L106.316 309.507C106.316 309.507 112.383 308.289 114.202 304.245C116.021 300.2 119.191 279.986 119.191 279.986C119.191 279.986 108.026 286.756 102.795 295.375C97.5637 303.995 87.6012 312.989 81.9094 342.033C76.2177 371.078 76.7018 372.897 76.7018 372.897Z" fill="#455A64"/>
<path d="M51.8188 273.739C51.8188 273.739 51.8188 273.841 51.8969 274.036C51.975 274.231 52.0218 274.551 52.1077 274.918C52.2873 275.699 52.5371 276.87 52.8885 278.33C53.2398 279.79 53.6068 281.625 54.0206 283.733C54.4344 285.841 54.9419 288.246 55.426 290.908C56.4566 296.233 57.534 302.62 58.6505 309.646C59.767 316.673 60.8132 324.536 61.7736 332.749C62.7339 340.963 63.4444 348.817 64.0065 355.961C64.5687 363.105 64.9356 369.554 65.1465 374.965C65.287 377.674 65.3495 380.126 65.4197 382.281C65.49 384.436 65.529 386.286 65.5446 387.801C65.5603 389.315 65.5446 390.471 65.5837 391.291V392.196C65.5837 392.399 65.5837 392.509 65.5837 392.509C65.5706 392.405 65.5706 392.3 65.5837 392.196V391.291C65.5837 390.471 65.5134 389.3 65.4666 387.801C65.4197 386.302 65.3651 384.436 65.2714 382.289C65.1777 380.142 65.0918 377.69 64.9435 374.981C64.6858 369.57 64.2564 363.137 63.7099 355.993C63.1633 348.849 62.3826 341.01 61.4456 332.796C60.5087 324.582 59.4157 316.783 58.3226 309.701C57.2295 302.62 56.1755 296.256 55.1995 290.963C54.7311 288.293 54.2548 285.896 53.8566 283.78C53.4584 281.664 53.0759 279.876 52.787 278.361C52.4981 276.847 52.2639 275.746 52.1077 274.942C52.0375 274.559 51.975 274.27 51.936 274.044C51.8874 273.946 51.8482 273.844 51.8188 273.739Z" fill="#06184D"/>
<path d="M61.2114 387.731C61.2114 387.731 39.2642 362.848 32.456 347.795L37.6012 345.569C33.8691 346.186 30.0512 344.586 27.1546 342.15C24.258 339.714 22.1421 336.513 20.0575 333.358L26.8345 332.211C20.5974 330.44 15.2838 326.332 12 320.741C19.995 322.061 27.2327 326.449 33.1899 331.945C38.0228 336.388 42.1062 341.548 46.0334 346.826C47.9546 349.393 49.6252 352.139 51.0225 355.024C54.7389 362.668 61.227 378.603 61.2114 387.731Z" fill="#455A64"/>
<path d="M108.799 294.484C108.776 294.572 108.742 294.656 108.697 294.734L108.362 295.46C108.041 296.116 107.581 297.022 107.019 298.216C106.457 299.411 105.715 300.879 104.903 302.589C104.091 304.299 103.146 306.235 102.155 308.398C100.125 312.715 97.7979 317.884 95.2916 323.661C92.7854 329.439 90.1698 335.857 87.5387 342.634C84.9075 349.411 82.573 355.907 80.5118 361.88C78.4506 367.853 76.7173 373.24 75.3119 377.792C74.5936 380.064 73.9924 382.133 73.4381 383.944C72.8838 385.755 72.4309 387.317 72.064 388.629C71.697 389.94 71.4081 390.877 71.1973 391.572L70.9631 392.353C70.9409 392.442 70.9095 392.528 70.8694 392.611C70.8798 392.518 70.8981 392.427 70.924 392.337C70.9709 392.142 71.0412 391.892 71.1192 391.557L71.9 388.59C72.2435 387.309 72.6808 385.732 73.2039 383.905C73.727 382.078 74.3204 380.001 75.023 377.737C76.3894 373.17 78.1461 367.767 80.137 361.794C82.128 355.821 84.5249 349.302 87.1639 342.517C89.8029 335.732 92.4497 329.33 94.9715 323.544C97.4934 317.759 99.8591 312.614 101.912 308.312C102.927 306.149 103.888 304.22 104.723 302.518C105.559 300.816 106.285 299.395 106.902 298.177L108.307 295.453L108.682 294.75C108.712 294.658 108.751 294.569 108.799 294.484Z" fill="#06184D"/>
<path d="M63.0774 398.42C63.0261 398.27 62.9921 398.116 62.9759 397.959L62.7651 396.64C62.6792 396.062 62.5777 395.359 62.4215 394.547C62.2654 393.735 62.1404 392.806 61.914 391.791C61.5236 389.753 60.9615 387.348 60.2432 384.694C59.5249 382.039 58.5958 379.182 57.4793 376.215C56.3628 373.248 55.137 370.492 53.9502 368.017C52.7635 365.542 51.608 363.379 50.5149 361.591C50.0074 360.678 49.4999 359.889 49.0705 359.186C48.6411 358.484 48.2897 357.875 47.9462 357.391L47.2279 356.259C47.1404 356.13 47.0646 355.994 47.0015 355.853C47.1162 355.958 47.216 356.079 47.2982 356.212L48.0789 357.305C48.4146 357.773 48.8206 358.367 49.2657 359.061C49.7107 359.756 50.2338 360.537 50.7569 361.443C51.85 363.215 53.0446 365.393 54.286 367.853C55.5274 370.312 56.7298 373.1 57.8619 376.066C58.994 379.033 59.884 381.938 60.6023 384.6C61.3206 387.263 61.8438 389.691 62.1639 391.736C62.3669 392.759 62.484 393.696 62.6089 394.516C62.7338 395.336 62.8275 396.038 62.8822 396.616C62.9368 397.194 62.9837 397.6 63.0149 397.951C63.0565 398.104 63.0775 398.261 63.0774 398.42Z" fill="#06184D"/>
<path d="M92.0359 392.564H44.0034V402.363H92.0359V392.564Z" fill="#15B79E"/>
<path d="M48.5787 402.362L53.7786 435.318H82.7995L87.6403 402.362H48.5787Z" fill="#15B79E"/>
<path d="M89.0924 402.362C89.0924 402.471 80.0044 402.565 68.7926 402.565C57.5809 402.565 48.4928 402.471 48.4928 402.362C48.4928 402.253 57.5809 402.151 68.7926 402.151C80.0044 402.151 89.0924 402.245 89.0924 402.362Z" fill="#06184D"/>
<g opacity="0.3">
<path d="M103.068 253.073C93.5739 257.992 86.2894 266.463 81.0583 275.786C75.8272 285.108 72.4699 295.344 69.1049 305.501L66.177 357.891C77.2248 339.098 86.0942 317.002 88.4912 295.328L81.1364 294.672C86.0708 293.891 90.2089 290.347 92.8478 286.084C95.4868 281.821 96.8375 276.957 98.157 272.155L89.1861 273.482C96.2627 268.715 101.233 261.407 103.068 253.073Z" fill="black"/>
</g>
<path d="M326.702 295.359C326.702 295.359 334.666 308.577 335.852 321.163C337.039 333.749 328.63 435.451 328.63 435.451H229.552C229.552 435.451 256.097 309.866 264.779 301.808L265.373 293.454L326.702 295.359Z" fill="#06184D"/>
<path d="M330.933 305.438C330.955 306.03 330.942 306.621 330.894 307.211C330.78 308.906 330.463 310.581 329.95 312.2C329.147 314.776 327.894 317.19 326.249 319.328C325.224 320.667 324.044 321.88 322.735 322.943C321.258 324.105 319.692 325.149 318.051 326.066C316.341 327.066 314.514 328.034 312.687 329.189C310.773 330.32 309.03 331.719 307.511 333.343C305.959 335.145 304.761 337.225 303.981 339.472C303.202 341.88 302.661 344.359 302.365 346.874C302.014 349.45 301.788 352.112 301.436 354.829C301.12 357.613 300.492 360.353 299.562 362.996C298.555 365.745 296.909 368.215 294.761 370.203C292.512 372.183 289.967 373.798 287.219 374.989C281.753 377.495 276.007 379.096 271.158 382.016C268.781 383.424 266.699 385.28 265.029 387.481C263.503 389.654 262.33 392.054 261.555 394.594C259.993 399.544 259.291 404.486 257.995 408.96C257.823 409.514 257.651 410.068 257.487 410.615C257.323 411.161 257.105 411.685 256.917 412.215C256.516 413.245 256.063 414.254 255.559 415.237C255.098 416.213 254.512 417.103 253.997 417.993C253.708 418.423 253.412 418.844 253.123 419.258L252.693 419.875L252.225 420.46C250.024 423.269 247.388 425.707 244.417 427.682C242.179 429.178 239.767 430.394 237.234 431.305C235.633 431.867 233.991 432.303 232.323 432.609L231.019 432.804L230.566 432.859L231.011 432.765L232.308 432.531C233.963 432.194 235.592 431.734 237.179 431.157C243.038 428.978 248.174 425.213 252.014 420.281L252.475 419.703L252.904 419.086L253.763 417.829C254.278 416.947 254.856 416.065 255.324 415.089C255.822 414.116 256.268 413.118 256.659 412.098C256.847 411.575 257.026 411.044 257.214 410.537C257.401 410.029 257.55 409.444 257.714 408.889C258.994 404.447 259.65 399.52 261.243 394.5C262.028 391.922 263.217 389.485 264.764 387.278C266.46 385.022 268.582 383.12 271.01 381.68C275.921 378.705 281.652 377.105 287.101 374.606C289.812 373.445 292.323 371.864 294.542 369.922C296.636 367.981 298.241 365.574 299.227 362.895C300.135 360.257 300.743 357.525 301.038 354.751C301.389 352.05 301.624 349.388 301.983 346.803C302.287 344.266 302.836 341.763 303.622 339.331C304.427 337.042 305.653 334.924 307.237 333.085C308.787 331.445 310.561 330.034 312.507 328.893C314.35 327.768 316.185 326.8 317.887 325.824C319.526 324.904 321.092 323.86 322.571 322.701C323.867 321.658 325.038 320.468 326.061 319.156C327.701 317.048 328.961 314.67 329.786 312.13C330.318 310.525 330.661 308.864 330.808 307.18C330.871 306.602 330.871 306.165 330.894 305.86C330.918 305.556 330.933 305.438 330.933 305.438Z" fill="#455A64"/>
<path d="M333.713 314.683C333.77 314.812 333.819 314.945 333.861 315.081C334.002 315.468 334.115 315.864 334.197 316.268C334.5 317.836 334.47 319.45 334.111 321.007C333.551 323.472 332.443 325.78 330.871 327.76C328.744 330.32 326.332 332.628 323.68 334.639C320.846 336.981 317.621 339.487 315.146 343.032C313.865 344.852 312.967 346.913 312.507 349.091C312.076 351.411 311.815 353.759 311.727 356.118C311.634 358.624 311.286 361.115 310.688 363.551C310.033 366.089 309.077 368.54 307.839 370.851C305.232 375.73 301.455 379.886 296.845 382.945C292.075 386.068 286.695 387.567 281.972 389.917C279.631 391.018 277.476 392.477 275.585 394.242C273.83 395.991 272.411 398.047 271.4 400.309C269.394 404.728 268.566 409.327 267.45 413.511C266.932 415.546 266.296 417.548 265.545 419.508C264.829 421.311 263.915 423.029 262.82 424.63C261.805 426.068 260.62 427.379 259.291 428.533C258.682 429.103 258.018 429.572 257.401 430.056C256.784 430.54 256.129 430.938 255.473 431.282C253.291 432.561 250.919 433.484 248.446 434.014C246.892 434.338 245.309 434.503 243.722 434.506L242.489 434.444H243.722C245.298 434.402 246.867 434.211 248.407 433.874C250.843 433.317 253.177 432.381 255.324 431.102C255.965 430.759 256.566 430.321 257.214 429.876C257.862 429.431 258.479 428.924 259.08 428.354C260.387 427.195 261.551 425.885 262.547 424.45C263.62 422.861 264.515 421.159 265.217 419.375C265.952 417.424 266.575 415.432 267.083 413.41C268.191 409.241 268.996 404.619 270.987 400.137C272.011 397.83 273.45 395.731 275.234 393.946C277.154 392.15 279.343 390.667 281.722 389.55C286.485 387.169 291.872 385.646 296.557 382.593C303.319 378.108 308.194 371.291 310.251 363.441C310.843 361.028 311.191 358.561 311.29 356.079C311.368 353.696 311.629 351.324 312.07 348.981C312.542 346.761 313.461 344.659 314.772 342.806C317.301 339.222 320.565 336.708 323.407 334.389C326.091 332.416 328.54 330.142 330.707 327.612C332.276 325.667 333.393 323.397 333.978 320.968C334.34 319.432 334.393 317.84 334.135 316.283C333.908 315.221 333.682 314.69 333.713 314.683Z" fill="#455A64"/>
<path d="M233.151 243.962C233.151 243.962 239.576 288.278 249.461 292.58C254.442 294.759 258.447 292.885 261.172 287.896C263.897 282.907 270.854 246.656 270.854 246.656L251.624 246.203L250.905 253.409L243.488 239.613L233.151 243.962Z" fill="#936760"/>
<path d="M261.5 272.897C261.462 272.772 261.407 272.654 261.336 272.545L260.813 271.577L258.877 268.025C257.222 265.026 254.973 260.873 252.467 256.274C249.961 251.675 247.782 247.53 246.166 244.461L244.261 240.877L243.738 239.909C243.613 239.691 243.543 239.574 243.527 239.581C243.562 239.705 243.609 239.826 243.668 239.941L244.136 240.94C244.55 241.807 245.159 243.048 245.932 244.586C247.493 247.647 249.656 251.847 252.178 256.446C254.7 261.045 256.972 265.183 258.682 268.157C259.541 269.641 260.243 270.828 260.751 271.647L261.336 272.584C261.381 272.693 261.436 272.798 261.5 272.897Z" fill="#6F4C47"/>
<path d="M328.513 254.322L323.024 278.877L325.624 295.359H265.303L269.245 218.431L284.283 217.15L321.026 223.357L328.513 254.322Z" fill="#15B79E"/>
<path d="M313.171 222.913C313.171 222.913 328.88 221.469 336.368 232.157C340.951 238.7 347.376 253.73 347.376 253.73L326.46 257.345L313.171 222.913Z" fill="#15B79E"/>
<g opacity="0.3">
<path d="M322.696 254.611C321.634 252.439 319.977 250.614 317.917 249.348C315.858 248.081 313.481 247.426 311.063 247.459C310.017 247.459 308.838 247.74 308.284 248.623C307.729 249.505 308.034 250.77 308.44 251.792C308.963 253.128 309.658 254.541 310.938 255.181C311.875 255.649 312.976 255.626 313.983 255.962C315.185 256.423 316.284 257.119 317.215 258.007C318.051 258.63 318.773 259.394 319.347 260.264C319.733 261.001 320.011 261.79 320.175 262.606C321.197 266.619 322.009 274.903 323.024 278.916L324.149 275.457C324.18 272.157 324.208 268.857 324.235 265.557C324.266 261.81 324.266 257.968 322.696 254.611Z" fill="black"/>
</g>
<path d="M303.943 275.084C303.943 275.021 304.723 275.162 306.082 275.263C307.797 275.399 309.521 275.357 311.227 275.138C312.934 274.91 314.613 274.509 316.24 273.944C317.489 273.507 318.238 273.163 318.262 273.218C318.113 273.342 317.947 273.444 317.77 273.522C317.304 273.77 316.824 273.991 316.333 274.186C313.073 275.481 309.542 275.943 306.058 275.529C305.533 275.468 305.012 275.377 304.497 275.255C304.304 275.231 304.116 275.173 303.943 275.084Z" fill="#06184D"/>
<path d="M277.615 276.161C277.615 276.067 286.204 278.503 296.674 281.626C307.144 284.749 315.67 287.31 315.638 287.412C315.607 287.513 307.05 285.069 296.572 281.946C286.094 278.823 277.615 276.262 277.615 276.161Z" fill="#06184D"/>
<g opacity="0.3">
<path d="M304.372 275.185C305.141 276.325 306.207 277.234 307.455 277.813C308.703 278.393 310.086 278.62 311.453 278.472C312.759 278.325 313.995 277.806 315.013 276.975C316.031 276.144 316.787 275.037 317.192 273.787C313.113 275.361 308.694 275.843 304.372 275.185Z" fill="black"/>
</g>
<g opacity="0.3">
<path d="M313.351 286.63L313.132 286.716C307.745 287.676 302.693 286.716 297.517 284.873C292.34 283.031 287.546 280.392 282.776 277.714L313.351 286.63Z" fill="black"/>
</g>
<path d="M269.245 218.431C269.245 218.431 259.299 219.649 255.442 228.144C252.791 234.202 250.548 240.431 248.727 246.788L269.027 251.356C269.027 251.356 272.22 234.179 272.462 228.144C272.735 221.515 273.001 218.236 269.245 218.431Z" fill="#15B79E"/>
<path d="M267.333 254.073C267.153 252.181 267.095 250.28 267.161 248.381C267.104 246.484 267.17 244.586 267.356 242.697C267.536 244.586 267.594 246.485 267.528 248.381C267.584 250.281 267.519 252.182 267.333 254.073Z" fill="#06184D"/>
<path d="M278.349 164.004C283.713 157.445 290.927 153.666 299.43 153.526C304.208 153.448 306.191 154.439 309.634 155.368C313.076 156.201 316.115 158.215 318.223 161.06C320.666 164.527 322.72 168.407 323.18 172.615C323.649 176.949 324.125 181.305 323.797 185.646C323.469 189.987 322.298 194.352 319.737 197.881L308.69 199.802C302.584 200.005 296.4 200.208 290.459 198.818C284.517 197.428 278.747 194.227 275.562 189.019C271.143 181.782 272.977 170.57 278.349 164.004Z" fill="#06184D"/>
<path d="M316.388 204.097C316.388 204.097 316.567 204.37 317.051 204.674C317.74 205.102 318.517 205.369 319.323 205.455C320.54 205.59 321.768 205.341 322.837 204.745C324.134 203.959 325.079 202.703 325.475 201.239C325.87 199.775 325.686 198.214 324.961 196.882C324.34 195.83 323.406 194.998 322.29 194.501C321.555 194.169 320.755 194.003 319.948 194.017C319.652 193.996 319.356 194.053 319.089 194.181C320.134 194.223 321.162 194.461 322.119 194.884C323.102 195.395 323.916 196.182 324.461 197.148C325.062 198.348 325.2 199.729 324.849 201.025C324.497 202.321 323.681 203.442 322.556 204.175C321.612 204.732 320.527 205.003 319.433 204.955C318.372 204.869 317.337 204.578 316.388 204.097Z" fill="#E0E0E0"/>
<path d="M267.637 196.07C267.742 194.812 268.134 193.595 268.783 192.513C269.431 191.43 270.318 190.51 271.377 189.823C272.453 189.172 273.708 188.879 274.961 188.987C276.214 189.095 277.401 189.598 278.349 190.425L280.09 192.494C281.435 193.118 282.553 194.146 283.287 195.435C284.022 196.723 284.337 198.209 284.189 199.684C283.987 201.155 283.37 202.538 282.411 203.67C281.451 204.803 280.188 205.638 278.771 206.079C277.343 206.48 275.837 206.508 274.396 206.159C272.955 205.81 271.628 205.097 270.542 204.088C269.479 203.06 268.665 201.804 268.162 200.415C267.659 199.025 267.479 197.539 267.637 196.07Z" fill="#06184D"/>
<path d="M269.808 203.518C269.383 202.865 269.175 202.094 269.214 201.316C269.308 199.903 270.331 198.053 271.736 196.358C272.971 194.903 274.474 193.697 276.163 192.806C277.459 192.111 278.349 191.861 278.318 191.768C277.498 191.836 276.7 192.072 275.976 192.462C274.168 193.278 272.567 194.489 271.291 196.007C270.583 196.834 269.982 197.747 269.503 198.724C269.071 199.52 268.828 200.404 268.793 201.308C268.776 201.928 268.948 202.537 269.284 203.057C269.597 203.417 269.808 203.541 269.808 203.518Z" fill="#455A64"/>
<path d="M275.171 206.781C275.351 206.781 274.601 203.432 275.663 199.481C276.725 195.531 278.958 192.985 278.786 192.884C278.202 193.335 277.707 193.891 277.326 194.523C276.313 195.99 275.565 197.623 275.117 199.348C274.667 201.072 274.519 202.86 274.68 204.634C274.712 205.374 274.878 206.101 275.171 206.781Z" fill="#455A64"/>
<path d="M308.689 217.721C308.619 213.817 308.526 210.694 308.526 210.694C308.526 210.694 317.536 209.702 320.018 198.162C321.26 192.424 321.486 182.906 321.424 175.122C321.369 168.095 315.396 158.57 306.745 158.539L302.896 158.086L288.171 163.942C287.143 163.99 286.171 164.423 285.448 165.155C284.725 165.887 284.303 166.864 284.267 167.892L283.861 217.19L298.095 251.746L308.307 237.903L308.689 217.721Z" fill="#936760"/>
<path d="M302.709 195.453C302.795 194.862 303.095 194.323 303.552 193.939C303.971 193.579 304.497 193.366 305.048 193.333C305.6 193.301 306.147 193.451 306.605 193.759C307.08 194.125 307.449 194.611 307.672 195.167C307.896 195.723 307.967 196.329 307.878 196.921C307.625 197.277 307.299 197.573 306.922 197.792C306.545 198.01 306.125 198.144 305.691 198.186C305.554 198.194 305.415 198.194 305.278 198.186C304.59 198.183 303.93 197.921 303.427 197.452C303.164 197.195 302.963 196.881 302.839 196.535C302.714 196.189 302.67 195.819 302.709 195.453Z" fill="#6F4C47"/>
<path d="M315.701 183.086C315.684 183.476 315.516 183.844 315.231 184.111C314.947 184.378 314.569 184.523 314.178 184.514C313.987 184.52 313.797 184.486 313.619 184.417C313.442 184.348 313.279 184.243 313.143 184.11C313.006 183.977 312.897 183.817 312.823 183.642C312.749 183.466 312.71 183.277 312.71 183.086C312.729 182.696 312.898 182.329 313.182 182.063C313.466 181.796 313.843 181.65 314.233 181.657C314.424 181.652 314.614 181.685 314.792 181.754C314.97 181.824 315.132 181.928 315.269 182.061C315.405 182.194 315.514 182.354 315.588 182.53C315.663 182.706 315.701 182.895 315.701 183.086Z" fill="#06184D"/>
<path d="M318.558 179.44C318.363 179.619 317.278 178.721 315.67 178.659C314.061 178.596 312.843 179.315 312.679 179.112C312.515 178.909 312.804 178.675 313.335 178.331C314.059 177.89 314.901 177.68 315.748 177.73C316.584 177.775 317.385 178.084 318.035 178.612C318.504 178.995 318.652 179.354 318.558 179.44Z" fill="#06184D"/>
<path d="M308.463 191.611C309.322 191.389 310.207 191.279 311.094 191.283C311.508 191.283 311.875 191.205 311.984 190.924C312.046 190.505 311.975 190.076 311.781 189.698C311.446 188.683 311.102 187.614 310.735 186.505C309.299 181.961 308.276 178.237 308.463 178.182C308.651 178.128 309.962 181.758 311.399 186.302C311.742 187.419 312.078 188.488 312.39 189.511C312.623 190.018 312.667 190.591 312.515 191.127C312.45 191.27 312.351 191.396 312.227 191.493C312.104 191.591 311.959 191.658 311.805 191.689C311.575 191.743 311.338 191.764 311.102 191.752C310.22 191.819 309.333 191.772 308.463 191.611Z" fill="#06184D"/>
<path d="M308.526 210.685C303.039 210.469 297.719 208.733 293.16 205.673C293.16 205.673 296.869 213.972 308.588 213.52L308.526 210.685Z" fill="#6F4C47"/>
<path d="M303.669 192.463C303.935 192.463 303.841 194.204 305.231 195.524C306.621 196.843 308.526 196.758 308.526 197C308.526 197.109 308.096 197.32 307.308 197.296C306.285 197.253 305.309 196.853 304.551 196.164C303.829 195.5 303.39 194.583 303.326 193.603C303.333 192.869 303.552 192.448 303.669 192.463Z" fill="#06184D"/>
<path d="M318.215 173.38C317.926 173.755 316.708 173.427 315.264 173.466C313.819 173.505 312.609 173.818 312.312 173.466C312.18 173.287 312.359 172.912 312.874 172.545C313.583 172.085 314.411 171.843 315.256 171.85C316.096 171.821 316.925 172.044 317.637 172.49C318.215 172.826 318.363 173.193 318.215 173.38Z" fill="#06184D"/>
<path d="M297.002 182.664C296.982 183.058 297.12 183.444 297.385 183.737C297.65 184.029 298.02 184.205 298.415 184.225C298.604 184.243 298.795 184.222 298.976 184.165C299.158 184.107 299.326 184.015 299.471 183.892C299.616 183.769 299.736 183.619 299.823 183.45C299.909 183.28 299.962 183.096 299.976 182.906C299.995 182.512 299.857 182.126 299.592 181.833C299.327 181.54 298.957 181.365 298.563 181.344C298.373 181.326 298.182 181.346 298 181.403C297.819 181.46 297.65 181.552 297.504 181.675C297.359 181.798 297.24 181.949 297.153 182.119C297.067 182.289 297.015 182.474 297.002 182.664Z" fill="#06184D"/>
<path d="M296.541 178.862C296.72 179.057 297.868 178.237 299.477 178.268C301.085 178.299 302.248 179.127 302.428 178.932C302.607 178.737 302.334 178.495 301.827 178.151C301.144 177.657 300.327 177.385 299.484 177.37C298.648 177.35 297.826 177.599 297.142 178.081C296.619 178.424 296.447 178.768 296.541 178.862Z" fill="#06184D"/>
<path d="M295.612 175.404C295.924 175.778 297.173 175.404 298.665 175.404C300.156 175.404 301.421 175.7 301.717 175.318C301.842 175.138 301.655 174.771 301.108 174.412C300.359 173.973 299.502 173.752 298.633 173.772C297.77 173.765 296.923 174.003 296.19 174.459C295.659 174.849 295.479 175.224 295.612 175.404Z" fill="#06184D"/>
<path d="M286.282 187.458C286.329 186.584 285.438 184.491 284.587 184.335C282.323 183.859 278.185 183.812 277.834 189.621C277.342 197.553 285.407 196.406 285.438 196.179C285.47 195.953 286.126 190.448 286.282 187.458Z" fill="#936760"/>
<path d="M283.432 193.119C283.393 193.119 283.284 193.205 283.041 193.299C282.706 193.418 282.337 193.404 282.011 193.26C281.191 192.901 280.566 191.519 280.613 190.09C280.635 189.407 280.808 188.738 281.121 188.13C281.209 187.886 281.356 187.667 281.549 187.494C281.743 187.321 281.977 187.199 282.229 187.139C282.389 187.107 282.555 187.133 282.698 187.212C282.84 187.29 282.951 187.416 283.01 187.568C283.104 187.794 283.049 187.951 283.088 187.966C283.127 187.982 283.268 187.841 283.221 187.513C283.191 187.314 283.091 187.131 282.94 186.998C282.835 186.904 282.711 186.833 282.576 186.79C282.442 186.747 282.3 186.733 282.159 186.748C281.829 186.791 281.515 186.919 281.248 187.118C280.982 187.318 280.771 187.583 280.637 187.888C280.259 188.554 280.047 189.301 280.02 190.066C279.973 191.675 280.699 193.19 281.831 193.619C282.04 193.694 282.262 193.721 282.483 193.698C282.703 193.675 282.915 193.602 283.104 193.486C283.401 193.322 283.455 193.135 283.432 193.119Z" fill="#6F4C47"/>
<path d="M284.259 184.327L286.282 186.42C294.987 178.089 312.008 157.219 311.055 158.461C307.087 156.979 302.811 156.515 298.618 157.11C292.137 158.211 279.879 161.451 280.051 169.095C280.223 176.738 284.259 184.327 284.259 184.327Z" fill="#06184D"/>
<path d="M284.447 204.097C284.447 204.097 284.267 204.37 283.791 204.674C283.1 205.103 282.32 205.37 281.511 205.455C280.297 205.59 279.071 205.341 278.006 204.745C276.708 203.959 275.763 202.704 275.366 201.24C274.969 199.776 275.151 198.216 275.874 196.882C276.498 195.83 277.434 194.998 278.552 194.501C279.287 194.167 280.087 194.002 280.894 194.017C281.192 193.999 281.49 194.055 281.761 194.181C280.719 194.235 279.697 194.483 278.747 194.915C277.764 195.427 276.951 196.214 276.405 197.179C275.804 198.38 275.666 199.76 276.017 201.056C276.369 202.352 277.185 203.473 278.31 204.206C279.268 204.77 280.37 205.041 281.48 204.987C282.517 204.883 283.524 204.581 284.447 204.097Z" fill="#E0E0E0"/>
<path d="M272.728 182.579C272.755 182.421 272.797 182.267 272.853 182.118C272.996 181.687 273.177 181.269 273.391 180.869C274.212 179.398 275.345 178.124 276.709 177.137C278.735 175.691 280.993 174.603 283.385 173.92C286.04 173.061 289.038 172.358 291.973 171.125C294.737 169.968 297.357 168.496 299.781 166.737C301.769 165.294 303.621 163.674 305.317 161.896C306.454 160.693 307.523 159.426 308.518 158.102L309.298 157.001C309.395 156.865 309.505 156.74 309.626 156.626C309.571 156.774 309.495 156.913 309.4 157.04C309.228 157.305 308.994 157.696 308.619 158.18C307.672 159.554 306.629 160.858 305.496 162.084C303.818 163.903 301.97 165.558 299.976 167.026C297.528 168.825 294.872 170.324 292.067 171.492C289.255 172.569 286.389 173.497 283.479 174.271C281.116 174.925 278.879 175.968 276.858 177.355C275.507 178.307 274.367 179.527 273.508 180.939C272.931 181.962 272.774 182.594 272.728 182.579Z" fill="#455A64"/>
<path d="M275.039 183.828C275.019 183.234 275.125 182.644 275.351 182.095C275.947 180.577 276.986 179.274 278.334 178.355C279.989 177.121 282.354 176.356 284.954 175.763C287.786 175.198 290.546 174.32 293.184 173.147C295.807 171.946 298.272 170.425 300.523 168.619C302.356 167.139 304.04 165.484 305.551 163.676C306.565 162.451 307.501 161.163 308.354 159.819L309.025 158.711C309.098 158.577 309.184 158.452 309.283 158.336C309.242 158.483 309.179 158.622 309.096 158.75C308.939 159.054 308.736 159.437 308.487 159.905C307.68 161.288 306.772 162.608 305.769 163.856C302.438 167.998 298.188 171.307 293.355 173.522C290.693 174.711 287.903 175.592 285.04 176.145C282.44 176.723 280.129 177.441 278.497 178.612C277.176 179.486 276.135 180.722 275.499 182.173C275.295 182.709 275.141 183.263 275.039 183.828Z" fill="#455A64"/>
<path d="M233.955 248.287C233.51 248.123 232.924 241.807 232.924 241.807C232.924 241.807 226.608 236.756 225.749 234.702C224.89 232.649 225.015 227.753 225.015 227.753L235.36 220.727C235.36 220.727 241.474 226.192 243.074 228.347C243.972 229.549 244.636 232.867 245.104 235.553C245.479 237.837 245.565 240.158 245.362 242.463L245.214 244.243C245.214 244.243 241.052 250.926 233.955 248.287Z" fill="#936760"/>
<path d="M226.225 235.944C225.482 235.283 224.775 234.582 224.11 233.844C222.767 232.391 221.275 231.033 222.548 229.495C222.739 229.24 222.982 229.03 223.261 228.876C223.539 228.723 223.847 228.63 224.164 228.605C224.164 228.605 223.383 227.254 224.063 226.403C224.254 226.152 224.503 225.95 224.788 225.814C225.073 225.678 225.387 225.612 225.702 225.622C225.702 225.622 224.695 223.686 225.624 222.382C225.978 221.906 226.458 221.538 227.01 221.32C227.562 221.102 228.164 221.043 228.747 221.148C228.747 221.148 224.555 212.607 224.305 212.17C223.368 210.553 223.454 208.789 225.328 208.594C226.015 208.523 226.608 209.062 228.388 211.717C230.168 214.371 233.151 218.861 233.151 218.861C233.151 218.861 236.407 221.617 238.038 223.163C239.67 224.709 243.082 228.331 243.652 229.409C245.112 232.212 244.8 236.725 244.8 236.725L232.932 241.807C232.932 241.807 226.991 236.623 226.225 235.944Z" fill="#936760"/>
<path d="M224.523 228.901C225.015 229.191 225.485 229.518 225.929 229.877L227.42 230.986C227.722 231.203 228.004 231.446 228.263 231.712C228.567 232.007 228.764 232.394 228.825 232.813C228.864 233.029 228.844 233.252 228.767 233.458C228.69 233.665 228.559 233.846 228.388 233.984C228.056 234.214 227.647 234.307 227.248 234.242C226.914 234.207 226.585 234.139 226.265 234.039C225.96 233.953 225.687 233.867 225.429 233.781C224.929 233.617 224.523 233.469 224.25 233.352C223.977 233.235 223.836 233.164 223.844 233.141C223.852 233.117 224.477 233.32 225.484 233.602C226.068 233.781 226.666 233.915 227.272 234C227.605 234.04 227.942 233.962 228.224 233.781C228.357 233.667 228.457 233.521 228.516 233.357C228.575 233.193 228.59 233.016 228.56 232.844C228.501 232.483 228.329 232.149 228.068 231.892C227.828 231.633 227.567 231.396 227.287 231.181L225.827 230.018C225.361 229.684 224.925 229.311 224.523 228.901Z" fill="#6F4C47"/>
<path d="M234.853 226.372C234.516 225.774 234.326 225.105 234.299 224.42C234.18 223.746 234.22 223.053 234.416 222.397C234.502 222.397 234.416 223.303 234.564 224.396C234.712 225.489 234.931 226.348 234.853 226.372Z" fill="#6F4C47"/>
<path d="M240.599 227.238C239.089 226.562 237.417 226.337 235.782 226.59C234.154 226.841 232.574 227.342 231.097 228.073C229.911 228.635 228.615 229.463 228.451 230.767C228.287 232.071 229.512 233.32 230.84 233.578C232.19 233.728 233.554 233.455 234.744 232.797C235.923 232.123 237.182 231.599 238.491 231.235" fill="#936760"/>
<path d="M238.507 231.275C238.507 231.275 238.155 231.361 237.539 231.595C236.684 231.945 235.847 232.338 235.032 232.774C234.459 233.069 233.86 233.315 233.244 233.508C232.528 233.743 231.769 233.82 231.019 233.734C230.17 233.624 229.397 233.187 228.864 232.516C228.574 232.165 228.386 231.741 228.318 231.29C228.268 230.819 228.361 230.343 228.583 229.924C229.067 229.16 229.765 228.554 230.59 228.183C231.32 227.817 232.071 227.493 232.838 227.215C234.141 226.727 235.516 226.463 236.906 226.434C237.842 226.411 238.775 226.551 239.662 226.848C239.905 226.928 240.143 227.025 240.373 227.137C240.453 227.173 240.529 227.217 240.599 227.269C240.599 227.269 240.264 227.129 239.631 226.949C238.745 226.702 237.826 226.594 236.906 226.629C235.541 226.692 234.196 226.98 232.924 227.48C232.169 227.758 231.431 228.081 230.715 228.448C229.939 228.799 229.282 229.369 228.825 230.088C228.622 230.451 228.54 230.87 228.591 231.283C228.648 231.686 228.812 232.066 229.067 232.383C229.56 233.001 230.269 233.408 231.051 233.523C231.767 233.607 232.493 233.54 233.182 233.328C233.791 233.145 234.383 232.913 234.954 232.633C235.782 232.212 236.635 231.842 237.507 231.525C237.748 231.446 237.993 231.383 238.241 231.337C238.326 231.304 238.416 231.283 238.507 231.275Z" fill="#6F4C47"/>
<path d="M224.672 229.01C226.647 230.485 228.576 232.211 230.356 233.874C230.843 234.408 231.462 234.804 232.151 235.021C232.706 235.139 233.666 234.241 234.111 233.85L227.732 227.151" fill="#936760"/>
<path d="M227.732 227.151C227.927 227.29 228.105 227.449 228.263 227.628L229.637 229.017C230.801 230.204 232.409 231.867 234.213 233.757L234.306 233.858L234.197 233.952C233.857 234.257 233.499 234.544 233.127 234.811C232.967 234.917 232.797 235.008 232.62 235.084C232.525 235.123 232.425 235.147 232.323 235.154C232.22 235.175 232.114 235.175 232.011 235.154C231.657 235.05 231.326 234.88 231.035 234.654C230.465 234.217 230.012 233.741 229.536 233.319C228.599 232.461 227.756 231.695 227.037 231.063C226.319 230.431 225.718 229.931 225.304 229.587C225.082 229.419 224.871 229.236 224.672 229.041C224.92 229.172 225.152 229.329 225.367 229.509C225.804 229.822 226.421 230.29 227.155 230.915C227.888 231.539 228.763 232.281 229.7 233.14C230.176 233.554 230.652 234.038 231.191 234.444C231.457 234.649 231.759 234.803 232.081 234.897C232.241 234.915 232.403 234.9 232.556 234.851C232.71 234.803 232.851 234.722 232.971 234.615C233.337 234.356 233.689 234.077 234.025 233.78V233.921C232.222 232.023 230.645 230.337 229.512 229.119L228.193 227.674C228.029 227.509 227.875 227.335 227.732 227.151Z" fill="#6F4C47"/>
<path d="M225.937 225.122L232.37 232.368C232.796 232.909 233.311 233.373 233.892 233.742C234.184 233.924 234.517 234.031 234.86 234.052C235.204 234.074 235.547 234.01 235.86 233.867C236.249 233.598 236.537 233.207 236.678 232.755C236.82 232.304 236.806 231.819 236.641 231.376C236.294 230.493 235.761 229.694 235.079 229.034C233.138 226.832 231.371 224.483 229.793 222.007" fill="#936760"/>
<path d="M229.809 221.983C229.809 221.983 229.879 222.054 229.989 222.21L230.457 222.889C230.871 223.475 231.464 224.318 232.229 225.341C232.995 226.363 233.955 227.542 235.064 228.815C235.691 229.452 236.218 230.182 236.625 230.978C236.829 231.427 236.907 231.924 236.852 232.414C236.811 232.933 236.577 233.418 236.196 233.773C235.996 233.942 235.762 234.065 235.51 234.134C235.258 234.203 234.993 234.216 234.736 234.171C234.248 234.099 233.787 233.899 233.401 233.593C232.732 233.002 232.113 232.357 231.55 231.665L228.591 228.284C227.771 227.339 227.108 226.559 226.616 225.989L226.085 225.333C226.019 225.262 225.961 225.183 225.913 225.099C225.913 225.099 225.991 225.161 226.124 225.294L226.694 225.895L228.732 228.136L231.738 231.477C232.296 232.152 232.907 232.781 233.565 233.359C233.915 233.636 234.333 233.817 234.775 233.882C234.995 233.919 235.22 233.908 235.436 233.85C235.651 233.792 235.852 233.688 236.024 233.546C236.353 233.235 236.554 232.812 236.586 232.36C236.637 231.917 236.567 231.469 236.383 231.064C235.972 230.286 235.446 229.575 234.822 228.956C233.713 227.675 232.776 226.465 232.026 225.427C231.277 224.388 230.699 223.529 230.317 222.92C230.129 222.616 229.981 222.382 229.887 222.218C229.853 222.143 229.827 222.064 229.809 221.983Z" fill="#6F4C47"/>
<path d="M239.623 238.606C239.383 238.733 239.113 238.789 238.843 238.77C238.209 238.805 237.576 238.693 236.992 238.442C236.397 238.203 235.863 237.832 235.431 237.357C235.242 237.172 235.1 236.944 235.017 236.693C235.577 237.347 236.283 237.86 237.078 238.192C237.872 238.525 238.733 238.666 239.592 238.606H239.623Z" fill="#6F4C47"/>
<path d="M321.439 218.181L319.191 246.554C319.153 247.04 318.925 247.491 318.557 247.81C318.188 248.128 317.709 248.289 317.223 248.256L301.413 247.195C301.166 247.18 300.924 247.116 300.702 247.006C300.481 246.896 300.283 246.742 300.122 246.554C299.961 246.366 299.84 246.147 299.765 245.911C299.69 245.675 299.664 245.427 299.687 245.18L302.272 216.831C302.314 216.349 302.542 215.904 302.908 215.588C303.274 215.273 303.749 215.114 304.231 215.144L319.714 216.151C319.962 216.168 320.204 216.234 320.426 216.346C320.647 216.458 320.844 216.613 321.005 216.802C321.166 216.991 321.288 217.211 321.362 217.448C321.437 217.685 321.463 217.934 321.439 218.181Z" fill="#455A64"/>
<path d="M344.074 254.299C344.074 254.299 348.797 286.216 348.61 290.503C348.422 294.789 343.574 304.307 337.047 305.236C330.52 306.165 324.367 300.2 324.18 292.369C323.992 284.538 323.024 259.772 323.024 259.772L327.896 257.086L344.074 254.299Z" fill="#936760"/>
<path d="M317.176 227.925C317.176 227.925 322.064 230.931 323.508 231.719C324.953 232.508 324.765 238.332 324.765 238.332L332.995 257.461L323.079 261.013C323.079 261.013 319.542 254.322 318.527 253.479C317.832 252.933 317.036 252.53 316.185 252.292C316.185 252.292 315.677 254.151 314.155 253.307C312.947 252.51 311.863 251.539 310.938 250.426C310.938 250.426 309.58 251.277 309.072 250.262C308.565 249.247 307.721 247.046 307.721 247.046C307.721 247.046 310.595 243.321 311.781 243.321C312.968 243.321 319.058 243.657 319.058 243.657C319.058 243.657 318.722 243.15 317.028 242.478C315.334 241.807 305.262 238.832 304.786 238.652C304.075 238.379 303.279 236.529 305.481 236.357C307.682 236.185 320.073 238.403 320.073 238.403C320.073 238.403 320.752 235.202 320.245 234.499C319.737 233.796 315.31 230.97 317.176 227.925Z" fill="#936760"/>
<path d="M310.899 250.317C310.813 249.856 310.826 249.382 310.938 248.927C311.044 248.397 311.318 247.916 311.719 247.553C312.246 247.171 312.887 246.978 313.538 247.006C314.65 246.935 315.767 246.974 316.872 247.124C317.334 247.153 317.787 247.259 318.215 247.436C318.215 247.553 316.122 247.202 313.53 247.373C312.956 247.345 312.388 247.498 311.906 247.811C311.557 248.124 311.309 248.534 311.196 248.99C311.12 249.437 311.021 249.88 310.899 250.317Z" fill="#6F4C47"/>
<path d="M312.867 250.887C313.515 251.152 314.148 251.452 314.764 251.785C315.43 252.003 316.082 252.264 316.716 252.565C315.987 252.614 315.259 252.457 314.616 252.113C313.925 251.885 313.316 251.458 312.867 250.887Z" fill="#6F4C47"/>
<path d="M319.487 238.332C320.146 238.431 320.757 238.734 321.236 239.197C321.715 239.66 322.037 240.261 322.158 240.916C322.056 240.916 321.72 240.136 320.979 239.464C320.237 238.793 319.448 238.434 319.487 238.332Z" fill="#6F4C47"/>
<path d="M235.001 409.139C234.892 409.139 239.155 391.182 244.526 369.102C249.898 347.022 254.333 329.174 254.442 329.174C254.551 329.174 250.289 347.131 244.917 369.219C239.545 391.307 235.111 409.163 235.001 409.139Z" fill="#455A64"/>
<path d="M351.842 435.201C351.842 435.31 277.358 435.404 185.493 435.404C93.6286 435.404 19.1205 435.31 19.1205 435.201C19.1205 435.092 93.5974 434.998 185.493 434.998C277.389 434.998 351.842 435.084 351.842 435.201Z" fill="#06184D"/>
<path d="M313.062 153.643L315.357 145.359C312.319 140.436 311.231 134.554 312.31 128.869C313.388 123.185 316.554 118.11 321.185 114.641C325.816 111.173 331.577 109.562 337.335 110.126C343.093 110.69 348.432 113.387 352.302 117.688C356.172 121.989 358.294 127.582 358.249 133.367C358.205 139.153 355.997 144.713 352.061 148.953C348.125 153.194 342.745 155.809 336.979 156.284C331.213 156.758 325.478 155.059 320.901 151.52L313.062 153.643Z" fill="white"/>
<path d="M313.062 153.643L313.585 153.487L315.092 153.065L320.885 151.441L320.83 151.59C320.815 151.572 320.807 151.55 320.807 151.527C320.807 151.504 320.815 151.482 320.83 151.465C320.848 151.453 320.868 151.448 320.889 151.448C320.91 151.448 320.93 151.453 320.947 151.465C324.025 153.827 327.652 155.369 331.488 155.946C333.943 156.323 336.444 156.292 338.889 155.852C343.443 155.062 347.653 152.917 350.971 149.699C354.288 146.48 356.559 142.337 357.487 137.809C358.164 134.351 358.046 130.784 357.144 127.378C356.218 123.821 354.443 120.541 351.971 117.821C349.498 115.101 346.403 113.022 342.949 111.763C339.403 110.461 335.589 110.054 331.848 110.578C328.106 111.103 324.552 112.543 321.5 114.77C318.448 116.997 315.993 119.943 314.352 123.346C312.711 126.75 311.935 130.505 312.094 134.28C312.257 138.171 313.407 141.957 315.435 145.281C315.443 145.306 315.443 145.334 315.435 145.359C314.655 148.021 314.085 150.044 313.679 151.472C313.483 152.167 313.327 152.69 313.218 153.034C313.109 153.377 313.054 153.588 313.054 153.588C313.054 153.588 313.093 153.416 313.179 153.065C313.265 152.714 313.413 152.175 313.601 151.504C313.975 150.075 314.537 147.99 315.256 145.258V145.336C312.799 141.386 311.592 136.787 311.791 132.14C311.99 127.493 313.587 123.014 316.372 119.289C319.944 114.52 325.205 111.297 331.077 110.28C336.949 109.264 342.987 110.532 347.954 113.824C349.502 114.874 350.922 116.1 352.186 117.478C353.459 118.874 354.568 120.411 355.488 122.061C358.063 126.891 358.891 132.463 357.831 137.832C356.889 142.43 354.579 146.634 351.204 149.895C347.829 153.155 343.547 155.319 338.921 156.102C336.44 156.54 333.905 156.561 331.418 156.165C327.543 155.545 323.89 153.952 320.799 151.535L320.932 151.41C320.94 151.418 320.947 151.428 320.952 151.438C320.956 151.449 320.959 151.461 320.959 151.472C320.959 151.484 320.956 151.496 320.952 151.506C320.947 151.517 320.94 151.527 320.932 151.535L315.037 153.096L313.53 153.502L313.062 153.643Z" fill="#06184D"/>
<path d="M324.703 133.82L327.404 131.111L332.62 135.749L342.856 125.896L345.37 128.605L332.237 140.964L324.703 133.82Z" fill="#15B79E"/>
</svg>
