<svg width="125" height="108" viewBox="0 0 125 108" fill="none" xmlns="http://www.w3.org/2000/svg">
<path d="M63.0632 104.089C89.7632 104.089 111.463 82.3886 111.463 55.6886C111.463 28.9886 89.7632 7.28857 63.0632 7.28857C36.3632 7.38857 14.6632 28.9886 14.6632 55.7886C14.6632 82.4886 36.3632 104.089 63.0632 104.089Z" fill="#F1F3F9" stroke="#D6DCE8" stroke-width="2" stroke-miterlimit="10"/>
<path d="M94.8633 47.8887V83.7887C94.8633 85.9887 93.0633 87.7887 90.8633 87.7887H33.9633C31.7633 87.7887 29.9633 85.9887 29.9633 83.7887V47.8887C29.9633 45.6887 31.8633 43.8887 33.9633 43.8887H90.8633C92.5633 43.8887 93.9633 44.8887 94.6633 46.3887C94.7633 46.7887 94.8633 47.2887 94.8633 47.8887Z" fill="#F1F3F9" stroke="#D6DCE8" stroke-width="2" stroke-miterlimit="10"/>
<path d="M122.963 43.6886C124.563 42.1886 124.663 39.6886 123.263 38.0886C121.763 36.4886 119.263 36.3886 117.663 37.7886C116.063 39.2886 115.963 41.7886 117.363 43.3886C118.863 45.0886 121.363 45.1886 122.963 43.6886Z" fill="#F1F3F9"/>
<path d="M123.263 26.1883C123.963 25.5883 123.963 24.4883 123.363 23.8883C122.763 23.1883 121.663 23.1883 121.063 23.7883C120.463 24.3883 120.363 25.4883 120.963 26.0883C121.563 26.7883 122.563 26.7883 123.263 26.1883Z" fill="#F1F3F9"/>
<path d="M81.4633 1.98854C81.9633 1.58854 81.9632 0.788544 81.5632 0.388544C81.1632 -0.111456 80.4633 -0.111456 79.9633 0.288544C79.4633 0.688544 79.4633 1.38854 79.8633 1.88854C80.2633 2.38854 80.9633 2.38854 81.4633 1.98854Z" fill="#F1F3F9"/>
<path d="M115.463 24.8886L101.263 50.0886C100.763 50.8886 99.6633 51.1886 98.8633 50.6886L74.6633 36.5886C73.8633 36.0886 73.5633 34.9886 74.0633 34.1886L92.7633 2.08859C93.2633 1.28859 94.3633 0.988585 95.1633 1.48859L112.763 11.7886L115.463 24.8886Z" fill="white" stroke="#D6DCE8" stroke-width="2" stroke-miterlimit="10"/>
<path d="M112.563 11.6885L108.563 18.4885C108.063 19.4885 108.363 20.6885 109.263 21.2885L115.363 24.7885" fill="#D6DCE8"/>
<path d="M95.9632 18.2885C96.3632 18.1885 96.7632 18.1885 97.0632 18.1885C97.4632 18.1885 97.8632 18.1885 98.2632 18.1885C98.6632 18.2885 99.1632 18.3885 99.5632 18.4885C100.063 18.6885 100.463 18.8885 100.863 19.0885C101.463 19.3885 101.963 19.7885 102.463 20.2885C102.863 20.6885 103.163 21.1885 103.363 21.8885C103.563 22.3885 103.563 22.9885 103.563 23.5885C103.463 24.1885 103.263 24.7885 102.963 25.3885C102.663 25.8885 102.363 26.2885 101.963 26.6885C101.563 26.9885 101.263 27.1885 100.763 27.3885C100.363 27.5885 99.9632 27.6885 99.5632 27.6885L98.4632 27.7885C98.1632 27.7885 97.8632 27.8885 97.4632 27.9885C97.1632 28.0885 96.9632 28.1885 96.7632 28.3885L95.6632 29.8885L93.7632 28.8885L94.5632 26.9885C94.6632 26.6885 94.9632 26.3885 95.1632 26.1885C95.4632 25.9885 95.7632 25.8885 96.0632 25.7885C96.4632 25.6885 96.7632 25.6885 97.1632 25.5885C97.5632 25.5885 97.9632 25.4885 98.3632 25.3885C98.7632 25.2885 99.0632 25.1885 99.4632 24.9885C99.8632 24.7885 100.063 24.4885 100.263 24.0885C100.363 23.8885 100.463 23.5885 100.563 23.2885C100.563 22.9885 100.563 22.7885 100.463 22.5885C100.363 22.2885 100.263 22.0885 100.063 21.8885C99.8632 21.6885 99.6632 21.4885 99.3632 21.2885C99.0632 21.0885 98.6632 20.8885 98.2632 20.7885C97.9632 20.6885 97.6632 20.6885 97.3632 20.6885C97.0632 20.6885 96.8632 20.6885 96.6632 20.6885C96.5632 20.6885 96.3632 20.6885 96.2632 20.5885C96.0632 20.4885 95.8632 20.1885 95.8632 19.9885L95.9632 18.2885ZM90.4632 32.3885C90.5632 32.1885 90.7632 31.9885 90.9632 31.7885C91.1632 31.6885 91.3632 31.4885 91.5632 31.4885C92.0632 31.3885 92.5632 31.3885 93.0632 31.6885C93.2632 31.7885 93.4632 31.9885 93.6632 32.1885C93.7632 32.3885 93.8632 32.5885 93.9632 32.7885C94.2632 33.7885 93.6632 34.8885 92.6632 35.1885C92.1632 35.2885 91.6632 35.1885 91.1632 34.9885C90.9632 34.8885 90.7632 34.6885 90.5632 34.4885C90.4632 34.2885 90.2632 34.0885 90.2632 33.8885C90.1632 33.6885 90.1632 33.3885 90.2632 33.1885C90.2632 32.7885 90.3632 32.5885 90.4632 32.3885Z" fill="#D6DCE8"/>
<path d="M24.4632 13.9885L40.7632 30.8885C41.2632 31.4885 41.2632 32.3885 40.6632 32.9885L24.0632 48.5885C23.4632 49.0885 22.5632 49.0885 21.9632 48.4885L1.36323 26.5885C0.863231 25.9885 0.863231 25.0885 1.46323 24.4885L13.4632 13.1885L24.4632 13.9885Z" fill="white" stroke="#D6DCE8" stroke-width="2" stroke-miterlimit="10"/>
<path d="M13.4633 13.0884L17.9633 17.7884C18.5633 18.3884 19.6633 18.3884 20.3633 17.7884L24.4633 13.8884" fill="#D6DCE8"/>
<path d="M14.6632 27.5886C14.6632 27.2886 14.7632 26.9886 14.8632 26.6886C14.9632 26.3886 15.0632 26.0886 15.1632 25.7886C15.2632 25.4886 15.4632 25.1886 15.6632 24.8886C15.8632 24.5886 16.1632 24.2886 16.4632 23.9886C16.8632 23.5886 17.2632 23.2886 17.7632 23.0886C18.1632 22.8886 18.6632 22.7886 19.0632 22.7886C19.4632 22.7886 19.9632 22.8886 20.3632 22.9886C20.7632 23.1886 21.1632 23.4886 21.5632 23.7886C21.8632 24.0886 22.1632 24.4886 22.2632 24.8886C22.3632 25.1886 22.4632 25.5886 22.5632 25.9886C22.5632 26.2886 22.5632 26.6886 22.5632 26.9886C22.4632 27.2886 22.4632 27.5886 22.3632 27.8886C22.3632 28.1886 22.2632 28.3886 22.2632 28.6886C22.2632 28.8886 22.2632 29.0886 22.4632 29.2886L23.2632 30.4886L22.0632 31.5886L20.8632 30.4886C20.6632 30.2886 20.4632 30.0886 20.3632 29.7886C20.2632 29.4886 20.2632 29.2886 20.2632 28.9886C20.2632 28.6886 20.3632 28.3886 20.3632 28.0886C20.4632 27.7886 20.4632 27.4886 20.4632 27.1886C20.4632 26.8886 20.4632 26.5886 20.3632 26.2886C20.2632 25.9886 20.0632 25.6886 19.8632 25.3886C19.7632 25.1886 19.5632 25.0886 19.3632 24.9886C19.1632 24.8886 18.9632 24.8886 18.7632 24.8886C18.5632 24.8886 18.3632 24.9886 18.1632 25.0886C17.9632 25.1886 17.7632 25.2886 17.5632 25.4886C17.3632 25.6886 17.1632 25.9886 16.9632 26.1886C16.8632 26.3886 16.7632 26.5886 16.6632 26.8886C16.5632 27.0886 16.5632 27.2886 16.5632 27.3886C16.5632 27.4886 16.4632 27.5886 16.3632 27.6886C16.2632 27.8886 15.9632 27.8886 15.7632 27.7886L14.6632 27.5886ZM24.4632 35.0886C24.3632 34.9886 24.2632 34.7886 24.1632 34.5886C24.0632 34.3886 24.0632 34.1886 24.0632 33.9886C24.0632 33.5886 24.2632 33.1886 24.5632 32.8886C24.6632 32.7886 24.8632 32.6886 25.0632 32.5886C25.2632 32.4886 25.4632 32.4886 25.6632 32.4886C26.2632 32.4886 26.8632 32.8886 27.1632 33.4886C27.2632 33.6886 27.2632 33.8886 27.2632 34.0886C27.2632 34.2886 27.1632 34.4886 27.1632 34.6886C27.0632 34.8886 26.9632 34.9886 26.7632 35.1886C26.6632 35.2886 26.4632 35.4886 26.2632 35.4886C25.8632 35.5886 25.4632 35.5886 25.1632 35.4886C24.7632 35.3886 24.5632 35.2886 24.4632 35.0886Z" fill="#D6DCE8"/>
<path d="M66.6633 40.5887L60.3633 63.0887C60.1633 63.7887 59.3633 64.2887 58.5633 63.9887L36.6633 57.5887C35.9633 57.3887 35.4633 56.5887 35.7633 55.7887L44.2633 26.8887C44.4633 26.1887 45.2633 25.6887 46.0633 25.9887L61.9633 30.5887L66.6633 40.5887Z" fill="white" stroke="#D6DCE8" stroke-width="2" stroke-miterlimit="10"/>
<path opacity="0.1" d="M94.8633 47.8886V83.7886C94.8633 85.9886 93.0633 87.7886 90.8633 87.7886H33.9633C31.7633 87.7886 29.9633 85.9886 29.9633 83.7886V56.0886H53.2633C55.5633 56.0886 57.8633 55.2886 59.5633 53.7886L65.8633 48.5886C67.6633 47.1886 69.8633 46.2886 72.1633 46.2886H94.5633C94.7633 46.7886 94.8633 47.2886 94.8633 47.8886Z" fill="#AAB3C5"/>
<path d="M61.9633 30.6885L60.0633 36.9885C59.8633 37.7885 60.3633 38.7885 61.1633 39.0885L66.6633 40.7885" fill="#D6DCE8"/>
<path d="M50.0633 39.0884C50.3633 38.9884 50.6633 38.8884 50.9633 38.7884C51.2633 38.6884 51.5633 38.5884 51.9633 38.5884C52.3633 38.5884 52.6633 38.5884 53.0633 38.5884C53.4633 38.5884 53.8633 38.6884 54.2633 38.7884C54.7633 38.8884 55.2633 39.1884 55.7633 39.4884C56.1633 39.7884 56.4633 40.0884 56.7633 40.4884C56.9633 40.8884 57.1633 41.2884 57.2633 41.6884C57.3633 42.1884 57.2633 42.6884 57.1633 43.1884C57.0633 43.5884 56.8633 43.9884 56.5633 44.3884C56.3633 44.6884 56.0633 44.9884 55.7633 45.1884C55.4633 45.3884 55.1633 45.5884 54.8633 45.6884L53.9633 46.1884C53.7633 46.2884 53.4633 46.3884 53.2633 46.4884C53.0633 46.5884 52.8633 46.7884 52.8633 46.9884L52.2633 48.2884L50.5633 47.7884L50.8633 46.0884C50.8633 45.7884 51.0633 45.5884 51.2633 45.3884C51.4633 45.1884 51.6633 44.9884 51.9633 44.8884C52.2633 44.7884 52.5633 44.6884 52.7633 44.5884C53.0633 44.4884 53.3633 44.3884 53.6633 44.1884C53.9633 44.0884 54.1633 43.8884 54.4633 43.6884C54.6633 43.4884 54.8633 43.1884 54.9633 42.7884C55.0633 42.5884 55.0633 42.3884 55.0633 42.1884C55.0633 41.9884 54.9633 41.7884 54.8633 41.5884C54.7633 41.3884 54.5633 41.2884 54.3633 41.0884C54.1633 40.9884 53.9633 40.8884 53.6633 40.7884C53.3633 40.6884 53.0633 40.6884 52.6633 40.6884C52.4633 40.6884 52.1633 40.6884 51.9633 40.7884C51.7633 40.7884 51.5633 40.8884 51.4633 40.8884C51.3633 40.8884 51.2633 40.9884 51.0633 40.8884C50.8633 40.8884 50.6633 40.6884 50.6633 40.4884L50.0633 39.0884ZM48.4633 51.3884C48.5633 51.1884 48.5633 50.9884 48.7633 50.8884C48.8633 50.6884 49.0633 50.5884 49.1633 50.4884C49.5633 50.2884 49.9633 50.2884 50.2633 50.3884C50.4633 50.4884 50.6633 50.5884 50.7633 50.6884C50.8633 50.7884 51.0633 50.9884 51.1633 51.0884C51.5633 51.7884 51.2633 52.7884 50.5633 53.1884C50.1633 53.3884 49.7633 53.3884 49.4633 53.2884C49.2633 53.1884 49.0633 53.1884 48.9633 52.9884C48.7633 52.8884 48.6633 52.6884 48.5633 52.5884C48.4633 52.3884 48.4633 52.2884 48.3633 52.0884C48.3633 51.7884 48.3633 51.5884 48.4633 51.3884Z" fill="#D6DCE8"/>
<path d="M117.963 78.9886L97.3632 90.1886C96.6632 90.5886 95.7632 90.2886 95.4632 89.5886L85.0632 69.4886C84.7632 68.7886 84.9632 67.8886 85.6632 67.5886L112.463 53.3886C113.163 52.9886 114.063 53.2886 114.363 53.9886L121.863 68.5886L117.963 78.9886Z" fill="white" stroke="#D6DCE8" stroke-width="2" stroke-miterlimit="10"/>
<path d="M121.863 68.6885L116.063 71.6885C115.363 72.0885 114.963 73.1885 115.363 73.9885L117.963 79.0885" fill="#D6DCE8"/>
<path d="M107.563 65.9883C107.863 66.0883 108.163 66.2883 108.463 66.3883C108.763 66.4883 109.063 66.6883 109.363 66.9883C109.663 67.2883 109.863 67.4883 110.163 67.7883C110.463 68.0883 110.663 68.4883 110.863 68.7883C111.163 69.1883 111.263 69.7883 111.363 70.2883C111.463 70.7883 111.363 71.2883 111.363 71.7883C111.163 72.1883 111.063 72.6883 110.863 72.9883C110.563 73.3883 110.063 73.6883 109.763 73.8883C109.363 74.0883 108.963 74.2883 108.463 74.2883C108.063 74.3883 107.663 74.3883 107.263 74.2883C106.863 74.1883 106.563 74.0883 106.263 73.9883L105.363 73.5883C105.163 73.4883 104.863 73.3883 104.663 73.2883C104.463 73.1883 104.163 73.1883 103.963 73.3883L102.563 73.8883L101.763 72.3883L103.163 71.4883C103.363 71.2883 103.663 71.2883 103.963 71.2883C104.263 71.2883 104.563 71.2883 104.863 71.4883C105.163 71.5883 105.463 71.7883 105.663 71.8883C105.963 71.9883 106.263 72.1883 106.563 72.2883C106.863 72.3883 107.163 72.4883 107.463 72.4883C107.763 72.4883 108.163 72.3883 108.463 72.1883C108.863 71.9883 109.163 71.5883 109.263 71.1883C109.363 70.9883 109.263 70.7883 109.263 70.4883C109.163 70.2883 109.163 70.0883 108.963 69.7883C108.863 69.4883 108.563 69.2883 108.363 68.8883C108.263 68.7883 107.963 68.4883 107.763 68.4883C107.663 68.3883 107.363 68.2883 107.363 68.1883C107.263 68.0883 107.163 68.0883 107.063 67.8883C106.963 67.7883 106.963 67.4883 107.063 67.2883L107.563 65.9883ZM97.6631 73.3883C97.8631 73.2883 98.0631 73.1883 98.2631 73.2883C98.4631 73.1883 98.6631 73.2883 98.8631 73.2883C99.2631 73.4883 99.5631 73.6883 99.7631 73.9883C99.8631 74.1883 99.8631 74.3883 99.8631 74.5883C99.8631 74.6883 99.8631 74.9883 99.8631 75.1883C99.7631 75.5883 99.3631 75.8883 99.0631 76.0883C98.8631 76.1883 98.6631 76.1883 98.4631 76.1883C98.3631 76.1883 98.0631 76.1883 97.8631 76.1883C97.4631 75.9883 97.1631 75.7883 96.9631 75.4883C96.9631 75.1883 96.9631 74.9883 96.9631 74.7883C96.8631 74.5883 96.9631 74.3883 96.9631 74.1883C97.0631 73.9883 97.1631 73.7883 97.1631 73.6883C97.3631 73.5883 97.5631 73.4883 97.6631 73.3883Z" fill="#D6DCE8"/>
<path d="M95.9632 66.8883V84.5883C95.9632 86.8883 94.0632 88.6883 91.8632 88.6883H33.3632C31.0632 88.6883 29.2632 86.7883 29.2632 84.5883V65.4883" stroke="#1676EE" stroke-width="3" stroke-linecap="round" stroke-linejoin="round"/>
<path d="M93.6632 55.5884H73.6632C71.7632 55.5884 69.8632 56.2884 68.3632 57.4884L63.0632 61.7884C61.5632 62.9884 59.6632 63.6884 57.7632 63.6884H34.9632C32.6632 63.6884 30.7632 65.4884 30.7632 67.7884C30.7632 67.9884 30.7632 68.1884 30.8632 68.3884L34.9632 90.2884C35.2632 92.3884 37.0632 93.8884 39.1632 93.8884H87.7632C89.8632 93.8884 91.5632 92.3884 91.9632 90.3884L97.7632 60.3884C98.0632 58.1884 96.6632 55.9884 94.2632 55.6884C94.0632 55.5884 93.8632 55.5884 93.6632 55.5884Z" fill="white"/>
<path d="M99.2632 51.5884H75.2632C72.9632 51.5884 70.6632 52.3884 68.9632 53.8884L62.6632 58.9884C60.8632 60.4884 58.6632 61.2884 56.3632 61.2884H29.0632C26.3632 61.2884 24.0632 63.4884 24.0632 66.2884C24.0632 66.4884 24.0632 66.7884 24.1632 66.9884L29.1632 93.4884C29.5632 95.9884 31.6632 97.8884 34.1632 97.8884H92.1632C94.6632 97.8884 96.7632 96.0884 97.1632 93.6884L104.063 57.3884C104.463 54.6884 102.763 52.0884 99.9632 51.6884C99.7632 51.5884 99.4632 51.5884 99.2632 51.5884Z" fill="white" stroke="#D6DCE8" stroke-width="2" stroke-miterlimit="10"/>
<path d="M73.1632 78.9886C74.5632 78.9886 75.7632 77.7886 75.7632 76.3886C75.7632 74.9886 74.5632 73.7886 73.1632 73.7886C71.7632 73.7886 70.5632 74.9886 70.5632 76.3886C70.5632 77.8886 71.6632 78.9886 73.1632 78.9886Z" fill="#AAB2C5"/>
<path d="M68.5632 83.3883H67.2632C66.1632 80.9883 63.2632 80.0883 60.9632 81.2883C60.0632 81.6883 59.2632 82.4883 58.8632 83.3883H57.5632C58.6632 80.2883 62.2632 78.6883 65.2632 79.8883C66.6632 80.4883 67.9632 81.6883 68.5632 83.3883Z" fill="#AAB2C5"/>
<path d="M105.963 106.488C104.763 106.488 105.163 106.588 96.1633 97.5885C87.3633 104.088 75.3633 97.7885 75.3633 87.1885C75.3633 79.9885 81.1633 74.1885 88.3633 74.1885C98.7633 74.1885 105.063 85.7885 99.0633 94.5885L107.463 102.988C108.663 104.288 107.763 106.488 105.963 106.488ZM88.3633 78.2885C83.4633 78.2885 79.4633 82.2885 79.4633 87.1885C79.4633 92.0885 83.4633 96.0885 88.3633 96.0885C88.8633 96.0885 89.4633 96.0885 89.9633 95.9885C90.4633 95.8885 90.9633 95.7885 91.4633 95.5885C91.9633 95.3885 92.4633 95.1885 92.8633 94.8885C93.3633 94.5885 93.8633 94.1885 94.2633 93.7885C94.6633 93.4885 94.9633 93.0885 95.2633 92.6885C95.5633 92.2885 95.8633 91.7885 96.1633 91.3885C96.3633 90.8885 96.6633 90.3885 96.7633 89.8885C96.9633 89.3885 97.0633 88.8885 97.0633 88.3885C97.1633 87.9885 97.1633 87.5885 97.1633 87.1885C97.2633 82.2885 93.2633 78.2885 88.3633 78.2885Z" fill="#D6DCE8" stroke="#AAB2C5" stroke-width="2" stroke-miterlimit="10"/>
<path d="M53.1632 78.9886C54.5632 78.9886 55.7632 77.7886 55.7632 76.3886C55.7632 74.9886 54.5632 73.7886 53.1632 73.7886C51.7632 73.7886 50.5632 74.9886 50.5632 76.3886C50.6632 77.8886 51.7632 78.9886 53.1632 78.9886Z" fill="#AAB2C5"/>
</svg>
