<svg width="20" height="20" viewBox="0 0 20 20" fill="none" xmlns="http://www.w3.org/2000/svg">
<path d="M8.74996 4.58333C8.74996 4.81342 8.56338 5 8.33329 5C8.10321 5 7.91663 4.81342 7.91663 4.58333C7.91663 4.35325 8.10321 4.16667 8.33329 4.16667C8.56338 4.16667 8.74996 4.35317 8.74996 4.58333ZM10.8333 4.16667C10.6032 4.16667 10.4166 4.35317 10.4166 4.58333C10.4166 4.8135 10.6032 5 10.8333 5C11.0634 5 11.25 4.81342 11.25 4.58333C11.25 4.35325 11.0634 4.16667 10.8333 4.16667ZM5.83329 4.16667C5.60321 4.16667 5.41663 4.35317 5.41663 4.58333C5.41663 4.8135 5.60321 5 5.83329 5C6.06338 5 6.24996 4.81342 6.24996 4.58333C6.24996 4.35325 6.06338 4.16667 5.83329 4.16667ZM8.33329 6.66667C8.10321 6.66667 7.91663 6.85317 7.91663 7.08333C7.91663 7.3135 8.10321 7.5 8.33329 7.5C8.56338 7.5 8.74996 7.31342 8.74996 7.08333C8.74996 6.85325 8.56338 6.66667 8.33329 6.66667ZM10.8333 6.66667C10.6032 6.66667 10.4166 6.85317 10.4166 7.08333C10.4166 7.3135 10.6032 7.5 10.8333 7.5C11.0634 7.5 11.25 7.31342 11.25 7.08333C11.25 6.85325 11.0634 6.66667 10.8333 6.66667ZM5.83329 6.66667C5.60321 6.66667 5.41663 6.85317 5.41663 7.08333C5.41663 7.3135 5.60321 7.5 5.83329 7.5C6.06338 7.5 6.24996 7.31342 6.24996 7.08333C6.24996 6.85325 6.06338 6.66667 5.83329 6.66667ZM8.33329 9.16667C8.10321 9.16667 7.91663 9.35317 7.91663 9.58333C7.91663 9.8135 8.10321 10 8.33329 10C8.56338 10 8.74996 9.81342 8.74996 9.58333C8.74996 9.35325 8.56338 9.16667 8.33329 9.16667ZM10.8333 9.16667C10.6032 9.16667 10.4166 9.35317 10.4166 9.58333C10.4166 9.8135 10.6032 10 10.8333 10C11.0634 10 11.25 9.81342 11.25 9.58333C11.25 9.35325 11.0634 9.16667 10.8333 9.16667ZM5.83329 9.16667C5.60321 9.16667 5.41663 9.35317 5.41663 9.58333C5.41663 9.8135 5.60321 10 5.83329 10C6.06338 10 6.24996 9.81342 6.24996 9.58333C6.24996 9.35325 6.06338 9.16667 5.83329 9.16667ZM17.0833 13.3333V15C17.0833 15.6893 16.5225 16.25 15.8333 16.25H8.42238C7.36121 16.25 6.43954 15.5038 6.27804 14.5133C6.17879 13.9022 6.34921 13.2837 6.74596 12.8173C7.14271 12.351 7.72129 12.0833 8.33329 12.0833H15.8333C16.5225 12.0833 17.0833 12.6441 17.0833 13.3333ZM16.25 13.3333C16.25 13.1038 16.0632 12.9167 15.8333 12.9167H8.33329C7.96629 12.9167 7.61879 13.077 7.38071 13.3569C7.13904 13.6409 7.03971 14.0047 7.10079 14.3798C7.19679 14.9707 7.76529 15.4166 8.42238 15.4166H15.8333C16.0632 15.4166 16.25 15.2294 16.25 14.9999V13.3333ZM8.33329 13.75C8.10321 13.75 7.91663 13.9365 7.91663 14.1667C7.91663 14.3968 8.10321 14.5833 8.33329 14.5833C8.56338 14.5833 8.74996 14.3968 8.74996 14.1667C8.74996 13.9366 8.56338 13.75 8.33329 13.75ZM11.6666 17.9167H4.99996C4.31071 17.9167 3.74996 17.3559 3.74996 16.6667V3.33333C3.74996 2.64408 4.31071 2.08333 4.99996 2.08333H11.6666C12.3559 2.08333 12.9166 2.64408 12.9166 3.33333V10.8333H13.75V3.33333C13.75 2.18425 12.8153 1.25 11.6666 1.25H4.99996C3.85129 1.25 2.91663 2.18425 2.91663 3.33333V16.6667C2.91663 17.8158 3.85129 18.75 4.99996 18.75H11.6666C12.5188 18.75 13.2511 18.2346 13.5735 17.5H12.5915C12.3625 17.7538 12.0346 17.9167 11.6666 17.9167Z" fill="#1D2939"/>
</svg>
