<svg width="267" height="267" viewBox="0 0 267 267" fill="none" xmlns="http://www.w3.org/2000/svg">
<path d="M160.163 251.51C186.3 251.51 207.489 248.507 207.489 244.803C207.489 241.099 186.3 238.097 160.163 238.097C134.026 238.097 112.838 241.099 112.838 244.803C112.838 248.507 134.026 251.51 160.163 251.51Z" fill="#D6E6ED"/>
<path d="M159.163 243.749L157.933 232.063L155.686 232.625L157.371 243.524L159.163 243.749Z" fill="#F5735D"/>
<path d="M159.252 245.333C159.031 245.397 158.805 245.437 158.576 245.453C157.013 245.564 148.811 246.081 148.607 244.76C148.383 243.299 150.939 239.918 157.146 242.288C162.086 244.174 160.205 245.055 159.252 245.333Z" fill="#562F5E"/>
<path d="M157.146 242.287C156.864 242.179 156.589 242.084 156.322 241.999C157.516 243.22 155.283 244.759 151.753 244.759C149.584 244.759 148.945 244.208 148.829 243.682C148.633 244.077 148.561 244.459 148.608 244.759C148.811 246.08 157.013 245.563 158.576 245.452C158.806 245.436 159.031 245.396 159.252 245.332C160.205 245.054 162.086 244.173 157.146 242.287Z" fill="#481F52"/>
<path d="M179.294 227.535L171.545 218.703L170.034 220.459L177.701 228.386L179.294 227.535Z" fill="#E85653"/>
<path d="M180.082 228.341C179.965 228.538 179.827 228.722 179.671 228.89C178.606 230.04 172.975 236.026 171.923 235.201C170.76 234.289 170.314 230.074 176.464 227.559C181.358 225.557 180.588 227.486 180.082 228.341Z" fill="#562F5E"/>
<path d="M176.464 227.558C176.184 227.672 175.918 227.79 175.665 227.911C177.371 227.986 176.794 230.635 174.219 233.049C172.636 234.533 171.793 234.568 171.348 234.263C171.476 234.686 171.684 235.013 171.923 235.2C172.975 236.025 178.606 230.039 179.671 228.889C179.827 228.721 179.965 228.537 180.082 228.34C180.588 227.485 181.358 225.556 176.464 227.558Z" fill="#481F52"/>
<path d="M148.689 157.227L145.511 195.422C145.485 195.826 145.629 196.222 145.908 196.515L173.012 224.929L175.688 222.092L154.523 196.365L161.92 157.842L148.689 157.227Z" fill="#1279A9"/>
<path d="M169.29 157.929L155.517 201.221L159.113 235.715L155.068 236.164L149.185 199.903L152.821 156.953L169.29 157.929Z" fill="#2F8AC2"/>
<path d="M157.968 235.842L159.113 235.715L155.517 201.221L169.29 157.929L152.821 156.953L152.135 165.177C153.304 163.803 157.158 160.082 161.079 164.312C165.348 168.919 153.214 201.278 153.214 201.278L157.968 235.842Z" fill="#1279A9"/>
<path d="M149.186 199.95L152.493 163.343C152.497 163.293 152.488 163.244 152.467 163.199L151.445 161.046C151.379 160.906 151.211 160.846 151.071 160.913C150.931 160.98 150.871 161.147 150.938 161.287L151.927 163.372L148.63 199.367L149.186 199.95Z" fill="#085D77"/>
<path d="M157.876 113.263C157.876 113.263 151.504 113.838 149.185 114.417C139.611 116.811 128.236 137.824 119.116 124.144C119.116 124.144 117.46 124.425 115.859 124.893C115.859 124.893 122.047 146.064 143.544 136.293C143.544 136.293 145.958 154.267 147.491 157.948C147.491 157.948 160.101 161.483 170.088 158.464C170.088 158.464 172.404 143.777 174.568 137.65C174.568 137.65 176.898 141.459 183.251 143.741C183.251 143.741 178.89 151.428 173.707 153.961C173.707 153.961 173.787 155.904 175.474 157.304C175.474 157.304 196.675 152.886 195.025 142.923C193.376 132.961 181.48 114.938 157.876 113.263Z" fill="#CF2A14"/>
<path d="M170.088 158.464C170.088 158.464 172.366 144.019 174.515 137.804C173.319 135.909 171.822 132.937 170.267 128.349C170.267 128.349 171.474 150.405 157.39 152.667C150.481 153.776 147.023 150.935 145.292 147.753C146.028 152.163 146.849 156.406 147.491 157.949C147.491 157.949 160.101 161.484 170.088 158.464Z" fill="#B81500"/>
<path d="M150.59 114.036C150.286 114.822 149.731 116.611 149.927 118.829C150.259 122.59 154.688 124.437 157.611 122.046C160.287 119.857 162.166 116.633 162.115 113.755C160.746 113.533 159.334 113.366 157.876 113.263C157.876 113.263 154.644 113.615 150.59 114.036Z" fill="#F5735D"/>
<path d="M174.568 137.651C171.262 132.004 169.555 124.839 169.537 124.76C169.501 124.607 169.347 124.512 169.194 124.548C169.04 124.584 168.945 124.737 168.981 124.891C169 124.972 170.81 132.576 174.328 138.363C174.408 138.115 174.488 137.876 174.568 137.651Z" fill="#832F00"/>
<path d="M175.479 156.313C175.479 156.313 174.494 158.796 173.212 158.954C172.914 158.991 172.592 159.002 172.303 158.904C172.212 158.872 172.12 158.831 172.051 158.763C171.931 158.643 171.951 158.47 171.857 158.338C171.733 158.161 171.44 158.182 171.311 158.009C171.196 157.855 171.266 157.623 171.169 157.458C171.087 157.319 170.904 157.259 170.836 157.113C170.781 156.994 170.818 156.851 170.778 156.726C170.729 156.574 170.574 156.47 170.547 156.313C170.537 156.252 170.548 156.189 170.568 156.131C170.632 155.955 171.313 155.573 171.313 155.573C171.313 155.573 170.897 155.058 171.377 154.625C171.778 154.262 174.942 154.499 174.942 154.499L175.479 156.313Z" fill="#F5735D"/>
<path d="M171.609 155.068C171.426 155.148 171.311 155.335 171.314 155.535C171.314 155.56 171.313 155.574 171.313 155.574C171.313 155.574 171.313 155.574 172.781 154.766C172.781 154.766 172.106 154.848 171.609 155.068Z" fill="#E85653"/>
<path d="M181.653 146.228C179.927 148.704 176.982 152.361 173.707 153.962C173.707 153.962 173.787 155.904 175.475 157.304C175.475 157.304 182.931 155.75 188.656 152.407C186.349 150.317 184.005 148.268 181.653 146.228Z" fill="#CF2A14"/>
<path d="M188.52 129.28C186.657 128.752 183.645 128.035 183.1 128.733C182.301 129.757 184.117 134.469 183.167 134.277C182.218 134.086 177.132 132.863 176.749 134.761C176.472 136.136 176.671 138.746 176.801 140.081C177.187 140.413 177.63 140.761 178.13 141.114C177.949 140.236 176.97 135.068 178.951 135.106C181.115 135.148 183.771 136.671 184.533 135.343C185.294 134.015 183.516 129.607 185.377 129.686C186.845 129.748 188.991 130.683 189.834 131.077C189.421 130.476 188.983 129.877 188.52 129.28Z" fill="#FFB002"/>
<path d="M191.571 133.837C190.001 133.237 188.303 132.745 187.835 133.201C186.904 134.108 188.064 139.022 187.15 138.704C186.235 138.386 181.361 136.484 180.725 138.313C180.382 139.297 180.208 140.991 180.12 142.348C180.458 142.531 180.816 142.712 181.191 142.888C181.232 141.078 181.537 138.747 182.86 138.953C184.999 139.288 187.423 141.157 188.358 139.945C189.293 138.732 188.129 134.124 189.961 134.454C190.712 134.589 191.612 134.984 192.415 135.402C192.152 134.885 191.871 134.362 191.571 133.837Z" fill="#FFB002"/>
<path d="M119.116 124.145C119.116 124.145 117.46 124.426 115.859 124.893C115.859 124.893 122.046 146.058 143.535 136.297C143.132 133.58 141.481 121.012 144.751 116.552C136.236 122.201 126.863 135.765 119.116 124.145Z" fill="#B52310"/>
<path d="M143.207 133.754C143.177 133.488 143.148 133.208 143.118 132.918C142.191 131.775 137.415 131.147 138.034 130.395C138.684 129.607 142.351 125.481 140.774 124.181C140.039 123.575 138.733 122.901 137.545 122.352C137.221 122.627 136.897 122.902 136.573 123.173C138.23 123.884 139.984 124.938 139.358 126.059C138.244 128.053 135.507 129.768 136.364 131.137C137.221 132.505 142.207 133.041 141.21 134.734C140.661 135.663 139.558 137.292 138.672 138.069C138.673 138.069 138.674 138.068 138.674 138.068C138.802 138.034 138.931 137.996 139.059 137.959C139.177 137.926 139.295 137.891 139.413 137.856C139.572 137.808 139.73 137.76 139.89 137.709C139.906 137.704 139.921 137.698 139.937 137.693C140.334 137.565 140.737 137.426 141.145 137.276C141.151 137.274 141.157 137.272 141.162 137.27C142.077 136.169 142.968 134.68 143.207 133.754Z" fill="#EF9500"/>
<path d="M170.517 81.7451C165.147 109.616 140.395 126.733 113.196 122.281C86.6786 117.941 69.6187 91.218 74.8619 63.904C80.1051 36.5901 105.768 18.4415 132.183 23.3682C158.597 28.295 175.778 54.4347 170.517 81.7451Z" fill="#008A47"/>
<path d="M86.212 71.8567C86.212 71.8567 113.114 107.577 119.01 107.142C124.907 106.707 130.841 105.135 130.841 105.135C130.841 105.135 157.699 49.7008 153.803 45.0986C149.908 40.4966 132.253 36.9102 132.253 36.9102C132.253 36.9102 119.233 85.6558 118.305 84.0235C117.378 82.3912 104.827 64.6717 104.827 64.6717C104.827 64.6717 86.174 69.2376 86.212 71.8567Z" fill="#F1F1F1"/>
<path d="M137.968 134.74C137.471 133.619 132.739 133.036 133.321 132.331C133.902 131.625 137.183 127.933 135.772 126.77C135.268 126.354 134.461 125.902 133.632 125.492C133.31 125.726 132.989 125.952 132.668 126.168C133.913 126.783 134.983 127.596 134.506 128.45C133.508 130.235 131.059 131.769 131.826 132.994C132.593 134.219 137.055 134.698 136.162 136.213C135.748 136.914 134.981 138.063 134.275 138.822C134.277 138.822 134.278 138.822 134.28 138.822C134.552 138.803 134.827 138.779 135.106 138.749C135.113 138.748 135.12 138.748 135.127 138.747C135.407 138.716 135.69 138.68 135.978 138.636C135.982 138.636 135.985 138.635 135.99 138.635C137.102 137.35 138.234 135.339 137.968 134.74Z" fill="#EF9500"/>
<path d="M148.349 104.837C148.349 104.837 140.365 102.088 142.495 94.8282C144.626 87.5686 154.261 89.8498 158.146 96.2982C158.146 96.2982 158.994 94.2052 160.133 95.8041C161.272 97.403 159.53 105.308 159.53 105.308C159.53 105.308 155.635 107.303 148.349 104.837Z" fill="#562F5E"/>
<path d="M160.361 96.3359C160.489 100.426 155.696 96.5957 155.696 96.5957C155.696 96.5957 153.533 100.822 147.877 100.331C142.877 99.897 142.701 95.2264 142.728 94.1504C142.643 94.3667 142.565 94.5917 142.495 94.8279C140.365 102.087 148.349 104.836 148.349 104.836C155.635 107.302 159.53 105.307 159.53 105.307C159.53 105.307 160.99 98.6798 160.361 96.3359Z" fill="#481F52"/>
<path d="M159.448 116.349L158.12 106.491L153.938 107.813L154.155 116.765C155.756 116.639 157.846 116.443 159.448 116.349Z" fill="#F5735D"/>
<path d="M154.038 111.931C157.747 110.762 157.872 107.597 157.872 107.597L153.946 108.146L154.038 111.931Z" fill="#E85653"/>
<path d="M149.962 103.144C149.962 103.144 149.72 110.689 153.382 110.162C157.043 109.635 158.618 106.883 158.618 106.883C158.618 106.883 161.386 107.143 161.209 104.887C161.031 102.631 158.857 102.325 158.266 103.924C158.266 103.924 157.941 98.6045 149.962 103.144Z" fill="#F5735D"/>
<path d="M158.448 103.995C158.284 104.007 158.133 103.898 158.098 103.734C157.915 102.886 157.319 101.465 155.367 101.468C152.627 101.471 149.132 103.889 149.097 103.914C148.946 104.019 148.739 103.982 148.635 103.832C148.53 103.682 148.566 103.475 148.716 103.37C148.866 103.265 152.409 100.81 155.366 100.805C157.946 100.8 158.606 102.939 158.746 103.594C158.785 103.773 158.671 103.95 158.492 103.988C158.477 103.991 158.462 103.993 158.448 103.995Z" fill="#371443"/>
<path d="M153.584 107.694C153.584 107.694 155.695 107.221 156.324 105.903C156.324 105.903 156.335 109.92 153.584 107.694Z" fill="white"/>
<path d="M119.402 121.375C118.57 121.375 117.974 122.839 117.974 122.839L115.234 122.569C115.362 123.015 115.963 124.101 116.333 124.749L118.584 124.246C119.112 123.559 120.571 121.375 119.402 121.375Z" fill="#F5735D"/>
</svg>
