<svg width="267" height="267" viewBox="0 0 267 267" fill="none" xmlns="http://www.w3.org/2000/svg">
<path d="M160.163 251.51C186.3 251.51 207.489 248.507 207.489 244.803C207.489 241.1 186.3 238.097 160.163 238.097C134.026 238.097 112.838 241.1 112.838 244.803C112.838 248.507 134.026 251.51 160.163 251.51Z" fill="#D6E6ED"/>
<path d="M159.163 243.749L157.933 232.063L155.686 232.625L157.371 243.523L159.163 243.749Z" fill="#F5735D"/>
<path d="M159.252 245.332C159.031 245.396 158.805 245.436 158.576 245.452C157.013 245.563 148.811 246.081 148.607 244.759C148.383 243.299 150.939 239.917 157.146 242.288C162.086 244.174 160.205 245.055 159.252 245.332Z" fill="#562F5E"/>
<path d="M157.146 242.288C156.864 242.18 156.589 242.084 156.322 241.999C157.516 243.22 155.283 244.759 151.753 244.759C149.584 244.759 148.945 244.209 148.829 243.682C148.633 244.078 148.561 244.459 148.608 244.759C148.811 246.081 157.013 245.563 158.576 245.452C158.806 245.436 159.031 245.397 159.252 245.332C160.205 245.055 162.086 244.174 157.146 242.288Z" fill="#481F52"/>
<path d="M179.294 227.536L171.545 218.703L170.034 220.459L177.701 228.386L179.294 227.536Z" fill="#E85653"/>
<path d="M180.082 228.34C179.965 228.538 179.827 228.721 179.671 228.89C178.606 230.039 172.975 236.026 171.923 235.201C170.76 234.289 170.314 230.073 176.464 227.558C181.358 225.557 180.588 227.486 180.082 228.34Z" fill="#562F5E"/>
<path d="M176.464 227.558C176.184 227.673 175.918 227.791 175.665 227.912C177.371 227.986 176.794 230.636 174.219 233.05C172.636 234.533 171.793 234.568 171.348 234.263C171.476 234.686 171.684 235.013 171.923 235.201C172.975 236.026 178.606 230.039 179.671 228.89C179.827 228.721 179.965 228.538 180.082 228.34C180.588 227.486 181.358 225.557 176.464 227.558Z" fill="#481F52"/>
<path d="M148.689 157.226L145.511 195.422C145.485 195.826 145.629 196.222 145.908 196.515L173.012 224.928L175.688 222.092L154.523 196.365L161.92 157.842L148.689 157.226Z" fill="#1279A9"/>
<path d="M169.29 157.929L155.517 201.221L159.113 235.715L155.068 236.164L149.185 199.903L152.821 156.953L169.29 157.929Z" fill="#2F8AC2"/>
<path d="M157.968 235.842L159.113 235.715L155.517 201.221L169.29 157.929L152.821 156.953L152.135 165.177C153.304 163.803 157.158 160.082 161.079 164.312C165.348 168.919 153.214 201.278 153.214 201.278L157.968 235.842Z" fill="#1279A9"/>
<path d="M149.186 199.95L152.493 163.343C152.497 163.293 152.488 163.244 152.467 163.199L151.445 161.046C151.379 160.906 151.211 160.846 151.071 160.913C150.931 160.979 150.871 161.147 150.938 161.287L151.927 163.371L148.63 199.367L149.186 199.95Z" fill="#085D77"/>
<path d="M157.876 113.263C157.876 113.263 151.503 113.838 149.185 114.418C139.611 116.811 128.236 137.824 119.116 124.145C119.116 124.145 117.46 124.426 115.859 124.893C115.859 124.893 122.047 146.064 143.544 136.293C143.544 136.293 145.958 154.268 147.491 157.948C147.491 157.948 160.101 161.484 170.088 158.464C170.088 158.464 172.404 143.777 174.568 137.65C174.568 137.65 176.898 141.46 183.251 143.742C183.251 143.742 178.89 151.428 173.707 153.962C173.707 153.962 173.787 155.904 175.474 157.304C175.474 157.304 196.675 152.886 195.025 142.924C193.376 132.961 181.48 114.939 157.876 113.263Z" fill="#039855"/>
<path d="M170.088 158.464C170.088 158.464 172.366 144.018 174.515 137.804C173.319 135.909 171.822 132.937 170.267 128.348C170.267 128.348 171.474 150.405 157.39 152.667C150.481 153.776 147.023 150.935 145.292 147.753C146.028 152.163 146.849 156.406 147.491 157.948C147.491 157.948 160.101 161.483 170.088 158.464Z" fill="#027A48"/>
<path d="M150.59 114.036C150.286 114.822 149.731 116.611 149.927 118.829C150.259 122.59 154.688 124.437 157.611 122.046C160.287 119.858 162.166 116.633 162.115 113.755C160.746 113.533 159.334 113.366 157.876 113.263C157.876 113.263 154.644 113.616 150.59 114.036Z" fill="#F5735D"/>
<path d="M174.568 137.651C171.262 132.004 169.555 124.839 169.537 124.76C169.501 124.607 169.347 124.512 169.194 124.548C169.04 124.584 168.945 124.737 168.981 124.891C169 124.972 170.81 132.576 174.328 138.363C174.408 138.115 174.488 137.877 174.568 137.651Z" fill="#832F00"/>
<path d="M175.479 156.313C175.479 156.313 174.494 158.796 173.212 158.954C172.914 158.991 172.592 159.003 172.303 158.904C172.212 158.873 172.12 158.832 172.051 158.763C171.931 158.644 171.951 158.47 171.857 158.338C171.733 158.162 171.44 158.182 171.311 158.009C171.196 157.855 171.266 157.623 171.169 157.458C171.087 157.319 170.904 157.259 170.836 157.113C170.781 156.994 170.818 156.851 170.778 156.726C170.729 156.575 170.574 156.47 170.547 156.313C170.537 156.252 170.548 156.19 170.568 156.132C170.632 155.955 171.313 155.573 171.313 155.573C171.313 155.573 170.897 155.058 171.377 154.625C171.778 154.262 174.942 154.499 174.942 154.499L175.479 156.313Z" fill="#F5735D"/>
<path d="M171.609 155.068C171.426 155.148 171.311 155.335 171.314 155.534C171.314 155.559 171.313 155.573 171.313 155.573C171.313 155.573 171.313 155.573 172.781 154.765C172.781 154.765 172.106 154.848 171.609 155.068Z" fill="#E85653"/>
<path d="M181.653 146.228C179.927 148.704 176.982 152.361 173.707 153.962C173.707 153.962 173.787 155.904 175.475 157.304C175.475 157.304 182.931 155.75 188.656 152.407C186.349 150.317 184.005 148.268 181.653 146.228Z" fill="#CF2A14"/>
<path d="M188.52 129.28C186.657 128.752 183.645 128.035 183.1 128.733C182.301 129.757 184.117 134.469 183.167 134.277C182.218 134.086 177.132 132.863 176.749 134.761C176.472 136.136 176.671 138.746 176.801 140.081C177.187 140.413 177.63 140.761 178.13 141.114C177.949 140.236 176.97 135.068 178.951 135.106C181.115 135.148 183.771 136.671 184.533 135.343C185.294 134.015 183.516 129.607 185.377 129.686C186.845 129.748 188.991 130.683 189.834 131.077C189.421 130.476 188.983 129.877 188.52 129.28Z" fill="#FFB002"/>
<path d="M191.571 133.837C190.001 133.236 188.303 132.745 187.835 133.201C186.904 134.107 188.064 139.022 187.15 138.704C186.235 138.385 181.361 136.484 180.725 138.313C180.382 139.297 180.208 140.991 180.12 142.347C180.458 142.531 180.816 142.711 181.191 142.888C181.232 141.078 181.537 138.747 182.86 138.953C184.999 139.288 187.423 141.157 188.358 139.944C189.293 138.732 188.129 134.124 189.961 134.454C190.712 134.589 191.612 134.984 192.415 135.402C192.152 134.884 191.871 134.362 191.571 133.837Z" fill="#FFB002"/>
<path d="M143.207 133.754C143.177 133.488 143.148 133.208 143.118 132.918C142.191 131.775 137.415 131.147 138.034 130.395C138.684 129.607 142.351 125.481 140.774 124.181C140.039 123.576 138.733 122.901 137.545 122.352C137.221 122.627 136.897 122.902 136.573 123.173C138.23 123.884 139.984 124.939 139.358 126.059C138.244 128.053 135.507 129.768 136.364 131.137C137.221 132.505 142.207 133.041 141.21 134.734C140.661 135.663 139.558 137.292 138.672 138.069C138.673 138.069 138.674 138.069 138.674 138.068C138.802 138.034 138.931 137.996 139.059 137.96C139.177 137.926 139.295 137.892 139.413 137.856C139.572 137.808 139.73 137.76 139.89 137.709C139.906 137.704 139.921 137.698 139.937 137.694C140.334 137.565 140.737 137.426 141.145 137.276C141.151 137.274 141.157 137.272 141.162 137.27C142.077 136.169 142.968 134.68 143.207 133.754Z" fill="#EF9500"/>
<path d="M155.411 20.2129C153.725 19.2513 147.181 15.4051 145.495 14.4013C140.974 11.8174 135.866 10.4771 130.678 10.5128C123.522 10.6607 116.534 12.7395 110.43 16.5357C105.149 19.7159 100.33 23.6279 96.1129 28.1589C91.3058 33.3488 87.1503 39.1233 83.7413 45.3507C77.4983 56.6569 73.6901 69.2839 73.6901 80.9599C73.6901 95.4255 79.4753 107.102 89.5265 112.977L99.4425 118.788C103.984 121.471 109.151 122.865 114.405 122.825C120.991 122.825 127.859 120.775 134.726 116.728C139.966 113.558 144.758 109.68 148.97 105.2C153.841 100.095 158.003 94.3392 161.342 88.0923C167.585 76.8601 171.32 64.2331 171.32 52.3352C171.341 37.9858 165.629 26.3098 155.411 20.2129ZM98.069 86.7821C98.2471 79.0458 99.9859 71.4289 103.178 64.4022L128.67 89.149C125.42 92.6738 121.697 95.7152 117.61 98.1834C112.001 101.459 106.861 102.558 102.429 101.987C99.7442 98.3736 98.0898 93.2911 98.0898 86.7398L98.069 86.7821ZM146.973 46.5341C146.973 53.73 145.006 61.4858 141.77 68.9141L116.455 44.1989C119.685 40.6529 123.412 37.6088 127.515 35.1645C133.071 31.8889 138.191 30.79 142.623 31.3289C145.308 34.9215 146.962 39.9935 146.962 46.4919L146.973 46.5341Z" fill="#D92D20"/>
<path opacity="0.3" d="M83.6165 86.7398C83.6165 75.0638 87.4455 62.4368 93.6677 51.1306C97.0741 44.9074 101.226 39.1365 106.029 33.9494C110.249 29.4213 115.067 25.5096 120.346 22.3262C126.451 18.5327 133.439 16.4542 140.594 16.3033C145.784 16.2759 150.891 17.6235 155.411 20.2129C153.725 19.2513 147.181 15.4051 145.495 14.4013C140.974 11.8174 135.866 10.4771 130.678 10.5128C123.522 10.6607 116.534 12.7395 110.43 16.5357C105.149 19.7159 100.33 23.6279 96.1129 28.1589C91.3058 33.3488 87.1503 39.1233 83.7413 45.3507C77.4983 56.6569 73.6901 69.2839 73.6901 80.9599C73.6901 95.4255 79.4753 107.102 89.5265 112.977L99.4425 118.788C89.4121 112.881 83.6165 101.205 83.6165 86.7398Z" fill="white"/>
<path opacity="0.2" d="M103.199 64.3594L128.67 89.1484C125.42 92.6732 121.697 95.7147 117.61 98.1829C112.001 101.458 106.861 102.557 102.429 101.987C103.567 103.62 105.018 105.003 106.695 106.055C112.043 109.225 119.347 108.771 127.505 103.994C131.594 101.53 135.321 98.4919 138.576 94.9706L104.426 61.6332C103.956 62.5121 103.546 63.423 103.199 64.3594Z" fill="black"/>
<path opacity="0.2" d="M148.273 32.9877C145.152 31.1809 141.26 30.7582 137.005 31.5401C138.856 31.1862 140.748 31.1008 142.623 31.2865C145.308 34.9214 146.962 39.9933 146.962 46.4918C146.962 53.6876 144.996 61.4434 141.76 68.8717L116.444 44.1566L150.5 77.42C154.475 69.1887 156.868 60.3762 156.868 52.3034C156.878 42.8357 153.549 36.1471 148.273 32.9877Z" fill="black"/>
<path d="M155.411 20.211C150.89 17.6381 145.787 16.3053 140.605 16.3437C133.449 16.4946 126.461 18.5731 120.356 22.3666C115.078 25.55 110.259 29.4617 106.039 33.9898C101.236 39.1769 97.0844 44.9478 93.678 51.171C87.435 62.4772 83.6268 75.1042 83.6268 86.7802C83.6268 101.246 89.412 112.922 99.4632 118.797C104.005 121.479 109.172 122.873 114.426 122.833C121.012 122.833 127.879 120.783 134.747 116.736C139.987 113.567 144.779 109.689 148.991 105.208C153.861 100.103 158.024 94.3479 161.363 88.101C167.606 76.8688 171.341 64.2418 171.341 52.3439C171.341 37.9839 165.629 26.3079 155.411 20.211ZM127.515 104.046C119.347 108.822 112.043 109.266 106.705 106.106C101.367 102.947 98.1001 96.3429 98.1001 86.7908C98.1001 78.7179 100.483 69.8843 104.468 61.6847L138.596 95.0221C135.339 98.5442 131.608 101.582 127.515 104.046ZM116.455 44.2076C119.685 40.6616 123.412 37.6175 127.515 35.1732C135.621 30.3972 142.915 29.9534 148.273 33.0599C153.632 36.1665 156.878 42.9079 156.878 52.3756C156.878 60.4484 154.485 69.282 150.51 77.4922L116.455 44.2076Z" fill="#D92D20"/>
<path d="M99.4637 118.758C102.2 120.308 105.16 121.41 108.235 122.023C111.297 122.617 114.429 122.738 117.527 122.382C123.73 121.593 129.687 119.428 134.976 116.042C145.568 109.27 154.298 99.8836 160.354 88.7594C166.597 77.8441 170.686 65.513 170.925 52.8331C171.116 46.4975 169.937 40.1964 167.471 34.3734C164.964 28.5169 160.757 23.5771 155.411 20.2142C160.891 23.4485 165.252 28.3238 167.897 34.1726C170.49 40.0437 171.783 46.4207 171.685 52.8543C171.621 59.2698 170.636 65.6416 168.761 71.7684C166.914 77.8952 164.383 83.7873 161.217 89.33C158.112 94.9143 154.345 100.092 150.001 104.747C145.694 109.44 140.759 113.495 135.34 116.792C129.918 120.127 123.84 122.212 117.537 122.9C111.233 123.502 104.903 122.051 99.4637 118.758Z" fill="#D92D20"/>
<path opacity="0.3" d="M99.4637 118.758C102.2 120.308 105.16 121.41 108.235 122.023C111.297 122.617 114.429 122.738 117.527 122.382C123.73 121.593 129.687 119.428 134.976 116.042C145.568 109.27 154.298 99.8836 160.354 88.7594C166.597 77.8441 170.686 65.513 170.925 52.8331C171.116 46.4975 169.937 40.1964 167.471 34.3734C164.964 28.5169 160.757 23.5771 155.411 20.2142C160.891 23.4485 165.252 28.3238 167.897 34.1726C170.49 40.0437 171.783 46.4207 171.685 52.8543C171.621 59.2698 170.636 65.6416 168.761 71.7684C166.914 77.8952 164.383 83.7873 161.217 89.33C158.112 94.9143 154.345 100.092 150.001 104.747C145.694 109.44 140.759 113.495 135.34 116.792C129.918 120.127 123.84 122.212 117.537 122.9C111.233 123.502 104.903 122.051 99.4637 118.758Z" fill="#FAFAFA"/>
<path d="M156.878 52.27C156.693 56.6152 155.994 60.922 154.797 65.0978C154.208 67.1793 153.514 69.2284 152.716 71.237C151.998 73.0439 151.228 74.8296 150.385 76.5836L142.373 68.6904L133.821 60.4168C130.98 57.6484 128.067 54.9539 125.195 52.2172C122.323 49.4805 119.41 46.7966 116.475 44.1232C119.222 46.9868 121.99 49.8397 124.799 52.6504C127.609 55.4611 130.376 58.3141 133.207 61.1036L141.676 69.4618L150.229 77.7459L150.697 78.1897L150.968 77.6086C151.917 75.6399 152.764 73.6225 153.507 71.5645C154.248 69.5027 154.887 67.4044 155.421 65.2774C156.499 61.0312 156.989 56.6535 156.878 52.27Z" fill="#D92D20"/>
<path opacity="0.3" d="M156.878 52.27C156.693 56.6152 155.994 60.922 154.797 65.0978C154.208 67.1793 153.514 69.2284 152.716 71.237C151.998 73.0439 151.228 74.8296 150.385 76.5836L142.373 68.6904L133.821 60.4168C130.98 57.6484 128.067 54.9539 125.195 52.2172C122.323 49.4805 119.41 46.7966 116.475 44.1232C119.222 46.9868 121.99 49.8397 124.799 52.6504C127.609 55.4611 130.376 58.3141 133.207 61.1036L141.676 69.4618L150.229 77.7459L150.697 78.1897L150.968 77.6086C151.917 75.6399 152.764 73.6225 153.507 71.5645C154.248 69.5027 154.887 67.4044 155.421 65.2774C156.499 61.0312 156.989 56.6535 156.878 52.27Z" fill="#FAFAFA"/>
<path d="M83.6164 86.7372C83.6397 84.0239 83.8518 81.3157 84.2511 78.6327L74.3351 72.8211C73.9409 75.5046 73.7288 78.2125 73.7004 80.9256C73.7004 95.3912 79.4856 107.067 89.5369 112.942L99.4528 118.754C89.412 112.879 83.6164 101.203 83.6164 86.7372Z" fill="#D92D20"/>
<path opacity="0.15" d="M83.6164 86.7372C83.6397 84.0239 83.8518 81.3157 84.2511 78.6327L74.3351 72.8211C73.9409 75.5046 73.7288 78.2125 73.7004 80.9256C73.7004 95.3912 79.4856 107.067 89.5369 112.942L99.4528 118.754C89.412 112.879 83.6164 101.203 83.6164 86.7372Z" fill="black"/>
<path opacity="0.2" d="M128.67 89.1484L138.575 94.96L104.457 61.6332L103.198 64.3594L128.67 89.1484Z" fill="black"/>
<path d="M137.968 134.741C137.471 133.62 132.739 133.036 133.321 132.331C133.902 131.626 137.183 127.933 135.772 126.771C135.268 126.355 134.461 125.903 133.632 125.493C133.31 125.727 132.989 125.952 132.668 126.168C133.913 126.784 134.983 127.596 134.506 128.451C133.508 130.235 131.059 131.77 131.826 132.994C132.593 134.219 137.055 134.699 136.162 136.213C135.748 136.915 134.981 138.063 134.275 138.823C134.277 138.822 134.278 138.822 134.28 138.822C134.552 138.804 134.827 138.78 135.106 138.75C135.113 138.749 135.12 138.748 135.127 138.747C135.407 138.717 135.69 138.68 135.978 138.637C135.982 138.636 135.985 138.636 135.99 138.635C137.102 137.351 138.234 135.34 137.968 134.741Z" fill="#EF9500"/>
<path d="M148.349 104.837C148.349 104.837 140.365 102.088 142.495 94.8282C144.626 87.5686 154.261 89.8498 158.146 96.2982C158.146 96.2982 158.994 94.2052 160.133 95.8041C161.272 97.403 159.53 105.308 159.53 105.308C159.53 105.308 155.635 107.303 148.349 104.837Z" fill="#562F5E"/>
<path d="M160.361 96.3363C160.489 100.426 155.696 96.596 155.696 96.596C155.696 96.596 153.533 100.823 147.877 100.332C142.877 99.8974 142.701 95.2267 142.727 94.1507C142.643 94.367 142.565 94.5921 142.495 94.8282C140.365 102.088 148.349 104.837 148.349 104.837C155.635 107.303 159.53 105.308 159.53 105.308C159.53 105.308 160.99 98.6801 160.361 96.3363Z" fill="#481F52"/>
<path d="M159.448 116.349L158.12 106.491L153.938 107.813L154.155 116.765C155.756 116.639 157.846 116.443 159.448 116.349Z" fill="#F5735D"/>
<path d="M154.038 111.932C157.747 110.762 157.872 107.597 157.872 107.597L153.946 108.146L154.038 111.932Z" fill="#E85653"/>
<path d="M149.962 103.144C149.962 103.144 149.72 110.689 153.382 110.162C157.043 109.635 158.618 106.883 158.618 106.883C158.618 106.883 161.386 107.143 161.209 104.887C161.031 102.631 158.857 102.325 158.266 103.924C158.266 103.924 157.941 98.6044 149.962 103.144Z" fill="#F5735D"/>
<path d="M158.447 103.995C158.284 104.008 158.133 103.899 158.098 103.734C157.915 102.887 157.319 101.465 155.367 101.469C152.627 101.471 149.132 103.89 149.096 103.914C148.946 104.02 148.739 103.982 148.635 103.833C148.53 103.682 148.566 103.476 148.716 103.371C148.866 103.266 152.409 100.81 155.366 100.805C157.946 100.801 158.606 102.939 158.746 103.595C158.785 103.774 158.671 103.95 158.492 103.989C158.477 103.992 158.462 103.994 158.447 103.995Z" fill="#371443"/>
<path d="M153.584 107.694C153.584 107.694 155.695 107.221 156.324 105.903C156.324 105.903 156.335 109.92 153.584 107.694Z" fill="white"/>
<path d="M119.402 121.375C118.57 121.375 117.974 122.84 117.974 122.84L115.234 122.569C115.362 123.015 115.963 124.102 116.333 124.749L118.584 124.246C119.112 123.559 120.571 121.375 119.402 121.375Z" fill="#F5735D"/>
<path d="M119.116 124.145C119.116 124.145 117.46 124.426 115.859 124.893C115.859 124.893 122.046 146.058 143.535 136.297C143.132 133.58 141.481 121.011 144.751 116.551C136.236 122.2 126.863 135.765 119.116 124.145Z" fill="#05603A"/>
</svg>
