<svg width="29" height="29" viewBox="0 0 29 29" fill="none" xmlns="http://www.w3.org/2000/svg">
<rect width="28.1053" height="28.1053" rx="14.0526" fill="#06184D"/>
<path d="M16.1689 16.1416C16.642 15.7861 17.3063 15.808 17.7578 16.1816L17.8447 16.2607C17.8554 16.2714 17.8614 16.2851 17.8623 16.2988L17.8506 16.3379L17.6543 16.5996L17.3721 16.9756L17.8262 17.0947C19.1447 17.4407 20.1123 18.6467 20.1123 20.0527V21.5527C20.1122 21.5856 20.0856 21.6123 20.0527 21.6123C20.0199 21.6123 19.9932 21.5856 19.9932 21.5527V20.0527C19.9932 18.5752 18.885 17.3425 17.4443 17.1484L17.2607 17.124L17.1494 17.2725L15.6006 19.3379C15.591 19.3507 15.5748 19.36 15.5566 19.3613L15.5527 19.3623L15.5303 19.3574C15.5231 19.3545 15.517 19.35 15.5117 19.3447H15.5107L14.6514 18.4844L14.1123 17.9453V21.5527C14.1122 21.5856 14.0856 21.6123 14.0527 21.6123C14.0199 21.6123 13.9932 21.5856 13.9932 21.5527V17.9453L13.4541 18.4844L12.5947 19.3447C12.5836 19.3559 12.5685 19.3623 12.5527 19.3623L12.5518 19.3613H12.5479C12.5309 19.36 12.5159 19.3513 12.5059 19.3379L10.9561 17.2715L10.8447 17.124L10.6611 17.1484C9.22105 17.3429 8.1123 18.5764 8.1123 20.0527V21.5527C8.11225 21.5856 8.08559 21.6123 8.05273 21.6123C8.01988 21.6123 7.99322 21.5856 7.99316 21.5527V20.0527C7.99316 18.6483 8.96107 17.4419 10.2793 17.0957L10.7344 16.9766L10.4521 16.6006L10.2549 16.3379L10.2441 16.2988C10.2446 16.2918 10.2461 16.2849 10.249 16.2783L10.2607 16.2607C10.7079 15.8133 11.4293 15.7618 11.9365 16.1416L13.8633 17.5869L14.0527 17.7285L14.2422 17.5869L16.1689 16.1416ZM10.3027 19.9932H11.0527C11.0856 19.9932 11.1123 20.0198 11.1123 20.0527C11.1122 20.0856 11.0856 20.1123 11.0527 20.1123H10.3027C10.2699 20.1123 10.2432 20.0856 10.2432 20.0527C10.2432 20.0198 10.2698 19.9932 10.3027 19.9932ZM17.9199 19.7891C17.8855 20.0046 17.7935 20.2058 17.6523 20.3711C17.5113 20.2058 17.4191 20.0045 17.3848 19.7891L17.6523 19.6553L17.9199 19.7891ZM11.8652 16.2363C11.5254 15.9822 11.0829 15.9406 10.7129 16.0967L10.3408 16.2539L10.583 16.5771L12.3408 18.9209L12.5596 19.2129L12.8164 18.9551L13.7051 18.0664L13.9629 17.8096L13.6709 17.5908L11.8662 16.2363H11.8652ZM17.3936 16.0967C17.0669 15.9583 16.6889 15.9741 16.3721 16.1504L16.2402 16.2363L14.4346 17.5908L14.1426 17.8096L14.4004 18.0664L15.5469 19.2129L15.7646 18.9209L17.5225 16.5771L17.7646 16.2549L17.3936 16.0967ZM14.0342 6.49609C14.046 6.4922 14.0594 6.4922 14.0713 6.49609V6.49707C14.154 6.52459 15.8336 7.08647 17.2461 7.72363L17.8291 8C17.8496 8.01065 17.8623 8.03112 17.8623 8.05273C17.8623 8.07201 17.8591 8.38707 17.7842 8.7998C17.7083 9.21773 17.5634 9.70762 17.2949 10.0938L17.1445 10.3105L17.7363 10.9023V10.9033C17.9363 11.1031 18.0171 11.3848 17.9521 11.6602H17.9512C17.8868 11.9355 17.6893 12.1522 17.4199 12.2422L17.3262 12.2734L17.1113 12.3457L17.1094 12.5713C17.0989 14.2493 15.7326 15.6123 14.0527 15.6123C12.3729 15.6123 11.0056 14.2493 10.9951 12.5713L10.9941 12.3457L10.7793 12.2734L10.6846 12.2422H10.6855C10.4503 12.1639 10.2688 11.9885 10.1836 11.7607L10.1533 11.6602C10.0886 11.3849 10.169 11.1025 10.3691 10.9023L10.9609 10.3105L10.8105 10.0938C10.5422 9.70755 10.3972 9.21772 10.3213 8.7998C10.2463 8.38701 10.2432 8.07191 10.2432 8.05273C10.2432 8.03053 10.2557 8.00941 10.2764 7.99902V8C11.7577 7.25933 13.9326 6.53048 14.0332 6.49707L14.0342 6.49609ZM14.0713 13.3584C14.0645 13.3607 14.0581 13.3623 14.0527 13.3623C14.0474 13.3623 14.041 13.3606 14.0342 13.3584L11.5557 12.5322L11.0889 12.377L11.1416 12.8662C11.3003 14.3365 12.5354 15.4932 14.0527 15.4932C15.57 15.4931 16.8042 14.3365 16.9629 12.8662L17.0156 12.377L14.0713 13.3584ZM10.9844 10.4541L10.4521 10.9863C10.2074 11.2313 10.2431 11.523 10.2686 11.6318V11.6328C10.2936 11.7404 10.3921 12.019 10.7227 12.1299V12.1309L13.9531 13.207L14.0527 13.2402L14.1523 13.207L17.3828 12.1309V12.1299C17.7147 12.0188 17.8119 11.7381 17.8369 11.6338L17.8379 11.6309C17.8583 11.5407 17.8905 11.3031 17.7324 11.0801L17.6523 10.9863L17.1211 10.4541L17.0283 10.3623H11.0771L10.9844 10.4541ZM13.9502 6.64941C13.4963 6.80479 11.8199 7.39132 10.5537 7.99609L10.3574 8.08984L10.375 8.30664C10.3911 8.50927 10.4276 8.81879 10.5137 9.14551C10.599 9.46898 10.739 9.83279 10.9736 10.125L11.0684 10.2432H17.0371L17.1318 10.125C17.3663 9.83295 17.5064 9.46988 17.5918 9.14648C17.6781 8.81931 17.7146 8.50866 17.7305 8.30566L17.748 8.08984L17.5518 7.99609C16.2857 7.39131 14.6095 6.80482 14.1553 6.64941L14.0527 6.61523L13.9502 6.64941ZM14.3203 8.16406C14.2859 8.37975 14.1931 8.58074 14.0518 8.74609C13.9108 8.58087 13.8185 8.37941 13.7842 8.16406L14.0527 8.03027L14.3203 8.16406Z" fill="white" stroke="white" stroke-width="0.631579"/>
</svg>
