<svg width="27" height="27" viewBox="0 0 27 27" fill="none" xmlns="http://www.w3.org/2000/svg">
<rect width="26.1053" height="26.1053" rx="13.0526" fill="#06184D"/>
<g clip-path="url(#clip0_14637_29031)">
<path d="M19.8282 20.1848H9.53571V13.8123C9.53571 13.5523 9.74571 13.3423 10.0057 13.3423H19.3607C19.6207 13.3423 19.8307 13.5523 19.8307 13.8123V20.1848H19.8282Z" stroke="white" stroke-width="0.727273" stroke-miterlimit="10" stroke-linecap="round" stroke-linejoin="round"/>
<path d="M9.53539 20.1848H6.75789C6.49289 20.1848 6.27789 19.9698 6.27789 19.7048V19.0098H9.53539" stroke="white" stroke-width="0.727273" stroke-miterlimit="10" stroke-linecap="round" stroke-linejoin="round"/>
<path d="M13.6151 11.5376H13.8026L16.7726 13.3426" stroke="white" stroke-width="0.727273" stroke-miterlimit="10" stroke-linecap="round" stroke-linejoin="round"/>
<path d="M7.86013 19.0078L7.00263 18.4403C6.70013 18.2028 6.44263 17.7753 6.44263 17.3903V15.7503C6.44263 14.4128 7.20263 13.1928 8.40013 12.6003L10.0676 11.5728" stroke="white" stroke-width="0.727273" stroke-miterlimit="10" stroke-linecap="round" stroke-linejoin="round"/>
<path d="M11.8182 12.1124C13.5275 12.1124 14.9132 10.7267 14.9132 9.01736C14.9132 7.30804 13.5275 5.92236 11.8182 5.92236C10.1089 5.92236 8.72321 7.30804 8.72321 9.01736C8.72321 10.7267 10.1089 12.1124 11.8182 12.1124Z" stroke="white" stroke-width="0.727273" stroke-miterlimit="10" stroke-linecap="round" stroke-linejoin="round"/>
<path d="M8.72058 15.6304V17.0379L9.53558 17.7879" stroke="white" stroke-width="0.727273" stroke-miterlimit="10" stroke-linecap="round" stroke-linejoin="round"/>
<path d="M11.8176 12.1123V13.3423" stroke="white" stroke-width="0.727273" stroke-miterlimit="10" stroke-linecap="round" stroke-linejoin="round"/>
</g>
<defs>
<clipPath id="clip0_14637_29031">
<rect width="16" height="16" fill="white" transform="translate(5.05261 5.05273)"/>
</clipPath>
</defs>
</svg>
