<svg width="32" height="32" viewBox="0 0 32 32" fill="none" xmlns="http://www.w3.org/2000/svg">
<path d="M26.4079 18.614C26.2778 17.3983 25.7049 16.2755 24.7942 15.4521C24.2577 14.967 23.629 14.6094 22.9517 14.3961C23.6695 13.9125 24.1424 13.0923 24.1424 12.1639C24.1424 10.6804 22.9356 9.47367 21.4522 9.47367C20.371 9.47367 19.4374 10.1149 19.0103 11.0371C18.5527 10.6896 18.0424 10.4257 17.5003 10.255C18.2175 9.77138 18.6902 8.95144 18.6902 8.02321C18.6902 6.53977 17.4834 5.33301 16 5.33301C14.5165 5.33301 13.3098 6.53977 13.3098 8.02321C13.3098 8.95144 13.7824 9.77138 14.4997 10.255C13.9576 10.4257 13.4473 10.6896 12.9896 11.0371C12.5623 10.1152 11.629 9.4739 10.5478 9.4739C9.06435 9.4739 7.85758 10.6807 7.85758 12.1641C7.85758 13.0928 8.3307 13.9127 9.04821 14.3964C8.37116 14.6097 7.74228 14.9673 7.20579 15.4523C6.29533 16.2758 5.72212 17.3986 5.59209 18.6142C5.58156 18.7113 5.6129 18.8081 5.67839 18.8808C5.74364 18.9533 5.83672 18.995 5.93424 18.995H8.17354V19.0473C8.17354 19.6418 8.4329 20.1079 8.84053 20.4751V25.2271C8.84053 26.0206 9.48625 26.6663 10.2798 26.6663H21.7197C22.5132 26.6663 23.159 26.0206 23.159 25.2271V20.473C23.5666 20.1063 23.826 19.6407 23.826 19.0469V18.9945H26.0653C26.1628 18.9945 26.2559 18.9531 26.3211 18.8804C26.3868 18.8079 26.4182 18.711 26.4079 18.614ZM21.4524 10.1617C22.5563 10.1617 23.4543 11.0598 23.4543 12.1636C23.4543 13.2673 22.557 14.1649 21.4536 14.1656C21.4531 14.1656 21.4529 14.1656 21.4524 14.1656C21.4522 14.1656 21.4517 14.1656 21.4515 14.1656C20.3481 14.1651 19.4505 13.2673 19.4505 12.1636C19.4503 11.0598 20.3485 10.1617 21.4524 10.1617ZM13.9981 8.02297C13.9981 6.91911 14.8961 6.02105 16 6.02105C17.1038 6.02105 18.0019 6.91911 18.0019 8.02297C18.0019 9.1266 17.1041 10.0247 16.0004 10.0249C16.0002 10.0249 16 10.0249 16 10.0249C15.9997 10.0249 15.9995 10.0249 15.9993 10.0249C14.8959 10.0247 13.9981 9.1266 13.9981 8.02297ZM15.9997 10.7129C16 10.7129 16 10.7129 16.0002 10.7129C16.0004 10.7129 16.0004 10.7129 16.0007 10.7129C17.0316 10.7129 18.0164 11.0789 18.7947 11.7466C18.7734 11.8825 18.7622 12.0217 18.7622 12.1636C18.7622 13.0923 19.2353 13.9125 19.9531 14.3961C19.7178 14.4703 19.4879 14.562 19.2655 14.6709V14.6441C19.2655 13.8082 18.5854 13.1281 17.7496 13.1281H14.2509C13.415 13.1281 12.7349 13.8082 12.7349 14.6441V14.6709C12.5125 14.5622 12.2826 14.4703 12.0474 14.3961C12.7651 13.9125 13.2382 13.0923 13.2382 12.1636C13.2382 12.0219 13.227 11.8828 13.2057 11.7466C13.984 11.0792 14.9688 10.7132 15.9997 10.7129ZM23.1381 19.0469C23.1381 19.7333 22.5378 20.2761 21.3537 20.6601C20.4659 20.948 19.4421 21.0766 18.8102 21.1405C18.5751 19.8018 17.4051 18.7812 16.0002 18.7812C14.5949 18.7812 13.4244 19.8027 13.1903 21.1419C12.5593 21.0785 11.5373 20.9501 10.6469 20.6608C9.46286 20.2763 8.86252 19.7333 8.86252 19.0469V16.3773C8.86252 16.2575 8.95981 16.1602 9.07955 16.1602H11.7494V17.6409C11.7494 18.2185 12.2195 18.6886 12.7969 18.6886H19.204C19.7816 18.6886 20.2517 18.2185 20.2517 17.6409V16.1602H22.9213C23.0411 16.1602 23.1384 16.2575 23.1384 16.3773L23.1381 19.0469ZM18.1654 21.6346C18.1654 22.8285 17.1939 23.8 16 23.8C14.8061 23.8 13.8346 22.8285 13.8346 21.6346C13.8346 20.4407 14.8061 19.4692 16 19.4692C17.1939 19.4692 18.1654 20.4407 18.1654 21.6346ZM19.5632 17.6409C19.5632 17.8392 19.4021 18.0003 19.2038 18.0003H12.7964C12.5983 18.0003 12.437 17.8392 12.437 17.6409V16.1602H19.563L19.5632 17.6409ZM18.5775 15.4722H18.2281V14.6443C18.2281 14.3805 18.0134 14.1658 17.7496 14.1658H14.2509C13.9871 14.1658 13.7724 14.3805 13.7724 14.6443V15.4722H13.423V14.6443C13.423 14.1878 13.7944 13.8164 14.2509 13.8164H17.7496C18.2061 13.8164 18.5775 14.1878 18.5775 14.6443V15.4722ZM17.5398 15.4722H14.4604V14.8538H17.5398V15.4722ZM8.54609 12.1636C8.54609 11.0598 9.44415 10.1617 10.548 10.1617C11.6519 10.1617 12.5499 11.0598 12.5499 12.1636C12.5499 13.2673 11.6523 14.1651 10.5489 14.1656C10.5487 14.1656 10.5482 14.1656 10.548 14.1656C10.5475 14.1656 10.5473 14.1656 10.5468 14.1656C9.44368 14.1651 8.54609 13.2673 8.54609 12.1636ZM8.17401 16.3773V18.3064H6.33462C6.72846 16.3134 8.47617 14.8543 10.5471 14.8538C10.5473 14.8538 10.5478 14.8538 10.548 14.8538C10.5482 14.8538 10.5487 14.8538 10.5489 14.8538C11.3228 14.8541 12.0745 15.0606 12.7347 15.4521V15.4722H9.07931C8.58 15.4722 8.17401 15.8782 8.17401 16.3773ZM22.4711 25.2266C22.4711 25.6408 22.1341 25.9776 21.7202 25.9776H10.2802C9.86605 25.9776 9.52928 25.6406 9.52928 25.2266V20.9433C10.6666 21.542 12.2464 21.7413 13.1543 21.8299C13.2551 23.3124 14.4927 24.4881 16.0004 24.4881C17.5087 24.4881 18.7463 23.3117 18.8466 21.8285C19.7545 21.7394 21.3341 21.5397 22.4714 20.9412L22.4711 25.2266ZM23.8262 18.3064V16.3773C23.8262 15.8782 23.4202 15.4719 22.9209 15.4719H19.2655V15.4521C19.9257 15.0606 20.6774 14.8541 21.4515 14.8538C21.4517 14.8538 21.4522 14.8538 21.4524 14.8538C21.4526 14.8538 21.4531 14.8538 21.4533 14.8538C23.5243 14.8543 25.2722 16.3134 25.6658 18.3064H23.8262ZM17.1399 22.1805C17.1698 22.4265 17.1029 22.6522 16.9467 22.8328C16.8047 22.9969 16.5893 23.1162 16.3417 23.1737V23.2226C16.3417 23.4128 16.1875 23.5666 15.9976 23.5666C15.8077 23.5666 15.6536 23.4125 15.6536 23.2226V23.1677C15.2565 23.0629 14.955 22.7792 14.8587 22.3928C14.8126 22.2086 14.9249 22.0217 15.1092 21.9756C15.2935 21.9296 15.4803 22.0418 15.5262 22.2261C15.5828 22.4529 15.8295 22.5276 16.022 22.5233C16.1915 22.5194 16.3576 22.4614 16.4259 22.3823C16.4464 22.3587 16.4642 22.3278 16.4565 22.2633C16.4485 22.1978 16.4298 22.0446 15.9441 21.9649C15.0954 21.8255 14.9459 21.3386 14.9326 21.0607C14.9111 20.6168 15.1978 20.2427 15.6536 20.1077V20.0462C15.6536 19.8561 15.8077 19.7022 15.9976 19.7022C16.1875 19.7022 16.3417 19.8563 16.3417 20.0462V20.1044C16.6345 20.1882 16.9062 20.3876 17.0536 20.7385C17.1272 20.9136 17.0447 21.1155 16.8695 21.1889C16.6946 21.2623 16.4927 21.18 16.4191 21.0048C16.3078 20.7394 16.0299 20.7249 15.8835 20.7583C15.8194 20.7728 15.6106 20.8353 15.6199 21.027C15.6223 21.0736 15.6291 21.2153 16.0556 21.2855C16.7161 21.3945 17.0809 21.6954 17.1399 22.1805Z" fill="#1D2939"/>
</svg>
