<svg width="24" height="24" viewBox="0 0 24 24" fill="none" xmlns="http://www.w3.org/2000/svg">
<path d="M9.38959 2.75H14.6201C15.0192 2.75002 15.3978 2.94265 15.6337 3.27148C15.8712 3.60252 15.9339 4.02463 15.8066 4.39941L15.8056 4.40137L14.8759 7.18164L14.6884 7.74023L15.2705 7.83398C16.927 8.0994 18.3585 9.11322 19.124 10.626L20.6943 13.7256L20.6962 13.7305C20.9285 14.1772 21.0847 14.6778 21.1777 15.1982L21.2275 15.4814C21.3857 16.8807 20.9607 18.2832 20.038 19.377C19.0338 20.5637 17.5542 21.2499 15.9804 21.25H8.03998C6.466 21.25 4.9857 20.5639 3.98139 19.377C2.99579 18.2084 2.57814 16.6871 2.83295 15.1943L2.83393 15.1895C2.91526 14.6834 3.07805 14.1931 3.31537 13.7275L3.31635 13.7256L4.88471 10.626L4.88568 10.627C5.6518 9.12207 7.08395 8.09919 8.7392 7.83398L9.32123 7.74023L9.13373 7.18164L8.20404 4.40137C8.07533 4.01465 8.13902 3.60183 8.37592 3.27148C8.61175 2.94275 8.99056 2.75013 9.38959 2.75ZM9.58002 8.24023C7.76544 8.24023 6.12055 9.23235 5.30365 10.8438L3.73432 13.9443L3.73236 13.9463C3.52037 14.3703 3.37507 14.8173 3.29682 15.2754V15.2773C3.07248 16.6234 3.454 18.0012 4.33686 19.0518L4.33783 19.0527C5.25443 20.137 6.59577 20.75 8.02045 20.75H15.9599C17.3845 20.75 18.725 20.1369 19.6415 19.0527L20.3378 18.2305H20.1708C20.6517 17.3298 20.8226 16.2934 20.6533 15.2773C20.5752 14.809 20.4285 14.3594 20.2138 13.9414L18.6464 10.8438C17.8295 9.23236 16.1846 8.24026 14.3701 8.24023H9.58002ZM9.37983 3.25C9.22559 3.25004 9.10138 3.3026 9.0185 3.34961H8.9101L8.75971 3.5498C8.66602 3.67473 8.54856 3.92529 8.65619 4.2373V4.23828L9.71576 7.4082L9.83002 7.75H14.1396L14.2538 7.4082L15.3144 4.23828L15.3124 4.2373C15.4203 3.92508 15.3036 3.67478 15.2099 3.5498C15.1282 3.44093 14.9371 3.25011 14.6103 3.25H9.37983Z" fill="#1D2939" stroke="#71808E"/>
</svg>
