<svg width="32" height="32" viewBox="0 0 32 32" fill="none" xmlns="http://www.w3.org/2000/svg">
<g opacity="0.5" clip-path="url(#clip0_14264_6230)">
<path d="M14.6667 15.2709C14.264 15.2709 13.9375 15.5974 13.9375 16.0001C13.9375 16.4028 14.264 16.7292 14.6667 16.7292V16.0001V15.2709ZM17.3334 16.7292C17.7361 16.7292 18.0625 16.4028 18.0625 16.0001C18.0625 15.5974 17.7361 15.2709 17.3334 15.2709V16.0001V16.7292ZM5.33337 8.00008V8.72925H26.6667V8.00008V7.27091H5.33337V8.00008ZM30.6667 12.0001H29.9375V25.3334H30.6667H31.3959V12.0001H30.6667ZM26.6667 29.3334V28.6042H5.33337V29.3334V30.0626H26.6667V29.3334ZM1.33337 25.3334H2.06254V12.0001H1.33337H0.604207V25.3334H1.33337ZM5.33337 29.3334V28.6042C3.52694 28.6042 2.06254 27.1398 2.06254 25.3334H1.33337H0.604207C0.604207 27.9453 2.72153 30.0626 5.33337 30.0626V29.3334ZM30.6667 25.3334H29.9375C29.9375 27.1398 28.4731 28.6042 26.6667 28.6042V29.3334V30.0626C29.2786 30.0626 31.3959 27.9453 31.3959 25.3334H30.6667ZM26.6667 8.00008V8.72925C28.4731 8.72925 29.9375 10.1937 29.9375 12.0001H30.6667H31.3959C31.3959 9.38824 29.2786 7.27091 26.6667 7.27091V8.00008ZM5.33337 8.00008V7.27091C2.72153 7.27091 0.604207 9.38824 0.604207 12.0001H1.33337H2.06254C2.06254 10.1937 3.52694 8.72925 5.33337 8.72925V8.00008ZM13.3334 2.66675V3.39591H18.6667V2.66675V1.93758H13.3334V2.66675ZM21.3334 5.33341H20.6042V8.00008H21.3334H22.0625V5.33341H21.3334ZM10.6667 8.00008H11.3959V5.33341H10.6667H9.93754V8.00008H10.6667ZM18.6667 2.66675V3.39591C19.7368 3.39591 20.6042 4.26336 20.6042 5.33341H21.3334H22.0625C22.0625 3.45795 20.5422 1.93758 18.6667 1.93758V2.66675ZM13.3334 2.66675V1.93758C11.4579 1.93758 9.93754 3.45795 9.93754 5.33341H10.6667H11.3959C11.3959 4.26336 12.2633 3.39591 13.3334 3.39591V2.66675ZM1.33337 18.6667C0.952008 19.2882 0.952202 19.2884 0.952421 19.2885C0.952527 19.2886 0.952772 19.2887 0.952984 19.2888C0.953409 19.2891 0.953934 19.2894 0.954559 19.2898C0.955808 19.2906 0.957454 19.2916 0.959496 19.2928C0.96358 19.2953 0.969246 19.2987 0.976476 19.3031C0.990934 19.3118 1.01165 19.3241 1.03847 19.3399C1.0921 19.3715 1.17018 19.4168 1.27149 19.4739C1.4741 19.5881 1.76981 19.7493 2.14904 19.9419C2.9072 20.3269 4.00099 20.8381 5.35356 21.3489C8.05429 22.3688 11.811 23.3959 16 23.3959V22.6667V21.9376C12.041 21.9376 8.46431 20.9647 5.86875 19.9846C4.57317 19.4954 3.52806 19.0066 2.80937 18.6416C2.45018 18.4592 2.17297 18.3079 1.98727 18.2033C1.89443 18.151 1.8245 18.1104 1.77867 18.0834C1.75576 18.0699 1.73887 18.0598 1.72817 18.0534C1.72282 18.0502 1.71901 18.0479 1.71676 18.0465C1.71564 18.0458 1.71491 18.0454 1.71457 18.0452C1.7144 18.0451 1.71433 18.045 1.71436 18.045C1.71437 18.045 1.71447 18.0451 1.71448 18.0451C1.7146 18.0452 1.71474 18.0453 1.33337 18.6667ZM16 22.6667V23.3959C20.1891 23.3959 23.9458 22.3688 26.6465 21.3489C27.9991 20.8381 29.0929 20.3269 29.851 19.9419C30.2303 19.7493 30.526 19.5881 30.7286 19.4739C30.8299 19.4168 30.908 19.3715 30.9616 19.3399C30.9884 19.3241 31.0091 19.3118 31.0236 19.3031C31.0308 19.2987 31.0365 19.2953 31.0406 19.2928C31.0426 19.2916 31.0443 19.2906 31.0455 19.2898C31.0461 19.2894 31.0467 19.2891 31.0471 19.2888C31.0473 19.2887 31.0476 19.2886 31.0477 19.2885C31.0479 19.2884 31.0481 19.2882 30.6667 18.6667C30.2853 18.0453 30.2855 18.0452 30.2856 18.0451C30.2856 18.0451 30.2857 18.045 30.2857 18.045C30.2858 18.045 30.2857 18.0451 30.2855 18.0452C30.2852 18.0454 30.2844 18.0458 30.2833 18.0465C30.2811 18.0479 30.2773 18.0502 30.2719 18.0534C30.2612 18.0598 30.2443 18.0699 30.2214 18.0834C30.1756 18.1104 30.1057 18.151 30.0128 18.2033C29.8271 18.3079 29.5499 18.4592 29.1907 18.6416C28.472 19.0066 27.4269 19.4954 26.1313 19.9846C23.5358 20.9647 19.9591 21.9376 16 21.9376V22.6667ZM14.6667 16.0001V16.7292H17.3334V16.0001V15.2709H14.6667V16.0001Z" fill="#EDEFF2"/>
</g>
<defs>
<clipPath id="clip0_14264_6230">
<rect width="32" height="32" fill="white"/>
</clipPath>
</defs>
</svg>
