<svg width="24" height="24" viewBox="0 0 24 24" fill="none" xmlns="http://www.w3.org/2000/svg">
<rect width="24" height="24" rx="12" fill="#F0F2F4"/>
<path fill-rule="evenodd" clip-rule="evenodd" d="M14.0268 6.701C14.7002 6.969 14.9062 7.90233 15.1815 8.20233C15.4568 8.50233 15.8508 8.60433 16.0688 8.60433C17.2275 8.60433 18.1668 9.54367 18.1668 10.7017V14.565C18.1668 16.1183 16.9068 17.3783 15.3535 17.3783H8.64683C7.09283 17.3783 5.8335 16.1183 5.8335 14.565V10.7017C5.8335 9.54367 6.77283 8.60433 7.9315 8.60433C8.14883 8.60433 8.54283 8.50233 8.81883 8.20233C9.09416 7.90233 9.2995 6.969 9.97283 6.701C10.6468 6.433 13.3535 6.433 14.0268 6.701Z" stroke="#71808E" stroke-linecap="round" stroke-linejoin="round"/>
<path d="M15.6636 10.3333H15.6696" stroke="#71808E" stroke-width="1.33333" stroke-linecap="round" stroke-linejoin="round"/>
<path fill-rule="evenodd" clip-rule="evenodd" d="M14.1193 12.7521C14.1193 11.5815 13.1707 10.6328 12 10.6328C10.8293 10.6328 9.88068 11.5815 9.88068 12.7521C9.88068 13.9228 10.8293 14.8715 12 14.8715C13.1707 14.8715 14.1193 13.9228 14.1193 12.7521Z" stroke="#71808E" stroke-linecap="round" stroke-linejoin="round"/>
</svg>
