<svg width="56" height="56" viewBox="0 0 56 56" fill="none" xmlns="http://www.w3.org/2000/svg">
<g clip-path="url(#clip0_14637_31864)">
<path d="M28 56C43.464 56 56 43.464 56 28C56 12.536 43.464 0 28 0C12.536 0 0 12.536 0 28C0 43.464 12.536 56 28 56Z" fill="#039855"/>
<path d="M28 10.0625C18.1037 10.0625 10.0625 18.1037 10.0625 28C10.0625 37.8875 18.1037 45.9375 28 45.9375C37.8875 45.9375 45.9375 37.8875 45.9375 28C45.9375 18.1037 37.8875 10.0625 28 10.0625ZM37.0213 24.0188L26.6612 34.37C26.3462 34.6937 25.9175 34.8687 25.4625 34.8687C25.0075 34.8687 24.5875 34.6937 24.2638 34.37L18.9788 29.085C18.7411 28.8486 18.5792 28.5469 18.5135 28.2183C18.4478 27.8896 18.4813 27.5488 18.6098 27.2393C18.7384 26.9297 18.956 26.6654 19.2352 26.4799C19.5143 26.2944 19.8423 26.1961 20.1775 26.1975C20.6325 26.1975 21.0525 26.3725 21.3763 26.6875L25.4713 30.7825L34.6237 21.63C34.7807 21.4718 34.9675 21.3462 35.1732 21.2605C35.379 21.1749 35.5996 21.1307 35.8225 21.1307C36.0454 21.1307 36.266 21.1749 36.4718 21.2605C36.6775 21.3462 36.8643 21.4718 37.0213 21.63C37.3363 21.945 37.52 22.3737 37.52 22.8288C37.52 23.275 37.3363 23.695 37.0213 24.0188Z" fill="white"/>
</g>
<defs>
<clipPath id="clip0_14637_31864">
<rect width="56" height="56" fill="white"/>
</clipPath>
</defs>
</svg>
