<svg width="28" height="28" viewBox="0 0 28 28" fill="none" xmlns="http://www.w3.org/2000/svg">
<rect x="1.80005" y="1.7998" width="24" height="24" rx="12" fill="#FEF3F2"/>
<rect x="1.80005" y="1.7998" width="24" height="24" rx="12" stroke="#FEE4E2" stroke-width="3.6"/>
<path d="M18.3 10.2998C18.3 11.1282 16.2853 11.7998 13.8 11.7998C11.3148 11.7998 9.30005 11.1282 9.30005 10.2998M18.3 10.2998C18.3 9.47138 16.2853 8.7998 13.8 8.7998C11.3148 8.7998 9.30005 9.47138 9.30005 10.2998M18.3 10.2998V17.2998C18.3 18.1298 16.3 18.7998 13.8 18.7998C11.3 18.7998 9.30005 18.1298 9.30005 17.2998V10.2998M18.3 13.7998C18.3 14.6298 16.3 15.2998 13.8 15.2998C11.3 15.2998 9.30005 14.6298 9.30005 13.7998" stroke="#F04438" stroke-width="1.2" stroke-linecap="round" stroke-linejoin="round"/>
</svg>
