<svg width="28" height="28" viewBox="0 0 28 28" fill="none" xmlns="http://www.w3.org/2000/svg">
<rect x="1.80005" y="1.7998" width="24" height="24" rx="12" fill="#E6E8ED"/>
<rect x="1.80005" y="1.7998" width="24" height="24" rx="12" stroke="#99A0B6" stroke-width="3.6"/>
<path d="M14.8 8.7998H10.8C10.5348 8.7998 10.2805 8.90516 10.0929 9.0927C9.90541 9.28023 9.80005 9.53459 9.80005 9.7998V17.7998C9.80005 18.065 9.90541 18.3194 10.0929 18.5069C10.2805 18.6944 10.5348 18.7998 10.8 18.7998H16.8C17.0653 18.7998 17.3196 18.6944 17.5072 18.5069C17.6947 18.3194 17.8 18.065 17.8 17.7998V11.7998M14.8 8.7998L17.8 11.7998M14.8 8.7998V11.7998H17.8M15.8 14.2998H11.8M15.8 16.2998H11.8M12.8 12.2998H11.8" stroke="#06184D" stroke-width="1.2" stroke-linecap="round" stroke-linejoin="round"/>
</svg>
