<svg width="24" height="24" viewBox="0 0 24 24" fill="none" xmlns="http://www.w3.org/2000/svg">
<path d="M19.8348 3H6.94269C5.82383 3 4.91358 3.90182 4.91358 5.00652L4.83044 16.3587H2.31448C2.13617 16.3587 2 16.5165 2 16.6948V18.257C2 19.7195 3.1704 20.9156 4.58296 20.9812V21H15.4395V20.9789C15.5202 20.9822 15.5691 21 15.6246 21H15.6322C16.3557 20.9958 17.0479 20.7044 17.5567 20.19C18.0655 19.6756 18.3491 18.9802 18.3453 18.2567V8.32735H21.6227C21.801 8.32735 21.9372 8.16592 21.9372 7.98774V5.12117C21.9382 4.56155 21.7176 4.02429 21.3237 3.62682C20.9297 3.22935 20.3944 3.00399 19.8348 3ZM4.72422 20.3543H4.722C3.57359 20.3543 2.64574 19.405 2.64574 18.2567V17.0045H12.8969V18.2513C12.8956 18.6112 12.9655 18.9677 13.1023 19.3005C13.2392 19.6332 13.4405 19.9357 13.6945 20.1905C13.7492 20.2454 13.8062 20.2735 13.8646 20.3543H4.72422ZM17.6996 18.2564C17.6996 19.4051 16.7807 20.3543 15.6319 20.3543H15.6251C15.0705 20.3502 14.5401 20.1268 14.1499 19.7327C13.7596 19.3387 13.5413 18.8062 13.5426 18.2516V16.6948C13.5431 16.6078 13.5096 16.524 13.4493 16.4613C13.389 16.3985 13.3067 16.3618 13.2197 16.3587H5.47622L5.55932 5.00886C5.55932 4.25786 6.17987 3.64574 6.94269 3.64574H18.3105C17.9426 4.04933 17.6996 4.55999 17.6996 5.12981V18.2564ZM21.2915 5.12691V7.68161H18.3453V5.12929C18.3453 4.3211 19.0176 3.64574 19.8252 3.64574H19.8343C20.2233 3.64959 20.595 3.8073 20.868 4.08439C21.1411 4.36148 21.2933 4.73542 21.2915 5.12444V5.12691Z" fill="#71808E"/>
<path d="M9.58171 10.9461L11.2463 12.0843C11.2994 12.1208 11.3623 12.1404 11.4267 12.1404C11.4912 12.1404 11.5541 12.1208 11.6072 12.0843L13.2668 10.9464C13.8433 10.5531 14.2691 9.73075 14.2691 9.03355V6.7308C14.2708 6.67115 14.2555 6.61225 14.225 6.56095C14.1945 6.50965 14.1501 6.46805 14.0969 6.44098L11.5624 5.19414C11.5185 5.17243 11.4702 5.16113 11.4213 5.16113C11.3723 5.16113 11.324 5.17243 11.2802 5.19414L8.7504 6.43747C8.69721 6.46454 8.65281 6.50616 8.62238 6.5575C8.59195 6.60883 8.57673 6.66776 8.57851 6.72741V9.03355C8.57851 9.73075 9.0053 10.5531 9.58171 10.9461ZM9.22425 6.9288L11.4238 5.84351L13.6234 6.93191V9.03355C13.6234 9.51983 13.3045 10.1385 12.9025 10.4126L11.4201 11.4265L9.94344 10.4128C9.54135 10.1384 9.22425 9.51983 9.22425 9.03355V6.9288Z" fill="#71808E"/>
<path d="M10.8777 9.52314C10.9075 9.55358 10.9431 9.57781 10.9823 9.59443C11.0216 9.61106 11.0637 9.61975 11.1063 9.62001H11.1071C11.1929 9.61961 11.275 9.58525 11.3355 9.52444L12.6198 8.23953C12.6804 8.17898 12.7145 8.09683 12.7145 8.01115C12.7146 7.92548 12.6806 7.8433 12.62 7.78269C12.5595 7.72209 12.4773 7.68802 12.3916 7.68799C12.306 7.68795 12.2238 7.72196 12.1632 7.78251L11.1082 8.83745L10.6865 8.41154C10.6262 8.3507 10.5442 8.3163 10.4585 8.31593C10.3728 8.31556 10.2905 8.34923 10.2297 8.40955C10.1688 8.46986 10.1344 8.55188 10.134 8.63755C10.1337 8.72323 10.1673 8.80554 10.2277 8.86639L10.8777 9.52314ZM15.4395 13.0101H7.69067C7.60504 13.0101 7.52291 13.0442 7.46236 13.1047C7.40181 13.1653 7.3678 13.2474 7.3678 13.333C7.3678 13.4186 7.40181 13.5008 7.46236 13.5613C7.52291 13.6219 7.60504 13.6559 7.69067 13.6559H15.4395C15.5252 13.6559 15.6073 13.6219 15.6679 13.5613C15.7284 13.5008 15.7624 13.4186 15.7624 13.333C15.7624 13.2474 15.7284 13.1653 15.6679 13.1047C15.6073 13.0442 15.5252 13.0101 15.4395 13.0101ZM15.4395 14.5034H7.69067C7.60504 14.5034 7.52291 14.5374 7.46236 14.598C7.40181 14.6585 7.3678 14.7407 7.3678 14.8263C7.3678 14.9119 7.40181 14.994 7.46236 15.0546C7.52291 15.1151 7.60504 15.1492 7.69067 15.1492H15.4395C15.5252 15.1492 15.6073 15.1151 15.6679 15.0546C15.7284 14.994 15.7624 14.9119 15.7624 14.8263C15.7624 14.7407 15.7284 14.6585 15.6679 14.598C15.6073 14.5374 15.5252 14.5034 15.4395 14.5034Z" fill="#71808E"/>
</svg>
