<svg width="32" height="32" viewBox="0 0 32 32" fill="none" xmlns="http://www.w3.org/2000/svg">
<path d="M23.4676 5.33301C21.7033 5.33301 20.2676 6.76874 20.2676 8.53301C20.2676 10.2973 21.7033 11.733 23.4676 11.733C25.2318 11.733 26.6676 10.2973 26.6676 8.53301C26.6676 6.76874 25.2318 5.33301 23.4676 5.33301ZM22.1069 10.6144C22.1627 10.3499 22.2886 10.1074 22.4806 9.91292C22.7522 9.64447 23.1102 9.49656 23.4893 9.49656C24.1492 9.49656 24.7159 9.96056 24.8642 10.592C24.4656 10.863 23.9849 11.0219 23.4676 11.0219C22.9655 11.0219 22.4983 10.8711 22.1069 10.6144ZM22.7778 8.07434C22.7778 7.68216 23.0967 7.36323 23.4889 7.36323C23.8811 7.36323 24.2 7.68216 24.2 8.07434C24.2 8.46652 23.8811 8.78545 23.4889 8.78545C23.0967 8.78545 22.7778 8.46652 22.7778 8.07434ZM25.4292 10.0594C25.2393 9.63167 24.9172 9.28039 24.5133 9.05639C24.7586 8.80074 24.9111 8.4555 24.9111 8.07434C24.9111 7.28999 24.2733 6.65212 23.4889 6.65212C22.7046 6.65212 22.0667 7.28999 22.0667 8.07434C22.0667 8.45301 22.2178 8.79541 22.4596 9.05034C22.2857 9.14634 22.1229 9.26581 21.9771 9.41016C21.7808 9.60927 21.6343 9.8411 21.5298 10.0911C21.186 9.66439 20.9787 9.12287 20.9787 8.53301C20.9787 7.16056 22.0951 6.04412 23.4676 6.04412C24.84 6.04412 25.9565 7.16056 25.9565 8.53301C25.9565 9.1083 25.7584 9.63736 25.4292 10.0594Z" fill="#1D2939"/>
<path d="M23.4676 20.2666C21.7033 20.2666 20.2676 21.7023 20.2676 23.4666C20.2676 25.2309 21.7033 26.6666 23.4676 26.6666C25.2318 26.6666 26.6676 25.2309 26.6676 23.4666C26.6676 21.7023 25.2318 20.2666 23.4676 20.2666ZM22.1069 25.548C22.1627 25.2835 22.2886 25.041 22.4806 24.8465C22.7522 24.5781 23.1102 24.4302 23.4893 24.4302C24.1492 24.4302 24.7159 24.8942 24.8642 25.5256C24.4656 25.7966 23.9849 25.9555 23.4676 25.9555C22.9655 25.9555 22.4983 25.8047 22.1069 25.548ZM22.7778 23.0079C22.7778 22.6158 23.0967 22.2968 23.4889 22.2968C23.8811 22.2968 24.2 22.6158 24.2 23.0079C24.2 23.4001 23.8811 23.719 23.4889 23.719C23.0967 23.719 22.7778 23.4001 22.7778 23.0079ZM25.4292 24.993C25.2393 24.5653 24.9172 24.214 24.5133 23.99C24.7586 23.7343 24.9111 23.3891 24.9111 23.0079C24.9111 22.2236 24.2733 21.5857 23.4889 21.5857C22.7046 21.5857 22.0667 22.2236 22.0667 23.0079C22.0667 23.3866 22.2178 23.729 22.4596 23.9839C22.2857 24.0799 22.1229 24.1994 21.9771 24.3438C21.7808 24.5429 21.6343 24.7747 21.5298 25.0246C21.186 24.598 20.9787 24.0565 20.9787 23.4666C20.9787 22.0942 22.0951 20.9777 23.4676 20.9777C24.84 20.9777 25.9565 22.0942 25.9565 23.4666C25.9565 24.0419 25.7584 24.571 25.4292 24.993Z" fill="black"/>
<path d="M11.7335 8.53301C11.7335 6.76874 10.2978 5.33301 8.5335 5.33301C6.76923 5.33301 5.3335 6.76874 5.3335 8.53301C5.3335 10.2973 6.76923 11.733 8.5335 11.733C10.2978 11.733 11.7335 10.2973 11.7335 8.53301ZM7.17278 10.6144C7.22861 10.3499 7.35447 10.1074 7.54647 9.91292C7.81812 9.64447 8.17616 9.49656 8.55519 9.49656C9.2151 9.49656 9.78185 9.96056 9.93012 10.592C9.53154 10.863 9.05083 11.0219 8.5335 11.0219C8.03145 11.0219 7.56425 10.8711 7.17278 10.6144ZM7.84372 8.07434C7.84372 7.68216 8.16265 7.36323 8.55483 7.36323C8.94701 7.36323 9.26594 7.68216 9.26594 8.07434C9.26594 8.46652 8.94701 8.78545 8.55483 8.78545C8.16265 8.78545 7.84372 8.46652 7.84372 8.07434ZM6.04461 8.53301C6.04461 7.16056 7.16105 6.04412 8.5335 6.04412C9.90594 6.04412 11.0224 7.16056 11.0224 8.53301C11.0224 9.1083 10.8243 9.63736 10.4951 10.0594C10.3052 9.63167 9.9831 9.28039 9.57919 9.05639C9.82452 8.80074 9.97705 8.4555 9.97705 8.07434C9.97705 7.28999 9.33919 6.65212 8.55483 6.65212C7.77047 6.65212 7.13261 7.28999 7.13261 8.07434C7.13261 8.45301 7.28372 8.79541 7.5255 9.05034C7.35163 9.14634 7.18879 9.26581 7.04301 9.41016C6.84674 9.60927 6.70025 9.8411 6.59572 10.0911C6.2519 9.66439 6.04461 9.12287 6.04461 8.53301Z" fill="black"/>
<path d="M8.5335 26.6666C10.2978 26.6666 11.7335 25.2309 11.7335 23.4666C11.7335 21.7023 10.2978 20.2666 8.5335 20.2666C6.76923 20.2666 5.3335 21.7023 5.3335 23.4666C5.3335 25.2309 6.76923 26.6666 8.5335 26.6666ZM7.17278 25.548C7.22861 25.2835 7.35447 25.041 7.54647 24.8465C7.81812 24.5781 8.17616 24.4302 8.55519 24.4302C9.2151 24.4302 9.78185 24.8942 9.93012 25.5256C9.53154 25.7966 9.05083 25.9555 8.5335 25.9555C8.03145 25.9555 7.56425 25.8047 7.17278 25.548ZM7.84372 23.0079C7.84372 22.6158 8.16265 22.2968 8.55483 22.2968C8.94701 22.2968 9.26594 22.6158 9.26594 23.0079C9.26594 23.4001 8.94701 23.719 8.55483 23.719C8.16265 23.719 7.84372 23.4001 7.84372 23.0079ZM8.5335 20.9777C9.90594 20.9777 11.0224 22.0942 11.0224 23.4666C11.0224 24.0419 10.8243 24.571 10.4951 24.993C10.3052 24.5653 9.9831 24.214 9.57919 23.99C9.82452 23.7343 9.97705 23.3891 9.97705 23.0079C9.97705 22.2236 9.33919 21.5857 8.55483 21.5857C7.77047 21.5857 7.13261 22.2236 7.13261 23.0079C7.13261 23.3866 7.28372 23.729 7.5255 23.9839C7.35163 24.0799 7.18879 24.1994 7.04301 24.3438C6.84674 24.5429 6.70025 24.7747 6.59572 25.0246C6.2519 24.598 6.04461 24.0565 6.04461 23.4666C6.04461 22.0942 7.16105 20.9777 8.5335 20.9777Z" fill="black"/>
<path d="M19.4134 8.17604L19.6978 7.5243C18.5294 7.01373 17.2854 6.75488 16 6.75488C14.7147 6.75488 13.4706 7.01373 12.3022 7.5243L12.5867 8.17604C13.6651 7.70493 14.8135 7.46599 16 7.46599C17.1865 7.46599 18.335 7.70493 19.4134 8.17604Z" fill="black"/>
<path d="M7.52577 12.3018C7.01519 13.4701 6.75635 14.7142 6.75635 15.9995C6.75635 17.2589 7.00524 18.4802 7.49626 19.6287L8.15013 19.3492C7.69715 18.2893 7.46746 17.1626 7.46746 15.9995C7.46746 14.813 7.70639 13.6646 8.1775 12.5862L7.52577 12.3018Z" fill="black"/>
<path d="M19.3502 23.8516C18.2906 24.3042 17.1639 24.5339 16.0009 24.5339C14.8378 24.5339 13.7111 24.3042 12.6515 23.8516L12.3721 24.5054C13.5205 24.9961 14.7415 25.245 16.0009 25.245C17.2602 25.245 18.4812 24.9961 19.63 24.5054L19.3502 23.8516Z" fill="black"/>
<path d="M24.5053 19.6287C24.996 18.4799 25.2449 17.2589 25.2449 15.9995C25.2449 14.7142 24.986 13.4701 24.4755 12.3018L23.8237 12.5862C24.2948 13.6642 24.5338 14.8127 24.5338 15.9995C24.5338 17.1626 24.3041 18.2893 23.8515 19.3489L24.5053 19.6287Z" fill="black"/>
<path d="M20.6232 19.2006V16.3561H20.9787C21.1021 16.3561 21.2162 16.2921 21.2813 16.1876C21.346 16.0827 21.3521 15.9519 21.297 15.8417L20.5858 14.4194C20.5254 14.2989 20.4024 14.2228 20.2676 14.2228H18.4898V12.0895C18.4898 11.8932 18.3306 11.7339 18.1343 11.7339H17.4232V10.6673C17.4232 10.471 17.2639 10.3117 17.0676 10.3117H16.3565V9.60059H15.6454V10.3117H14.9343C14.738 10.3117 14.5787 10.471 14.5787 10.6673V11.7339H13.8676C13.6714 11.7339 13.5121 11.8932 13.5121 12.0895V14.2228H11.7343C11.5995 14.2228 11.4765 14.2989 11.4161 14.4194L10.705 15.8417C10.6498 15.9519 10.6559 16.0827 10.7206 16.1876C10.7857 16.2921 10.8998 16.3561 11.0232 16.3561H11.3787V19.2006C11.3787 19.3969 11.538 19.5561 11.7343 19.5561H13.5121C13.5121 19.7524 13.6714 19.9117 13.8676 19.9117H18.1343C18.3306 19.9117 18.4898 19.7524 18.4898 19.5561H20.2676C20.4639 19.5561 20.6232 19.3969 20.6232 19.2006ZM11.954 14.9339H13.5121V15.645H11.5985L11.954 14.9339ZM12.0898 18.845V16.3561H13.5121V18.845H12.0898ZM15.2898 11.0228H16.7121V11.7339H15.2898V11.0228ZM16.3565 19.2006H15.6454V18.1339C15.6454 17.938 15.805 17.7784 16.001 17.7784C16.1969 17.7784 16.3565 17.938 16.3565 18.1339V19.2006ZM17.7787 19.2006H17.0676V18.1339C17.0676 17.5458 16.589 17.0673 16.001 17.0673C15.4129 17.0673 14.9343 17.5458 14.9343 18.1339V19.2006H14.2232V12.445H17.7787V19.2006ZM20.0479 14.9339L20.4034 15.645H18.4898V14.9339H20.0479ZM18.4898 18.845V16.3561H19.9121V18.845H18.4898Z" fill="black"/>
<path d="M15.6447 13.1562H14.9336V13.8674H15.6447V13.1562Z" fill="black"/>
<path d="M15.6447 14.5781H14.9336V15.2892H15.6447V14.5781Z" fill="black"/>
<path d="M15.6447 16H14.9336V16.7111H15.6447V16Z" fill="black"/>
<path d="M17.0676 13.1562H16.3564V13.8674H17.0676V13.1562Z" fill="black"/>
<path d="M17.0676 14.5781H16.3564V15.2892H17.0676V14.5781Z" fill="black"/>
<path d="M17.0676 16H16.3564V16.7111H17.0676V16Z" fill="black"/>
<path d="M19.5553 17.0664H18.8442V17.7775H19.5553V17.0664Z" fill="black"/>
<path d="M13.1554 17.0664H12.4443V17.7775H13.1554V17.0664Z" fill="black"/>
</svg>
