<svg width="48" height="48" viewBox="0 0 48 48" fill="none" xmlns="http://www.w3.org/2000/svg">
<rect width="48" height="48" rx="16" fill="#E8F8F5"/>
<path d="M23 23.5C22.7239 23.5 22.5 23.7239 22.5 24C22.5 24.2761 22.7239 24.5 23 24.5V24V23.5ZM25 24.5C25.2761 24.5 25.5 24.2761 25.5 24C25.5 23.7239 25.2761 23.5 25 23.5V24V24.5ZM16 18V18.5H32V18V17.5H16V18ZM35 21H34.5V31H35H35.5V21H35ZM32 34V33.5H16V34V34.5H32V34ZM13 31H13.5V21H13H12.5V31H13ZM16 34V33.5C14.6193 33.5 13.5 32.3807 13.5 31H13H12.5C12.5 32.933 14.067 34.5 16 34.5V34ZM35 31H34.5C34.5 32.3807 33.3807 33.5 32 33.5V34V34.5C33.933 34.5 35.5 32.933 35.5 31H35ZM32 18V18.5C33.3807 18.5 34.5 19.6193 34.5 21H35H35.5C35.5 19.067 33.933 17.5 32 17.5V18ZM16 18V17.5C14.067 17.5 12.5 19.067 12.5 21H13H13.5C13.5 19.6193 14.6193 18.5 16 18.5V18ZM22 14V14.5H26V14V13.5H22V14ZM28 16H27.5V18H28H28.5V16H28ZM20 18H20.5V16H20H19.5V18H20ZM26 14V14.5C26.8284 14.5 27.5 15.1716 27.5 16H28H28.5C28.5 14.6193 27.3807 13.5 26 13.5V14ZM22 14V13.5C20.6193 13.5 19.5 14.6193 19.5 16H20H20.5C20.5 15.1716 21.1716 14.5 22 14.5V14ZM13 26C12.7385 26.4262 12.7386 26.4262 12.7388 26.4263C12.7389 26.4264 12.739 26.4265 12.7392 26.4266C12.7395 26.4268 12.7399 26.427 12.7403 26.4273C12.7412 26.4278 12.7424 26.4286 12.7439 26.4295C12.7469 26.4313 12.7511 26.4338 12.7565 26.4371C12.7672 26.4435 12.7826 26.4527 12.8026 26.4645C12.8426 26.488 12.9009 26.5219 12.9766 26.5645C13.128 26.6498 13.3492 26.7704 13.633 26.9146C14.2003 27.2027 15.0191 27.5854 16.0317 27.9678C18.0539 28.7314 20.8656 29.5 24 29.5V29V28.5C21.0233 28.5 18.335 27.7686 16.385 27.0322C15.4115 26.6646 14.6261 26.2973 14.0858 26.0229C13.8157 25.8858 13.6072 25.772 13.4674 25.6933C13.3975 25.6539 13.3448 25.6233 13.3102 25.6029C13.2929 25.5927 13.2801 25.585 13.2719 25.5801C13.2679 25.5777 13.2649 25.5759 13.2632 25.5749C13.2623 25.5743 13.2618 25.574 13.2615 25.5738C13.2613 25.5737 13.2613 25.5737 13.2613 25.5737C13.2613 25.5737 13.2613 25.5737 13.2613 25.5737C13.2614 25.5738 13.2615 25.5738 13 26ZM24 29V29.5C27.1344 29.5 29.9461 28.7314 31.9683 27.9678C32.9809 27.5854 33.7997 27.2027 34.367 26.9146C34.6508 26.7704 34.872 26.6498 35.0234 26.5645C35.0991 26.5219 35.1574 26.488 35.1974 26.4645C35.2174 26.4527 35.2328 26.4435 35.2435 26.4371C35.2489 26.4338 35.2531 26.4313 35.2561 26.4295C35.2576 26.4286 35.2588 26.4278 35.2597 26.4273C35.2601 26.427 35.2605 26.4268 35.2608 26.4266C35.261 26.4265 35.2611 26.4264 35.2612 26.4263C35.2614 26.4262 35.2615 26.4262 35 26C34.7385 25.5738 34.7386 25.5738 34.7387 25.5737C34.7387 25.5737 34.7387 25.5737 34.7387 25.5737C34.7387 25.5737 34.7387 25.5737 34.7385 25.5738C34.7382 25.574 34.7377 25.5743 34.7368 25.5749C34.7351 25.5759 34.7321 25.5777 34.7281 25.5801C34.7199 25.585 34.7071 25.5927 34.6898 25.6029C34.6552 25.6233 34.6025 25.6539 34.5326 25.6933C34.3928 25.772 34.1843 25.8858 33.9142 26.0229C33.3739 26.2973 32.5885 26.6646 31.615 27.0322C29.665 27.7686 26.9767 28.5 24 28.5V29ZM23 24V24.5H25V24V23.5H23V24Z" fill="#15B79E"/>
</svg>
