<svg width="165" height="141" viewBox="0 0 165 141" fill="none" xmlns="http://www.w3.org/2000/svg">
<path d="M84.2157 112.96C110.019 112.96 130.99 91.9887 130.99 66.1857C130.99 40.3826 110.019 19.4116 84.2157 19.4116C58.316 19.4116 37.4417 40.286 37.4417 66.1857C37.4417 91.9887 58.316 112.96 84.2157 112.96Z" fill="#EAEEF9"/>
<path d="M54.7845 53.3994H111.325C113.443 53.3994 115.348 55.1994 115.348 57.4229V93.1048C115.348 95.2225 113.549 97.1283 111.325 97.1283H54.7845C52.6668 97.1283 50.761 95.3284 50.761 93.1048V57.4229C50.761 55.1994 52.6668 53.3994 54.7845 53.3994Z" fill="url(#paint0_linear_14626_35807)"/>
<path d="M138.625 54.4921C140.074 53.1392 140.171 50.9164 138.818 49.4668C137.465 48.0172 135.242 47.9206 133.793 49.2735C132.343 50.6265 132.246 52.8492 133.599 54.2989C134.856 55.6518 137.175 55.8451 138.625 54.4921Z" fill="#EAEEF9"/>
<path d="M138.818 38.5464C139.398 37.9665 139.494 37.0001 138.914 36.4203C138.334 35.8404 137.368 35.7438 136.788 36.3237C136.208 36.9035 136.112 37.8699 136.692 38.4497C137.271 39.1262 138.238 39.1262 138.818 38.5464Z" fill="#EAEEF9"/>
<path d="M100.838 16.6092C101.225 16.2227 101.321 15.5462 100.935 15.1596C100.548 14.7731 99.8716 14.6764 99.4851 15.063C99.0985 15.4495 99.0019 16.126 99.3884 16.5126C99.775 16.8992 100.451 16.9958 100.838 16.6092Z" fill="#EAEEF9"/>
<g filter="url(#filter0_d_14626_35807)">
<path d="M135.889 34.5527L121.807 59.6465C121.278 60.4936 120.219 60.8112 119.478 60.2818L95.3367 46.1996C94.4897 45.6702 94.172 44.6114 94.7014 43.8702L113.231 11.8941C113.76 11.0471 114.819 10.7294 115.56 11.2588L133.03 21.4234L135.889 34.5527Z" fill="#F2F6FA"/>
</g>
<path d="M133.03 21.4233L129.007 28.1997C128.478 29.2585 128.795 30.3174 129.748 30.9526L135.783 34.4467" fill="#D5DAE6"/>
<path d="M116.407 27.9882C116.831 27.8823 117.254 27.8823 117.572 27.8823C117.995 27.8823 118.419 27.8823 118.842 27.8823C119.266 27.9882 119.795 28.0941 120.219 28.2C120.748 28.4117 121.172 28.6235 121.595 28.8353C122.231 29.1529 122.76 29.5764 123.184 30.1058C123.607 30.5294 123.925 31.0588 124.137 31.694C124.348 32.2235 124.348 32.8587 124.348 33.3881C124.242 34.0234 124.031 34.6587 123.713 35.1881C123.395 35.7175 123.078 36.1411 122.654 36.5646C122.231 36.8822 121.913 37.094 121.384 37.3057C120.96 37.5175 120.537 37.6234 120.113 37.6234L118.948 37.7293C118.631 37.7293 118.313 37.8352 117.89 37.941C117.572 38.0469 117.36 38.1528 117.148 38.3646L115.984 39.8469L114.078 38.7881L114.925 36.8822C115.031 36.5646 115.348 36.2469 115.56 36.0352C115.878 35.8234 116.195 35.7175 116.513 35.6116C116.937 35.5058 117.254 35.5058 117.678 35.3999C118.101 35.3999 118.525 35.294 118.948 35.1881C119.372 35.0822 119.689 34.9764 120.113 34.7646C120.537 34.5528 120.748 34.2352 120.96 33.8117C121.066 33.5999 121.172 33.2823 121.278 32.9646C121.278 32.647 121.278 32.4352 121.172 32.2235C121.066 31.9058 120.96 31.694 120.748 31.4823C120.537 31.2705 120.325 31.0588 120.007 30.847C119.689 30.6352 119.266 30.4235 118.842 30.3176C118.525 30.2117 118.207 30.2117 117.89 30.2117C117.572 30.2117 117.36 30.2117 117.148 30.2117C117.042 30.2117 116.831 30.2117 116.725 30.1058C116.513 29.9999 116.301 29.6823 116.301 29.4705L116.407 27.9882ZM111.007 41.9645C111.113 41.7528 111.325 41.541 111.537 41.3292C111.748 41.2233 111.96 41.0116 112.172 41.0116C112.701 40.9057 113.231 40.9057 113.654 41.2234C113.866 41.3292 114.078 41.541 114.29 41.7528C114.395 41.9645 114.501 42.1763 114.607 42.388C114.925 43.4469 114.29 44.3998 113.231 44.7174C112.701 44.8233 112.172 44.7174 111.748 44.5057C111.537 44.3998 111.325 44.188 111.113 43.9763C111.007 43.7645 110.795 43.5527 110.795 43.341C110.69 43.1292 110.69 42.8116 110.795 42.5998C110.795 42.388 110.901 42.1763 111.007 41.9645Z" fill="#CED6E2"/>
<g filter="url(#filter1_d_14626_35807)">
<path d="M45.3609 23.647L61.4549 40.4821C61.9843 41.1174 61.9843 41.9644 61.349 42.4939L44.9374 58.0584C44.3021 58.5878 43.4551 58.5878 42.9257 57.9525L22.3847 36.2469C21.8553 35.6116 21.8553 34.7645 22.4906 34.2351L34.4552 23.0117L45.3609 23.647Z" fill="#F2F6FA"/>
</g>
<path d="M34.3494 22.7998L38.7964 27.4586C39.4317 28.0939 40.4905 28.0939 41.1258 27.4586L45.2551 23.541" fill="#D5DAE6"/>
<path d="M35.6199 37.3054C35.6199 36.9878 35.7258 36.6702 35.8316 36.3525C35.9375 36.0349 36.0434 35.7172 36.1493 35.3996C36.2552 35.0819 36.4669 34.7643 36.6787 34.4466C36.8904 34.129 37.2081 33.8114 37.5257 33.4937C37.9493 33.0702 38.3728 32.7525 38.9022 32.5408C39.3257 32.329 39.8551 32.2231 40.2786 32.2231C40.7022 32.2231 41.2316 32.329 41.6551 32.4349C42.0786 32.6467 42.5021 32.9643 42.9257 33.282C43.2433 33.5996 43.561 34.0231 43.6668 34.4466C43.7727 34.7643 43.8786 35.1878 43.9845 35.6113C43.9845 35.929 43.9845 36.3525 43.9845 36.6702C43.8786 36.9878 43.8786 37.3054 43.7727 37.6231C43.7727 37.9407 43.6668 38.1525 43.6668 38.4701C43.6668 38.6819 43.6668 38.8937 43.8786 39.1054L44.7257 40.376L43.4551 41.5407L42.1845 40.376C41.9727 40.1642 41.761 39.9525 41.6551 39.6348C41.5492 39.3172 41.5492 39.1054 41.5492 38.7878C41.5492 38.4701 41.6551 38.1525 41.6551 37.8348C41.761 37.5172 41.761 37.1996 41.761 36.8819C41.761 36.5643 41.761 36.2466 41.6551 35.929C41.5492 35.6113 41.3375 35.2937 41.1257 34.9761C41.0198 34.7643 40.8081 34.6584 40.5963 34.5525C40.3845 34.4466 40.1728 34.4466 39.961 34.4466C39.7492 34.4466 39.5375 34.5525 39.3257 34.6584C39.114 34.7643 38.9022 34.8702 38.6904 35.0819C38.4787 35.2937 38.2669 35.6113 38.0551 35.8231C37.9493 36.0349 37.8434 36.2466 37.7375 36.5643C37.6316 36.776 37.6316 36.9878 37.6316 37.0937C37.6316 37.1996 37.5257 37.3054 37.4199 37.4113C37.314 37.6231 36.9963 37.6231 36.7846 37.5172L35.6199 37.3054ZM45.3609 44.7171C45.2551 44.6112 45.1492 44.3995 45.0433 44.1877C44.9374 43.976 44.9374 43.7642 44.9374 43.5524C44.9374 43.1289 45.1492 42.7054 45.4668 42.3877C45.5727 42.2819 45.7845 42.176 45.9962 42.0701C46.208 41.9642 46.4198 41.9642 46.6315 41.9642C47.2668 41.9642 47.9021 42.3877 48.1139 43.023C48.2197 43.2348 48.2197 43.4465 48.2197 43.6583C48.2197 43.8701 48.1139 44.0818 48.1139 44.2936C48.008 44.5054 47.9021 44.6112 47.6903 44.823C47.5844 44.9289 47.3727 45.1406 47.1609 45.1406C46.7374 45.2465 46.3139 45.2465 45.9962 45.1406C45.6786 45.0348 45.4668 44.9289 45.3609 44.7171Z" fill="#CED6E2"/>
<g filter="url(#filter2_d_14626_35807)">
<path d="M87.3958 50.1173L81.1488 72.4582C80.937 73.1994 80.09 73.7288 79.3488 73.4111L57.6432 67.0582C56.902 66.8465 56.3726 65.9994 56.6902 65.2583L65.1607 36.4586C65.3725 35.7174 66.2195 35.188 66.9607 35.5057L82.737 40.1644L87.3958 50.1173Z" fill="#F2F6FA"/>
</g>
<path d="M82.739 40.2036L80.7252 46.5173C80.5134 47.3643 81.0428 48.3173 81.8899 48.529L87.4743 50.107" fill="#D5DAE6"/>
<path d="M70.7725 48.7408C71.0901 48.635 71.4078 48.5291 71.7254 48.4232C72.043 48.3173 72.3607 48.2114 72.7842 48.2114C73.2077 48.2114 73.5254 48.2114 73.9489 48.2114C74.3724 48.2114 74.796 48.3173 75.2195 48.4232C75.7489 48.5291 76.2783 48.8467 76.7018 49.1644C77.1253 49.482 77.443 49.7996 77.7606 50.2232C77.9724 50.6467 78.1842 51.0702 78.29 51.4937C78.3959 52.0232 78.29 52.5526 78.1841 52.9761C78.0783 53.3996 77.8665 53.8231 77.5489 54.2467C77.3371 54.5643 77.0195 54.8819 76.7018 55.0937C76.3842 55.3055 76.0665 55.5172 75.7489 55.6231L74.796 55.9408C74.5842 56.0466 74.2665 56.1525 74.0548 56.2584C73.843 56.3643 73.6313 56.576 73.6313 56.7878L72.996 58.1643L71.3019 57.4231L71.6195 55.729C71.6195 55.4113 71.8313 55.1996 72.043 54.9878C72.2548 54.7761 72.4666 54.5643 72.7842 54.4584C73.1019 54.3525 73.4195 54.2467 73.6313 54.1408C73.9489 54.0349 74.2665 53.929 74.5842 53.7172C74.9018 53.6114 75.1136 53.3996 75.4312 53.1878C75.643 52.9761 75.8548 52.6584 75.9606 52.2349C75.9606 52.129 75.9606 51.9173 75.9606 51.7055C75.9606 51.4937 75.8548 51.282 75.7489 51.0702C75.643 50.8585 75.4312 50.7526 75.2195 50.5408C75.0077 50.4349 74.796 50.3291 74.4783 50.2232C74.1607 50.1173 73.843 50.1173 73.4195 50.1173C73.2077 50.1173 72.8901 50.1173 72.6783 50.2232C72.4666 50.2232 72.2548 50.329 72.1489 50.329C72.043 50.329 71.9372 50.4349 71.7254 50.329C71.5136 50.329 71.3019 50.1173 71.3019 49.9055L70.7725 48.7408ZM69.1842 60.9172C69.2901 60.7054 69.2901 60.4936 69.5019 60.3878C69.6078 60.176 69.8195 60.0701 69.9254 59.9642C70.3489 59.7525 70.7725 59.7525 71.0901 59.8584C71.3019 59.9642 71.5136 60.0701 71.6195 60.176C71.7254 60.2819 71.9372 60.4936 72.043 60.5995C72.4666 61.3407 72.1489 62.2936 71.4078 62.6113C70.9842 62.823 70.5607 62.823 70.2431 62.7171C70.0313 62.6113 69.8195 62.6113 69.7137 62.3995C69.5019 62.2936 69.396 62.0819 69.2901 61.976C69.1843 61.7642 69.1843 61.6583 69.0784 61.4466C69.1843 61.3407 69.1842 61.1289 69.1842 60.9172Z" fill="#CED6E2"/>
<g filter="url(#filter3_d_14626_35807)">
<path d="M138.431 88.3405L117.89 99.458C117.254 99.7756 116.301 99.5639 115.984 98.8227L105.713 78.8112C105.396 78.1759 105.607 77.223 106.349 76.9053L133.031 62.8231C133.666 62.5055 134.619 62.7172 134.936 63.4584L142.348 77.9641L138.431 88.3405Z" fill="#F2F6FA"/>
</g>
<path d="M142.242 78.1758L136.525 81.1405C135.784 81.564 135.466 82.6228 135.784 83.364L138.325 88.4463" fill="#D5DAE6"/>
<path d="M128.054 75.4229C128.372 75.5287 128.584 75.7405 128.901 75.8464C129.219 75.9523 129.431 76.164 129.748 76.4817C130.066 76.7993 130.278 77.0111 130.489 77.3287C130.807 77.6464 131.019 77.964 131.231 78.3875C131.548 78.8111 131.654 79.4463 131.654 79.8699C131.76 80.3993 131.654 80.8228 131.654 81.3522C131.548 81.7757 131.336 82.1992 131.125 82.6228C130.807 83.0463 130.384 83.3639 129.96 83.5757C129.642 83.7875 129.113 83.8933 128.689 83.9992C128.372 84.1051 127.842 84.1051 127.525 83.9992C127.207 83.8933 126.784 83.8933 126.466 83.6816L125.619 83.2581C125.407 83.1522 125.089 83.0463 124.878 82.9404C124.666 82.8345 124.348 82.8345 124.242 83.0463L122.866 83.5757L122.125 81.9875L123.501 81.0346C123.713 80.8228 124.031 80.8228 124.348 80.8228C124.666 80.8228 124.878 80.8228 125.195 80.9287C125.513 81.0346 125.725 81.2463 125.936 81.3522C126.254 81.4581 126.466 81.6698 126.889 81.7757C127.207 81.8816 127.419 81.8816 127.842 81.9875C128.16 81.9875 128.478 81.8816 128.901 81.6698C129.219 81.4581 129.642 81.1404 129.642 80.611C129.748 80.3993 129.642 80.1875 129.642 79.8699C129.536 79.6581 129.536 79.4463 129.325 79.1287C129.219 78.811 129.007 78.5993 128.795 78.2816C128.689 78.1758 128.478 77.964 128.266 77.8581C128.16 77.7522 127.948 77.6464 127.842 77.5405C127.736 77.4346 127.631 77.4346 127.525 77.2228C127.419 77.117 127.419 76.7993 127.525 76.6934L128.054 75.4229ZM118.207 82.7287C118.419 82.6228 118.525 82.5169 118.842 82.6228C119.054 82.5169 119.266 82.6228 119.372 82.6228C119.795 82.7287 120.113 83.0463 120.219 83.3639C120.325 83.5757 120.325 83.7875 120.325 83.9992C120.325 84.1051 120.325 84.4227 120.325 84.5286C120.219 84.8463 119.901 85.2698 119.584 85.3757C119.372 85.4816 119.16 85.4816 118.948 85.4816C118.842 85.4816 118.525 85.4816 118.419 85.4816C117.995 85.3757 117.678 85.058 117.572 84.7404C117.466 84.5286 117.466 84.3169 117.466 84.1051C117.36 83.8933 117.466 83.6816 117.466 83.5757C117.572 83.3639 117.678 83.2581 117.678 83.0463C117.784 82.9404 118.101 82.9404 118.207 82.7287Z" fill="#CED6E2"/>
<path d="M116.407 76.3759V93.9522C116.407 96.1757 114.501 98.0815 112.278 98.0815H54.1491C51.9256 98.0815 50.0198 96.1757 50.0198 93.9522V74.8936" stroke="#1676EE" stroke-width="3" stroke-linecap="round" stroke-linejoin="round"/>
<path d="M114.184 65.0464H94.278C92.3722 65.0464 90.4663 65.6817 88.984 66.9522L83.6899 71.1875C82.2076 72.3522 80.3017 73.0934 78.3958 73.0934H55.7373C53.5138 73.0934 51.6079 74.8933 51.6079 77.2227C51.6079 77.4345 51.6079 77.6462 51.7138 77.858L55.8432 99.5636C56.1608 101.575 57.9608 103.164 59.9725 103.164H108.36C110.478 103.164 112.172 101.681 112.49 99.6695L118.313 69.811C118.631 67.5875 117.148 65.4699 114.819 65.1523C114.607 65.0464 114.395 65.0464 114.184 65.0464Z" fill="white"/>
<g filter="url(#filter4_d_14626_35807)">
<path d="M119.69 61.1289H95.9722C93.7487 61.1289 91.4193 61.976 89.7252 63.3524L83.3724 68.5406C81.5724 70.0229 79.3489 70.7641 77.1254 70.7641H49.9139C47.2669 70.7641 44.9375 72.8817 44.9375 75.7405C44.9375 75.9523 44.9375 76.2699 45.0434 76.4817L50.0198 102.846C50.4433 105.281 52.4551 107.187 54.9962 107.187H112.701C115.137 107.187 117.254 105.387 117.678 102.952L124.56 66.8465C124.984 64.1995 123.184 61.5524 120.431 61.1289C120.219 61.1289 119.901 61.1289 119.69 61.1289Z" fill="url(#paint1_linear_14626_35807)"/>
</g>
<path d="M73.9489 88.8699C75.3253 88.8699 76.49 87.7052 76.49 86.3287C76.49 84.9523 75.3253 83.7876 73.9489 83.7876C72.5724 83.7876 71.4077 84.9523 71.4077 86.3287C71.4077 87.7052 72.5724 88.8699 73.9489 88.8699Z" fill="#989FB0"/>
<path d="M93.7487 88.4461C95.1251 88.4461 96.2898 87.2814 96.2898 85.9049C96.2898 84.5285 95.1251 83.3638 93.7487 83.3638C92.3722 83.3638 91.2075 84.5285 91.2075 85.9049C91.2075 87.2814 92.3722 88.4461 93.7487 88.4461Z" fill="#989FB0"/>
<path d="M89.1957 92.6813H87.8193C86.6546 90.352 83.7958 89.399 81.5723 90.6696C80.6193 91.0931 79.8782 91.9402 79.5605 92.6813H78.1841C79.3488 89.6108 82.8429 88.0226 85.8075 89.1873C87.3957 89.8225 88.5604 91.0931 89.1957 92.6813Z" fill="#989FB0"/>
<path d="M129.325 115.764C128.16 115.764 128.583 115.869 119.584 106.87C110.901 113.328 98.8308 107.081 98.8308 96.4932C98.8308 89.3992 104.654 83.5757 111.748 83.5757C122.019 83.5757 128.372 95.1167 122.336 103.905L130.701 112.269C132.077 113.54 131.23 115.764 129.325 115.764ZM111.854 87.7051C106.984 87.7051 102.96 91.6227 102.96 96.5991C102.96 101.575 106.878 105.493 111.854 105.493C112.384 105.493 112.913 105.493 113.442 105.387C113.972 105.281 114.501 105.175 114.925 104.964C115.454 104.752 115.878 104.54 116.301 104.328C116.831 104.011 117.254 103.693 117.678 103.27C117.995 102.952 118.419 102.528 118.736 102.211C119.054 101.787 119.372 101.364 119.584 100.94C119.795 100.517 120.007 99.9873 120.219 99.4579C120.431 98.9285 120.536 98.399 120.536 97.8696C120.536 97.4461 120.642 97.1285 120.642 96.7049C120.748 91.6227 116.725 87.7051 111.854 87.7051Z" fill="#989FB0"/>
<path d="M67.7019 81.9875L73.4195 78.917" stroke="#989FB0" stroke-width="1.5" stroke-miterlimit="10"/>
<path d="M98.7252 80.5051L93.0076 77.3286" stroke="#989FB0" stroke-width="1.5" stroke-miterlimit="10"/>
<defs>
<filter id="filter0_d_14626_35807" x="72.4426" y="0" width="85.4465" height="93.5405" filterUnits="userSpaceOnUse" color-interpolation-filters="sRGB">
<feFlood flood-opacity="0" result="BackgroundImageFix"/>
<feColorMatrix in="SourceAlpha" type="matrix" values="0 0 0 0 0 0 0 0 0 0 0 0 0 0 0 0 0 0 127 0" result="hardAlpha"/>
<feOffset dy="11"/>
<feGaussianBlur stdDeviation="11"/>
<feColorMatrix type="matrix" values="0 0 0 0 0.397708 0 0 0 0 0.47749 0 0 0 0 0.575 0 0 0 0.27 0"/>
<feBlend mode="normal" in2="BackgroundImageFix" result="effect1_dropShadow_14626_35807"/>
<feBlend mode="normal" in="SourceGraphic" in2="effect1_dropShadow_14626_35807" result="shape"/>
</filter>
<filter id="filter1_d_14626_35807" x="0" y="12.0117" width="83.8396" height="79.4312" filterUnits="userSpaceOnUse" color-interpolation-filters="sRGB">
<feFlood flood-opacity="0" result="BackgroundImageFix"/>
<feColorMatrix in="SourceAlpha" type="matrix" values="0 0 0 0 0 0 0 0 0 0 0 0 0 0 0 0 0 0 127 0" result="hardAlpha"/>
<feOffset dy="11"/>
<feGaussianBlur stdDeviation="11"/>
<feColorMatrix type="matrix" values="0 0 0 0 0.397708 0 0 0 0 0.47749 0 0 0 0 0.575 0 0 0 0.27 0"/>
<feBlend mode="normal" in2="BackgroundImageFix" result="effect1_dropShadow_14626_35807"/>
<feBlend mode="normal" in="SourceGraphic" in2="effect1_dropShadow_14626_35807" result="shape"/>
</filter>
<filter id="filter2_d_14626_35807" x="34.5962" y="24.4116" width="74.7996" height="82.0938" filterUnits="userSpaceOnUse" color-interpolation-filters="sRGB">
<feFlood flood-opacity="0" result="BackgroundImageFix"/>
<feColorMatrix in="SourceAlpha" type="matrix" values="0 0 0 0 0 0 0 0 0 0 0 0 0 0 0 0 0 0 127 0" result="hardAlpha"/>
<feOffset dy="11"/>
<feGaussianBlur stdDeviation="11"/>
<feColorMatrix type="matrix" values="0 0 0 0 0.397708 0 0 0 0 0.47749 0 0 0 0 0.575 0 0 0 0.27 0"/>
<feBlend mode="normal" in2="BackgroundImageFix" result="effect1_dropShadow_14626_35807"/>
<feBlend mode="normal" in="SourceGraphic" in2="effect1_dropShadow_14626_35807" result="shape"/>
</filter>
<filter id="filter3_d_14626_35807" x="83.5703" y="51.6802" width="80.7778" height="80.9209" filterUnits="userSpaceOnUse" color-interpolation-filters="sRGB">
<feFlood flood-opacity="0" result="BackgroundImageFix"/>
<feColorMatrix in="SourceAlpha" type="matrix" values="0 0 0 0 0 0 0 0 0 0 0 0 0 0 0 0 0 0 127 0" result="hardAlpha"/>
<feOffset dy="11"/>
<feGaussianBlur stdDeviation="11"/>
<feColorMatrix type="matrix" values="0 0 0 0 0.397708 0 0 0 0 0.47749 0 0 0 0 0.575 0 0 0 0.27 0"/>
<feBlend mode="normal" in2="BackgroundImageFix" result="effect1_dropShadow_14626_35807"/>
<feBlend mode="normal" in="SourceGraphic" in2="effect1_dropShadow_14626_35807" result="shape"/>
</filter>
<filter id="filter4_d_14626_35807" x="22.9375" y="50.1289" width="123.684" height="90.0581" filterUnits="userSpaceOnUse" color-interpolation-filters="sRGB">
<feFlood flood-opacity="0" result="BackgroundImageFix"/>
<feColorMatrix in="SourceAlpha" type="matrix" values="0 0 0 0 0 0 0 0 0 0 0 0 0 0 0 0 0 0 127 0" result="hardAlpha"/>
<feOffset dy="11"/>
<feGaussianBlur stdDeviation="11"/>
<feColorMatrix type="matrix" values="0 0 0 0 0.397708 0 0 0 0 0.47749 0 0 0 0 0.575 0 0 0 0.27 0"/>
<feBlend mode="normal" in2="BackgroundImageFix" result="effect1_dropShadow_14626_35807"/>
<feBlend mode="normal" in="SourceGraphic" in2="effect1_dropShadow_14626_35807" result="shape"/>
</filter>
<linearGradient id="paint0_linear_14626_35807" x1="83.0547" y1="56.6143" x2="83.0547" y2="73.144" gradientUnits="userSpaceOnUse">
<stop stop-color="#B0BACC"/>
<stop offset="1" stop-color="#969EAE"/>
</linearGradient>
<linearGradient id="paint1_linear_14626_35807" x1="84.7537" y1="60.0635" x2="84.7537" y2="107.684" gradientUnits="userSpaceOnUse">
<stop stop-color="#FDFEFF"/>
<stop offset="0.9964" stop-color="#ECF0F5"/>
</linearGradient>
</defs>
</svg>
