<svg width="24" height="24" viewBox="0 0 24 24" fill="none" xmlns="http://www.w3.org/2000/svg">
<path d="M21.5 5V9C21.5 9.2764 21.2764 9.5 21 9.5C20.7236 9.5 20.5 9.2764 20.5 9V5C20.5 4.1729 19.8271 3.5 19 3.5H15C14.7236 3.5 14.5 3.2764 14.5 3C14.5 2.7236 14.7236 2.5 15 2.5H19C20.3784 2.5 21.5 3.6211 21.5 5ZM21 14.5C20.7236 14.5 20.5 14.7236 20.5 15V19C20.5 19.8271 19.8271 20.5 19 20.5H15C14.7236 20.5 14.5 20.7236 14.5 21C14.5 21.2764 14.7236 21.5 15 21.5H19C20.3784 21.5 21.5 20.3789 21.5 19V15C21.5 14.7236 21.2764 14.5 21 14.5ZM9 20.5H5C4.1729 20.5 3.5 19.8271 3.5 19V15C3.5 14.7236 3.2764 14.5 3 14.5C2.7236 14.5 2.5 14.7236 2.5 15V19C2.5 20.3789 3.6216 21.5 5 21.5H9C9.2764 21.5 9.5 21.2764 9.5 21C9.5 20.7236 9.2764 20.5 9 20.5ZM3 9.5C3.2764 9.5 3.5 9.2764 3.5 9V5C3.5 4.1729 4.1729 3.5 5 3.5H9C9.2764 3.5 9.5 3.2764 9.5 3C9.5 2.7236 9.2764 2.5 9 2.5H5C3.6216 2.5 2.5 3.6211 2.5 5V9C2.5 9.2764 2.7236 9.5 3 9.5ZM7.5 8V9C7.5 9.2764 7.7236 9.5 8 9.5C8.2764 9.5 8.5 9.2764 8.5 9V8C8.5 7.7236 8.2764 7.5 8 7.5C7.7236 7.5 7.5 7.7236 7.5 8ZM16 9.5C16.2764 9.5 16.5 9.2764 16.5 9V8C16.5 7.7236 16.2764 7.5 16 7.5C15.7236 7.5 15.5 7.7236 15.5 8V9C15.5 9.2764 15.7236 9.5 16 9.5ZM12.9082 10.9346C13.1973 11.5127 13.084 12.208 12.627 12.666C12.4317 12.8613 12.4317 13.1777 12.627 13.373C12.7247 13.4707 12.8526 13.5195 12.9805 13.5195C13.1084 13.5195 13.2364 13.4707 13.334 13.373C14.0962 12.6103 14.2842 11.4511 13.8028 10.4873L12.9473 8.7764C12.8238 8.5303 12.5244 8.4287 12.2764 8.5528C12.0293 8.6768 11.9292 8.9766 12.0528 9.2237L12.9082 10.9346ZM16.4473 15.2237C16.5703 14.9776 16.4707 14.6807 16.2261 14.5557C15.9815 14.4336 15.6812 14.5303 15.5542 14.7735C15.5181 14.8438 14.6294 16.5001 12 16.5001C9.3706 16.5001 8.4819 14.8439 8.4473 14.7765C8.3233 14.5304 8.024 14.4279 7.7764 14.5529C7.5293 14.6769 7.4292 14.9767 7.5528 15.2238C7.5992 15.3166 8.7286 17.5002 12.0001 17.5002C15.2716 17.5002 16.4009 15.3165 16.4473 15.2237Z" fill="#1D2939"/>
</svg>
