<svg width="24" height="24" viewBox="0 0 24 24" fill="none" xmlns="http://www.w3.org/2000/svg">
<path d="M18.096 9.84012V14.2081H13.68V9.84012H18.096ZM18.1499 9.12012H13.6297C13.2731 9.12012 12.96 9.40672 12.96 9.76332V14.2835C12.96 14.6401 13.2731 14.9281 13.6297 14.9281H18.1499C18.5065 14.9281 18.816 14.6401 18.816 14.2835V9.76332C18.816 9.40672 18.5065 9.12012 18.1499 9.12012ZM18.096 17.6161V21.9841H13.68V17.6161H18.096ZM18.1499 16.8961H13.6297C13.2731 16.8961 12.96 17.1827 12.96 17.5393V22.0595C12.96 22.4161 13.2731 22.7041 13.6297 22.7041H18.1499C18.5065 22.7041 18.816 22.4161 18.816 22.0595V17.5393C18.816 17.1827 18.5065 16.8961 18.1499 16.8961Z" fill="#71808E"/>
<path d="M15.654 5.5616C15.5245 5.5616 15.4003 5.50924 15.3098 5.41612L14.2048 4.27885C14.0201 4.08872 14.0245 3.78488 14.2146 3.60008C14.4047 3.41538 14.7086 3.4198 14.8934 3.60988L15.6356 4.3738L18.2291 1.40951C18.4036 1.21002 18.7068 1.18981 18.9064 1.36439C19.1059 1.53896 19.1261 1.84218 18.9515 2.04167L16.0153 5.39768C15.927 5.49858 15.8006 5.55796 15.6666 5.56141C15.6623 5.56156 15.6582 5.5616 15.654 5.5616Z" fill="#4F5862"/>
<path d="M18.096 3.80548V6.48009H13.68V2.11209H16.7134L17.4396 1.39209H13.6777C13.3211 1.39209 12.96 1.62263 12.96 1.97923V6.49939C12.96 6.85603 13.3211 7.20009 13.6777 7.20009H18.1979C18.5545 7.20009 18.816 6.85603 18.816 6.49939V3.08548L18.096 3.80548ZM7.78032 17.0464C9.31301 17.0464 10.5555 18.2889 10.5555 19.8215C10.5555 21.3543 9.31301 22.5967 7.78032 22.5967C6.24764 22.5967 5.00516 21.3542 5.00516 19.8215C5.00511 18.2889 6.24764 17.0464 7.78032 17.0464ZM7.78032 16.3264C5.85308 16.3264 4.28516 17.8943 4.28516 19.8215C4.28516 21.7488 5.85312 23.3167 7.78032 23.3167C9.70757 23.3167 11.2755 21.7488 11.2755 19.8215C11.2755 17.8943 9.70757 16.3264 7.78032 16.3264Z" fill="#71808E"/>
<path d="M6.30754 21.2659C6.28181 21.2659 6.25561 21.2618 6.22988 21.2531C6.10431 21.2106 6.0374 21.0731 6.07988 20.9475C6.09303 20.9086 6.41813 19.9928 7.75445 19.9928C9.07657 19.9928 9.47948 20.891 9.49599 20.9293C9.54855 21.0509 9.49249 21.1923 9.37076 21.2447C9.2497 21.297 9.1093 21.2417 9.05612 21.1214C9.0422 21.0911 8.74589 20.4728 7.75445 20.4728C6.7753 20.4728 6.54308 21.0781 6.53367 21.1039C6.49993 21.2037 6.40719 21.2659 6.30754 21.2659ZM7.69973 19.5604C7.67689 19.5604 7.65404 19.5572 7.63191 19.5506L5.93228 19.1207C5.80513 19.0833 5.73241 18.9498 5.76985 18.8227C5.80733 18.6956 5.94068 18.623 6.06788 18.6603L7.70194 19.0709L9.44045 18.6591C9.56833 18.6239 9.70037 18.6991 9.73546 18.8269C9.7706 18.9547 9.69543 19.0868 9.56761 19.1219L7.76324 19.5518C7.7425 19.5575 7.72109 19.5604 7.69973 19.5604Z" fill="#71808E"/>
<path d="M7.3921 19.2958C7.25957 19.2958 7.1521 19.1884 7.1521 19.0558V18.6238C7.1521 18.4912 7.25957 18.3838 7.3921 18.3838C7.52463 18.3838 7.6321 18.4912 7.6321 18.6238V19.0558C7.6321 19.1884 7.52463 19.2958 7.3921 19.2958ZM8.0641 19.2958C7.93157 19.2958 7.8241 19.1884 7.8241 19.0558V18.6238C7.8241 18.4912 7.93157 18.3838 8.0641 18.3838C8.19663 18.3838 8.3041 18.4912 8.3041 18.6238V19.0558C8.3041 19.1884 8.19663 19.2958 8.0641 19.2958Z" fill="#71808E"/>
<path d="M7.78032 9.27029C9.31301 9.27029 10.5555 10.5128 10.5555 12.0454C10.5555 13.5781 9.31301 14.8206 7.78032 14.8206C6.24764 14.8206 5.00516 13.5781 5.00516 12.0454C5.00511 10.5128 6.24764 9.27029 7.78032 9.27029ZM7.78032 8.55029C5.85308 8.55029 4.28516 10.1182 4.28516 12.0454C4.28516 13.9727 5.85312 15.5406 7.78032 15.5406C9.70757 15.5406 11.2755 13.9727 11.2755 12.0454C11.2755 10.1182 9.70757 8.55029 7.78032 8.55029Z" fill="#71808E"/>
<path d="M8.73593 13.2959H6.81593C6.6834 13.2959 6.57593 13.1885 6.57593 13.0559C6.57593 12.9233 6.6834 12.8159 6.81593 12.8159H8.73593C8.86846 12.8159 8.97593 12.9233 8.97593 13.0559C8.97593 13.1885 8.86846 13.2959 8.73593 13.2959Z" fill="#71808E"/>
<path d="M6.62096 11.8083C6.86427 11.8083 7.06151 11.6111 7.06151 11.3678C7.06151 11.1245 6.86427 10.9272 6.62096 10.9272C6.37766 10.9272 6.18042 11.1245 6.18042 11.3678C6.18042 11.6111 6.37766 11.8083 6.62096 11.8083Z" fill="#71808E"/>
<path d="M9.33543 11.3678C9.33543 11.6111 9.1382 11.8083 8.89489 11.8083C8.65158 11.8083 8.45435 11.6111 8.45435 11.3678C8.45435 11.1245 8.65158 10.9272 8.89489 10.9272C9.1382 10.9272 9.33543 11.1245 9.33543 11.3678Z" fill="#71808E"/>
<path d="M7.78032 1.45437C9.31301 1.45437 10.5555 2.69685 10.5555 4.22949C10.5555 5.76223 9.31301 7.00466 7.78032 7.00466C6.24764 7.00466 5.00516 5.76218 5.00516 4.22949C5.00511 2.69685 6.24764 1.45437 7.78032 1.45437ZM7.78032 0.734375C5.85308 0.734375 4.28516 2.30229 4.28516 4.22949C4.28516 6.15674 5.85308 7.72466 7.78032 7.72466C9.70757 7.72466 11.2755 6.15674 11.2755 4.22949C11.2755 2.30229 9.70757 0.734375 7.78032 0.734375Z" fill="#71808E"/>
<path d="M7.78043 5.91248C6.45837 5.91248 6.05541 5.01426 6.0389 4.976C5.98634 4.85432 6.0424 4.71301 6.16413 4.66054C6.28519 4.60822 6.42563 4.66352 6.47882 4.78395C6.49303 4.81496 6.78962 5.43248 7.78043 5.43248C8.77619 5.43248 8.99819 4.81026 9.0003 4.80397C9.04278 4.67845 9.17896 4.61101 9.30453 4.65349C9.4301 4.69597 9.49744 4.83219 9.45496 4.95776C9.44181 4.99674 9.1167 5.91248 7.78043 5.91248ZM7.3288 3.9021C7.21835 3.9021 7.11894 3.82539 7.09451 3.71307C7.09389 3.71038 7.00303 3.32619 6.74695 3.32619C6.49082 3.32619 6.39995 3.71038 6.39909 3.71427C6.36962 3.84296 6.24155 3.92437 6.11272 3.89562C5.98384 3.86682 5.90229 3.7401 5.93032 3.61102C5.9921 3.32696 6.23359 2.84619 6.74695 2.84619C7.26031 2.84619 7.50179 3.32701 7.56357 3.61102C7.59175 3.74053 7.50957 3.8684 7.38006 3.89653C7.36283 3.90032 7.3457 3.9021 7.3288 3.9021ZM9.2488 3.9021C9.13835 3.9021 9.03894 3.82539 9.01451 3.71307C9.01389 3.71038 8.92302 3.32619 8.66694 3.32619C8.41082 3.32619 8.32 3.71038 8.31909 3.71427C8.28962 3.84296 8.16146 3.92437 8.03272 3.89562C7.90384 3.86686 7.82224 3.7401 7.85032 3.61102C7.9121 3.32696 8.15358 2.84619 8.66694 2.84619C9.18031 2.84619 9.42179 3.32701 9.48357 3.61102C9.51174 3.74053 9.42957 3.8684 9.30006 3.89653C9.28283 3.90032 9.2657 3.9021 9.2488 3.9021Z" fill="#71808E"/>
</svg>
