<svg width="24" height="24" viewBox="0 0 24 24" fill="none" xmlns="http://www.w3.org/2000/svg">
<path d="M10.4325 21.4483C10.3397 21.6085 10.1718 21.6978 9.9999 21.6978C9.9149 21.6978 9.828 21.6763 9.7499 21.6304C7.745 20.4712 6.4999 18.314 6.4999 16.0005V10.0005C6.4999 9.72408 6.7235 9.50048 6.9999 9.50048C7.2763 9.50048 7.4999 9.72408 7.4999 10.0005V16.0005C7.4999 17.958 8.5536 19.7837 10.2499 20.7651C10.4892 20.9033 10.5712 21.209 10.4325 21.4483ZM16.9999 15.0005C17.2763 15.0005 17.4999 14.7769 17.4999 14.5005V10.2153C17.4999 7.29048 15.3202 4.79148 12.539 4.52628C10.5937 4.33828 8.7597 5.15468 7.6005 6.70008C7.4345 6.92128 7.4784 7.23478 7.7001 7.40028C7.9198 7.56578 8.2343 7.52188 8.3993 7.30068C9.3495 6.03648 10.8602 5.37148 12.4432 5.52138C14.7186 5.73868 16.4998 7.80018 16.4998 10.2152V14.5004C16.4998 14.7768 16.7235 15.0005 16.9999 15.0005ZM11.4999 2.51668C12.995 2.41758 14.4667 2.76078 15.7489 3.50348C15.9852 3.64118 16.2928 3.56108 16.4325 3.32138C16.5712 3.08258 16.4891 2.77648 16.2509 2.63828C14.7948 1.79598 13.122 1.40728 11.4355 1.51868C6.9853 1.80678 3.5 5.65298 3.5 10.2746V13.571C3.5 13.8474 3.7236 14.071 4 14.071C4.2764 14.071 4.5 13.8474 4.5 13.571V10.2746C4.5 6.17838 7.5751 2.77108 11.4999 2.51668ZM19.3622 5.75008C19.2235 5.51078 18.914 5.42878 18.6796 5.56798C18.4403 5.70618 18.3583 6.01178 18.497 6.25108C19.1532 7.38538 19.4999 8.68228 19.4999 10.0006V15.0006C19.4999 16.379 18.3788 17.5006 16.9999 17.5006C15.621 17.5006 14.4999 16.379 14.4999 15.0006V10.1075C14.4999 8.83358 13.6044 7.72708 12.4159 7.53428C11.6874 7.41758 10.9413 7.61968 10.3807 8.09578C9.8211 8.57188 9.4998 9.26618 9.4998 10.0006V14.0006C9.4998 18.6876 13.3133 22.5006 17.9998 22.5006C18.2762 22.5006 18.4998 22.277 18.4998 22.0006C18.4998 21.7242 18.2762 21.5006 17.9998 21.5006C13.8641 21.5006 10.4998 18.1363 10.4998 14.0006V10.0006C10.4998 9.56018 10.6922 9.14318 11.0281 8.85748C11.3689 8.56698 11.8054 8.44728 12.2556 8.52158C12.9646 8.63678 13.4997 9.31848 13.4997 10.1075V15.0006C13.4997 16.9303 15.07 18.5006 16.9997 18.5006C18.9294 18.5006 20.4997 16.9303 20.4997 15.0006V10.0006C20.4997 8.50648 20.1063 7.03668 19.3622 5.75008Z" fill="#1D2939"/>
</svg>
