<svg width="24" height="24" viewBox="0 0 24 24" fill="none" xmlns="http://www.w3.org/2000/svg">
<path d="M20.16 1.91992H19.2V3.83992H17.28V4.79992H19.2V6.71992H20.16V4.79992H22.08V3.83992H20.16V1.91992Z" fill="#71808E"/>
<path d="M6.23999 6.23992C6.23999 7.09434 6.49335 7.92956 6.96804 8.63999C7.44273 9.35041 8.11742 9.90411 8.9068 10.2311C9.69617 10.5581 10.5648 10.6436 11.4028 10.4769C12.2408 10.3102 13.0105 9.89879 13.6147 9.29462C14.2189 8.69046 14.6303 7.92071 14.797 7.08271C14.9637 6.24471 14.8781 5.37611 14.5512 4.58673C14.2242 3.79735 13.6705 3.12266 12.9601 2.64797C12.2496 2.17329 11.4144 1.91992 10.56 1.91992C9.41503 1.92246 8.3177 2.37841 7.50809 3.18802C6.69848 3.99763 6.24253 5.09497 6.23999 6.23992ZM13.92 6.23992C13.92 6.90447 13.7229 7.55409 13.3537 8.10664C12.9845 8.65919 12.4598 9.08985 11.8458 9.34416C11.2318 9.59847 10.5563 9.66501 9.90449 9.53536C9.25271 9.40571 8.65402 9.08571 8.18411 8.6158C7.71421 8.1459 7.3942 7.5472 7.26455 6.89543C7.13491 6.24365 7.20144 5.56807 7.45576 4.95411C7.71007 4.34015 8.14072 3.81539 8.69327 3.44618C9.24582 3.07698 9.89545 2.87992 10.56 2.87992C11.4511 2.87992 12.3057 3.23392 12.9359 3.86404C13.566 4.49417 13.92 5.34879 13.92 6.23992Z" fill="#71808E"/>
<path d="M19.1329 17.0398V16.5598C18.2826 15.0321 17.0396 13.7593 15.5323 12.8733C14.0251 11.9872 12.3085 11.52 10.5601 11.52C8.81173 11.52 7.09511 11.9872 5.58788 12.8733C4.08066 13.7593 2.83759 15.0321 1.9873 16.5598V17.0398C2.83759 18.5675 4.08066 19.8402 5.58788 20.7263C7.09511 21.6123 8.81173 22.0795 10.5601 22.0795C12.3085 22.0795 14.0251 21.6123 15.5323 20.7263C17.0396 19.8402 18.2826 18.5675 19.1329 17.0398ZM12.3169 12.6814L10.5601 14.3998L8.80331 12.6814C9.38004 12.5517 9.96899 12.4841 10.5601 12.4798C11.1512 12.4841 11.7402 12.5517 12.3169 12.6814ZM2.9569 16.7998C4.05572 14.9953 5.75522 13.6357 7.75691 12.9598L10.2433 15.4462H10.9153L13.4017 12.9598C15.4034 13.6357 17.1029 14.9953 18.2017 16.7998C17.4051 18.1145 16.2839 19.2023 14.9457 19.9589C13.6075 20.7154 12.0973 21.1151 10.5601 21.1198C9.02941 21.1086 7.52706 20.7057 6.19616 19.9495C4.86525 19.1933 3.75009 18.109 2.9569 16.7998Z" fill="#71808E"/>
</svg>
