<svg width="24" height="24" viewBox="0 0 24 24" fill="none" xmlns="http://www.w3.org/2000/svg">
<path d="M12 3C7.03763 3 3 7.03763 3 12C3 16.9624 7.03763 21 12 21C16.9624 21 21 16.9624 21 12C21 7.03763 16.9624 3 12 3ZM12 20.25C7.45088 20.25 3.75 16.5491 3.75 12C3.75 7.45088 7.45088 3.75 12 3.75C16.5491 3.75 20.25 7.45088 20.25 12C20.25 16.5491 16.5491 20.25 12 20.25Z" fill="#71808E"/>
<path d="M13.0983 6.00049H11.2769C9.60775 6.00049 8.24988 7.35836 8.24988 9.02711V10.1255H8.99988V9.02711C9.00067 8.42356 9.24078 7.84495 9.66756 7.41817C10.0943 6.99139 10.6729 6.75128 11.2765 6.75049H13.0979C13.7015 6.75118 14.2802 6.99125 14.7071 7.41804C15.1339 7.84483 15.3741 8.42349 15.3749 9.02711C15.3757 9.3262 15.3171 9.62248 15.2027 9.8988C15.0882 10.1751 14.9201 10.426 14.7081 10.637L11.6249 13.7202V15.7505H12.3749V14.0307L15.2384 11.1672C15.5203 10.8868 15.7438 10.5533 15.896 10.186C16.0481 9.81861 16.1259 9.42473 16.1249 9.02711C16.1249 7.35836 14.767 6.00049 13.0983 6.00049ZM11.6249 16.8755H12.3749V18.0005H11.6249V16.8755Z" fill="#71808E"/>
</svg>
