<svg width="22" height="22" viewBox="0 0 22 22" fill="none" xmlns="http://www.w3.org/2000/svg">
<path d="M1.83325 9.18301C1.83325 8.22946 2.28657 7.3327 3.0544 6.76729L10.9999 0.916504L18.9454 6.76729C19.7133 7.3327 20.1666 8.22946 20.1666 9.18301V18.5832C20.1666 19.9639 19.0473 21.0832 17.6666 21.0832H14.7499C14.1976 21.0832 13.7499 20.6355 13.7499 20.0832V14.7082C13.7499 14.432 13.5261 14.2082 13.2499 14.2082H8.74992C8.47378 14.2082 8.24992 14.432 8.24992 14.7082V20.0832C8.24992 20.6355 7.8022 21.0832 7.24992 21.0832H4.33325C2.95254 21.0832 1.83325 19.9639 1.83325 18.5832V9.18301Z" stroke="#15B79E" stroke-linecap="round" stroke-linejoin="round"/>
</svg>
