<svg width="155" height="69" viewBox="0 0 155 69" fill="none" xmlns="http://www.w3.org/2000/svg">
<path d="M72.4206 20.8707C71.2734 22.8348 68.4053 22.8348 67.2581 20.8707L61.3581 10.7699C60.2109 8.80581 61.6449 6.35075 63.9394 6.35075H75.7394C78.0338 6.35075 79.4678 8.80581 78.3206 10.7699L72.4206 20.8707Z" fill="#15B79E"/>
<rect x="86.3508" y="1.37891" width="8.885" height="31.0975" rx="3.554" transform="rotate(30 86.3508 1.37891)" fill="white"/>
<path d="M22.1922 43.5166L13.5162 63.0344H8.93483L0.287476 43.5166H5.29836L11.3973 57.4579L17.5822 43.5166H22.1922Z" fill="white"/>
<path d="M30.164 59.7722C30.9657 59.7722 31.672 59.6606 32.2829 59.4376C32.9128 59.1959 33.495 58.8242 34.0295 58.3223L36.4061 60.8317C34.9553 62.4489 32.8365 63.2575 30.0494 63.2575C28.3123 63.2575 26.7757 62.9322 25.4394 62.2816C24.1032 61.6124 23.0724 60.6923 22.347 59.5212C21.6216 58.3501 21.2589 57.0211 21.2589 55.534C21.2589 54.0655 21.6121 52.7457 22.3184 51.5747C23.0438 50.385 24.0268 49.4649 25.2676 48.8143C26.5275 48.1451 27.9401 47.8105 29.5054 47.8105C30.9753 47.8105 32.3115 48.1172 33.5141 48.7307C34.7167 49.3255 35.6712 50.1991 36.3775 51.3516C37.1029 52.4855 37.4656 53.8332 37.4656 55.3946L26.0694 57.5416C26.3939 58.2851 26.8997 58.8427 27.587 59.2145C28.2933 59.5863 29.1523 59.7722 30.164 59.7722ZM29.5054 51.1007C28.3792 51.1007 27.4629 51.4539 26.7566 52.1602C26.0503 52.8666 25.678 53.8425 25.6399 55.0879L33.1419 53.6659C32.9319 52.8852 32.5024 52.2624 31.8534 51.7977C31.2043 51.333 30.4217 51.1007 29.5054 51.1007Z" fill="white"/>
<path d="M44.7345 50.0133C45.269 49.2883 45.9848 48.7399 46.882 48.3682C47.7983 47.9964 48.8482 47.8105 50.0317 47.8105V51.8256C49.5354 51.7884 49.2013 51.7699 49.0295 51.7699C47.7505 51.7699 46.7484 52.123 46.023 52.8294C45.2976 53.5172 44.9349 54.5581 44.9349 55.9522V63.0344H40.4681V48.0336H44.7345V50.0133Z" fill="white"/>
<path d="M52.6877 48.0336H57.1545V63.0344H52.6877V48.0336ZM54.9211 45.9424C54.1003 45.9424 53.4322 45.71 52.9168 45.2453C52.4014 44.7806 52.1437 44.2044 52.1437 43.5166C52.1437 42.8288 52.4014 42.2526 52.9168 41.7879C53.4322 41.3232 54.1003 41.0908 54.9211 41.0908C55.7419 41.0908 56.4101 41.3139 56.9255 41.76C57.4409 42.2061 57.6986 42.7638 57.6986 43.433C57.6986 44.1579 57.4409 44.762 56.9255 45.2453C56.4101 45.71 55.7419 45.9424 54.9211 45.9424Z" fill="white"/>
<path d="M65.6525 48.3682H69.6039V51.7141H65.767V63.0344H61.3001V47.699C61.3001 45.9889 61.8156 44.6319 62.8464 43.6281C63.8963 42.6244 65.3661 42.1225 67.2559 42.1225C67.9241 42.1225 68.554 42.1968 69.1458 42.3455C69.7566 42.4757 70.2625 42.6708 70.6633 42.9311L69.4894 46.0818C68.974 45.7286 68.3727 45.552 67.6854 45.552C66.3301 45.552 65.6525 46.277 65.6525 47.7269V48.3682Z" fill="white"/>
<path d="M87.3614 48.0336V60.525C87.3614 63.2761 86.6456 65.3208 85.2139 66.6592C83.7822 67.9975 81.7015 68.6667 78.9718 68.6667C77.521 68.6667 76.1466 68.4901 74.8485 68.1369C73.5696 67.7838 72.491 67.2726 71.6129 66.6034L73.3882 63.4805C74.0373 64.001 74.8295 64.41 75.7648 64.7074C76.7002 65.0048 77.6451 65.1535 78.5996 65.1535C80.0885 65.1535 81.1766 64.8189 81.8638 64.1497C82.551 63.4805 82.8946 62.4582 82.8946 61.0826V60.5808C82.3219 61.1384 81.6443 61.5659 80.8616 61.8634C80.079 62.1608 79.239 62.3095 78.3419 62.3095C76.3184 62.3095 74.7149 61.7518 73.5314 60.6365C72.3479 59.5026 71.7561 57.8111 71.7561 55.5619V48.0336H76.223V54.9206C76.223 57.3557 77.2633 58.5732 79.344 58.5732C80.413 58.5732 81.272 58.2386 81.9211 57.5694C82.5701 56.8817 82.8946 55.8686 82.8946 54.5302V48.0336H87.3614Z" fill="white"/>
<path d="M98.1767 63.369C96.5923 63.369 95.0556 63.1645 93.5667 62.7556C92.0968 62.3281 90.9133 61.7797 90.0161 61.1105L91.591 57.7088C92.45 58.3223 93.4712 58.8149 94.6547 59.1866C95.8383 59.5584 97.0218 59.7443 98.2053 59.7443C99.5225 59.7443 100.496 59.5584 101.126 59.1866C101.756 58.7963 102.071 58.2851 102.071 57.6531C102.071 57.1884 101.88 56.8073 101.498 56.5099C101.135 56.1939 100.658 55.9429 100.066 55.7571C99.4938 55.5712 98.7112 55.3667 97.7185 55.1436C96.1914 54.7905 94.9411 54.4373 93.9675 54.0841C92.994 53.7309 92.1541 53.164 91.4478 52.3833C90.7606 51.6026 90.417 50.5616 90.417 49.2604C90.417 48.1265 90.7319 47.1042 91.3619 46.1933C91.9918 45.2639 92.9367 44.5297 94.1966 43.9906C95.4756 43.4515 97.0313 43.182 98.8639 43.182C100.143 43.182 101.393 43.3307 102.615 43.6281C103.837 43.9256 104.906 44.3531 105.822 44.9107L104.39 48.3403C102.539 47.3179 100.687 46.8068 98.8353 46.8068C97.5372 46.8068 96.5732 47.0112 95.9433 47.4202C95.3324 47.8291 95.027 48.3682 95.027 49.0374C95.027 49.7065 95.3801 50.2084 96.0864 50.543C96.8118 50.859 97.9094 51.175 99.3793 51.491C100.906 51.8442 102.157 52.1974 103.13 52.5506C104.104 52.9037 104.934 53.4614 105.621 54.2235C106.328 54.9856 106.681 56.0173 106.681 57.3185C106.681 58.4338 106.356 59.4562 105.707 60.3856C105.077 61.2964 104.123 62.0214 102.844 62.5604C101.565 63.0995 100.009 63.369 98.1767 63.369Z" fill="white"/>
<path d="M125.169 48.0336V63.0344H120.903V61.3057C119.796 62.6069 118.192 63.2575 116.093 63.2575C114.642 63.2575 113.325 62.9415 112.141 62.3095C110.977 61.6775 110.06 60.7759 109.392 59.6049C108.724 58.4338 108.39 57.0768 108.39 55.534C108.39 53.9912 108.724 52.6342 109.392 51.4631C110.06 50.2921 110.977 49.3905 112.141 48.7585C113.325 48.1265 114.642 47.8105 116.093 47.8105C118.059 47.8105 119.595 48.4146 120.703 49.6229V48.0336H125.169ZM116.866 59.6885C117.992 59.6885 118.927 59.3167 119.672 58.5732C120.416 57.8111 120.789 56.798 120.789 55.534C120.789 54.27 120.416 53.2662 119.672 52.5227C118.927 51.7606 117.992 51.3795 116.866 51.3795C115.72 51.3795 114.775 51.7606 114.031 52.5227C113.287 53.2662 112.914 54.27 112.914 55.534C112.914 56.798 113.287 57.8111 114.031 58.5732C114.775 59.3167 115.72 59.6885 116.866 59.6885Z" fill="white"/>
<path d="M133.657 48.3682H137.609V51.7141H133.772V63.0344H129.305V47.699C129.305 45.9889 129.82 44.6319 130.851 43.6281C131.901 42.6244 133.371 42.1225 135.261 42.1225C135.929 42.1225 136.559 42.1968 137.151 42.3455C137.761 42.4757 138.267 42.6708 138.668 42.9311L137.494 46.0818C136.979 45.7286 136.378 45.552 135.69 45.552C134.335 45.552 133.657 46.277 133.657 47.7269V48.3682Z" fill="white"/>
<path d="M147.411 59.7722C148.213 59.7722 148.919 59.6606 149.53 59.4376C150.16 59.1959 150.742 58.8242 151.276 58.3223L153.653 60.8317C152.202 62.4489 150.083 63.2575 147.296 63.2575C145.559 63.2575 144.023 62.9322 142.686 62.2816C141.35 61.6124 140.319 60.6923 139.594 59.5212C138.868 58.3501 138.506 57.0211 138.506 55.534C138.506 54.0655 138.859 52.7457 139.565 51.5747C140.291 50.385 141.274 49.4649 142.515 48.8143C143.774 48.1451 145.187 47.8105 146.752 47.8105C148.222 47.8105 149.558 48.1172 150.761 48.7307C151.964 49.3255 152.918 50.1991 153.624 51.3516C154.35 52.4855 154.712 53.8332 154.712 55.3946L143.316 57.5416C143.641 58.2851 144.147 58.8427 144.834 59.2145C145.54 59.5863 146.399 59.7722 147.411 59.7722ZM146.752 51.1007C145.626 51.1007 144.71 51.4539 144.003 52.1602C143.297 52.8666 142.925 53.8425 142.887 55.0879L150.389 53.6659C150.179 52.8852 149.749 52.2624 149.1 51.7977C148.451 51.333 147.669 51.1007 146.752 51.1007Z" fill="white"/>
</svg>
