<svg width="22" height="22" viewBox="0 0 22 22" fill="none" xmlns="http://www.w3.org/2000/svg">
<path d="M20.3163 20.8069H6.16406V12.0447C6.16406 11.6872 6.45281 11.3984 6.81031 11.3984H19.6734C20.0309 11.3984 20.3197 11.6872 20.3197 12.0447V20.8069H20.3163Z" stroke="#71808E" stroke-miterlimit="10" stroke-linecap="round" stroke-linejoin="round"/>
<path d="M6.16363 20.8065H2.34457C1.9802 20.8065 1.68457 20.5109 1.68457 20.1465V19.1909H6.16363" stroke="#71808E" stroke-miterlimit="10" stroke-linecap="round" stroke-linejoin="round"/>
<path d="M11.7734 8.9165H12.0312L16.115 11.3984" stroke="#71808E" stroke-miterlimit="10" stroke-linecap="round" stroke-linejoin="round"/>
<path d="M3.8602 19.188L2.68113 18.4077C2.2652 18.0811 1.91113 17.4933 1.91113 16.9639V14.7089C1.91113 12.8698 2.95613 11.1923 4.6027 10.3777L6.89551 8.96484" stroke="#71808E" stroke-miterlimit="10" stroke-linecap="round" stroke-linejoin="round"/>
<path d="M9.3025 9.70705C11.6528 9.70705 13.5581 7.80174 13.5581 5.45143C13.5581 3.10111 11.6528 1.1958 9.3025 1.1958C6.95218 1.1958 5.04688 3.10111 5.04688 5.45143C5.04688 7.80174 6.95218 9.70705 9.3025 9.70705Z" stroke="#71808E" stroke-miterlimit="10" stroke-linecap="round" stroke-linejoin="round"/>
<path d="M5.04346 14.5439V16.4793L6.16408 17.5105" stroke="#71808E" stroke-miterlimit="10" stroke-linecap="round" stroke-linejoin="round"/>
<path d="M9.30176 9.70703V11.3983" stroke="#71808E" stroke-miterlimit="10" stroke-linecap="round" stroke-linejoin="round"/>
</svg>
