<svg width="40" height="40" viewBox="0 0 40 40" fill="none" xmlns="http://www.w3.org/2000/svg">
<circle opacity="0.15" cx="20" cy="20" r="19.5" stroke="#98A2B3"/>
<path d="M12.2222 8.3335V31.6668H25.8333L31.6666 25.8335V8.3335H12.2222Z" fill="#D0D5DD"/>
<path d="M25.8333 25.8335V31.6668L31.6667 25.8335H25.8333Z" fill="#F9FAFB"/>
<path d="M20 31.6668H25.8333V25.8335L20 31.6668Z" fill="#DEDEDD"/>
<path d="M8.33334 14.167V20.9725H23.8889V14.167H8.33334Z" fill="#CB5641"/>
<path d="M12.0395 15.4956C12.2533 15.4956 12.4322 15.5316 12.579 15.6035C12.7258 15.6755 12.8425 15.7698 12.932 15.8864C13.0214 16.0031 13.0856 16.1363 13.1245 16.286C13.1624 16.4348 13.1828 16.5884 13.1828 16.7439C13.1828 16.9578 13.1507 17.1445 13.0865 17.3039C13.0224 17.4634 12.9329 17.5937 12.8182 17.6938C12.7035 17.7949 12.5645 17.8717 12.4011 17.9213C12.2378 17.9709 12.057 17.9981 11.8586 17.9981H11.4095V19.6606H10.5695V15.4956H12.0395ZM11.7828 17.3817C11.95 17.3817 12.0861 17.3302 12.1882 17.2291C12.2913 17.128 12.3428 16.9705 12.3428 16.7566C12.3428 16.5466 12.2981 16.3871 12.2086 16.2782C12.1192 16.1703 11.9695 16.1149 11.7595 16.1149H11.4095V17.3817H11.7828Z" fill="white"/>
<path d="M15.5978 15.4941C15.8904 15.4941 16.1247 15.5428 16.3046 15.638C16.4835 15.7333 16.6225 15.8684 16.7217 16.0464C16.8218 16.2233 16.8879 16.4353 16.9229 16.6851C16.9579 16.934 16.9754 17.2121 16.9754 17.5183C16.9754 17.8839 16.954 18.2018 16.9093 18.4721C16.8646 18.7414 16.7878 18.965 16.6789 19.14C16.57 19.3159 16.4242 19.4453 16.2414 19.5308C16.0586 19.6164 15.8272 19.6591 15.5472 19.6591H14.2211V15.4941H15.5978ZM15.4345 19.0428C15.5822 19.0428 15.7009 19.0175 15.7903 18.9669C15.8797 18.9164 15.9507 18.8328 16.0032 18.7161C16.0567 18.5994 16.0917 18.4458 16.1082 18.2543C16.1257 18.0647 16.1345 17.8275 16.1345 17.5436C16.1345 17.3064 16.1257 17.0983 16.1111 16.9184C16.0956 16.7396 16.0635 16.5908 16.0149 16.4722C15.9653 16.3536 15.8943 16.2641 15.7981 16.2048C15.7028 16.1446 15.5754 16.1134 15.416 16.1134H15.0611V19.0428H15.4345Z" fill="white"/>
<path d="M20.4394 15.4951V16.1835H18.9519V17.1635H20.3519V17.8518H18.9519V19.6601H18.1119V15.4951H20.4394Z" fill="white"/>
</svg>
