<svg width="24" height="24" viewBox="0 0 24 24" fill="none" xmlns="http://www.w3.org/2000/svg">
<path d="M20.5527 4.96496C20.5098 4.91553 20.4573 4.87539 20.3984 4.847C20.3394 4.8186 20.2753 4.80255 20.2099 4.79984C20.1619 4.79984 15.4186 4.60784 12.3063 2.0264C12.2202 1.95506 12.1118 1.91602 12 1.91602C11.8882 1.91602 11.7799 1.95506 11.6938 2.0264C8.58146 4.61456 3.84002 4.79984 3.7901 4.79984C3.72499 4.80207 3.66101 4.81753 3.60206 4.84529C3.54311 4.87304 3.49044 4.91251 3.44723 4.96128C3.40403 5.01005 3.37121 5.0671 3.35077 5.12897C3.33033 5.19083 3.3227 5.25621 3.32834 5.32112C3.32834 5.32112 3.77282 10.4514 3.96194 12.5749C4.15394 14.6667 4.49858 18.5576 11.7936 22.0299C11.8582 22.0602 11.9287 22.076 12 22.076C12.0714 22.076 12.1418 22.0602 12.2064 22.0299C19.5024 18.5576 19.8509 14.6667 20.0381 12.5749C20.2301 10.4514 20.6717 5.32112 20.6717 5.32112C20.6768 5.2568 20.6689 5.19211 20.6485 5.13091C20.628 5.06972 20.5954 5.01328 20.5527 4.96496ZM19.0819 12.4942C18.913 14.3749 18.6019 17.8578 12 21.067C5.3981 17.8578 5.08802 14.3749 4.9181 12.4942C4.7645 10.7662 4.4381 7.06064 4.32674 5.73008C7.08034 5.52179 9.72882 4.58406 12 3.01328C14.2712 4.58406 16.9197 5.52179 19.6733 5.73008C19.5581 7.06064 19.2355 10.7691 19.0819 12.4942ZM11.3165 12.9214L13.7597 10.004C13.8414 9.90623 13.9586 9.84493 14.0856 9.83359C14.2125 9.82225 14.3387 9.86179 14.4365 9.94352C14.5343 10.0252 14.5956 10.1425 14.6069 10.2694C14.6183 10.3963 14.5787 10.5225 14.497 10.6203L11.6698 13.9947C11.6248 14.0488 11.5684 14.0923 11.5047 14.1221C11.441 14.152 11.3715 14.1675 11.3011 14.1675H11.2925C11.2207 14.166 11.1501 14.1485 11.0859 14.1161C11.0218 14.0837 10.9658 14.0373 10.9219 13.9803L9.4925 12.1275C9.4516 12.0779 9.42109 12.0205 9.40278 11.9589C9.38447 11.8973 9.37873 11.8326 9.38591 11.7686C9.39309 11.7047 9.41304 11.6429 9.44458 11.5869C9.47611 11.5308 9.51859 11.4817 9.56948 11.4424C9.62038 11.4031 9.67866 11.3744 9.74085 11.358C9.80305 11.3417 9.8679 11.338 9.93155 11.3472C9.9952 11.3564 10.0564 11.3783 10.1114 11.4115C10.1664 11.4448 10.2142 11.4888 10.2519 11.541L11.3165 12.9214Z" fill="#71808E"/>
</svg>
