<svg width="52" height="52" viewBox="0 0 52 52" fill="none" xmlns="http://www.w3.org/2000/svg">
<rect width="52" height="52" rx="16" fill="#EDEFF2"/>
<path d="M32.6666 33.5V31.8333C32.6666 30.9493 32.3154 30.1014 31.6903 29.4763C31.0652 28.8512 30.2173 28.5 29.3333 28.5H22.6666C21.7825 28.5 20.9347 28.8512 20.3096 29.4763C19.6844 30.1014 19.3333 30.9493 19.3333 31.8333V33.5M29.3333 21.8333C29.3333 23.6743 27.8409 25.1667 25.9999 25.1667C24.159 25.1667 22.6666 23.6743 22.6666 21.8333C22.6666 19.9924 24.159 18.5 25.9999 18.5C27.8409 18.5 29.3333 19.9924 29.3333 21.8333Z" stroke="#71808E" stroke-linecap="round" stroke-linejoin="round"/>
</svg>
