<svg width="52" height="52" viewBox="0 0 52 52" fill="none" xmlns="http://www.w3.org/2000/svg">
<rect width="52" height="52" rx="16" fill="#EDEFF2"/>
<path d="M23.4999 25.958L25.2677 27.7258L28.8032 24.1903M21.9291 19.2202C22.7514 19.3001 23.5594 18.9654 24.0844 18.3275C25.0767 17.1216 26.923 17.1216 27.9154 18.3275C28.4403 18.9654 29.2484 19.3001 30.0707 19.2202C31.625 19.0693 32.9305 20.3748 32.7796 21.9291C32.6997 22.7514 33.0344 23.5594 33.6723 24.0844C34.8782 25.0767 34.8782 26.923 33.6723 27.9154C33.0344 28.4403 32.6997 29.2484 32.7796 30.0707C32.9305 31.625 31.625 32.9305 30.0707 32.7796C29.2484 32.6997 28.4403 33.0344 27.9154 33.6723C26.923 34.8782 25.0767 34.8782 24.0844 33.6723C23.5594 33.0344 22.7514 32.6997 21.9291 32.7796C20.3748 32.9305 19.0693 31.625 19.2202 30.0707C19.3001 29.2484 18.9654 28.4403 18.3275 27.9154C17.1216 26.923 17.1216 25.0767 18.3275 24.0844C18.9654 23.5594 19.3001 22.7514 19.2202 21.9291C19.0693 20.3748 20.3748 19.0693 21.9291 19.2202Z" stroke="#71808E" stroke-linecap="round"/>
</svg>
