<svg width="52" height="52" viewBox="0 0 52 52" fill="none" xmlns="http://www.w3.org/2000/svg">
<rect width="52" height="52" rx="16" fill="#EDEFF2"/>
<path d="M25.1666 25.5001C24.8904 25.5001 24.6666 25.7239 24.6666 26.0001C24.6666 26.2762 24.8904 26.5001 25.1666 26.5001V26.0001V25.5001ZM26.8333 26.5001C27.1094 26.5001 27.3333 26.2762 27.3333 26.0001C27.3333 25.7239 27.1094 25.5001 26.8333 25.5001V26.0001V26.5001ZM19.3333 21.0001V21.5001H32.6666V21.0001V20.5001H19.3333V21.0001ZM35.1666 23.5001H34.6666V31.8334H35.1666H35.6666V23.5001H35.1666ZM32.6666 34.3334V33.8334H19.3333V34.3334V34.8334H32.6666V34.3334ZM16.8333 31.8334H17.3333V23.5001H16.8333H16.3333V31.8334H16.8333ZM19.3333 34.3334V33.8334C18.2287 33.8334 17.3333 32.938 17.3333 31.8334H16.8333H16.3333C16.3333 33.4903 17.6764 34.8334 19.3333 34.8334V34.3334ZM35.1666 31.8334H34.6666C34.6666 32.938 33.7712 33.8334 32.6666 33.8334V34.3334V34.8334C34.3234 34.8334 35.6666 33.4903 35.6666 31.8334H35.1666ZM32.6666 21.0001V21.5001C33.7712 21.5001 34.6666 22.3955 34.6666 23.5001H35.1666H35.6666C35.6666 21.8432 34.3234 20.5001 32.6666 20.5001V21.0001ZM19.3333 21.0001V20.5001C17.6764 20.5001 16.3333 21.8432 16.3333 23.5001H16.8333H17.3333C17.3333 22.3955 18.2287 21.5001 19.3333 21.5001V21.0001ZM24.3333 17.6667V18.1667H27.6666V17.6667V17.1667H24.3333V17.6667ZM29.3333 19.3334H28.8333V21.0001H29.3333H29.8333V19.3334H29.3333ZM22.6666 21.0001H23.1666V19.3334H22.6666H22.1666V21.0001H22.6666ZM27.6666 17.6667V18.1667C28.3109 18.1667 28.8333 18.6891 28.8333 19.3334H29.3333H29.8333C29.8333 18.1368 28.8632 17.1667 27.6666 17.1667V17.6667ZM24.3333 17.6667V17.1667C23.1366 17.1667 22.1666 18.1368 22.1666 19.3334H22.6666H23.1666C23.1666 18.6891 23.6889 18.1667 24.3333 18.1667V17.6667ZM16.8333 27.6667C16.5717 28.0929 16.5719 28.093 16.572 28.0931C16.5721 28.0931 16.5723 28.0932 16.5724 28.0933C16.5727 28.0935 16.573 28.0937 16.5734 28.0939C16.5742 28.0944 16.5753 28.0951 16.5766 28.0959C16.5792 28.0975 16.5828 28.0996 16.5874 28.1024C16.5965 28.1079 16.6096 28.1157 16.6265 28.1256C16.6602 28.1455 16.7093 28.174 16.7728 28.2098C16.9 28.2814 17.0854 28.3825 17.323 28.5032C17.798 28.7444 18.4831 29.0646 19.3302 29.3845C21.0214 30.0231 23.3748 30.6667 25.9999 30.6667V30.1667V29.6667C23.5325 29.6667 21.3025 29.0604 19.6835 28.449C18.8755 28.1439 18.2238 27.8391 17.7758 27.6116C17.5519 27.4979 17.3792 27.4036 17.2637 27.3385C17.2059 27.306 17.1624 27.2808 17.134 27.264C17.1198 27.2557 17.1094 27.2494 17.1028 27.2455C17.0995 27.2435 17.0972 27.2421 17.0959 27.2413C17.0952 27.2408 17.0948 27.2406 17.0946 27.2405C17.0945 27.2404 17.0945 27.2404 17.0945 27.2404C17.0945 27.2404 17.0946 27.2405 17.0946 27.2405C17.0947 27.2405 17.0948 27.2406 16.8333 27.6667ZM25.9999 30.1667V30.6667C28.6251 30.6667 30.9785 30.0231 32.6696 29.3845C33.5167 29.0646 34.2018 28.7444 34.6768 28.5032C34.9145 28.3825 35.0998 28.2814 35.227 28.2098C35.2906 28.174 35.3396 28.1455 35.3734 28.1256C35.3903 28.1157 35.4033 28.1079 35.4125 28.1024C35.417 28.0996 35.4206 28.0975 35.4232 28.0959C35.4246 28.0951 35.4256 28.0944 35.4264 28.0939C35.4268 28.0937 35.4272 28.0935 35.4274 28.0933C35.4276 28.0932 35.4277 28.0931 35.4278 28.0931C35.428 28.093 35.4281 28.0929 35.1666 27.6667C34.9051 27.2406 34.9052 27.2405 34.9053 27.2405C34.9053 27.2405 34.9053 27.2404 34.9054 27.2404C34.9054 27.2404 34.9054 27.2404 34.9053 27.2405C34.9051 27.2406 34.9047 27.2408 34.904 27.2413C34.9026 27.2421 34.9003 27.2435 34.897 27.2455C34.8904 27.2494 34.88 27.2557 34.8658 27.264C34.8374 27.2808 34.7939 27.306 34.7362 27.3385C34.6206 27.4036 34.4479 27.4979 34.224 27.6116C33.7761 27.8391 33.1243 28.1439 32.3163 28.449C30.6973 29.0604 28.4674 29.6667 25.9999 29.6667V30.1667ZM25.1666 26.0001V26.5001H26.8333V26.0001V25.5001H25.1666V26.0001Z" fill="#71808E"/>
</svg>
