<svg width="52" height="52" viewBox="0 0 52 52" fill="none" xmlns="http://www.w3.org/2000/svg">
<rect width="52" height="52" rx="16" fill="#EDEFF2"/>
<path d="M33.5 32.6666V26.8333C33.5 24.9923 32.0076 23.4999 30.1667 23.4999H28.4342C27.7439 23.4999 27.1842 22.9403 27.1842 22.2499V20.1666C27.1842 18.3256 25.6918 16.8333 23.8509 16.8333H21M33.5 32.6666C33.5 34.0473 32.3807 35.1666 31 35.1666H21C19.6193 35.1666 18.5 34.0473 18.5 32.6666V19.3333C18.5 17.9525 19.6193 16.8333 21 16.8333M33.5 32.6666V27.0705C33.5 25.3027 32.8755 23.5917 31.7368 22.2395L29.4318 19.5022C28.0067 17.81 25.9073 16.8333 23.6949 16.8333H21" stroke="#71808E"/>
</svg>
