<svg width="21" height="21" viewBox="0 0 21 21" fill="none" xmlns="http://www.w3.org/2000/svg">
<path d="M9.74618 0.961078C10.0028 0.346307 10.8738 0.346307 11.1304 0.961078L13.332 6.23496C13.4345 6.48066 13.6597 6.65356 13.9235 6.68927L19.7259 7.47459C20.3761 7.56259 20.6078 8.38408 20.0995 8.79889L15.6192 12.4549C15.3977 12.6357 15.2983 12.9266 15.3627 13.2051L16.7951 19.395C16.9502 20.0651 16.1966 20.5731 15.6336 20.1779L10.8692 16.834C10.6106 16.6525 10.266 16.6525 10.0074 16.834L5.243 20.178C4.67997 20.5731 3.92637 20.0652 4.08145 19.395L5.51375 13.2051C5.5782 12.9266 5.47872 12.6357 5.25725 12.4549L0.777101 8.79889C0.268776 8.38407 0.500521 7.56259 1.1507 7.47459L6.95309 6.68927C7.21692 6.65356 7.44205 6.48066 7.54461 6.23496L9.74618 0.961078Z" stroke="#71808E" stroke-miterlimit="3.3292" stroke-linecap="round" stroke-linejoin="round"/>
</svg>
