<svg width="53" height="49" viewBox="0 0 53 49" fill="none" xmlns="http://www.w3.org/2000/svg">
<path d="M28.2396 45.9357C40.4077 45.9357 50.2726 36.0708 50.2726 23.8592C50.2726 11.6476 40.3642 1.78271 28.2396 1.78271C16.0714 1.78271 6.20654 11.6476 6.20654 23.8592C6.20654 36.0708 16.0714 45.9357 28.2396 45.9357Z" fill="#F1F3F9" stroke="#D6DCE8" stroke-width="0.869152" stroke-miterlimit="10"/>
<path d="M48.8386 9.38628C49.8227 9.38628 50.6204 8.58856 50.6204 7.60452C50.6204 6.62048 49.8227 5.82275 48.8386 5.82275C47.8546 5.82275 47.0569 6.62048 47.0569 7.60452C47.0569 8.58856 47.8546 9.38628 48.8386 9.38628Z" fill="#EAEEF9"/>
<path d="M51.4461 2.43363C52.1181 2.43363 52.6629 1.88884 52.6629 1.21681C52.6629 0.544786 52.1181 0 51.4461 0C50.774 0 50.2292 0.544786 50.2292 1.21681C50.2292 1.88884 50.774 2.43363 51.4461 2.43363Z" fill="#EAEEF9"/>
<path d="M7.3799 9.34281C8.05193 9.34281 8.59671 8.79802 8.59671 8.12599C8.59671 7.45397 8.05193 6.90918 7.3799 6.90918C6.70787 6.90918 6.16309 7.45397 6.16309 8.12599C6.16309 8.79802 6.70787 9.34281 7.3799 9.34281Z" fill="#EAEEF9"/>
<path d="M2.2598 35.648C3.50785 35.648 4.51959 34.6363 4.51959 33.3882C4.51959 32.1402 3.50785 31.1284 2.2598 31.1284C1.01174 31.1284 0 32.1402 0 33.3882C0 34.6363 1.01174 35.648 2.2598 35.648Z" fill="#EAEEF9"/>
<path d="M45.8237 38.2611H10.6555C9.03861 38.2611 7.72485 36.9473 7.72485 35.3304V12.7945C7.72485 11.1775 9.03861 9.86377 10.6555 9.86377H45.8237C47.4407 9.86377 48.7544 11.1775 48.7544 12.7945V35.4314C48.6533 36.9473 47.3396 38.2611 45.8237 38.2611Z" fill="white" stroke="#D6DCE8" stroke-width="0.869152" stroke-miterlimit="10"/>
<rect x="13.8369" y="10.9009" width="6.66961" height="2.23932" fill="#F1F3F9" stroke="#D6DCE8" stroke-width="0.869152" stroke-miterlimit="10"/>
<rect x="35.7441" y="10.9009" width="6.51662" height="2.23932" fill="#F1F3F9" stroke="#D6DCE8" stroke-width="0.869152" stroke-miterlimit="10"/>
<path d="M19.3465 5.81982H15.001V11.9322H19.3465V5.81982Z" fill="white" stroke="#D6DCE8" stroke-width="0.869152" stroke-miterlimit="10"/>
<path d="M41.1773 5.81982H36.8318V11.9322H41.1773V5.81982Z" fill="white" stroke="#D6DCE8" stroke-width="0.869152" stroke-miterlimit="10"/>
<path d="M20.4582 25.3251C22.3 25.3251 23.7931 23.832 23.7931 21.9902C23.7931 20.1484 22.3 18.6553 20.4582 18.6553C18.6164 18.6553 17.1233 20.1484 17.1233 21.9902C17.1233 23.832 18.6164 25.3251 20.4582 25.3251Z" stroke="#9FA8BA" stroke-width="1.7383" stroke-miterlimit="10" stroke-linecap="round" stroke-linejoin="round"/>
<path d="M15.1021 30.7848C15.1021 27.8541 17.5274 25.4287 20.4581 25.4287C23.3888 25.4287 25.8142 27.8541 25.8142 30.7848" stroke="#9FA8BA" stroke-width="1.7383" stroke-miterlimit="10" stroke-linecap="round" stroke-linejoin="round"/>
<path d="M31.3723 21.3853H42.1855" stroke="#9FA8BA" stroke-width="1.7383" stroke-miterlimit="10" stroke-linecap="round" stroke-linejoin="round"/>
<path d="M31.3723 26.8408H35.6168" stroke="#9FA8BA" stroke-width="1.7383" stroke-miterlimit="10" stroke-linecap="round" stroke-linejoin="round"/>
<path d="M34.9452 42.5229C34.805 43.1186 34.5948 43.7493 34.3495 44.2749C33.6838 45.5713 32.6326 46.5875 31.3362 47.2532C30.0047 47.919 28.4279 48.1993 26.8512 47.8489C23.137 47.078 20.7544 43.434 21.5252 39.7198C22.2961 36.0057 25.9051 33.588 29.6192 34.3939C30.9507 34.6742 32.107 35.3399 33.0881 36.2509C34.735 37.8978 35.4357 40.2804 34.9452 42.5229Z" fill="#D6DCE8" stroke="#AAB2C5" stroke-width="0.869152" stroke-miterlimit="10"/>
<path d="M28.2527 38.1992C28.824 38.1992 29.2224 38.6625 29.2224 39.1689V40.1514H30.2048C30.7113 40.1514 31.1746 40.5497 31.1746 41.1211C31.1745 41.6924 30.7112 42.0907 30.2048 42.0908H29.2224V43.0732C29.2223 43.6446 28.7591 44.043 28.2527 44.043C27.6813 44.043 27.283 43.5797 27.283 43.0732V42.0908H26.3005C26.039 42.0908 25.7907 41.998 25.6072 41.8145C25.4237 41.6309 25.3308 41.3826 25.3308 41.1211C25.3308 40.5497 25.7941 40.1514 26.3005 40.1514H27.283V39.1689C27.283 38.5976 27.7462 38.1992 28.2527 38.1992Z" fill="white" stroke="#AAB2C5" stroke-width="0.869152"/>
</svg>
