<svg width="58" height="49" viewBox="0 0 58 49" fill="none" xmlns="http://www.w3.org/2000/svg">
<path d="M31.9239 48.0002C44.639 48.0002 54.9473 37.692 54.9473 24.9315C54.9473 12.1711 44.5936 1.86279 31.9239 1.86279C19.2089 1.86279 8.90063 12.1711 8.90063 24.9315C8.90063 37.692 19.2089 48.0002 31.9239 48.0002Z" fill="#F1F3F9" stroke="#D6DCE8" stroke-width="0.908217" stroke-miterlimit="10"/>
<path d="M53.4485 9.80816C54.4768 9.80816 55.3104 8.97459 55.3104 7.94632C55.3104 6.91805 54.4768 6.08447 53.4485 6.08447C52.4202 6.08447 51.5867 6.91805 51.5867 7.94632C51.5867 8.97459 52.4202 9.80816 53.4485 9.80816Z" fill="#EAECF0"/>
<path d="M56.1734 2.54301C56.8756 2.54301 57.4449 1.97374 57.4449 1.2715C57.4449 0.569272 56.8756 0 56.1734 0C55.4711 0 54.9019 0.569272 54.9019 1.2715C54.9019 1.97374 55.4711 2.54301 56.1734 2.54301Z" fill="#F1F3F9"/>
<path d="M10.1267 9.76274C10.829 9.76274 11.3982 9.19346 11.3982 8.49123C11.3982 7.789 10.829 7.21973 10.1267 7.21973C9.4245 7.21973 8.85522 7.789 8.85522 8.49123C8.85522 9.19346 9.4245 9.76274 10.1267 9.76274Z" fill="#EAECF0"/>
<path d="M2.36137 34.2862C3.66551 34.2862 4.72273 33.229 4.72273 31.9248C4.72273 30.6207 3.66551 29.5635 2.36137 29.5635C1.05722 29.5635 0 30.6207 0 31.9248C0 33.229 1.05722 34.2862 2.36137 34.2862Z" fill="#EAECF0"/>
<path d="M48.9529 13.3952L49.3162 42.6398C49.3162 43.6388 48.4988 44.4108 47.4997 44.4108H18.9817C17.9827 44.4108 17.1653 43.5934 17.1653 42.6398V5.03958C17.1653 4.04054 17.9827 3.26855 18.9817 3.26855H39.6437L48.9529 13.3952Z" fill="white" stroke="#D6DCE8" stroke-width="0.908217" stroke-miterlimit="10"/>
<path d="M31.0611 38.5537H30.0166C29.7896 38.5537 29.6079 38.3267 29.6079 38.0542C29.6079 37.7817 29.7896 37.5547 30.0166 37.5547H31.0611C31.2881 37.5547 31.4698 37.7817 31.4698 38.0542C31.4698 38.3721 31.2881 38.5537 31.0611 38.5537Z" fill="#D6DCE8"/>
<path d="M27.8822 38.5537H21.7971C21.5701 38.5537 21.3884 38.3267 21.3884 38.0542C21.3884 37.7817 21.5701 37.5547 21.7971 37.5547H27.8822C28.1092 37.5547 28.2909 37.7817 28.2909 38.0542C28.2909 38.3721 28.1092 38.5537 27.8822 38.5537Z" fill="#D6DCE8"/>
<path d="M35.6474 9.4009H21.9788C21.6609 9.4009 21.3884 9.12843 21.3884 8.81056C21.3884 8.49268 21.6609 8.22021 21.9788 8.22021H35.6474C35.9653 8.22021 36.2378 8.49268 36.2378 8.81056C36.2378 9.12843 35.9653 9.4009 35.6474 9.4009Z" fill="#D6DCE8"/>
<path d="M27.2464 12.6699H21.9788C21.6609 12.6699 21.3884 12.3975 21.3884 12.0796C21.3884 11.7617 21.6609 11.4893 21.9788 11.4893H27.201C27.5189 11.4893 27.7914 11.7617 27.7914 12.0796C27.7914 12.3975 27.5189 12.6699 27.2464 12.6699Z" fill="#D6DCE8"/>
<path d="M39.8752 3.26953V11.3527C39.8752 12.4879 40.8743 13.3962 42.0096 13.3962H49.1845" fill="#D6DCE8"/>
<path d="M51.1326 45.0928C50.6785 45.0928 50.2244 44.9112 49.8611 44.5025L42.2775 36.9188L42.005 37.1005C39.5528 38.9169 36.6919 39.8706 33.7856 39.8706C30.289 39.8706 26.7923 38.4628 24.2039 36.0106C21.4793 33.4222 19.9807 29.9256 19.9807 26.1111C19.9807 18.5274 26.1566 12.3516 33.7402 12.3516C38.917 12.3516 43.4581 15.0762 45.9103 19.7081C48.3171 24.2946 47.9992 29.6531 45.0475 33.9671L44.8659 34.2396L52.4949 41.8686C53.2669 42.6406 53.0852 43.4126 52.949 43.8213C52.5857 44.5479 51.8591 45.0928 51.1326 45.0928ZM33.7402 16.1207C28.2001 16.1207 23.7498 20.6163 23.7498 26.1111C23.7498 32.3778 28.8812 36.1469 33.8764 36.1469C36.919 36.1469 39.689 34.7845 41.6417 32.3323C44.0485 29.3352 44.4572 25.2937 42.777 21.797C41.0514 18.3004 37.6001 16.1207 33.7402 16.1207Z" fill="#F1F3F9" stroke="#D6DCE8" stroke-width="0.908217" stroke-miterlimit="10"/>
<path d="M29.4263 27.7481C30.0166 27.7481 30.5161 27.2486 30.5161 26.6582C30.5161 26.0679 30.0166 25.5684 29.4263 25.5684C28.8359 25.5684 28.3364 26.0679 28.3364 26.6582C28.3364 27.2486 28.8359 27.7481 29.4263 27.7481Z" fill="#AAB2C5"/>
<path d="M37.782 27.7481C38.3723 27.7481 38.8719 27.2486 38.8719 26.6582C38.8719 26.0679 38.3723 25.5684 37.782 25.5684C37.1917 25.5684 36.6921 26.0679 36.6921 26.6582C36.6921 27.294 37.1917 27.7481 37.782 27.7481Z" fill="#AAB2C5"/>
<path d="M29.3837 23.0517L26.9863 24.3462L27.3099 24.9455L29.7074 23.6511L29.3837 23.0517Z" fill="#AAB2C5"/>
<path d="M37.6339 23.0358L37.3103 23.6353L39.708 24.9295L40.0315 24.33L37.6339 23.0358Z" fill="#AAB2C5"/>
<path d="M33.6043 30.291C34.3065 30.291 34.8758 29.8641 34.8758 29.3374C34.8758 28.8107 34.3065 28.3838 33.6043 28.3838C32.902 28.3838 32.3328 28.8107 32.3328 29.3374C32.3328 29.8641 32.902 30.291 33.6043 30.291Z" fill="#AAB2C5"/>
</svg>
