<svg width="58" height="49" viewBox="0 0 58 49" fill="none" xmlns="http://www.w3.org/2000/svg">
<path d="M31.9239 48.0002C44.639 48.0002 54.9473 37.692 54.9473 24.9315C54.9473 12.1711 44.5936 1.86279 31.9239 1.86279C19.2089 1.86279 8.90063 12.1711 8.90063 24.9315C8.90063 37.692 19.2089 48.0002 31.9239 48.0002Z" fill="#F1F3F9" stroke="#D6DFE8" stroke-width="0.908217" stroke-miterlimit="10"/>
<path d="M53.4485 9.80816C54.4768 9.80816 55.3104 8.97459 55.3104 7.94632C55.3104 6.91805 54.4768 6.08447 53.4485 6.08447C52.4202 6.08447 51.5867 6.91805 51.5867 7.94632C51.5867 8.97459 52.4202 9.80816 53.4485 9.80816Z" fill="#F1F3F9"/>
<path d="M56.1734 2.54301C56.8756 2.54301 57.4449 1.97374 57.4449 1.2715C57.4449 0.569272 56.8756 0 56.1734 0C55.4711 0 54.9019 0.569272 54.9019 1.2715C54.9019 1.97374 55.4711 2.54301 56.1734 2.54301Z" fill="#F1F3F9"/>
<path d="M10.1267 9.76274C10.829 9.76274 11.3982 9.19346 11.3982 8.49123C11.3982 7.789 10.829 7.21973 10.1267 7.21973C9.4245 7.21973 8.85522 7.789 8.85522 8.49123C8.85522 9.19346 9.4245 9.76274 10.1267 9.76274Z" fill="#F1F3F9"/>
<path d="M2.36137 34.2862C3.66551 34.2862 4.72273 33.229 4.72273 31.9248C4.72273 30.6207 3.66551 29.5635 2.36137 29.5635C1.05722 29.5635 0 30.6207 0 31.9248C0 33.229 1.05722 34.2862 2.36137 34.2862Z" fill="#F1F3F9"/>
<path d="M47.5906 13.3952L47.9539 42.6398C47.9539 43.6388 47.1365 44.4108 46.1374 44.4108H17.6194C16.6204 44.4108 15.803 43.5934 15.803 42.6398V5.03958C15.803 4.04054 16.6204 3.26855 17.6194 3.26855H38.2814L47.5906 13.3952Z" fill="white" stroke="#D6DFE8" stroke-width="0.908217" stroke-miterlimit="10"/>
<path d="M29.6988 38.5537H24.1133C23.8862 38.5537 23.7046 38.3267 23.7046 38.0542C23.7046 37.7817 23.8862 37.5547 24.1133 37.5547H29.6988C29.9259 37.5547 30.1075 37.7817 30.1075 38.0542C30.1075 38.3721 29.9259 38.5537 29.6988 38.5537Z" fill="#D6DCE8"/>
<path d="M26.5199 38.5537H20.4348C20.2078 38.5537 20.0261 38.3267 20.0261 38.0542C20.0261 37.7817 20.2078 37.5547 20.4348 37.5547H26.5199C26.7469 37.5547 26.9286 37.7817 26.9286 38.0542C26.9286 38.3721 26.7469 38.5537 26.5199 38.5537Z" fill="#D5DDEA"/>
<path d="M34.2851 9.4009H20.6165C20.2986 9.4009 20.0261 9.12843 20.0261 8.81056C20.0261 8.49268 20.2986 8.22021 20.6165 8.22021H34.2851C34.603 8.22021 34.8755 8.49268 34.8755 8.81056C34.8755 9.12843 34.603 9.4009 34.2851 9.4009Z" fill="#D6DCE8"/>
<path d="M25.8841 12.6699H20.6165C20.2986 12.6699 20.0261 12.3975 20.0261 12.0796C20.0261 11.7617 20.2986 11.4893 20.6165 11.4893H25.8387C26.1566 11.4893 26.4291 11.7617 26.4291 12.0796C26.4291 12.3975 26.1566 12.6699 25.8841 12.6699Z" fill="#D6DCE8"/>
<path d="M38.2812 3.26953V11.3527C38.2812 12.4879 39.2803 13.3962 40.4156 13.3962H47.5905" fill="#D6DCE8"/>
<path d="M43.5316 30.6963H27.7758H26.0393H20.7873C20.5755 30.6963 20.3638 30.9085 20.3638 31.2056C20.3638 31.4603 20.5332 31.715 20.7873 31.715H26.0393H27.7758H43.5316C43.7434 31.715 43.9552 31.5027 43.9552 31.2056C43.9128 30.9085 43.7434 30.6963 43.5316 30.6963Z" fill="#D6DCE8"/>
<path d="M43.4893 27.0049H37.6444H35.6537H20.7873C20.5755 27.0049 20.3638 27.2171 20.3638 27.5142C20.3638 27.7689 20.5332 28.0235 20.7873 28.0235H35.6537H37.6444H43.4893C43.701 28.0235 43.9128 27.8113 43.9128 27.5142C43.8704 27.2171 43.701 27.0049 43.4893 27.0049Z" fill="#D6DCE8"/>
<path d="M43.6163 23.269H42.0916H40.5668H20.7873C20.5755 23.269 20.3638 23.4813 20.3638 23.7784C20.3638 24.033 20.5332 24.2877 20.7873 24.2877H40.5668H42.261H43.574C43.7857 24.2877 43.9975 24.0755 43.9975 23.7784C44.0399 23.5237 43.8281 23.269 43.6163 23.269Z" fill="#D6DCE8"/>
<path d="M27.0134 38.9308H20.7873C20.5755 38.9308 20.3638 38.7186 20.3638 38.4214C20.3638 38.1668 20.5332 37.9121 20.7873 37.9121H27.0134C27.2252 37.9121 27.4369 38.1243 27.4369 38.4214C27.4369 38.761 27.2252 38.9308 27.0134 38.9308Z" fill="#E3EAF2"/>
<path d="M43.7857 19.5757H38.8303H37.602H20.7873C20.5755 19.5757 20.3638 19.7879 20.3638 20.085C20.3638 20.3397 20.5332 20.5943 20.7873 20.5943H37.602H38.8303H43.7434C44.0399 20.5943 44.2093 20.3821 44.2093 20.085C44.2093 19.8303 44.0399 19.5757 43.7857 19.5757Z" fill="#D6DCE8"/>
<path d="M21.1262 41.1798H11.1305C10.0293 41.1798 9.13989 40.2885 9.13989 39.1849V25.3056C9.13989 21.4432 12.2741 18.3447 16.086 18.3447C19.8979 18.3447 23.0321 21.4856 23.0321 25.3056V39.2273C23.0745 40.2884 22.185 41.1798 21.1262 41.1798ZM13.1212 37.2325H19.1355V25.3056C19.1355 23.6503 17.7802 22.292 16.1284 22.292C14.4765 22.292 13.1212 23.6503 13.1212 25.3056V37.2325Z" fill="#D6DCE8" stroke="#AAB2C5" stroke-width="0.908217" stroke-miterlimit="10"/>
<path d="M25.2344 44.9576H7.14908C5.9208 44.9576 4.9043 43.939 4.9043 42.7081V30.6963C4.9043 29.4654 5.9208 28.4468 7.14908 28.4468H25.2344C26.4627 28.4468 27.4792 29.4654 27.4792 30.6963V42.7081C27.4792 43.939 26.4627 44.9576 25.2344 44.9576Z" fill="#D6DCE8" stroke="#AAB2C5" stroke-width="0.908217" stroke-miterlimit="10"/>
<path d="M16.1711 32.7593C17.4831 32.7595 18.5334 33.814 18.5334 35.1265C18.5334 35.9438 18.1188 36.654 17.5081 37.0786V38.8813C17.5079 39.6268 16.9174 40.22 16.1711 40.2202C15.4247 40.2202 14.8334 39.627 14.8333 38.8813V37.0786C14.2225 36.654 13.808 35.9438 13.8079 35.1265C13.8079 33.8139 14.859 32.7593 16.1711 32.7593Z" fill="white" stroke="#AAB2C5" stroke-width="0.908217"/>
</svg>
