<svg width="58" height="49" viewBox="0 0 58 49" fill="none" xmlns="http://www.w3.org/2000/svg">
<path d="M55.4474 24.9309C55.4474 31.3793 52.8135 37.192 48.5903 41.3698C44.4578 45.5023 38.736 47.9999 32.4238 47.9999C26.157 47.9999 20.4351 45.4569 16.2573 41.3698C12.034 37.192 9.40015 31.3793 9.40015 24.9309C9.40015 12.1702 19.7086 1.86182 32.4238 1.86182C45.139 1.86182 55.4474 12.2156 55.4474 24.9309Z" fill="#F1F3F9" stroke="#D6DCE8" stroke-width="0.90823" stroke-miterlimit="10"/>
<path d="M53.449 9.8087C54.4773 9.8087 55.3109 8.97512 55.3109 7.94683C55.3109 6.91855 54.4773 6.08496 53.449 6.08496C52.4207 6.08496 51.5872 6.91855 51.5872 7.94683C51.5872 8.97512 52.4207 9.8087 53.449 9.8087Z" fill="#F1F3F9"/>
<path d="M56.1741 2.54304C56.8764 2.54304 57.4456 1.97376 57.4456 1.27152C57.4456 0.56928 56.8764 0 56.1741 0C55.4719 0 54.9026 0.56928 54.9026 1.27152C54.9026 1.97376 55.4719 2.54304 56.1741 2.54304Z" fill="#F1F3F9"/>
<path d="M10.1267 9.76326C10.829 9.76326 11.3983 9.19398 11.3983 8.49174C11.3983 7.7895 10.829 7.22021 10.1267 7.22021C9.4245 7.22021 8.85522 7.7895 8.85522 8.49174C8.85522 9.19398 9.4245 9.76326 10.1267 9.76326Z" fill="#F1F3F9"/>
<path d="M2.3614 34.2858C3.66556 34.2858 4.7228 33.2286 4.7228 31.9244C4.7228 30.6202 3.66556 29.563 2.3614 29.563C1.05723 29.563 0 30.6202 0 31.9244C0 33.2286 1.05723 34.2858 2.3614 34.2858Z" fill="#F1F3F9"/>
<path d="M48.5903 12.8511V41.3695C44.4579 45.5019 38.736 47.9996 32.4238 47.9996C26.157 47.9996 20.4352 45.4565 16.2573 41.3695V12.8511H48.5903Z" fill="white" stroke="#D6DCE8" stroke-width="0.90823" stroke-miterlimit="10"/>
<path d="M30.854 25.2665L38.1835 17.937L40.3349 20.0884L30.8944 29.5289L30.884 29.5185L30.8436 29.5589L24.5178 23.2331L26.6692 21.0817L30.854 25.2665Z" fill="#D6DCE8" stroke="#AAB2C5" stroke-width="0.90823" stroke-miterlimit="10"/>
<path d="M40.6887 33.4229H24.1589V35.5118H40.6887V33.4229Z" fill="#D6DCE8"/>
<path d="M40.6887 38.0093H24.1589V40.0982H40.6887V38.0093Z" fill="#D6DCE8"/>
<path d="M36.647 42.6411H28.2004V44.73H36.647V42.6411Z" fill="#D6DCE8"/>
</svg>
