<svg width="24" height="24" viewBox="0 0 24 24" fill="none" xmlns="http://www.w3.org/2000/svg">
<mask id="path-1-inside-1_14714_3354" fill="white">
<path d="M19.3 3H5.4C5.17891 3 5 3.16102 5 3.36V20.64C5 20.839 5.17891 21 5.4 21H19.3C19.5211 21 19.7 20.839 19.7 20.64V3.36C19.7 3.16102 19.5211 3 19.3 3ZM18.9 20.28H5.8V3.72H18.9V20.28Z"/>
</mask>
<path d="M19.3 3H5.4C5.17891 3 5 3.16102 5 3.36V20.64C5 20.839 5.17891 21 5.4 21H19.3C19.5211 21 19.7 20.839 19.7 20.64V3.36C19.7 3.16102 19.5211 3 19.3 3ZM18.9 20.28H5.8V3.72H18.9V20.28Z" fill="#71808E"/>
<path d="M18.9 20.28V21.28H19.9V20.28H18.9ZM5.8 20.28H4.8V21.28H5.8V20.28ZM5.8 3.72V2.72H4.8V3.72H5.8ZM18.9 3.72H19.9V2.72H18.9V3.72ZM19.3 3V2H5.4V3V4H19.3V3ZM5.4 3V2C4.72833 2 4 2.51223 4 3.36H5H6C6 3.8098 5.62948 4 5.4 4V3ZM5 3.36H4V20.64H5H6V3.36H5ZM5 20.64H4C4 21.4878 4.72833 22 5.4 22V21V20C5.62948 20 6 20.1902 6 20.64H5ZM5.4 21V22H19.3V21V20H5.4V21ZM19.3 21V22C19.9717 22 20.7 21.4878 20.7 20.64H19.7H18.7C18.7 20.1902 19.0705 20 19.3 20V21ZM19.7 20.64H20.7V3.36H19.7H18.7V20.64H19.7ZM19.7 3.36H20.7C20.7 2.51223 19.9717 2 19.3 2V3V4C19.0705 4 18.7 3.8098 18.7 3.36H19.7ZM18.9 20.28V19.28H5.8V20.28V21.28H18.9V20.28ZM5.8 20.28H6.8V3.72H5.8H4.8V20.28H5.8ZM5.8 3.72V4.72H18.9V3.72V2.72H5.8V3.72ZM18.9 3.72H17.9V20.28H18.9H19.9V3.72H18.9Z" fill="#71808E" mask="url(#path-1-inside-1_14714_3354)"/>
<path d="M7.20176 5.77859H8.16543V8.65859C8.16543 8.85758 8.34434 9.01859 8.56543 9.01859C8.78652 9.01859 8.96543 8.85758 8.96543 8.65859V5.77859H9.9291C10.1502 5.77859 10.3291 5.61758 10.3291 5.41859C10.3291 5.21961 10.1502 5.05859 9.9291 5.05859H7.20176C6.98066 5.05859 6.80176 5.21961 6.80176 5.41859C6.80176 5.61758 6.98066 5.77859 7.20176 5.77859ZM11.9275 9.01859C12.2607 9.01859 12.5744 8.90187 12.81 8.68953L13.0059 8.51316L13.3814 8.8966C13.4604 8.97746 13.5709 9.01859 13.6814 9.01859C13.7756 9.01859 13.8697 8.98906 13.9459 8.92859C14.1115 8.79711 14.1275 8.56965 13.9814 8.42059L13.5727 8.00311L13.8826 7.72414C14.0389 7.58352 14.0389 7.3557 13.8826 7.21508C13.7264 7.07445 13.4732 7.07445 13.317 7.21508L13.0427 7.46192L11.6705 6.06055C11.6029 5.98777 11.6139 5.87914 11.6947 5.81867C11.776 5.7582 11.8971 5.76734 11.9643 5.84047L12.0283 5.90973C12.1697 6.06195 12.4217 6.0834 12.5916 5.95613C12.7615 5.82887 12.7846 5.60176 12.6432 5.44918L12.5791 5.37957C12.2291 5.00164 11.6029 4.95066 11.1826 5.26531C10.7631 5.58031 10.7061 6.14387 11.0631 6.52918L11.26 6.73025C10.9634 6.9335 10.7657 7.20066 10.6936 7.51355C10.5811 8.00293 10.7971 8.46629 11.0451 8.68953C11.2811 8.90152 11.5943 9.01859 11.9275 9.01859ZM12.476 7.97199L12.2443 8.18047C12.0748 8.33305 11.7807 8.3334 11.6111 8.18012C11.5229 8.10102 11.4271 7.87602 11.4768 7.6598C11.5127 7.50389 11.6204 7.37515 11.7909 7.27238L12.476 7.97199ZM16.5205 9.01859C16.9107 9.01859 17.2869 8.89871 17.6088 8.6716C17.783 8.54891 17.8135 8.32285 17.6771 8.16641C17.5408 8.00996 17.2896 7.98219 17.1158 8.10488C16.9357 8.23145 16.7299 8.29859 16.5205 8.29859C15.9002 8.29859 15.3955 7.73328 15.3955 7.03859C15.3955 6.34391 15.9002 5.77859 16.5205 5.77859C16.7299 5.77859 16.9357 5.84574 17.1158 5.9723C17.2896 6.095 17.5408 6.06758 17.6771 5.91078C17.8135 5.75434 17.783 5.52828 17.6088 5.40559C17.2869 5.17848 16.9107 5.05859 16.5205 5.05859C15.4592 5.05859 14.5955 5.94699 14.5955 7.03859C14.5955 8.1302 15.4592 9.01859 16.5205 9.01859ZM7.65176 11.3519C7.63184 11.3375 7.60801 11.3266 7.58379 11.3192C7.55996 11.3087 7.53574 11.3013 7.50801 11.2978C7.45996 11.2869 7.40371 11.2869 7.35176 11.2978C7.32793 11.3013 7.30371 11.3087 7.27988 11.3192C7.25566 11.3266 7.23184 11.3375 7.20801 11.3519C7.1877 11.3663 7.16777 11.3807 7.14785 11.3948C7.07598 11.4634 7.03184 11.5569 7.03184 11.6507C7.03184 11.7478 7.07168 11.8378 7.14785 11.9063C7.1877 11.9387 7.23184 11.9675 7.27988 11.9854C7.32793 12.0034 7.37988 12.0107 7.43184 12.0107C7.48379 12.0107 7.53574 12.0034 7.58379 11.9854C7.63184 11.9675 7.67598 11.9387 7.71191 11.9063C7.7877 11.8378 7.83184 11.7478 7.83184 11.6507C7.83184 11.5569 7.7877 11.4634 7.71191 11.3948C7.6959 11.3807 7.67598 11.3663 7.65176 11.3519ZM9.63184 11.2911C9.41074 11.2911 9.23184 11.4521 9.23184 11.6511C9.23184 11.8501 9.41074 12.0111 9.63184 12.0111H17.4986C17.7197 12.0111 17.8986 11.8501 17.8986 11.6511C17.8986 11.4521 17.7197 11.2911 17.4986 11.2911H9.63184ZM7.71582 13.7063C7.61973 13.6234 7.48379 13.5836 7.35176 13.6089C7.32793 13.6125 7.30371 13.6198 7.27988 13.6269C7.25566 13.6378 7.23184 13.6487 7.20801 13.6631C7.1877 13.6736 7.16777 13.688 7.14785 13.7063C7.11191 13.7387 7.08379 13.778 7.06387 13.8213C7.04395 13.868 7.03184 13.9148 7.03184 13.9619C7.03184 14.0087 7.04395 14.0554 7.06387 14.0987C7.08379 14.1419 7.11191 14.1813 7.14785 14.2136C7.1877 14.2498 7.23184 14.2748 7.27988 14.2931C7.32793 14.311 7.37988 14.3219 7.43184 14.3219C7.54004 14.3219 7.64004 14.2822 7.71582 14.2136C7.75176 14.1813 7.77988 14.1419 7.7998 14.0987C7.81973 14.0554 7.83184 14.0087 7.83184 13.9619C7.83184 13.9148 7.81973 13.868 7.7998 13.8213C7.77988 13.778 7.75176 13.7387 7.71582 13.7063ZM17.4986 13.6012H9.63184C9.41074 13.6012 9.23184 13.7622 9.23184 13.9612C9.23184 14.1602 9.41074 14.3212 9.63184 14.3212H17.4986C17.7197 14.3212 17.8986 14.1602 17.8986 13.9612C17.8986 13.7622 17.7197 13.6012 17.4986 13.6012ZM7.71582 16.0175C7.6959 15.9992 7.67598 15.9848 7.65176 15.9707C7.63184 15.9598 7.60801 15.9489 7.58379 15.938C7.55996 15.9275 7.53574 15.9236 7.50801 15.9166C7.43184 15.9022 7.35176 15.9092 7.27988 15.938C7.22793 15.9563 7.1877 15.9813 7.14785 16.0175C7.11191 16.0498 7.08379 16.0892 7.06387 16.1325C7.04395 16.1757 7.03184 16.2225 7.03184 16.2692C7.03184 16.3666 7.07168 16.4566 7.14785 16.5248C7.1877 16.5575 7.23184 16.5863 7.27988 16.6043C7.32793 16.6222 7.37988 16.6292 7.43184 16.6292C7.48379 16.6292 7.53574 16.6222 7.58379 16.6043C7.63184 16.5863 7.67598 16.5575 7.71582 16.5248C7.7877 16.4566 7.83184 16.3666 7.83184 16.2692C7.83184 16.2225 7.81973 16.1757 7.7998 16.1325C7.77988 16.0892 7.75176 16.0498 7.71582 16.0175ZM17.4986 15.911H9.63184C9.41074 15.911 9.23184 16.072 9.23184 16.271C9.23184 16.47 9.41074 16.631 9.63184 16.631H17.4986C17.7197 16.631 17.8986 16.47 17.8986 16.271C17.8986 16.072 17.7197 15.911 17.4986 15.911ZM7.71582 18.3248C7.6959 18.3107 7.67598 18.2963 7.65176 18.2819C7.63184 18.2675 7.60801 18.2566 7.58379 18.2492C7.55996 18.2387 7.53574 18.2313 7.51191 18.2278C7.45996 18.2169 7.40371 18.2169 7.35176 18.2278C7.32793 18.2313 7.30371 18.2387 7.27988 18.2492C7.25566 18.2566 7.23184 18.2675 7.20801 18.2819C7.1877 18.2963 7.16777 18.3107 7.14785 18.3248C7.11191 18.361 7.08379 18.4007 7.06387 18.4436C7.04004 18.4869 7.03184 18.5336 7.03184 18.5807C7.03184 18.6778 7.07168 18.7678 7.14785 18.8363C7.1877 18.8687 7.23184 18.8936 7.27988 18.9119C7.32793 18.9298 7.37988 18.9407 7.43184 18.9407C7.54004 18.9407 7.64004 18.9045 7.71582 18.8363C7.7877 18.7678 7.83184 18.6778 7.83184 18.5807C7.83184 18.5336 7.81973 18.4869 7.7998 18.4436C7.77988 18.4007 7.75176 18.361 7.71582 18.3248ZM17.4986 18.2211H9.63184C9.41074 18.2211 9.23184 18.3821 9.23184 18.5811C9.23184 18.7801 9.41074 18.9411 9.63184 18.9411H17.4986C17.7197 18.9411 17.8986 18.7801 17.8986 18.5811C17.8986 18.3821 17.7197 18.2211 17.4986 18.2211Z" fill="#71808E"/>
</svg>
