<svg width="32" height="32" viewBox="0 0 32 32" fill="none" xmlns="http://www.w3.org/2000/svg">
<g clip-path="url(#clip0_14677_1506)">
<path d="M20.0666 6.66668C21.3689 6.92076 22.5658 7.55769 23.504 8.49592C24.4423 9.43416 25.0792 10.631 25.3333 11.9333M20.0666 1.33334C22.7723 1.63393 25.2954 2.84558 27.2216 4.76935C29.1478 6.69313 30.3626 9.21469 30.6666 11.92M29.3333 22.56V26.56C29.3348 26.9313 29.2587 27.2989 29.11 27.6391C28.9612 27.9794 28.743 28.2848 28.4694 28.5358C28.1958 28.7869 27.8727 28.978 27.521 29.097C27.1692 29.2159 26.7964 29.2601 26.4266 29.2267C22.3237 28.7809 18.3826 27.3789 14.92 25.1333C11.6984 23.0862 8.96707 20.3549 6.91995 17.1333C4.66659 13.6549 3.26428 9.69467 2.82662 5.57334C2.7933 5.20463 2.83712 4.83302 2.95529 4.48218C3.07345 4.13133 3.26338 3.80893 3.51297 3.5355C3.76257 3.26208 4.06636 3.04362 4.40501 2.89404C4.74365 2.74446 5.10974 2.66703 5.47995 2.66668H9.47995C10.127 2.66031 10.7543 2.88945 11.245 3.31139C11.7356 3.73333 12.0561 4.31927 12.1466 4.96001C12.3154 6.2401 12.6286 7.49698 13.08 8.70668C13.2593 9.18391 13.2982 9.70256 13.1918 10.2012C13.0855 10.6998 12.8384 11.1575 12.48 11.52L10.7866 13.2133C12.6847 16.5514 15.4486 19.3153 18.7866 21.2133L20.48 19.52C20.8425 19.1615 21.3002 18.9145 21.7988 18.8081C22.2974 18.7018 22.8161 18.7406 23.2933 18.92C24.503 19.3714 25.7599 19.6845 27.04 19.8533C27.6876 19.9447 28.2792 20.271 28.702 20.77C29.1248 21.2691 29.3495 21.9061 29.3333 22.56Z" stroke="#1D2939" stroke-width="2" stroke-linecap="round" stroke-linejoin="round"/>
</g>
<defs>
<clipPath id="clip0_14677_1506">
<rect width="32" height="32" fill="white"/>
</clipPath>
</defs>
</svg>
