<svg width="140" height="40" viewBox="0 0 140 40" fill="none" xmlns="http://www.w3.org/2000/svg">
<path d="M8.31613 23.1372C7.48408 24.5617 5.40397 24.5617 4.57192 23.1372L0.292826 15.8114C-0.53922 14.3869 0.500838 12.6063 2.16493 12.6063H10.7231C12.3872 12.6063 13.4273 14.3869 12.5952 15.8114L8.31613 23.1372Z" fill="#15B79E"/>
<rect x="18.4193" y="9" width="6.44404" height="22.5541" rx="2.57762" transform="rotate(30 18.4193 9)" fill="#06184D"/>
<path d="M43.8869 11.7594L37.5944 25.9151H34.2717L28 11.7594H31.6343L36.0577 21.8706L40.5434 11.7594H43.8869Z" fill="#06184D"/>
<path d="M49.6686 23.549C50.2501 23.549 50.7623 23.4682 51.2053 23.3064C51.6622 23.1311 52.0845 22.8615 52.4721 22.4975L54.1958 24.3175C53.1436 25.4904 51.6068 26.0768 49.5855 26.0768C48.3256 26.0768 47.2111 25.8409 46.242 25.3691C45.2729 24.8837 44.5252 24.2164 43.9991 23.367C43.473 22.5177 43.21 21.5538 43.21 20.4752C43.21 19.4102 43.4661 18.453 43.9784 17.6036C44.5045 16.7408 45.2175 16.0735 46.1174 15.6016C47.0311 15.1163 48.0557 14.8736 49.1909 14.8736C50.257 14.8736 51.2261 15.0961 52.0983 15.541C52.9706 15.9724 53.6628 16.606 54.175 17.4419C54.7011 18.2642 54.9642 19.2417 54.9642 20.3741L46.6989 21.9312C46.9342 22.4705 47.3011 22.875 47.7995 23.1446C48.3118 23.4142 48.9348 23.549 49.6686 23.549ZM49.1909 17.2599C48.3741 17.2599 47.7095 17.516 47.1973 18.0283C46.685 18.5406 46.4151 19.2484 46.3874 20.1517L51.8284 19.1203C51.6761 18.5541 51.3646 18.1025 50.8938 17.7654C50.4231 17.4284 49.8555 17.2599 49.1909 17.2599Z" fill="#06184D"/>
<path d="M60.2361 16.4712C60.6238 15.9454 61.143 15.5477 61.7937 15.2781C62.4582 15.0084 63.2197 14.8736 64.0781 14.8736V17.7856C63.7181 17.7587 63.4758 17.7452 63.3512 17.7452C62.4236 17.7452 61.6968 18.0013 61.1707 18.5137C60.6446 19.0125 60.3815 19.7674 60.3815 20.7786V25.9151H57.1418V15.0354H60.2361V16.4712Z" fill="#06184D"/>
<path d="M66.0044 15.0354H69.244V25.9151H66.0044V15.0354ZM67.6242 13.5187C67.0289 13.5187 66.5443 13.3502 66.1705 13.0131C65.7967 12.6761 65.6098 12.2582 65.6098 11.7594C65.6098 11.2605 65.7967 10.8426 66.1705 10.5056C66.5443 10.1685 67.0289 10 67.6242 10C68.2195 10 68.7041 10.1618 69.0779 10.4853C69.4517 10.8089 69.6386 11.2133 69.6386 11.6987C69.6386 12.2245 69.4517 12.6626 69.0779 13.0131C68.7041 13.3502 68.2195 13.5187 67.6242 13.5187Z" fill="#06184D"/>
<path d="M75.4073 15.2781H78.2732V17.7048H75.4904V25.9151H72.2507V14.7927C72.2507 13.5524 72.6245 12.5683 73.3722 11.8402C74.1336 11.1122 75.1997 10.7482 76.5703 10.7482C77.0549 10.7482 77.5118 10.8022 77.9409 10.91C78.384 11.0044 78.7509 11.1459 79.0416 11.3347L78.1901 13.6198C77.8163 13.3637 77.3802 13.2356 76.8818 13.2356C75.8988 13.2356 75.4073 13.7614 75.4073 14.8129V15.2781Z" fill="#06184D"/>
<path d="M91.1523 15.0354V24.095C91.1523 26.0903 90.6331 27.5733 89.5947 28.544C88.5564 29.5147 87.0473 30 85.0675 30C84.0153 30 83.0185 29.8719 82.077 29.6158C81.1494 29.3596 80.3672 28.9889 79.7303 28.5035L81.0179 26.2386C81.4886 26.6161 82.0632 26.9127 82.7416 27.1284C83.42 27.3441 84.1053 27.452 84.7975 27.452C85.8774 27.452 86.6665 27.2093 87.165 26.724C87.6634 26.2386 87.9126 25.4971 87.9126 24.4995V24.1355C87.4972 24.5399 87.0057 24.85 86.4381 25.0657C85.8705 25.2814 85.2613 25.3893 84.6106 25.3893C83.1431 25.3893 81.9801 24.9848 81.1217 24.1759C80.2633 23.3536 79.8342 22.1267 79.8342 20.4955V15.0354H83.0738V20.0303C83.0738 21.7964 83.8284 22.6795 85.3375 22.6795C86.1128 22.6795 86.7358 22.4368 87.2065 21.9515C87.6772 21.4526 87.9126 20.7179 87.9126 19.7472V15.0354H91.1523Z" fill="#06184D"/>
<path d="M98.9962 26.1577C97.8471 26.1577 96.7326 26.0094 95.6527 25.7128C94.5867 25.4028 93.7283 25.0051 93.0776 24.5197L94.2198 22.0526C94.8428 22.4975 95.5835 22.8547 96.4419 23.1244C97.3002 23.394 98.1586 23.5288 99.017 23.5288C99.9723 23.5288 100.678 23.394 101.135 23.1244C101.592 22.8413 101.821 22.4705 101.821 22.0121C101.821 21.6751 101.682 21.3987 101.405 21.183C101.142 20.9538 100.796 20.7718 100.367 20.637C99.9515 20.5022 99.3839 20.3539 98.664 20.1921C97.5564 19.936 96.6496 19.6798 95.9435 19.4237C95.2374 19.1675 94.6282 18.7563 94.116 18.1901C93.6175 17.6239 93.3683 16.8689 93.3683 15.9252C93.3683 15.1028 93.5968 14.3613 94.0537 13.7007C94.5105 13.0266 95.1958 12.4941 96.1096 12.1031C97.0372 11.7122 98.1656 11.5167 99.4946 11.5167C100.422 11.5167 101.329 11.6245 102.215 11.8402C103.101 12.0559 103.877 12.366 104.541 12.7705L103.503 15.2578C102.16 14.5163 100.817 14.1456 99.4739 14.1456C98.5324 14.1456 97.8333 14.2939 97.3764 14.5905C96.9334 14.8871 96.7119 15.2781 96.7119 15.7634C96.7119 16.2487 96.968 16.6127 97.4802 16.8554C98.0063 17.0846 98.8024 17.3138 99.8685 17.543C100.976 17.7991 101.883 18.0553 102.589 18.3114C103.295 18.5676 103.897 18.972 104.396 19.5248C104.908 20.0775 105.164 20.8258 105.164 21.7695C105.164 22.5784 104.929 23.3199 104.458 23.9939C104.001 24.6545 103.309 25.1803 102.381 25.5713C101.454 25.9623 100.325 26.1577 98.9962 26.1577Z" fill="#06184D"/>
<path d="M118.573 15.0354V25.9151H115.479V24.6613C114.676 25.605 113.513 26.0768 111.99 26.0768C110.938 26.0768 109.983 25.8477 109.124 25.3893C108.28 24.9309 107.615 24.277 107.131 23.4277C106.646 22.5784 106.404 21.5942 106.404 20.4752C106.404 19.3563 106.646 18.3721 107.131 17.5228C107.615 16.6734 108.28 16.0195 109.124 15.5612C109.983 15.1028 110.938 14.8736 111.99 14.8736C113.416 14.8736 114.531 15.3118 115.334 16.1881V15.0354H118.573ZM112.551 23.4884C113.368 23.4884 114.046 23.2187 114.586 22.6795C115.126 22.1267 115.396 21.392 115.396 20.4752C115.396 19.5585 115.126 18.8305 114.586 18.2912C114.046 17.7385 113.368 17.4621 112.551 17.4621C111.72 17.4621 111.035 17.7385 110.495 18.2912C109.955 18.8305 109.685 19.5585 109.685 20.4752C109.685 21.392 109.955 22.1267 110.495 22.6795C111.035 23.2187 111.72 23.4884 112.551 23.4884Z" fill="#06184D"/>
<path d="M124.729 15.2781H127.595V17.7048H124.812V25.9151H121.573V14.7927C121.573 13.5524 121.947 12.5683 122.694 11.8402C123.456 11.1122 124.522 10.7482 125.892 10.7482C126.377 10.7482 126.834 10.8022 127.263 10.91C127.706 11.0044 128.073 11.1459 128.364 11.3347L127.512 13.6198C127.138 13.3637 126.702 13.2356 126.204 13.2356C125.221 13.2356 124.729 13.7614 124.729 14.8129V15.2781Z" fill="#06184D"/>
<path d="M134.704 23.549C135.286 23.549 135.798 23.4682 136.241 23.3064C136.698 23.1311 137.12 22.8615 137.508 22.4975L139.232 24.3175C138.179 25.4904 136.643 26.0768 134.621 26.0768C133.361 26.0768 132.247 25.8409 131.278 25.3691C130.309 24.8837 129.561 24.2164 129.035 23.367C128.509 22.5177 128.246 21.5538 128.246 20.4752C128.246 19.4102 128.502 18.453 129.014 17.6036C129.54 16.7408 130.253 16.0735 131.153 15.6016C132.067 15.1163 133.091 14.8736 134.227 14.8736C135.293 14.8736 136.262 15.0961 137.134 15.541C138.006 15.9724 138.699 16.606 139.211 17.4419C139.737 18.2642 140 19.2417 140 20.3741L131.735 21.9312C131.97 22.4705 132.337 22.875 132.835 23.1446C133.348 23.4142 133.971 23.549 134.704 23.549ZM134.227 17.2599C133.41 17.2599 132.745 17.516 132.233 18.0283C131.721 18.5406 131.451 19.2484 131.423 20.1517L136.864 19.1203C136.712 18.5541 136.4 18.1025 135.93 17.7654C135.459 17.4284 134.891 17.2599 134.227 17.2599Z" fill="#06184D"/>
</svg>
