<svg width="22" height="22" viewBox="0 0 22 22" fill="none" xmlns="http://www.w3.org/2000/svg">
<path d="M10.0834 10.5002C9.80727 10.5002 9.58342 10.724 9.58342 11.0002C9.58342 11.2763 9.80727 11.5002 10.0834 11.5002V11.0002V10.5002ZM11.9167 11.5002C12.1929 11.5002 12.4167 11.2763 12.4167 11.0002C12.4167 10.724 12.1929 10.5002 11.9167 10.5002V11.0002V11.5002ZM3.66675 5.50016V6.00016H18.3334V5.50016V5.00016H3.66675V5.50016ZM21.0834 8.25016H20.5834V17.4168H21.0834H21.5834V8.25016H21.0834ZM18.3334 20.1668V19.6668H3.66675V20.1668V20.6668H18.3334V20.1668ZM0.916748 17.4168H1.41675V8.25016H0.916748H0.416748V17.4168H0.916748ZM3.66675 20.1668V19.6668C2.42411 19.6668 1.41675 18.6595 1.41675 17.4168H0.916748H0.416748C0.416748 19.2118 1.87182 20.6668 3.66675 20.6668V20.1668ZM21.0834 17.4168H20.5834C20.5834 18.6595 19.5761 19.6668 18.3334 19.6668V20.1668V20.6668C20.1283 20.6668 21.5834 19.2118 21.5834 17.4168H21.0834ZM18.3334 5.50016V6.00016C19.5761 6.00016 20.5834 7.00752 20.5834 8.25016H21.0834H21.5834C21.5834 6.45524 20.1283 5.00016 18.3334 5.00016V5.50016ZM3.66675 5.50016V5.00016C1.87182 5.00016 0.416748 6.45524 0.416748 8.25016H0.916748H1.41675C1.41675 7.00752 2.42411 6.00016 3.66675 6.00016V5.50016ZM9.16675 1.8335V2.3335H12.8334V1.8335V1.3335H9.16675V1.8335ZM14.6667 3.66683H14.1667V5.50016H14.6667H15.1667V3.66683H14.6667ZM7.33342 5.50016H7.83342V3.66683H7.33342H6.83342V5.50016H7.33342ZM12.8334 1.8335V2.3335C13.5698 2.3335 14.1667 2.93045 14.1667 3.66683H14.6667H15.1667C15.1667 2.37816 14.1221 1.3335 12.8334 1.3335V1.8335ZM9.16675 1.8335V1.3335C7.87808 1.3335 6.83342 2.37816 6.83342 3.66683H7.33342H7.83342C7.83342 2.93045 8.43037 2.3335 9.16675 2.3335V1.8335ZM0.916748 12.8335C0.65524 13.2597 0.655373 13.2597 0.655523 13.2598C0.655596 13.2599 0.655764 13.26 0.65591 13.2601C0.656202 13.2602 0.656562 13.2605 0.656991 13.2607C0.657849 13.2613 0.65898 13.2619 0.660383 13.2628C0.663189 13.2645 0.667083 13.2669 0.672052 13.2698C0.681989 13.2758 0.696226 13.2843 0.714661 13.2952C0.751529 13.3169 0.805198 13.3481 0.874845 13.3873C1.01412 13.4658 1.21741 13.5766 1.47811 13.709C1.99931 13.9737 2.75125 14.3251 3.68108 14.6763C5.53774 15.3774 8.1203 16.0835 11.0001 16.0835V15.5835V15.0835C8.27801 15.0835 5.8189 14.4146 4.03436 13.7407C3.14359 13.4044 2.42504 13.0683 1.93091 12.8174C1.68394 12.692 1.49335 12.588 1.36566 12.516C1.30183 12.4801 1.25374 12.4521 1.22223 12.4336C1.20647 12.4243 1.19486 12.4174 1.1875 12.4129C1.18382 12.4107 1.1812 12.4091 1.17965 12.4082C1.17888 12.4077 1.17838 12.4074 1.17814 12.4073C1.17803 12.4072 1.17798 12.4072 1.178 12.4072C1.17801 12.4072 1.17807 12.4072 1.17808 12.4072C1.17816 12.4073 1.17826 12.4073 0.916748 12.8335ZM11.0001 15.5835V16.0835C13.8799 16.0835 16.4624 15.3774 18.3191 14.6763C19.2489 14.3251 20.0009 13.9737 20.5221 13.709C20.7828 13.5766 20.986 13.4658 21.1253 13.3873C21.195 13.3481 21.2486 13.3169 21.2855 13.2952C21.3039 13.2843 21.3182 13.2758 21.3281 13.2698C21.3331 13.2669 21.337 13.2645 21.3398 13.2628C21.3412 13.2619 21.3423 13.2613 21.3432 13.2607C21.3436 13.2605 21.344 13.2602 21.3443 13.2601C21.3444 13.26 21.3446 13.2599 21.3446 13.2598C21.3448 13.2597 21.3449 13.2597 21.0834 12.8335C20.8219 12.4073 20.822 12.4073 20.8221 12.4072C20.8221 12.4072 20.8222 12.4072 20.8222 12.4072C20.8222 12.4072 20.8221 12.4072 20.822 12.4073C20.8218 12.4074 20.8213 12.4077 20.8205 12.4082C20.819 12.4091 20.8163 12.4107 20.8127 12.4129C20.8053 12.4174 20.7937 12.4243 20.7779 12.4336C20.7464 12.4521 20.6983 12.4801 20.6345 12.516C20.5068 12.588 20.3162 12.692 20.0693 12.8174C19.5751 13.0683 18.8566 13.4044 17.9658 13.7407C16.1813 14.4146 13.7222 15.0835 11.0001 15.0835V15.5835ZM10.0834 11.0002V11.5002H11.9167V11.0002V10.5002H10.0834V11.0002Z" fill="#4F5862"/>
</svg>
