<svg width="32" height="32" viewBox="0 0 32 32" fill="none" xmlns="http://www.w3.org/2000/svg">
<path d="M18.5259 18.1362H17.3309V17.5126C18.249 16.9168 18.8869 15.9266 18.9999 14.7825C19.9125 14.7072 20.6346 13.9497 20.6346 13.0171C20.6346 12.4778 20.3887 12.0004 20.0089 11.6737C20.2282 11.4932 20.371 11.2218 20.371 10.9161V10.8685C20.371 10.4831 20.1462 10.1508 19.8217 9.9891C19.7541 8.23034 18.589 6.70413 16.9155 6.17251C16.8014 5.69184 16.3706 5.33301 15.8556 5.33301H14.8034C14.2884 5.33301 13.8576 5.69295 13.7435 6.17362C12.0723 6.6997 10.9104 8.22257 10.8419 9.9868C10.5152 10.1474 10.2881 10.4808 10.2881 10.8684V10.916C10.2881 11.2217 10.431 11.4919 10.6503 11.6736C10.2704 12.0003 10.0245 12.4788 10.0245 13.017C10.0245 13.9485 10.7466 14.7071 11.6592 14.7825C11.7722 15.9266 12.4101 16.9167 13.3283 17.5125V18.135L12.1399 18.1361C9.98574 18.1361 8.23486 19.8882 8.23486 22.0411V24.9175C8.23486 25.8822 9.01899 26.6663 9.98367 26.6663H20.6824C21.647 26.6663 22.4312 25.8822 22.4312 24.9175V22.0411C22.4312 19.887 20.6788 18.1362 18.5259 18.1362ZM17.775 18.8007V20.884C17.775 20.9826 17.7285 21.0723 17.6465 21.1276C17.5656 21.1841 17.466 21.1963 17.3729 21.1609L15.8922 20.5993L17.2511 19.0211C17.3032 18.9613 17.332 18.8838 17.332 18.804V18.7996H17.775V18.8007ZM14.7381 22.5365H15.9265L16.3052 26.0021H14.3604L14.7381 22.5365ZM15.8545 21.8719H14.8112L14.8765 21.2694L15.3317 21.0967L15.7892 21.2705L15.8545 21.8719ZM19.0187 14.1214V11.9141C19.5569 11.9927 19.9712 12.4579 19.9712 13.0172C19.9701 13.5776 19.5558 14.0428 19.0187 14.1214ZM19.1549 9.88291H16.9498V6.89366C18.1891 7.38762 19.053 8.54278 19.1549 9.88291ZM14.3769 6.42527C14.3769 6.18936 14.5685 5.99776 14.8044 5.99776H15.8565C16.0924 5.99776 16.284 6.18937 16.284 6.42527V9.88291H14.3757L14.3769 6.42527ZM13.7123 6.89374V9.88299H11.5106C11.6124 8.53844 12.4741 7.38329 13.7123 6.89374ZM11.2746 11.2385C11.0974 11.2385 10.9534 11.0946 10.9534 10.9174V10.8697C10.9534 10.697 11.0919 10.5574 11.2624 10.5508H19.3972C19.5688 10.5574 19.7073 10.697 19.7073 10.8697V10.9174C19.7073 11.0946 19.5633 11.2385 19.3861 11.2385H11.2746ZM10.691 13.0183C10.691 12.459 11.1052 11.9939 11.6434 11.9152V14.1226C11.1052 14.0428 10.691 13.5776 10.691 13.0183ZM12.3068 14.4194V11.9031H18.3528V14.4194C18.3528 16.0862 16.9961 17.4429 15.3293 17.4429C13.6635 17.4429 12.3068 16.0862 12.3068 14.4194ZM15.3304 18.1075C15.8022 18.1075 16.2519 18.0156 16.6661 17.8528V18.4509C16.6661 18.4564 16.6628 18.4619 16.6628 18.4675C16.6628 18.473 16.6661 18.4786 16.6661 18.4841V18.6801L15.3304 20.2318L13.9947 18.6801V17.8517C14.4089 18.0156 14.8586 18.1075 15.3304 18.1075ZM13.4099 19.0213L14.7689 20.5995L13.2904 21.161C13.1973 21.1954 13.0976 21.1843 13.0168 21.1278C12.9359 21.0713 12.8883 20.9827 12.8883 20.8841V18.8008H13.3291V18.8053C13.3302 18.8839 13.359 18.9603 13.4099 19.0213ZM8.89899 24.9178V22.0414C8.89899 20.2538 10.3521 18.8007 12.1397 18.8007H12.2239V20.884C12.2239 21.1996 12.379 21.4953 12.6392 21.6747C12.802 21.7877 12.9936 21.8453 13.1852 21.8453C13.3004 21.8453 13.4156 21.8243 13.5264 21.7833L14.1798 21.5352L14.1067 22.2019C14.1067 22.2031 14.1056 22.2042 14.1056 22.2053V22.2064L13.6914 26.0031H9.98226C9.38529 26.002 8.89899 25.5159 8.89899 24.9178ZM21.7664 24.9178C21.7664 25.5159 21.2802 26.0021 20.6821 26.0021H16.973L16.4857 21.5354L17.138 21.7823C17.2488 21.8244 17.364 21.8444 17.478 21.8444C17.6696 21.8444 17.8612 21.7868 18.024 21.6738C18.2832 21.4944 18.4394 21.1987 18.4394 20.883V18.7997H18.5257C20.3133 18.7997 21.7665 20.2539 21.7665 22.0405L21.7664 24.9178Z" fill="#1D2939"/>
</svg>
